<svg preserveAspectRatio="none" width="100%" height="100%" overflow="visible" style="display: block;" viewBox="0 0 458.249 89.3818" fill="none" xmlns="http://www.w3.org/2000/svg">
<path id="Subtract" d="M456.249 0C457.354 0 458.249 0.895437 458.249 2V3.44922C458.042 3.37639 457.819 3.33499 457.587 3.33496L454.249 3.33496C453.145 3.33511 452.249 4.2306 452.249 5.33496V10.6738C452.249 11.7782 453.145 12.6737 454.249 12.6738H457.587C457.819 12.6738 458.042 12.6315 458.249 12.5586V76.1553C458.042 76.0824 457.819 76.041 457.587 76.041H454.249C453.145 76.0412 452.249 76.9366 452.249 78.041V83.3799C452.249 84.4842 453.145 85.3797 454.249 85.3799H457.587C457.819 85.3799 458.042 85.3375 458.249 85.2646V87.3818C458.249 88.4864 457.354 89.3818 456.249 89.3818H2C0.895431 89.3818 0 88.4864 0 87.3818L0 85.2646C0.207722 85.3377 0.430374 85.3799 0.663086 85.3799H4.00098C5.10536 85.3797 6.0009 84.4843 6.00098 83.3799V78.041C6.00081 76.9367 5.1053 76.0412 4.00098 76.041H0.663086C0.43051 76.041 0.207619 76.0823 0 76.1553L0 12.5566C0.209131 12.6308 0.433402 12.6738 0.667969 12.6738H4.00488C5.10942 12.6738 6.00482 11.7783 6.00488 10.6738V5.33496C6.0047 4.23055 5.10934 3.33496 4.00488 3.33496H0.667969C0.433544 3.33496 0.209024 3.37707 0 3.45117L0 2C6.25912e-06 0.895436 0.895434 0 2 0L456.249 0ZM57.3652 76.041C56.2608 76.0411 55.3654 76.9366 55.3652 78.041V83.3799C55.3653 84.4844 56.2607 85.3798 57.3652 85.3799H60.7031C61.8074 85.3796 62.7031 84.4842 62.7031 83.3799V78.041C62.703 76.9367 61.8074 76.0413 60.7031 76.041H57.3652ZM114.059 76.041C112.954 76.0412 112.059 76.9367 112.059 78.041V83.3799C112.059 84.4843 112.954 85.3797 114.059 85.3799H117.396C118.501 85.3798 119.396 84.4843 119.396 83.3799V78.041C119.396 76.9366 118.501 76.0411 117.396 76.041H114.059ZM170.761 76.041C169.656 76.0411 168.761 76.9367 168.761 78.041V83.3799C168.761 84.4844 169.656 85.3798 170.761 85.3799H174.099C175.203 85.3797 176.099 84.4843 176.099 83.3799V78.041C176.098 76.9368 175.203 76.0412 174.099 76.041H170.761ZM228.12 76.041C227.016 76.0413 226.12 76.9367 226.12 78.041V83.3799C226.12 84.4842 227.016 85.3796 228.12 85.3799H231.458C232.562 85.3798 233.458 84.4843 233.458 83.3799V78.041C233.458 76.9366 232.562 76.0411 231.458 76.041H228.12ZM286.154 76.041C285.05 76.041 284.154 76.9366 284.154 78.041V83.3799C284.154 84.4844 285.05 85.3799 286.154 85.3799H289.491C290.596 85.3798 291.491 84.4844 291.491 83.3799V78.041C291.491 76.9366 290.596 76.041 289.491 76.041H286.154ZM342.853 76.041C341.748 76.041 340.853 76.9365 340.853 78.041V83.3799C340.853 84.4843 341.748 85.3799 342.853 85.3799H346.189C347.294 85.3798 348.189 84.4843 348.189 83.3799V78.041C348.189 76.9365 347.294 76.041 346.189 76.041H342.853ZM397.547 76.041C396.442 76.041 395.547 76.9365 395.547 78.041V83.3799C395.547 84.4843 396.442 85.3799 397.547 85.3799H400.884C401.988 85.3799 402.884 84.4843 402.884 83.3799V78.041C402.884 76.9365 401.988 76.041 400.884 76.041H397.547ZM57.3643 3.33496C56.2598 3.33501 55.3644 4.23052 55.3643 5.33496V10.6738C55.3644 11.7783 56.2598 12.6738 57.3643 12.6738H60.7021C61.8064 12.6736 62.702 11.7781 62.7021 10.6738V5.33496C62.702 4.23065 61.8064 3.33522 60.7021 3.33496H57.3643ZM114.059 3.33496C112.954 3.33512 112.059 4.23049 112.059 5.33496V10.6738C112.059 11.7781 112.954 12.6737 114.059 12.6738H117.396C118.501 12.6737 119.396 11.7781 119.396 10.6738V5.33496C119.396 4.23048 118.501 3.33511 117.396 3.33496H114.059ZM228.124 3.33496C227.02 3.33509 226.124 4.23048 226.124 5.33496V10.6738C226.124 11.7781 227.02 12.6737 228.124 12.6738H231.462C232.566 12.6737 233.462 11.7781 233.462 10.6738V5.33496C233.462 4.2305 232.566 3.33513 231.462 3.33496H228.124ZM286.154 3.33496C285.05 3.33518 284.154 4.23053 284.154 5.33496V10.6738C284.155 11.778 285.05 12.6736 286.154 12.6738H289.492C290.597 12.6737 291.492 11.7781 291.492 10.6738V5.33496C291.492 4.23044 290.597 3.33504 289.492 3.33496H286.154ZM397.547 3.33496C396.443 3.33521 395.547 4.23061 395.547 5.33496V10.6738C395.547 11.7781 396.443 12.6736 397.547 12.6738H400.885C401.989 12.6738 402.885 11.7782 402.885 10.6738V5.33496C402.885 4.23048 401.989 3.33501 400.885 3.33496H397.547ZM170.76 3.33496C169.655 3.33505 168.76 4.23045 168.76 5.33496V10.6729C168.76 11.7774 169.655 12.6728 170.76 12.6729H174.098C175.202 12.6726 176.098 11.7773 176.098 10.6729V5.33496C176.098 4.23052 175.202 3.33518 174.098 3.33496H170.76ZM342.852 3.33496C341.747 3.33521 340.852 4.23055 340.852 5.33496V10.6729C340.852 11.7773 341.747 12.6726 342.852 12.6729H346.189C347.294 12.6728 348.189 11.7774 348.189 10.6729V5.33496C348.189 4.23042 347.294 3.33501 346.189 3.33496H342.852Z" fill="var(--fill-0, #2F2E2E)"/>
</svg>
