<svg preserveAspectRatio="none" width="100%" height="100%" overflow="visible" style="display: block;" viewBox="0 0 453.307 80.9473" fill="none" xmlns="http://www.w3.org/2000/svg">
<path id="Subtract" d="M451.307 0C452.411 1.46242e-05 453.307 0.89544 453.307 2V3.13965C453.095 3.06348 452.868 3.02054 452.63 3.02051H449.371C448.267 3.02069 447.371 3.91605 447.371 5.02051V9.47754C447.371 10.5819 448.267 11.4774 449.371 11.4775H452.63C452.868 11.4775 453.095 11.4336 453.307 11.3574V68.9854C453.094 68.9086 452.866 68.8652 452.627 68.8652H449.369C448.265 68.8652 447.369 69.7608 447.369 70.8652V75.3232C447.369 76.4276 448.265 77.3232 449.369 77.3232H452.627C452.866 77.3232 453.094 77.278 453.307 77.2012V78.9473C453.306 80.0517 452.411 80.9473 451.307 80.9473H2C0.895782 80.947 0.000208513 80.0515 0 78.9473L0 77.2002C0.213022 77.2775 0.441897 77.3223 0.681641 77.3223H3.93945C5.04402 77.3223 5.93945 76.4268 5.93945 75.3223V70.8652C5.93937 69.7607 5.04397 68.8652 3.93945 68.8652H0.681641C0.442066 68.8652 0.212895 68.9091 0 68.9863L0 11.3564C0.212355 11.4332 0.440834 11.4775 0.679688 11.4775H3.9375C5.04204 11.4775 5.93746 10.5821 5.9375 9.47754V5.02051C5.9375 3.91594 5.04207 3.02051 3.9375 3.02051H0.679688C0.440919 3.02051 0.212292 3.06388 0 3.14062L0 2C0 0.895588 0.895648 0.000255576 2 0H451.307ZM56.7656 68.8652C55.6611 68.8652 54.7656 69.7607 54.7656 70.8652V75.3223C54.7656 76.4268 55.6611 77.3223 56.7656 77.3223H60.0234C61.128 77.3223 62.0234 76.4268 62.0234 75.3223V70.8652C62.0234 69.7607 61.128 68.8652 60.0234 68.8652H56.7656ZM112.854 68.8652C111.749 68.8655 110.854 69.7609 110.854 70.8652V75.3223C110.854 76.4267 111.749 77.322 112.854 77.3223H116.112C117.217 77.3222 118.112 76.4268 118.112 75.3223V70.8652C118.112 69.7608 117.217 68.8653 116.112 68.8652H112.854ZM168.938 68.8652C167.833 68.8654 166.938 69.7608 166.938 70.8652V75.3223C166.937 76.4267 167.833 77.3221 168.938 77.3223H172.196C173.301 77.3221 174.196 76.4267 174.196 75.3223V70.8652C174.196 69.7609 173.301 68.8654 172.196 68.8652H168.938ZM225.686 68.8652C224.581 68.8654 223.686 69.7609 223.686 70.8652V75.3223C223.686 76.4267 224.581 77.3221 225.686 77.3223H228.944C230.049 77.3221 230.944 76.4267 230.944 75.3223V70.8652C230.944 69.7609 230.049 68.8654 228.944 68.8652H225.686ZM283.092 68.8652C281.987 68.8652 281.092 69.7607 281.092 70.8652V75.3223C281.092 76.4268 281.987 77.3223 283.092 77.3223H286.35C287.454 77.3223 288.35 76.4268 288.35 75.3223V70.8652C288.35 69.7607 287.454 68.8652 286.35 68.8652H283.092ZM339.176 68.8652C338.071 68.8652 337.176 69.7607 337.176 70.8652V75.3223C337.176 76.4268 338.071 77.3223 339.176 77.3223H342.434C343.538 77.3223 344.434 76.4268 344.434 75.3223V70.8652C344.434 69.7607 343.538 68.8652 342.434 68.8652H339.176ZM393.281 68.8652C392.177 68.8653 391.281 69.7608 391.281 70.8652V75.3223C391.281 76.4268 392.177 77.3222 393.281 77.3223H396.54C397.644 77.322 398.54 76.4267 398.54 75.3223V70.8652C398.54 69.7609 397.644 68.8655 396.54 68.8652H393.281ZM56.7637 3.02051C55.6591 3.02051 54.7637 3.91599 54.7637 5.02051V9.47754C54.7637 10.5821 55.6591 11.4775 56.7637 11.4775H60.0215C61.126 11.4775 62.0215 10.5821 62.0215 9.47754V5.02051C62.0214 3.91601 61.126 3.02054 60.0215 3.02051H56.7637ZM112.851 3.02051C111.746 3.02062 110.851 3.91605 110.851 5.02051V9.47754C110.851 10.582 111.746 11.4774 112.851 11.4775H116.109C117.214 11.4773 118.109 10.582 118.109 9.47754V5.02051C118.109 3.91611 117.214 3.02072 116.109 3.02051H112.851ZM168.939 3.02051C167.835 3.02051 166.939 3.91594 166.939 5.02051V9.47754C166.939 10.5821 167.835 11.4775 168.939 11.4775H172.197C173.302 11.4775 174.197 10.5821 174.197 9.47754V5.02051C174.197 3.91594 173.302 3.02051 172.197 3.02051H168.939ZM225.684 3.02051C224.579 3.02055 223.684 3.91598 223.684 5.02051V9.47754C223.684 10.5821 224.579 11.4775 225.684 11.4775H228.941C230.046 11.4775 230.941 10.5821 230.941 9.47754V5.02051C230.941 3.91595 230.046 3.02051 228.941 3.02051H225.684ZM283.09 3.02051C281.985 3.02051 281.09 3.91598 281.09 5.02051V9.47754C281.09 10.5821 281.985 11.4775 283.09 11.4775H286.348C287.452 11.4775 288.348 10.5821 288.348 9.47754V5.02051C288.348 3.91598 287.452 3.02051 286.348 3.02051H283.09ZM339.174 3.02051C338.069 3.02051 337.174 3.91594 337.174 5.02051V9.47754C337.174 10.5821 338.069 11.4775 339.174 11.4775H342.432C343.536 11.4775 344.432 10.5821 344.432 9.47754V5.02051C344.432 3.91597 343.536 3.02056 342.432 3.02051H339.174ZM393.284 3.02051C392.18 3.02051 391.284 3.916 391.284 5.02051V9.47754C391.284 10.5821 392.18 11.4775 393.284 11.4775H396.542C397.647 11.4775 398.542 10.5821 398.542 9.47754V5.02051C398.542 3.916 397.647 3.02051 396.542 3.02051H393.284Z" fill="var(--fill-0, #2F2E2E)"/>
</svg>
