<svg preserveAspectRatio="none" width="100%" height="100%" overflow="visible" style="display: block;" viewBox="0 0 458.25 89.3818" fill="none" xmlns="http://www.w3.org/2000/svg">
<path id="Subtract" d="M456.25 0C457.355 1.89698e-05 458.25 0.895442 458.25 2V3.44922C458.042 3.37624 457.819 3.33496 457.587 3.33496H454.25C453.145 3.33496 452.25 4.23049 452.25 5.33496V10.6738C452.25 11.7783 453.146 12.6738 454.25 12.6738H457.587C457.82 12.6738 458.042 12.6316 458.25 12.5586V76.1553C458.042 76.0823 457.819 76.041 457.587 76.041H454.25C453.146 76.041 452.25 76.9366 452.25 78.041V83.3799C452.25 84.4844 453.145 85.3799 454.25 85.3799H457.587C457.82 85.3799 458.042 85.3377 458.25 85.2646V87.3818C458.25 88.4864 457.355 89.3818 456.25 89.3818H2C0.895568 89.3817 0 88.4863 0 87.3818V85.2637C0.207993 85.337 0.431001 85.3799 0.664062 85.3799H4.00098C5.10552 85.3799 6.00094 84.4844 6.00098 83.3799V78.041C6.00077 76.9366 5.10542 76.041 4.00098 76.041H0.664062C0.431153 76.041 0.207878 76.0831 0 76.1562V12.5566C0.209116 12.6309 0.433409 12.6738 0.667969 12.6738H4.00586C5.1103 12.6737 6.00578 11.7783 6.00586 10.6738V5.33496C6.0057 4.23059 5.11025 3.33506 4.00586 3.33496H0.667969C0.433541 3.335 0.209017 3.37702 0 3.45117V2C0 0.89553 0.895568 0.00016193 2 0L456.25 0ZM57.3652 76.041C56.261 76.0413 55.3654 76.9368 55.3652 78.041V83.3799C55.3653 84.4843 56.2609 85.3796 57.3652 85.3799H60.7031C61.8076 85.3798 62.7031 84.4844 62.7031 83.3799V78.041C62.7029 76.9367 61.8075 76.0411 60.7031 76.041H57.3652ZM114.06 76.041C112.955 76.041 112.06 76.9366 112.06 78.041V83.3799C112.06 84.4844 112.955 85.3799 114.06 85.3799H117.396C118.501 85.3799 119.396 84.4844 119.396 83.3799V78.041C119.396 76.9366 118.501 76.041 117.396 76.041H114.06ZM170.762 76.041C169.657 76.041 168.762 76.9366 168.762 78.041V83.3799C168.762 84.4844 169.657 85.3799 170.762 85.3799H174.099C175.203 85.3799 176.099 84.4844 176.099 83.3799V78.041C176.098 76.9366 175.203 76.041 174.099 76.041H170.762ZM228.121 76.041C227.017 76.041 226.121 76.9366 226.121 78.041V83.3799C226.121 84.4844 227.017 85.3799 228.121 85.3799H231.458C232.563 85.3799 233.458 84.4844 233.458 83.3799V78.041C233.458 76.9366 232.562 76.041 231.458 76.041H228.121ZM286.155 76.041C285.051 76.041 284.155 76.9366 284.155 78.041V83.3799C284.155 84.4844 285.051 85.3799 286.155 85.3799H289.492C290.597 85.3799 291.492 84.4844 291.492 83.3799V78.041C291.492 76.9366 290.597 76.041 289.492 76.041H286.155ZM342.853 76.041C341.748 76.041 340.853 76.9366 340.853 78.041V83.3799C340.853 84.4844 341.748 85.3799 342.853 85.3799H346.189C347.294 85.3799 348.189 84.4844 348.189 83.3799V78.041C348.189 76.9366 347.294 76.041 346.189 76.041H342.853ZM397.548 76.041C396.443 76.041 395.548 76.9366 395.548 78.041V83.3799C395.548 84.4844 396.443 85.3799 397.548 85.3799H400.885C401.989 85.3799 402.885 84.4844 402.885 83.3799V78.041C402.885 76.9366 401.989 76.041 400.885 76.041H397.548ZM57.3652 3.33496C56.2607 3.33496 55.3653 4.23047 55.3652 5.33496V10.6738C55.3654 11.7783 56.2608 12.6738 57.3652 12.6738H60.7021C61.8066 12.6738 62.702 11.7782 62.7021 10.6738V5.33496C62.7021 4.23049 61.8066 3.335 60.7021 3.33496H57.3652ZM114.06 3.33496C112.955 3.33496 112.06 4.23041 112.06 5.33496V10.6738C112.06 11.7782 112.955 12.6738 114.06 12.6738H117.396C118.501 12.6738 119.396 11.7782 119.396 10.6738V5.33496C119.396 4.23041 118.501 3.33496 117.396 3.33496H114.06ZM170.762 3.33496C169.657 3.33496 168.762 4.23042 168.762 5.33496V10.6738C168.762 11.7782 169.657 12.6738 170.762 12.6738H174.099C175.203 12.6738 176.098 11.7782 176.099 10.6738V5.33496C176.099 4.23043 175.203 3.33499 174.099 3.33496L170.762 3.33496ZM228.125 3.33496C227.02 3.33496 226.125 4.23043 226.125 5.33496V10.6738C226.125 11.7782 227.021 12.6738 228.125 12.6738H231.462C232.566 12.6738 233.462 11.7782 233.462 10.6738V5.33496C233.462 4.23043 232.566 3.33496 231.462 3.33496H228.125ZM342.854 3.33496C341.749 3.33496 340.854 4.23041 340.854 5.33496V10.6738C340.854 11.7782 341.749 12.6738 342.854 12.6738H346.19C347.295 12.6738 348.19 11.7782 348.19 10.6738V5.33496C348.19 4.23041 347.295 3.33496 346.19 3.33496H342.854ZM397.548 3.33496C396.443 3.33496 395.548 4.23049 395.548 5.33496V10.6738C395.548 11.7783 396.443 12.6738 397.548 12.6738H400.885C401.989 12.6738 402.885 11.7783 402.885 10.6738V5.33496C402.885 4.23048 401.989 3.33496 400.885 3.33496H397.548ZM286.155 3.33496C285.051 3.33496 284.155 4.23039 284.155 5.33496V10.6729C284.155 11.7774 285.051 12.6729 286.155 12.6729H289.492C290.597 12.6729 291.492 11.7774 291.492 10.6729V5.33496C291.492 4.23039 290.597 3.33496 289.492 3.33496H286.155Z" fill="var(--fill-0, #2F2E2E)"/>
</svg>
