<svg preserveAspectRatio="none" width="100%" height="100%" overflow="visible" style="display: block;" viewBox="0 0 453.254 80.958" fill="none" xmlns="http://www.w3.org/2000/svg">
<path id="Subtract" d="M451.254 0C452.358 0 453.254 0.895431 453.254 2V3.1416C453.041 3.06455 452.812 3.02052 452.573 3.02051H449.315C448.211 3.0207 447.316 3.91617 447.315 5.02051V9.47949C447.316 10.5837 448.211 11.4793 449.315 11.4795H452.573C452.813 11.4795 453.041 11.4345 453.254 11.3574V68.9951C453.042 68.9183 452.813 68.875 452.574 68.875H449.316C448.212 68.875 447.316 69.7705 447.316 70.875V75.333C447.316 76.4376 448.212 77.333 449.316 77.333H452.574C452.813 77.333 453.041 77.2888 453.254 77.2119V78.958C453.254 80.0626 452.358 80.958 451.254 80.958H2C0.895585 80.9578 0 80.0625 0 78.958L0 77.2109C0.213166 77.2884 0.44268 77.333 0.682617 77.333H3.93945C5.04402 77.333 5.93945 76.4376 5.93945 75.333V70.875C5.93945 69.7704 5.04402 68.875 3.93945 68.875H0.682617C0.44279 68.875 0.213084 68.9187 0 68.9961L0 11.3574C0.212718 11.4345 0.441327 11.4795 0.680664 11.4795H3.93848C5.04269 11.4792 5.93825 10.5837 5.93848 9.47949V5.02051C5.93834 3.91621 5.04274 3.02076 3.93848 3.02051H0.680664C0.441424 3.02051 0.212645 3.06456 0 3.1416L0 2C0 0.895544 0.895587 0.000183738 2 0H451.254ZM56.7617 68.875C55.6571 68.875 54.7617 69.7704 54.7617 70.875V75.333C54.7617 76.4376 55.6571 77.333 56.7617 77.333H60.0186C61.1231 77.333 62.0186 76.4376 62.0186 75.333V70.875C62.0186 69.7704 61.1231 68.875 60.0186 68.875H56.7617ZM112.842 68.875C111.737 68.8751 110.842 69.7705 110.842 70.875V75.333C110.842 76.4375 111.737 77.3329 112.842 77.333H116.1C117.204 77.3329 118.1 76.4375 118.1 75.333V70.875C118.1 69.7705 117.204 68.8752 116.1 68.875H112.842ZM168.919 68.875C167.814 68.875 166.919 69.7704 166.919 70.875V75.333C166.919 76.4376 167.814 77.333 168.919 77.333H172.176C173.28 77.333 174.176 76.4376 174.176 75.333V70.875C174.176 69.7704 173.28 68.875 172.176 68.875H168.919ZM225.658 68.875C224.554 68.875 223.658 69.7704 223.658 70.875V75.333C223.658 76.4376 224.554 77.333 225.658 77.333H228.915C230.02 77.333 230.915 76.4376 230.915 75.333V70.875C230.915 69.7704 230.02 68.875 228.915 68.875H225.658ZM283.057 68.875C281.952 68.875 281.057 69.7704 281.057 70.875V75.333C281.057 76.4376 281.952 77.333 283.057 77.333H286.313C287.418 77.333 288.313 76.4376 288.313 75.333V70.875C288.313 69.7704 287.418 68.875 286.313 68.875H283.057ZM339.136 68.875C338.031 68.8751 337.136 69.7705 337.136 70.875V75.333C337.136 76.4375 338.031 77.3329 339.136 77.333H342.394C343.498 77.3328 344.394 76.4375 344.394 75.333V70.875C344.394 69.7705 343.498 68.8752 342.394 68.875H339.136ZM393.236 68.875C392.132 68.875 391.236 69.7704 391.236 70.875V75.333C391.236 76.4376 392.132 77.333 393.236 77.333H396.493C397.598 77.333 398.493 76.4376 398.493 75.333V70.875C398.493 69.7704 397.598 68.875 396.493 68.875H393.236ZM56.7617 3.02148C55.6572 3.02158 54.7617 3.91697 54.7617 5.02148V9.47949C54.7618 10.584 55.6573 11.4794 56.7617 11.4795H60.0195C61.1239 11.4793 62.0195 10.5839 62.0195 9.47949V5.02148C62.0195 3.91701 61.124 3.02165 60.0195 3.02148H56.7617ZM112.838 3.02051C111.733 3.02051 110.838 3.91614 110.838 5.02051V9.47949C110.838 10.584 111.733 11.4795 112.838 11.4795H116.095C117.199 11.4795 118.095 10.584 118.095 9.47949V5.02051C118.094 3.91614 117.199 3.02051 116.095 3.02051H112.838ZM168.923 3.02051C167.818 3.02051 166.923 3.91613 166.923 5.02051V9.47949C166.923 10.5839 167.818 11.4795 168.923 11.4795H172.18C173.284 11.4795 174.18 10.5839 174.18 9.47949V5.02051C174.179 3.91613 173.284 3.02051 172.18 3.02051H168.923ZM225.662 3.02051C224.558 3.02051 223.662 3.9161 223.662 5.02051V9.47949C223.662 10.5839 224.558 11.4795 225.662 11.4795H228.919C230.023 11.4795 230.919 10.5839 230.919 9.47949V5.02051C230.919 3.9161 230.023 3.02051 228.919 3.02051H225.662ZM339.136 3.02051C338.031 3.02073 337.136 3.91624 337.136 5.02051V9.47949C337.136 10.5838 338.031 11.4793 339.136 11.4795H342.394C343.498 11.4795 344.393 10.5839 344.394 9.47949V5.02051C344.393 3.91612 343.498 3.02054 342.394 3.02051H339.136ZM393.24 3.02051C392.136 3.02051 391.24 3.91613 391.24 5.02051V9.47949C391.24 10.5839 392.136 11.4795 393.24 11.4795H396.497C397.602 11.4795 398.497 10.5839 398.497 9.47949V5.02051C398.497 3.91613 397.602 3.02051 396.497 3.02051H393.24ZM283.061 3.02051C281.956 3.02051 281.061 3.91601 281.061 5.02051V9.47852C281.061 10.5831 281.956 11.4785 283.061 11.4785H286.317C287.422 11.4785 288.317 10.5831 288.317 9.47852V5.02051C288.317 3.91601 287.422 3.02051 286.317 3.02051H283.061Z" fill="var(--fill-0, #2F2E2E)"/>
</svg>
