<svg preserveAspectRatio="none" width="100%" height="100%" overflow="visible" style="display: block;" viewBox="0 0 453.353 80.9365" fill="none" xmlns="http://www.w3.org/2000/svg">
<path id="Subtract" d="M451.353 0C452.457 0 453.353 0.895431 453.353 2V3.13965C453.141 3.06348 452.914 3.02055 452.676 3.02051H449.417C448.312 3.02051 447.417 3.91594 447.417 5.02051V9.47656C447.417 10.581 448.312 11.4766 449.417 11.4766H452.676C452.914 11.4765 453.141 11.4327 453.353 11.3564V68.9766C453.141 68.9005 452.914 68.8564 452.676 68.8564H449.417C448.313 68.8565 447.417 69.7521 447.417 70.8564V75.3135C447.417 76.4178 448.313 77.3134 449.417 77.3135H452.676C452.914 77.3135 453.141 77.2686 453.353 77.1924V78.9365C453.353 80.0411 452.457 80.9365 451.353 80.9365H2C0.895431 80.9365 0 80.0411 0 78.9365L0 77.1914C0.211912 77.2678 0.439472 77.3125 0.677734 77.3125H3.93652C5.04106 77.3125 5.93652 76.417 5.93652 75.3125V70.8564C5.93638 69.752 5.04097 68.8565 3.93652 68.8564H0.677734C0.439656 68.8564 0.211774 68.9002 0 68.9766L0 11.3555C0.211899 11.4319 0.439485 11.4765 0.677734 11.4766H3.93652C5.04097 11.4766 5.93632 10.581 5.93652 9.47656V5.02051C5.93652 3.91594 5.04109 3.02051 3.93652 3.02051H0.677734C0.439506 3.02052 0.211884 3.06419 0 3.14062L0 2C0 0.895431 0.895431 0 2 0H451.353ZM283.119 68.8574C282.015 68.8574 281.119 69.7529 281.119 70.8574V75.3135C281.119 76.4179 282.015 77.3135 283.119 77.3135H286.378C287.482 77.3135 288.378 76.4179 288.378 75.3135V70.8574C288.378 69.7529 287.482 68.8574 286.378 68.8574H283.119ZM339.21 68.8574C338.105 68.8575 337.21 69.7529 337.21 70.8574V75.3135C337.21 76.4178 338.106 77.3134 339.21 77.3135H342.469C343.573 77.3135 344.469 76.4178 344.469 75.3135V70.8574C344.469 69.7529 343.573 68.8574 342.469 68.8574H339.21ZM56.7744 68.8564C55.67 68.8564 54.7746 69.752 54.7744 70.8564V75.3125C54.7744 76.4171 55.6698 77.3125 56.7744 77.3125H60.0332C61.1377 77.3124 62.0332 76.417 62.0332 75.3125V70.8564C62.033 69.7521 61.1376 68.8565 60.0332 68.8564H56.7744ZM112.861 68.8564C111.757 68.8565 110.861 69.752 110.861 70.8564V75.3125C110.861 76.417 111.757 77.3124 112.861 77.3125H116.12C117.225 77.3125 118.12 76.4171 118.12 75.3125V70.8564C118.12 69.7519 117.225 68.8564 116.12 68.8564H112.861ZM168.953 68.8564C167.849 68.8566 166.953 69.7522 166.953 70.8564V75.3125C166.953 76.417 167.849 77.3123 168.953 77.3125H172.212C173.316 77.3125 174.212 76.4171 174.212 75.3125V70.8564C174.212 69.7521 173.316 68.8564 172.212 68.8564H168.953ZM225.705 68.8564C224.601 68.8564 223.705 69.7521 223.705 70.8564V75.3125C223.705 76.4171 224.601 77.3125 225.705 77.3125H228.964C230.068 77.3124 230.964 76.417 230.964 75.3125V70.8564C230.964 69.7521 230.068 68.8566 228.964 68.8564H225.705ZM393.321 68.8564C392.217 68.8565 391.321 69.752 391.321 70.8564V75.3125C391.321 76.417 392.217 77.3124 393.321 77.3125H396.58C397.685 77.3125 398.58 76.4171 398.58 75.3125V70.8564C398.58 69.7519 397.685 68.8564 396.58 68.8564H393.321ZM56.7734 3.02051C55.6689 3.02057 54.7734 3.91597 54.7734 5.02051V9.47656C54.7736 10.581 55.669 11.4765 56.7734 11.4766H60.0322C61.1367 11.4766 62.0321 10.581 62.0322 9.47656V5.02051C62.0322 3.91594 61.1368 3.02051 60.0322 3.02051H56.7734ZM168.957 3.02051C167.853 3.02077 166.957 3.9161 166.957 5.02051V9.47656C166.957 10.5808 167.853 11.4763 168.957 11.4766H172.217C173.321 11.4764 174.217 10.5808 174.217 9.47656V5.02051C174.217 3.91606 173.321 3.0207 172.217 3.02051H168.957ZM225.704 3.01953C224.6 3.01956 223.704 3.9152 223.704 5.01953V9.47656C223.704 10.5809 224.6 11.4765 225.704 11.4766H228.963C230.067 11.4766 230.963 10.5809 230.963 9.47656V5.01953C230.963 3.91518 230.067 3.01953 228.963 3.01953H225.704ZM283.118 3.02051C282.014 3.02065 281.118 3.91602 281.118 5.02051V9.47656C281.118 10.5809 282.014 11.4764 283.118 11.4766H286.377C287.481 11.4766 288.377 10.581 288.377 9.47656V5.02051C288.377 3.91594 287.482 3.02051 286.377 3.02051H283.118ZM339.21 3.01953C338.106 3.01977 337.21 3.91531 337.21 5.01953V9.47656C337.21 10.5808 338.106 11.4763 339.21 11.4766H342.47C343.574 11.4763 344.469 10.5808 344.47 9.47656V5.01953C344.469 3.9153 343.574 3.01975 342.47 3.01953H339.21ZM112.862 3.01953C111.758 3.01953 110.862 3.91506 110.862 5.01953V9.47559C110.862 10.5802 111.758 11.4756 112.862 11.4756H116.121C117.226 11.4754 118.121 10.58 118.121 9.47559V5.01953C118.121 3.91517 117.225 3.01971 116.121 3.01953H112.862ZM393.321 3.01953C392.217 3.01953 391.322 3.91516 391.321 5.01953V9.47559C391.321 10.5802 392.217 11.4756 393.321 11.4756H396.58C397.684 11.4754 398.58 10.58 398.58 9.47559V5.01953C398.58 3.91527 397.684 3.01971 396.58 3.01953H393.321Z" fill="var(--fill-0, #2F2E2E)"/>
</svg>
