<svg preserveAspectRatio="none" width="100%" height="100%" overflow="visible" style="display: block;" viewBox="0 0 453.366 80.9346" fill="none" xmlns="http://www.w3.org/2000/svg">
<path id="Subtract" d="M451.366 0C452.471 0 453.366 0.895431 453.366 2V3.14746C453.154 3.07083 452.926 3.02737 452.688 3.02734H449.428C448.323 3.02758 447.429 3.92293 447.429 5.02734V9.48242C447.429 10.587 448.324 11.4824 449.429 11.4824H452.688C452.926 11.4824 453.154 11.438 453.366 11.3613V68.9805C453.155 68.9043 452.927 68.8614 452.689 68.8613H449.43C448.325 68.8614 447.43 69.7568 447.43 70.8613V75.3174C447.43 76.4217 448.325 77.3172 449.43 77.3174H452.689C452.927 77.3174 453.155 77.2735 453.366 77.1973V78.9346C453.366 80.0389 452.471 80.9346 451.366 80.9346H2C0.895751 80.9344 0.000261473 80.0388 0 78.9346V77.1865C0.213825 77.2645 0.443753 77.3105 0.68457 77.3105H3.94336C5.04779 77.3106 5.94316 76.4149 5.94336 75.3105V70.8545C5.94334 69.7499 5.04793 68.8545 3.94336 68.8545H0.68457C0.44395 68.8545 0.213675 68.8987 0 68.9766V11.3545C0.211942 11.431 0.439421 11.4755 0.677734 11.4756H3.9375C5.04195 11.4755 5.93752 10.5801 5.9375 9.47559V5.02051C5.93748 3.91608 5.04188 3.02075 3.9375 3.02051L0.677734 3.01953C0.439615 3.01955 0.211798 3.06328 0 3.13965V2C0 0.895544 0.895586 0.000183178 2 0H451.366ZM393.333 68.8604C392.229 68.8606 391.333 69.756 391.333 70.8604L391.334 75.3164C391.334 76.421 392.229 77.3164 393.334 77.3164H396.593C397.697 77.3164 398.593 76.421 398.593 75.3164V70.8604C398.593 69.756 397.697 68.8605 396.593 68.8604H393.333ZM339.225 68.8594C338.12 68.8594 337.225 69.7549 337.225 70.8594V75.3154C337.225 76.4198 338.12 77.3152 339.225 77.3154H342.484C343.589 77.3153 344.484 76.4199 344.484 75.3154V70.8594C344.484 69.7551 343.589 68.8596 342.484 68.8594H339.225ZM283.132 68.8584C282.027 68.8585 281.132 69.754 281.132 70.8584V75.3145C281.132 76.4189 282.027 77.3142 283.132 77.3145H286.392C287.496 77.3143 288.392 76.4189 288.392 75.3145V70.8584C288.391 69.7541 287.496 68.8586 286.392 68.8584H283.132ZM225.716 68.8574C224.612 68.8577 223.717 69.7531 223.717 70.8574V75.3135C223.717 76.418 224.612 77.3135 225.717 77.3135H228.976C230.08 77.3135 230.976 76.418 230.976 75.3135V70.8574C230.975 69.7531 230.08 68.8575 228.976 68.8574H225.716ZM112.869 68.8564C111.765 68.8564 110.869 69.7519 110.869 70.8564V75.3115C110.869 76.4161 111.765 77.3125 112.869 77.3125H116.128C117.232 77.3125 118.128 76.4169 118.128 75.3125V70.8564C118.128 69.7519 117.232 68.8565 116.128 68.8564H112.869ZM168.961 68.8564C167.857 68.8564 166.961 69.7521 166.961 70.8564V75.3125C166.961 76.4171 167.856 77.3125 168.961 77.3125H172.22C173.324 77.3125 174.22 76.4171 174.22 75.3125V70.8574C174.22 69.7529 173.324 68.8574 172.22 68.8574L168.961 68.8564ZM56.7754 68.8555C55.6708 68.8555 54.7754 69.7509 54.7754 70.8555V75.3105C54.7754 76.4151 55.6708 77.3105 56.7754 77.3105H60.0342C61.1386 77.3106 62.0339 76.4159 62.0342 75.3115V70.8555C62.0342 69.7509 61.1387 68.8555 60.0342 68.8555H56.7754ZM339.219 3.02539C338.114 3.02537 337.219 3.92082 337.219 5.02539V9.48145C337.219 10.5858 338.114 11.4814 339.219 11.4814H342.478C343.582 11.4815 344.477 10.5859 344.478 9.48145V5.02539C344.478 3.92082 343.582 3.02541 342.478 3.02539H339.219ZM393.336 3.02637C392.231 3.02635 391.336 3.9218 391.336 5.02637V9.48145C391.336 10.586 392.231 11.4814 393.336 11.4814H396.595C397.699 11.4815 398.595 10.586 398.595 9.48145V5.02637C398.595 3.92184 397.699 3.02645 396.595 3.02637H393.336ZM283.127 3.02441C282.022 3.0244 281.127 3.91991 281.127 5.02441V9.48047C281.127 10.585 282.022 11.4805 283.127 11.4805H286.386C287.49 11.4805 288.386 10.585 288.386 9.48047V5.02441C288.386 3.91996 287.49 3.02443 286.386 3.02441H283.127ZM225.716 3.02344C224.611 3.02342 223.716 3.91887 223.716 5.02344V9.47949C223.716 10.5839 224.611 11.4795 225.716 11.4795H228.975C230.079 11.4795 230.974 10.5839 230.975 9.47949V5.02344C230.975 3.91887 230.079 3.02345 228.975 3.02344H225.716ZM168.964 3.02246C167.859 3.02244 166.964 3.9179 166.964 5.02246V9.47852C166.964 10.583 167.859 11.4785 168.964 11.4785H172.223C173.327 11.4785 174.223 10.583 174.223 9.47852V5.02246C174.223 3.91795 173.327 3.02248 172.223 3.02246H168.964ZM112.867 3.02148C111.763 3.02147 110.867 3.91704 110.867 5.02148V9.47754C110.867 10.5821 111.763 11.4775 112.867 11.4775H116.126C117.231 11.4776 118.126 10.5821 118.126 9.47754V5.02148C118.126 3.91709 117.23 3.0215 116.126 3.02148H112.867ZM56.7744 3.02051C55.6699 3.02049 54.7746 3.91608 54.7744 5.02051V9.47656C54.7744 10.5811 55.6699 11.4765 56.7744 11.4766H60.0332C61.1378 11.4766 62.0332 10.5811 62.0332 9.47656V5.02051C62.033 3.91613 61.1376 3.02052 60.0332 3.02051H56.7744Z" fill="var(--fill-0, #2F2E2E)"/>
</svg>
