<?xml version="1.0" encoding="UTF-8"?>
<svg width="1200pt" height="1200pt" version="1.1" viewBox="0 0 1200 1200" xmlns="http://www.w3.org/2000/svg">
 <path d="m163.74 227.06h872.53c26.297 0 50.156 10.734 67.453 28.031s28.031 41.203 28.031 67.453v554.86c0 26.297-10.734 50.156-28.031 67.453s-41.203 28.031-67.453 28.031l-872.53 0.046875c-26.297 0-50.156-10.734-67.453-28.031s-28.031-41.203-28.031-67.453v-554.86c0-26.297 10.734-50.156 28.031-67.453 17.297-17.344 41.156-28.078 67.453-28.078zm904.69 687.56-341.34-284.63-50.859 42.375c-21.094 17.578-48.562 26.484-75.797 26.625-27.281 0.14062-54.703-8.5312-75.656-26.016l-51.562-42.984-341.48 284.76c8.625 7.4062 19.828 11.953 32.016 11.953h872.53c12.234-0.046876 23.484-4.5938 32.156-12.094zm-953.9-45.469 322.74-269.16-322.74-269.16zm17.203-583.92 355.82 296.72 0.65625 0.51562 66 55.031c12.375 10.312 29.109 15.422 46.031 15.375 17.016-0.09375 33.891-5.3906 46.547-15.938l65.297-54.469 0.60937-0.51562 355.74-296.63c-8.6719-7.5-19.922-12.047-32.156-12.047l-872.53 0.046875c-12.188 0-23.391 4.5-32.016 11.906zm953.81 45.844-322.5 268.92 322.45 268.92v-537.84z" fill-rule="evenodd"/>
</svg>
