<?xml version="1.0" encoding="UTF-8"?>
<svg id="Layer_1" data-name="Layer 1" xmlns="http://www.w3.org/2000/svg" viewBox="0 0 500 500">
  <defs>
    <style>
      .cls-1 {
        fill: #e88dbb;
      }
    </style>
  </defs>
  <path class="cls-1" d="M248.79,134.74c-63.2,0-115.57,51.46-115.57,115.57s51.46,115.57,115.57,115.57,115.57-52.37,115.57-115.57-52.37-115.57-115.57-115.57ZM248.79,324.34c-40.63,0-74.03-33.41-74.03-74.03s33.41-74.03,74.03-74.03,74.03,33.41,74.03,74.03-33.41,74.03-74.03,74.03Z"/>
  <circle class="cls-1" cx="368.87" cy="132.03" r="26.18"/>
  <path class="cls-1" d="M436.58,64.32c-23.47-24.38-56.88-37.02-94.8-37.02h-185.99c-78.55,0-130.92,52.37-130.92,130.92v185.09c0,38.82,12.64,72.23,37.92,96.61,24.38,23.47,56.88,35.21,93.9,35.21h184.18c38.82,0,71.33-12.64,94.8-35.21,24.38-23.47,37.02-56.88,37.02-95.7v-185.99c0-37.92-12.64-70.42-36.11-93.9ZM432.97,344.21c0,27.99-9.93,50.56-26.18,65.91-16.25,15.35-38.82,23.47-65.91,23.47h-184.18c-27.09,0-49.66-8.13-65.91-23.47-16.25-16.25-24.38-38.82-24.38-66.81v-185.09c0-27.09,8.13-49.66,24.38-65.91,15.35-15.35,38.82-23.47,65.91-23.47h185.99c27.09,0,49.66,8.13,65.91,24.38,15.35,16.25,24.38,38.82,24.38,65.01v185.99h0Z"/>
</svg>