<?xml version="1.0" encoding="UTF-8"?>
<svg id="Layer_1" data-name="Layer 1" xmlns="http://www.w3.org/2000/svg" viewBox="0 0 500 500">
  <defs>
    <style>
      .cls-1 {
        fill: #e88dbb;
      }
    </style>
  </defs>
  <path class="cls-1" d="M42.49,175.2h74.53c5.92,0,10.72,4.8,10.72,10.72v267.37c0,5.92-4.8,10.72-10.72,10.72H42.49c-5.92,0-10.72-4.8-10.72-10.72V185.93c0-5.92,4.8-10.72,10.72-10.72ZM80.4,35.98c-32.85,0-54.31,21.56-54.31,49.87s20.83,49.91,53.05,49.91h.61c33.48,0,54.32-22.19,54.32-49.91-.63-28.3-20.85-49.87-53.68-49.87ZM363.38,168.42c-32.97,0-54.16,11.74-68.46,25.34-6.79,6.46-18.04,1.54-18.04-7.84h0c0-5.92-4.8-10.72-10.72-10.72h-74.3c-5.98,0-10.81,4.89-10.72,10.87.71,49.2,0,222.19-.21,267.19-.03,5.94,4.78,10.76,10.72,10.76h74.51c5.92,0,10.72-4.8,10.72-10.72v-150.57c0-8.64.63-17.25,3.15-23.43,6.95-17.25,22.75-35.1,49.24-35.1,34.76,0,48.64,26.5,48.64,65.3v143.8c0,5.92,4.8,10.72,10.72,10.72h74.54c5.92,0,10.72-4.8,10.72-10.72v-154.89c0-88.71-47.34-129.99-110.53-129.99Z"/>
</svg>