<?xml version="1.0" encoding="UTF-8"?>
<svg id="Layer_1" data-name="Layer 1" xmlns="http://www.w3.org/2000/svg" viewBox="0 0 500 500">
  <defs>
    <style>
      .cls-1 {
        fill: #e88dbb;
      }
    </style>
  </defs>
  <path class="cls-1" d="M465.6,134.77c-5.17-19.36-20.42-34.61-39.78-39.78-35.1-9.4-175.81-9.4-175.81-9.4,0,0-140.72,0-175.82,9.4-19.36,5.18-34.61,20.42-39.78,39.78-9.4,35.09-9.4,108.31-9.4,108.31,0,0,0,73.22,9.4,108.31,5.17,19.36,20.42,34.61,39.78,39.79,35.1,9.4,175.82,9.4,175.82,9.4,0,0,140.72,0,175.81-9.4,19.36-5.17,34.61-20.42,39.78-39.79,9.4-35.09,9.4-108.31,9.4-108.31,0,0,0-73.22-9.4-108.31h0ZM205,310.58v-135l116.91,67.5-116.91,67.5h0Z"/>
</svg>