<svg preserveAspectRatio="none" width="100%" height="100%" overflow="visible" style="display: block;" viewBox="0 0 63.1484 11.5449" fill="none" xmlns="http://www.w3.org/2000/svg">
<path id="Union" d="M5.21875 0L57.8672 0.703125L61.5078 0.75293L57.8477 3.36523L57.8457 3.51953L61.8203 4.90918L57.8184 7.08203L57.8174 7.22754L61.7891 9.06152L57.7988 9.67578V9.74219L63.1484 11.3867L57.7852 11.5254V11.5449L57.3125 11.5381L57.2959 11.5391V11.5381L5.4502 10.8457L5.45117 10.8477L2.85156 10.8125L5.13477 9.71387L0.919922 8.30176L5.15234 7.45508L1.58105 6.95605L5.16602 5.64844L0.946289 4.91406L5.18652 4.12891L5.1875 3.98828L0.961914 2.88184L5.2002 2.30664L5.20117 2.19531L0 1.06152L5.20898 0.00195312L5.21582 0.329102L5.21875 0Z" fill="var(--fill-0, white)" fill-opacity="0.5"/>
</svg>
