<svg preserveAspectRatio="none" width="100%" height="100%" overflow="visible" style="display: block;" viewBox="0 0 103.585 11.2402" fill="none" xmlns="http://www.w3.org/2000/svg">
<path id="Union" d="M94.6846 0.682617L100.896 0.732422L94.8896 3.27539L94.8877 3.42676L101.408 4.7793L94.8438 6.89355L94.8418 7.03613L101.355 8.82227L94.8105 9.41992V9.48535L103.585 11.0859L94.7881 11.2217V11.2402L94.0068 11.2334L93.9854 11.2344V11.2334L8.94141 10.5596L8.94238 10.5615L4.67676 10.5273L8.42285 9.45801L1.50879 8.08301L8.45117 7.25879L2.59277 6.77246L8.47363 5.49902L1.55176 4.78418L8.5 4.02051L8.50195 3.88184L1.57715 2.80469L8.52246 2.24609L8.52441 2.13574L0 1.0332L8.54492 0.000976562L8.5498 0.135742L8.55176 0L94.6846 0.682617Z" fill="var(--fill-0, white)" fill-opacity="0.5"/>
</svg>
