<svg width="77" height="22" viewBox="0 0 77 22" fill="none" xmlns="http://www.w3.org/2000/svg">
<rect x="2" y="2" width="73" height="17" fill="white" stroke="white" stroke-width="4" stroke-linejoin="round"/>
<path d="M12.6106 15.36C12.6106 15.0933 12.7173 14.8667 12.9306 14.68C13.144 14.4933 13.504 14.4 14.0106 14.4C14.944 14.4 15.4106 14.8267 15.4106 15.68V16.36C15.4106 18.12 14.3973 19 12.3706 19H5.17063C3.22396 19 2.25063 18.0533 2.25063 16.16V4.76C2.25063 2.81333 3.23729 1.84 5.21063 1.84H12.3706C14.3973 1.84 15.4106 2.72 15.4106 4.48V5.08C15.4106 6.04 14.944 6.52 14.0106 6.52C13.0773 6.52 12.6106 6.21333 12.6106 5.6C12.6106 4.13333 11.7973 3.4 10.1706 3.4H7.45063C5.85063 3.4 5.05063 4.09333 5.05063 5.48V15.48C5.05063 16.84 5.83729 17.52 7.41063 17.52H10.2506C11.824 17.52 12.6106 16.8 12.6106 15.36ZM20.56 15.08C20.56 16.7067 21.32 17.52 22.84 17.52H28.56C29.5733 17.52 30.08 17.7733 30.08 18.28C30.08 18.76 29.5867 19 28.6 19H20.96C18.8267 19 17.76 18.0533 17.76 16.16V3.64C17.76 2.33333 18.2267 1.68 19.16 1.68C20.12 1.68 20.6 2.37333 20.6 3.76L20.56 15.08ZM36.0866 17.52H38.8866C40.4866 17.52 41.2866 16.7333 41.2866 15.16V5.68C41.2866 4.16 40.4732 3.4 38.8466 3.4H36.1266C34.5266 3.4 33.7266 4.16 33.7266 5.68V15.24C33.7266 16.76 34.5132 17.52 36.0866 17.52ZM44.0866 16.28C44.0866 18.0933 43.0066 19 40.8466 19H34.1666C32.0066 19 30.9266 18.0933 30.9266 16.28V4.64C30.9266 2.77333 32.0066 1.84 34.1666 1.84H40.8066C42.9932 1.84 44.0866 2.77333 44.0866 4.64V16.28ZM49.8359 10.84C47.5426 10.84 46.3959 9.94667 46.3959 8.16V4.6C46.3959 2.76 47.4759 1.84 49.6359 1.84H57.9559C59.0226 1.84 59.5559 2.12 59.5559 2.68C59.5559 3.16 59.0226 3.4 57.9559 3.4H51.4359C49.9426 3.4 49.1959 4.2 49.1959 5.8V6.8C49.1959 8.48 49.9293 9.32 51.3959 9.32H56.1159C58.4093 9.32 59.5559 10.2133 59.5559 12V16.32C59.5559 18.1067 58.4493 19 56.2359 19H47.9559C46.9159 19 46.3959 18.7467 46.3959 18.24C46.3959 17.76 46.9293 17.52 47.9959 17.52H54.5959C56.0359 17.52 56.7559 16.8133 56.7559 15.4V13.52C56.7559 11.7333 55.9959 10.84 54.4759 10.84H49.8359ZM67.3053 17.52H73.8653C74.7186 17.52 75.1453 17.7733 75.1453 18.28C75.1453 18.76 74.732 19 73.9053 19H65.2253C63.0653 19 61.9853 18.12 61.9853 16.36V4.56C61.9853 2.74667 63.0653 1.84 65.2253 1.84H73.9053C74.732 1.84 75.1453 2.09333 75.1453 2.6C75.1453 3.13333 74.7186 3.4 73.8653 3.4H67.3053C65.6253 3.4 64.7853 4.09333 64.7853 5.48V7.2C64.7853 8.61333 65.5986 9.32 67.2253 9.32H73.8253C74.7053 9.32 75.1453 9.54667 75.1453 10C75.1453 10.56 74.7186 10.84 73.8653 10.84H67.2253C65.5986 10.84 64.7853 11.5467 64.7853 12.96V15.52C64.7853 16.8533 65.6253 17.52 67.3053 17.52Z" fill="#F28BCA"/>
</svg>
