<?xml version="1.0" encoding="UTF-8"?>
<svg id="Layer_1" xmlns="http://www.w3.org/2000/svg" version="1.1" viewBox="0 0 745 825.8">
  <!-- Generator: Adobe Illustrator 29.0.1, SVG Export Plug-In . SVG Version: 2.1.0 Build 192)  -->
  <defs>
    <style>
      .st0 {
        fill: #fff;
      }

      .st1 {
        fill: none;
        stroke: #000;
      }
    </style>
  </defs>
  <rect class="st0" x="16.3" y="14.9" width="711.3" height="798.1" rx="17" ry="17"/>
  <line class="st1" x1="15.9" y1="55.6" x2="728.9" y2="56.3"/>
  <line class="st1" x1="15.9" y1="772.3" x2="728.9" y2="773"/>
  <line class="st1" x1="15.2" y1="337.6" x2="728.2" y2="338.3"/>
  <line class="st1" x1="49.4" y1="56.2" x2="47.7" y2="772.3"/>
  <line class="st1" x1="692.4" y1="57.7" x2="690.7" y2="773.8"/>
  <line class="st1" x1="724.6" y1="161.3" x2="15.6" y2="159.6"/>
  <line class="st1" x1="724" y1="443.3" x2="15" y2="441.6"/>
  <line class="st1" x1="724.5" y1="197.3" x2="15.5" y2="195.6"/>
  <line class="st1" x1="723.9" y1="483.3" x2="14.9" y2="481.6"/>
  <line class="st1" x1="723.8" y1="519.3" x2="14.8" y2="517.6"/>
  <line class="st1" x1="723.7" y1="555.3" x2="14.7" y2="553.6"/>
  <line class="st1" x1="723.6" y1="591.3" x2="14.6" y2="589.6"/>
  <line class="st1" x1="723.5" y1="627.3" x2="14.5" y2="625.6"/>
  <line class="st1" x1="724.4" y1="233.3" x2="15.4" y2="231.6"/>
  <line class="st1" x1="724.4" y1="268.3" x2="15.4" y2="266.6"/>
  <line class="st1" x1="724.3" y1="303.3" x2="15.3" y2="301.6"/>
  <line class="st1" x1="84.1" y1="159.3" x2="83.7" y2="337.3"/>
  <line class="st1" x1="83.5" y1="442.3" x2="83" y2="625.3"/>
  <line class="st1" x1="643.5" y1="443.6" x2="643" y2="626.6"/>
  <line class="st1" x1="464.5" y1="443.2" x2="464" y2="626.2"/>
  <path d="M100.5,179.5c-.9,0-1.4-.7-1.4-2.1,0-.9-.2-1.8-.6-2.8-.4-1-.9-2.1-1.6-3.2-.2-.3-.5-.6-.7-.8-.2-.2-.4-.3-.5-.3-.2,0-.4.2-.4.7v12.4c0,1.3-.5,1.9-1.5,1.9-.9,0-1.4-.6-1.4-1.9v-12.4c0-1.9.8-2.9,2.4-2.9h.8c1,0,1.9.6,2.8,1.9l2,3.4,2-3.4c.4-.6.8-1.1,1.2-1.4.5-.3,1-.5,1.6-.5h.8c1.5,0,2.3,1,2.3,2.9v12.4c0,1.3-.5,1.9-1.4,1.9-.9,0-1.4-.6-1.4-1.9v-12.4c0-.5-.2-.7-.4-.7-.3,0-.7.3-1.1,1-.7,1.1-1.3,2.2-1.6,3.2-.3,1-.5,1.9-.5,2.8,0,1.4-.5,2.1-1.4,2.1ZM112.5,185.5c-.9,0-1.4-.7-1.4-2v-13.6c0-1.3.4-1.9,1.4-1.9.9,0,1.4.6,1.4,1.9v13.6c0,1.3-.5,2-1.4,2ZM128.9,170.7c.3.3.5.7.6,1.1.2.4.2.9.2,1.6v7.1c0,.7,0,1.2-.3,1.7-.2.5-.4.8-.6,1.1l-1.4,1.4c-.3.2-.6.4-1.1.6-.5.1-1,.2-1.6.2h-5c-2.2,0-3.2-1-3.2-3.1v-11c0-2.1,1.1-3.1,3.3-3.1h4.8c1.3,0,2.2.4,2.8.9l.7.8.8.8ZM121.8,169.8c-1.6,0-2.4.8-2.4,2.3v9.6c0,1.5.8,2.3,2.4,2.3h.9c1.2,0,2.1-.2,2.7-.7l.6-.5c.6-.7,1-1.5,1-2.5v-6.8c0-.4-.1-.8-.3-1.2s-.4-.8-.8-1.2l-.4-.4c-.3-.3-.7-.5-1.1-.6-.4-.1-.9-.2-1.4-.3h-1.2ZM143.6,177.8h-9.5c-1.1,0-1.6-.3-1.6-.9,0-.6.5-.9,1.6-.9h9.5c1.1,0,1.6.3,1.6.9,0,.6-.5.9-1.6.9ZM155.8,182.6h0c-.3,0-.7.3-1,.8l-.4.6c-.4.6-.8.9-1.1,1.2-.3.2-.5.3-.6.4h-.9c-.2,0-.5,0-.8-.3-.3-.2-.6-.6-.8-1.1l-1.8-3.6c-.3-.5-.5-1-.6-1.7-.1-.7-.2-1.5-.2-2.4v-6.4c0-1.3.5-2,1.3-2,.9,0,1.4.7,1.4,2v8.2c0,.4,0,.8,0,1.2,0,.3.2.6.3.8l1,1.8c.2.3.3.5.5.5s.3-.2.6-.6l1-1.7c.3-.7.5-1.4.5-2.3v-8c0-1.3.5-2,1.4-2,.9,0,1.4.7,1.4,2v8c0,.1,0,.3,0,.5,0,.7.2,1.3.6,1.8l1,1.7c.2.3.3.5.6.5.2,0,.4-.2.7-.5l1-1.8c.1-.3.2-.7.3-1,.1-.3.2-.6.2-1v-8.2c0-1.4.5-2,1.3-2,.9,0,1.4.7,1.4,2v6.4c0,1,0,1.8-.2,2.4-.1.7-.3,1.2-.6,1.7l-1.8,3.6c-.6.9-1.2,1.4-1.7,1.4h-.9c-.2,0-.4,0-.7-.4-.2-.3-.6-.7-1-1.2l-.4-.6c-.4-.5-.7-.8-1-.8ZM171.5,184h6.6c.9,0,1.3.3,1.3.8,0,.5-.4.7-1.2.7h-8.7c-2.2,0-3.2-.9-3.2-2.7v-11.8c0-1.8,1.1-2.7,3.3-2.7h8.7c.8,0,1.2.3,1.2.8,0,.5-.4.8-1.3.8h-6.6c-1.7,0-2.5.7-2.5,2.1v1.7c0,1.4.8,2.1,2.4,2.1h6.6c.9,0,1.3.2,1.3.7,0,.6-.4.8-1.3.8h-6.6c-1.6,0-2.4.7-2.4,2.1v2.6c0,1.3.8,2,2.5,2ZM182.3,185.6c-.9,0-1.4-.7-1.4-2v-13.6c0-1.3.4-1.9,1.4-1.9.9,0,1.4.6,1.4,1.9v13.6c0,1.3-.5,2-1.4,2ZM198,170h-6.5c-1.5,0-2.2.7-2.2,2.3v9.6c0,1.5.8,2.3,2.3,2.3h2.8c1.6,0,2.4-.9,2.4-2.8v-2.2c0-1.1-.6-1.6-1.9-1.6h-1.8c-1,0-1.5-.3-1.5-.8,0-.5.5-.8,1.4-.8h3.6c2,0,3,.9,3,2.5v4.5c0,1.8-1.1,2.7-3.3,2.7h-6.6c-2.1,0-3.2-1-3.2-2.9v-11.4c0-1.9,1.1-2.9,3.3-2.9h8.4c1,0,1.5.3,1.5.8,0,.5-.5.8-1.6.8ZM212.2,183.7v-4.2c0-1.4-.8-2.1-2.4-2.1h-2.7c-1.6,0-2.4.7-2.4,2.1v4.2c0,1.3-.5,2-1.5,2-.9,0-1.4-.6-1.4-1.8v-13.7c0-1.3.5-1.9,1.4-1.9,1,0,1.4.7,1.4,2v3.5c0,1.4.8,2.1,2.4,2.1h2.8c1.5,0,2.3-.7,2.3-2.1v-3.5c0-1.3.5-2,1.4-2,1,0,1.4.6,1.4,1.9v13.7c0,1.2-.5,1.8-1.5,1.8-.9,0-1.4-.7-1.4-2ZM216,169.2c0-.5.5-.8,1.4-.8h10.2c1,0,1.4.3,1.4.8,0,.5-.5.8-1.5.8h-1.4c-1.5,0-2.3.7-2.3,2.1v11.7c0,1.4-.5,2.1-1.4,2.1-.9,0-1.4-.7-1.4-2.1v-11.7c0-1.4-.7-2.1-2.2-2.1h-1.3c-1,0-1.5-.3-1.5-.8ZM249.5,170.9c.3.3.5.7.6,1.1.2.4.2.9.2,1.6v7.1c0,.7-.1,1.2-.3,1.7-.2.5-.4.8-.6,1.1l-1.4,1.4c-.3.2-.6.4-1.1.6-.5.1-1,.2-1.6.2h-5c-2.2,0-3.2-1-3.2-3.1v-11c0-2.1,1.1-3.1,3.3-3.1h4.8c1.3,0,2.2.4,2.8.9l.7.8.8.8ZM242.3,170.1c-1.6,0-2.4.8-2.4,2.3v9.6c0,1.5.8,2.3,2.4,2.3h.9c1.2,0,2.1-.2,2.7-.7l.6-.5c.6-.7,1-1.5,1-2.5v-6.8c0-.4-.1-.8-.3-1.2-.2-.4-.4-.8-.8-1.2l-.4-.4c-.3-.3-.7-.5-1.1-.6-.4-.1-.9-.2-1.4-.3h-1.2ZM258.1,184.2h6.6c.9,0,1.3.3,1.3.8,0,.5-.4.7-1.2.7h-8.7c-2.2,0-3.2-.9-3.2-2.7v-11.8c0-1.8,1.1-2.7,3.3-2.7h8.7c.8,0,1.2.3,1.2.8,0,.5-.4.8-1.3.8h-6.6c-1.7,0-2.5.7-2.5,2.1v1.7c0,1.4.8,2.1,2.4,2.1h6.6c.9,0,1.3.2,1.3.7,0,.6-.4.8-1.3.8h-6.6c-1.6,0-2.4.7-2.4,2.1v2.6c0,1.3.8,2,2.5,2ZM270.6,177.6c-2.3,0-3.4-.9-3.4-2.7v-3.6c0-1.8,1.1-2.8,3.3-2.8h8.3c1.1,0,1.6.3,1.6.9,0,.5-.5.7-1.6.7h-6.5c-1.5,0-2.2.8-2.2,2.4v1c0,1.7.7,2.5,2.2,2.5h4.7c2.3,0,3.4.9,3.4,2.7v4.3c0,1.8-1.1,2.7-3.3,2.7h-8.3c-1,0-1.6-.3-1.6-.8,0-.5.5-.7,1.6-.7h6.6c1.4,0,2.2-.7,2.2-2.1v-1.9c0-1.8-.8-2.7-2.3-2.7h-4.6ZM284.4,185.9c-.9,0-1.4-.7-1.4-2v-13.6c0-1.3.4-1.9,1.4-1.9.9,0,1.4.6,1.4,1.9v13.6c0,1.3-.5,2-1.4,2ZM300.1,170.2h-6.5c-1.5,0-2.2.7-2.2,2.3v9.6c0,1.5.8,2.3,2.3,2.3h2.8c1.6,0,2.4-.9,2.4-2.8v-2.2c0-1.1-.6-1.6-1.9-1.6h-1.8c-1,0-1.5-.3-1.5-.8,0-.5.5-.8,1.4-.8h3.6c2,0,3,.9,3,2.5v4.5c0,1.8-1.1,2.7-3.3,2.7h-6.6c-2.1,0-3.2-1-3.2-2.9v-11.4c0-1.9,1.1-2.9,3.3-2.9h8.4c1,0,1.5.3,1.5.8,0,.5-.5.8-1.6.8ZM313.4,181.2c.3.8.6,1.2.8,1.2.1,0,.2-.2.2-.7v-10.7c0-1.6.5-2.4,1.5-2.4,1,0,1.4.7,1.4,2v12.6c0,1.9-1,2.9-2.7,2.9-.8,0-1.5-.6-2.1-1.9l-4.7-10.8c-.3-.5-.6-.8-.7-.8-.2,0-.2.3-.2,1v10.2c0,1.4-.5,2.2-1.4,2.2-1,0-1.4-.6-1.4-1.9v-12.7c0-1.9.9-2.9,2.7-2.9.7,0,1.4.7,2.1,2l4.6,10.8ZM324.9,184.4h6.6c.9,0,1.3.3,1.3.8,0,.5-.4.7-1.2.7h-8.7c-2.2,0-3.2-.9-3.2-2.7v-11.8c0-1.8,1.1-2.7,3.3-2.7h8.7c.8,0,1.2.3,1.2.8,0,.5-.4.8-1.3.8h-6.6c-1.7,0-2.5.7-2.5,2.1v1.7c0,1.4.8,2.1,2.4,2.1h6.6c.9,0,1.3.2,1.3.7,0,.6-.4.8-1.3.8h-6.6c-1.6,0-2.4.7-2.4,2.1v2.6c0,1.3.8,2,2.5,2ZM343.6,175.1c.6-.6.8-1.3.8-2.1v-.9c0-.6-.2-1-.6-1.3-.3-.3-.8-.5-1.4-.5h-3.3c-1.5,0-2.3.9-2.3,2.7v1.1c0,1.8.8,2.7,2.3,2.7h1.2c.9,0,1.6-.2,2.1-.8l1.2-.9ZM345.8,186.1c-.9,0-1.4-.6-1.4-1.7v-2.8c0-.2,0-.4-.2-.7-.2-.3-.4-.5-.6-.8l-1.2-1c-.7-.5-1.3-.8-1.8-.8h-1.4c-1.5,0-2.3.8-2.3,2.3v3.6c0,1.2-.5,1.8-1.4,1.8-.9,0-1.4-.7-1.4-2v-12.4c0-1.9,1.1-2.9,3.1-2.9h6.6c2.3,0,3.4.9,3.4,2.7v2.6c-.1.8-.7,1.6-1.7,2.4-.4.3-.6.7-.6,1,0,.3.2.7.6,1,1.1,1,1.6,1.8,1.8,2.5v3.2c0,1.2-.5,1.8-1.5,1.8ZM366.1,169.2l-7.2,17.3c-.5,1-1.1,1.5-1.6,1.5-.4,0-.7-.1-.9-.4-.2-.3-.3-.5-.3-.8,0-.3.1-.8.4-1.4l7-16.9c.4-1,.9-1.5,1.6-1.5.4,0,.7.1.9.4.2.2.3.5.3.8,0,.3,0,.6-.2,1ZM378.6,177.8c-2.3,0-3.4-.9-3.4-2.7v-3.6c0-1.8,1.1-2.8,3.3-2.8h8.3c1.1,0,1.6.3,1.6.9,0,.5-.5.7-1.6.7h-6.5c-1.5,0-2.2.8-2.2,2.4v1c0,1.7.7,2.5,2.2,2.5h4.7c2.3,0,3.4.9,3.4,2.7v4.3c0,1.8-1.1,2.7-3.3,2.7h-8.3c-1,0-1.6-.3-1.6-.8,0-.5.5-.7,1.6-.7h6.6c1.4,0,2.2-.7,2.2-2.1v-1.9c0-1.8-.7-2.7-2.3-2.7h-4.6ZM398.6,180.2c-.9,0-1.4-.7-1.4-2.1,0-.9-.2-1.8-.6-2.8-.4-1-.9-2.1-1.6-3.2-.2-.3-.5-.6-.7-.8-.2-.2-.4-.3-.5-.3-.2,0-.4.2-.4.7v12.4c0,1.3-.5,1.9-1.5,1.9-.9,0-1.4-.6-1.4-1.9v-12.4c0-1.9.8-2.9,2.4-2.9h.8c1,0,1.9.6,2.8,1.9l2,3.4,2-3.4c.4-.6.8-1.1,1.2-1.4.5-.3,1-.5,1.6-.5h.8c1.5,0,2.3,1,2.3,2.9v12.4c0,1.3-.5,1.9-1.4,1.9-.9,0-1.4-.6-1.4-1.9v-12.4c0-.5-.2-.7-.4-.7-.3,0-.7.3-1.1,1-.7,1.1-1.3,2.2-1.6,3.2-.3,1-.5,1.9-.5,2.8,0,1.4-.5,2.1-1.4,2.1ZM416.8,170.5h-2.7c-1.6,0-2.4.8-2.4,2.5v1.5c0,1.6.8,2.4,2.4,2.4h2.8c1.6,0,2.4-1,2.4-2.9v-1.5c0-1.3-.8-2-2.4-2ZM419.2,183.9v-3.5c0-1.3-.8-2-2.4-2h-2.7c-1.6,0-2.4.6-2.4,1.9v3.6c0,1.4-.5,2.1-1.4,2.1-.9,0-1.4-.6-1.4-1.9v-12.4c0-1.9,1-2.9,3-2.9h6.9c2.2,0,3.3,1,3.3,2.9v12.3c0,1.3-.5,1.9-1.4,1.9-.9,0-1.4-.7-1.4-2.1ZM434,175.3c.6-.6.8-1.3.8-2.1v-.9c0-.6-.2-1-.6-1.3-.3-.3-.8-.5-1.4-.5h-3.3c-1.5,0-2.3.9-2.3,2.7v1.1c0,1.8.8,2.7,2.3,2.7h1.2c.9,0,1.6-.2,2.1-.8l1.2-.9ZM436.2,186.3c-.9,0-1.4-.6-1.4-1.7v-2.8c0-.2,0-.4-.2-.7-.2-.3-.4-.5-.6-.8l-1.2-1c-.7-.5-1.3-.8-1.8-.8h-1.4c-1.5,0-2.3.8-2.3,2.3v3.6c0,1.2-.5,1.8-1.4,1.8-.9,0-1.4-.7-1.4-2v-12.4c0-1.9,1.1-2.9,3.1-2.9h6.6c2.3,0,3.4.9,3.4,2.7v2.6c-.1.8-.7,1.6-1.7,2.4-.4.3-.6.7-.6,1,0,.3.2.7.6,1,1.1,1,1.6,1.8,1.8,2.5v3.2c0,1.2-.5,1.8-1.5,1.8ZM438.5,169.7c0-.5.5-.8,1.4-.8h10.2c1,0,1.4.3,1.4.8,0,.5-.5.8-1.5.8h-1.4c-1.5,0-2.3.7-2.3,2.1v11.7c0,1.4-.5,2.1-1.4,2.1-.9,0-1.4-.7-1.4-2.1v-11.7c0-1.4-.7-2.1-2.2-2.1h-1.3c-1,0-1.5-.3-1.5-.8ZM463.1,178c-2.3,0-3.4-.9-3.4-2.7v-3.6c0-1.8,1.1-2.8,3.3-2.8h8.3c1.1,0,1.6.3,1.6.9,0,.5-.5.7-1.6.7h-6.5c-1.5,0-2.2.8-2.2,2.4v1c0,1.7.7,2.5,2.2,2.5h4.7c2.3,0,3.4.9,3.4,2.7v4.3c0,1.8-1.1,2.7-3.3,2.7h-8.3c-1,0-1.6-.3-1.6-.8,0-.5.5-.7,1.6-.7h6.6c1.4,0,2.2-.7,2.2-2.1v-1.9c0-1.8-.8-2.7-2.3-2.7h-4.6ZM480.3,184.8h2.8c1.6,0,2.4-.8,2.4-2.3v-9.5c0-1.5-.8-2.3-2.4-2.3h-2.7c-1.6,0-2.4.7-2.4,2.3v9.6c0,1.5.8,2.3,2.3,2.3ZM488.3,183.5c0,1.8-1.1,2.7-3.2,2.7h-6.7c-2.2,0-3.2-.9-3.2-2.7v-11.6c0-1.9,1.1-2.8,3.3-2.8h6.6c2.2,0,3.3,1,3.3,2.8v11.6ZM500.9,184.4v-4.2c0-1.4-.8-2.1-2.4-2.1h-2.7c-1.6,0-2.4.7-2.4,2.1v4.2c0,1.3-.5,2-1.5,2-.9,0-1.4-.6-1.4-1.8v-13.7c0-1.3.5-1.9,1.4-1.9,1,0,1.4.7,1.4,2v3.5c0,1.4.8,2.1,2.4,2.1h2.8c1.5,0,2.3-.7,2.3-2.1v-3.5c0-1.3.5-2,1.4-2,1,0,1.4.6,1.4,1.9v13.7c0,1.2-.5,1.8-1.5,1.8-.9,0-1.4-.7-1.4-2ZM511.4,184.8h2.8c1.6,0,2.4-.8,2.4-2.3v-9.5c0-1.5-.8-2.3-2.4-2.3h-2.7c-1.6,0-2.4.7-2.4,2.3v9.6c0,1.5.8,2.3,2.3,2.3ZM519.4,183.6c0,1.8-1.1,2.7-3.2,2.7h-6.7c-2.2,0-3.2-.9-3.2-2.7v-11.6c0-1.9,1.1-2.8,3.3-2.8h6.6c2.2,0,3.3,1,3.3,2.8v11.6Z"/>
  <path d="M102.2,466.7c0-.3.1-.5.3-.7.2-.2.6-.3,1.1-.3.9,0,1.4.4,1.4,1.3v.7c0,1.8-1,2.6-3,2.6h-7.2c-1.9,0-2.9-1-2.9-2.9v-11.4c0-1.9,1-2.9,3-2.9h7.2c2,0,3,.9,3,2.7v.6c0,1-.5,1.4-1.4,1.4-.9,0-1.4-.3-1.4-.9,0-1.5-.8-2.2-2.4-2.2h-2.7c-1.6,0-2.4.7-2.4,2.1v10c0,1.4.8,2,2.3,2h2.8c1.6,0,2.4-.7,2.4-2.1ZM117,459.6c.6-.6.8-1.3.8-2.1v-.9c0-.6-.2-1-.6-1.3-.3-.3-.8-.5-1.4-.5h-3.3c-1.5,0-2.3.9-2.3,2.7v1.1c0,1.8.8,2.7,2.3,2.7h1.2c.9,0,1.6-.2,2.1-.8l1.2-.9ZM119.2,470.6c-.9,0-1.4-.6-1.4-1.7v-2.8c0-.2,0-.4-.2-.7-.2-.3-.4-.5-.6-.8l-1.2-1c-.7-.5-1.3-.8-1.8-.8h-1.4c-1.5,0-2.3.8-2.3,2.3v3.6c0,1.2-.5,1.8-1.4,1.8-.9,0-1.4-.7-1.4-2v-12.4c0-1.9,1.1-2.9,3.1-2.9h6.6c2.3,0,3.4.9,3.4,2.7v2.6c-.1.8-.7,1.6-1.7,2.4-.4.3-.6.7-.6,1,0,.3.2.7.6,1,1.1,1,1.6,1.8,1.8,2.5v3.2c0,1.2-.5,1.8-1.5,1.8ZM128.3,468.9h6.6c.9,0,1.3.3,1.3.8,0,.5-.4.7-1.2.7h-8.7c-2.2,0-3.2-.9-3.2-2.7v-11.8c0-1.8,1.1-2.7,3.3-2.7h8.7c.8,0,1.2.3,1.2.8,0,.5-.4.8-1.3.8h-6.6c-1.7,0-2.5.7-2.5,2.1v1.7c0,1.4.8,2.1,2.4,2.1h6.6c.9,0,1.3.2,1.3.7,0,.6-.4.8-1.3.8h-6.6c-1.6,0-2.4.7-2.4,2.1v2.6c0,1.3.8,2,2.5,2ZM145.3,454.9h-2.7c-1.6,0-2.4.8-2.4,2.5v1.5c0,1.6.8,2.4,2.4,2.4h2.8c1.6,0,2.4-1,2.4-2.9v-1.5c0-1.3-.8-2-2.4-2ZM147.7,468.3v-3.5c0-1.3-.8-2-2.4-2h-2.7c-1.6,0-2.4.6-2.4,1.9v3.6c0,1.4-.5,2.1-1.4,2.1-.9,0-1.4-.6-1.4-1.9v-12.4c0-1.9,1-2.9,3-2.9h6.9c2.2,0,3.3,1,3.3,2.9v12.3c0,1.3-.5,1.9-1.4,1.9-.9,0-1.4-.7-1.4-2.1ZM151.4,454.1c0-.5.5-.8,1.4-.8h10.2c1,0,1.4.3,1.4.8,0,.5-.5.8-1.5.8h-1.4c-1.5,0-2.3.7-2.3,2.1v11.7c0,1.4-.5,2.1-1.4,2.1-.9,0-1.4-.7-1.4-2.1v-11.7c0-1.4-.7-2.1-2.2-2.1h-1.3c-1,0-1.5-.3-1.5-.8ZM167.1,470.6c-.9,0-1.4-.7-1.4-2v-13.6c0-1.3.4-1.9,1.4-1.9.9,0,1.4.6,1.4,1.9v13.6c0,1.3-.5,2-1.4,2ZM177.9,470.5h-.5c-.7,0-1.3-.3-1.8-1l-3.8-4.3c-.3-.3-.5-.8-.7-1.2-.1-.5-.2-1.1-.2-1.8v-7c0-1.4.5-2,1.4-2,1,0,1.4.7,1.4,2v7.4c0,.8.4,1.7,1.3,2.7l2,2.4c.2.1.4.2.5.2.2,0,.4-.1.6-.3l2-2.2c.5-.5.8-1,1.1-1.4.3-.5.4-.9.4-1.3v-7.4c0-1.4.5-2,1.4-2,1,0,1.4.7,1.4,2v7c0,1.4-.4,2.4-1.1,3.1l-3.7,4.3c-.3.4-.6.6-1,.8-.3.1-.6.2-.9.2ZM192.1,469.1h6.6c.9,0,1.3.3,1.3.8,0,.5-.4.7-1.2.7h-8.7c-2.2,0-3.2-.9-3.2-2.7v-11.8c0-1.8,1.1-2.7,3.3-2.7h8.7c.8,0,1.2.3,1.2.8,0,.5-.4.8-1.3.8h-6.6c-1.7,0-2.5.7-2.5,2.1v1.7c0,1.4.8,2.1,2.4,2.1h6.6c.9,0,1.3.2,1.3.7,0,.6-.4.8-1.3.8h-6.6c-1.6,0-2.4.7-2.4,2.1v2.6c0,1.3.8,2,2.5,2ZM216.3,455h-2.7c-1.6,0-2.4.8-2.4,2.5v1.5c0,1.6.8,2.4,2.4,2.4h2.8c1.6,0,2.4-1,2.4-2.9v-1.5c0-1.3-.8-2-2.4-2ZM218.8,468.5v-3.5c0-1.3-.8-2-2.4-2h-2.7c-1.6,0-2.4.6-2.4,1.9v3.6c0,1.4-.5,2.1-1.4,2.1-.9,0-1.4-.6-1.4-1.9v-12.4c0-1.9,1-2.9,3-2.9h6.9c2.2,0,3.3,1,3.3,2.9v12.3c0,1.3-.5,1.9-1.4,1.9-.9,0-1.4-.7-1.4-2.1ZM236.2,455.9c.3.3.5.7.6,1.1.2.4.2.9.2,1.6v7.1c0,.7,0,1.2-.3,1.7-.2.5-.4.8-.6,1.1l-1.4,1.4c-.3.2-.6.4-1.1.6-.5.1-1,.2-1.6.2h-5c-2.2,0-3.2-1-3.2-3.1v-11c0-2.1,1.1-3.1,3.3-3.1h4.8c1.3,0,2.2.4,2.8.9l.7.8.8.8ZM229.1,455.1c-1.6,0-2.4.8-2.4,2.3v9.6c0,1.5.8,2.3,2.4,2.3h.9c1.2,0,2.1-.2,2.7-.7l.6-.5c.6-.7,1-1.5,1-2.5v-6.8c0-.4-.1-.8-.3-1.2-.2-.4-.4-.8-.8-1.2l-.4-.4c-.3-.3-.7-.5-1.1-.6-.4-.1-.9-.2-1.4-.3h-1.2ZM246,470.7h-.5c-.7,0-1.3-.3-1.8-1l-3.7-4.3c-.3-.3-.5-.8-.7-1.2-.1-.5-.2-1.1-.2-1.8v-7c0-1.4.5-2,1.4-2,1,0,1.4.7,1.4,2v7.4c0,.8.4,1.7,1.3,2.7l2,2.4c.2.1.4.2.5.2.2,0,.4-.1.6-.3l2-2.2c.5-.5.8-1,1.1-1.4.3-.5.4-.9.4-1.3v-7.4c0-1.4.5-2,1.4-2,1,0,1.4.7,1.4,2v7c0,1.4-.4,2.4-1.1,3.1l-3.7,4.3c-.3.4-.6.6-1,.8-.3.1-.6.2-.9.2ZM260.3,469.2h6.6c.9,0,1.3.3,1.3.8,0,.5-.4.7-1.2.7h-8.7c-2.2,0-3.2-.9-3.2-2.7v-11.8c0-1.8,1.1-2.7,3.3-2.7h8.7c.8,0,1.2.3,1.2.8,0,.5-.4.8-1.3.8h-6.6c-1.7,0-2.5.7-2.5,2.1v1.7c0,1.4.8,2.1,2.4,2.1h6.6c.9,0,1.3.2,1.3.7,0,.6-.4.8-1.3.8h-6.6c-1.6,0-2.4.7-2.4,2.1v2.6c0,1.3.8,2,2.5,2ZM279,460c.6-.6.8-1.3.8-2.1v-.9c0-.6-.2-1-.6-1.3-.3-.3-.8-.5-1.4-.5h-3.3c-1.5,0-2.3.9-2.3,2.7v1.1c0,1.8.8,2.7,2.3,2.7h1.2c.9,0,1.6-.2,2.1-.8l1.2-.9ZM281.2,470.9c-.9,0-1.4-.6-1.4-1.7v-2.8c0-.2,0-.4-.2-.7-.2-.3-.4-.5-.6-.8l-1.2-1c-.7-.5-1.3-.8-1.8-.8h-1.4c-1.5,0-2.3.8-2.3,2.3v3.6c0,1.2-.5,1.8-1.4,1.8-.9,0-1.4-.7-1.4-2v-12.4c0-1.9,1.1-2.9,3.1-2.9h6.6c2.3,0,3.4.9,3.4,2.7v2.6c-.1.8-.7,1.6-1.7,2.4-.4.3-.6.7-.6,1,0,.3.2.7.6,1,1.1,1,1.6,1.8,1.8,2.5v3.2c0,1.2-.5,1.8-1.5,1.8ZM283.4,454.4c0-.5.5-.8,1.4-.8h10.2c1,0,1.4.3,1.4.8,0,.5-.5.8-1.5.8h-1.4c-1.5,0-2.3.7-2.3,2.1v11.7c0,1.4-.5,2.1-1.4,2.1-.9,0-1.4-.7-1.4-2.1v-11.7c0-1.4-.7-2.1-2.2-2.1h-1.3c-1,0-1.5-.3-1.5-.8ZM299.2,470.9c-.9,0-1.4-.7-1.4-2v-13.6c0-1.3.4-1.9,1.4-1.9.9,0,1.4.6,1.4,1.9v13.6c0,1.3-.5,2-1.4,2ZM306.7,462.7c-2.3,0-3.4-.9-3.4-2.7v-3.6c0-1.8,1.1-2.8,3.3-2.8h8.3c1.1,0,1.6.3,1.6.9,0,.5-.5.7-1.6.7h-6.5c-1.5,0-2.2.8-2.2,2.4v1c0,1.7.7,2.5,2.2,2.5h4.7c2.3,0,3.4.9,3.4,2.7v4.3c0,1.8-1.1,2.7-3.3,2.7h-8.3c-1,0-1.6-.3-1.6-.8,0-.5.5-.7,1.6-.7h6.6c1.4,0,2.2-.7,2.2-2.1v-1.9c0-1.8-.7-2.7-2.3-2.7h-4.6ZM320.5,470.9c-.9,0-1.4-.7-1.4-2v-13.6c0-1.3.4-1.9,1.4-1.9.9,0,1.4.6,1.4,1.9v13.6c0,1.3-.5,2-1.4,2ZM334,466.3c.3.8.6,1.2.8,1.2s.2-.2.2-.7v-10.7c0-1.6.5-2.4,1.5-2.4,1,0,1.4.7,1.4,2v12.6c0,1.9-1,2.9-2.7,2.9-.8,0-1.5-.6-2.1-1.9l-4.7-10.8c-.3-.5-.6-.8-.7-.8-.2,0-.2.3-.2,1v10.2c0,1.4-.5,2.2-1.4,2.2-1,0-1.4-.6-1.4-1.9v-12.7c0-1.9.9-2.9,2.7-2.9.7,0,1.4.7,2.1,2l4.6,10.8ZM351.8,455.3h-6.5c-1.5,0-2.2.7-2.2,2.3v9.6c0,1.5.8,2.3,2.3,2.3h2.8c1.6,0,2.4-.9,2.4-2.8v-2.2c0-1.1-.6-1.6-1.9-1.6h-1.8c-1,0-1.5-.3-1.5-.8,0-.5.5-.8,1.4-.8h3.6c2,0,3,.9,3,2.5v4.5c0,1.8-1.1,2.7-3.3,2.7h-6.6c-2.1,0-3.2-1-3.2-2.9v-11.4c0-1.9,1.1-2.9,3.3-2.9h8.4c1,0,1.5.3,1.5.8,0,.5-.5.8-1.6.8ZM370.7,452.6c-1.9,0-2.9.9-2.9,2.6v14.7c0,1.7.9,2.6,2.8,2.6.2,0,.4.3.5.9,0,.6-.6.9-1.8.9-.6,0-1.2-.1-1.8-.4-.5-.2-1-.5-1.4-.9-.4-.4-.7-.8-.9-1.2-.2-.4-.3-.8-.3-1.2v-15.8c0-.3.1-.7.4-1.1.2-.5.5-.9.9-1.3.4-.4.9-.7,1.4-1,.6-.3,1.2-.4,1.8-.4,1.2,0,1.8.3,1.8.8,0,.6-.1.9-.4.9ZM386,465.5v2.8c0,1.8-1.1,2.7-3.3,2.7h-6.6c-2.2,0-3.2-1-3.2-2.9v-11.4c0-1.9,1.1-2.9,3.3-2.9h6.6c2.2,0,3.3,1,3.3,2.8v1.9c-.1.8-.7,1.6-1.7,2.4-.4.3-.6.7-.6,1,0,.3.2.7.6,1,1.1,1,1.6,1.8,1.8,2.5ZM382.3,464.5l-1.2-.9c-.3-.2-.6-.4-.9-.5-.3-.1-.6-.2-.9-.2h-1.4c-1.6,0-2.4.9-2.4,2.8v1.7c0,1.4.8,2.2,2.4,2.2h3.2c1.3,0,2-.6,2-1.9v-1.8c0-.2,0-.4-.3-.6-.2-.2-.4-.5-.6-.8ZM382.3,459.7c.2-.2.4-.5.6-.8.2-.3.3-.7.3-1.1v-.9c0-1-.7-1.5-2-1.5h-3.2c-1.6,0-2.4.9-2.4,2.9v.7c0,1.6.8,2.4,2.3,2.4h1.4c.3,0,.6,0,.9-.2.3-.1.6-.3.9-.5l1.2-1ZM396.3,455.4h-2.7c-1.6,0-2.4.8-2.4,2.5v1.5c0,1.6.8,2.4,2.4,2.4h2.8c1.6,0,2.4-1,2.4-2.9v-1.5c0-1.3-.8-2-2.4-2ZM398.7,468.9v-3.5c0-1.3-.8-2-2.4-2h-2.7c-1.6,0-2.4.6-2.4,1.9v3.6c0,1.4-.5,2.1-1.4,2.1-.9,0-1.4-.6-1.4-1.9v-12.4c0-1.9,1-2.9,3-2.9h6.9c2.2,0,3.3,1,3.3,2.9v12.3c0,1.3-.5,1.9-1.4,1.9-.9,0-1.4-.7-1.4-2.1ZM403.8,452.7c-.3,0-.4-.2-.4-.7,0-.3.1-.6.3-.8.2-.2.7-.3,1.4-.3.6,0,1.1.1,1.7.4.6.3,1.1.7,1.5,1.1.4.4.8.8,1,1.3.3.4.4.8.4,1.1v15.8c0,.4-.2.8-.4,1.2-.2.5-.6.9-1,1.2-.4.4-.9.7-1.5,1-.5.2-1.1.4-1.7.4-1.1,0-1.7-.3-1.7-.9,0-.6.1-.9.4-.9,2,0,3-.9,3-2.6v-14.7c0-1.8-1-2.6-3-2.6Z"/>
  <path d="M480.7,466.3c0,1.6.8,2.4,2.3,2.4h5.7c1,0,1.5.3,1.5.8,0,.5-.5.7-1.5.7h-7.6c-2.1,0-3.2-1-3.2-2.9v-12.5c0-1.3.5-2,1.4-2,1,0,1.4.7,1.4,2.1v11.3ZM492.7,470.4c-.9,0-1.4-.7-1.4-2v-13.6c0-1.3.5-1.9,1.4-1.9.9,0,1.4.6,1.4,1.9v13.6c0,1.3-.5,2-1.4,2ZM506.2,465.7c.3.8.6,1.2.8,1.2s.2-.2.2-.7v-10.7c0-1.6.5-2.4,1.5-2.4,1,0,1.4.7,1.4,2v12.6c0,1.9-1,2.9-2.7,2.9-.8,0-1.5-.6-2.1-1.9l-4.7-10.8c-.3-.5-.6-.8-.7-.8-.2,0-.2.3-.2,1v10.2c0,1.4-.5,2.2-1.4,2.2-1,0-1.4-.6-1.4-1.9v-12.7c0-1.9.9-2.9,2.7-2.9.7,0,1.4.7,2.1,2l4.6,10.8ZM522.7,466.7c0-.3.1-.5.3-.7s.6-.3,1.1-.3c.9,0,1.4.4,1.4,1.3v.7c0,1.8-1,2.6-3,2.6h-7.2c-1.9,0-2.9-1-2.9-2.9v-11.4c0-1.9,1-2.9,3-2.9h7.2c2,0,3,.9,3,2.7v.6c0,1-.5,1.4-1.4,1.4-.9,0-1.4-.3-1.4-.9,0-1.5-.8-2.2-2.4-2.2h-2.7c-1.6,0-2.4.7-2.4,2.1v10c0,1.4.8,2,2.3,2h2.8c1.6,0,2.4-.7,2.4-2.1ZM533.1,468.9h2.8c1.6,0,2.4-.8,2.4-2.3v-9.5c0-1.5-.8-2.3-2.4-2.3h-2.7c-1.6,0-2.4.7-2.4,2.3v9.6c0,1.5.8,2.3,2.3,2.3ZM541.1,467.7c0,1.8-1.1,2.7-3.2,2.7h-6.7c-2.2,0-3.2-.9-3.2-2.7v-11.6c0-1.9,1.1-2.8,3.3-2.8h6.6c2.2,0,3.3,1,3.3,2.8v11.6ZM546.2,466.5c0,1.6.8,2.4,2.3,2.4h5.7c1,0,1.5.3,1.5.8,0,.5-.5.7-1.5.7h-7.6c-2.1,0-3.2-1-3.2-2.9v-12.5c0-1.3.5-2,1.4-2,1,0,1.4.7,1.4,2.1v11.3ZM565.9,465.8c.3.8.6,1.2.8,1.2s.2-.2.2-.7v-10.7c0-1.6.5-2.4,1.5-2.4,1,0,1.4.7,1.4,2v12.6c0,1.9-1,2.9-2.7,2.9-.8,0-1.5-.6-2.1-1.9l-4.7-10.8c-.3-.5-.6-.8-.7-.8-.2,0-.2.3-.2,1v10.2c0,1.4-.5,2.2-1.4,2.2-1,0-1.4-.6-1.4-1.9v-12.7c0-1.9.9-2.9,2.7-2.9.7,0,1.4.7,2.1,2l4.6,10.8Z"/>
  <path d="M649.4,454v-.9c0-1.3.2-2.1.6-2.7.4-.5.9-.8,1.5-.8.2,0,.4.1.4.3s0,.2-.2.3c-.1.1-.2.2-.4.4-.1.1-.3.3-.4.5-.1.2-.2.5-.2.9v.5s.2,0,.2,0c1,0,1.5.5,1.5,1.4,0,1.1-.5,1.6-1.6,1.6-1.1,0-1.6-.5-1.6-1.6ZM664.9,462.5h-4.6c-1.5,0-2.3.9-2.3,2.9v1.6c0,1.4.7,2.2,2.2,2.2h6.6c1.1,0,1.6.3,1.6.7,0,.5-.5.8-1.6.8h-8.3c-2.2,0-3.2-.9-3.2-2.6v-4.3c0-1.9,1.2-2.8,3.5-2.8h4.8c1.4,0,2.2-.9,2.2-2.8v-1c0-1.4-.7-2.1-2.2-2.1h-6.6c-1,0-1.6-.3-1.6-.7,0-.6.5-.8,1.5-.8h8.4c2.2,0,3.3.9,3.3,2.8v3.4c0,1.9-1.2,2.8-3.5,2.8ZM683.9,468c0,1.8-1.1,2.7-3.3,2.7h-6.7c-2.1,0-3.2-.9-3.2-2.7v-12c0-1.7,1.1-2.5,3.2-2.5h6.7c2.2,0,3.3.9,3.3,2.5v12ZM675.6,469.2h3c.3,0,.6,0,.9-.1.3,0,.6-.2.8-.4.3-.2.5-.4.6-.8.2-.3.2-.8.2-1.3v-7.3c0-.3,0-.4-.3-.4-.2,0-.7.3-1.3.9l-5,6.6c-.7.7-1.1,1.3-1.1,1.8,0,.6.7,1,2.2,1ZM680,457.9c.6-.6.9-1.1.9-1.6,0-.5-.3-.8-.8-1-.5-.2-.9-.3-1.4-.3h-2.8c-.8,0-1.5.2-1.9.6-.4.4-.6,1.1-.6,2.1v7c0,.2,0,.4.2.4.2,0,.6-.3,1.2-.8l5.1-6.4Z"/>
  <path d="M649.3,492v-.9c0-1.3.2-2.1.6-2.7.4-.5.9-.8,1.5-.8.2,0,.4.1.4.3s0,.2-.2.3c-.1.1-.2.2-.4.4-.1.1-.3.3-.4.5-.1.2-.2.5-.2.9v.5s.2,0,.2,0c1,0,1.5.5,1.5,1.4,0,1.1-.5,1.6-1.6,1.6-1.1,0-1.6-.5-1.6-1.6ZM664.8,500.5h-4.6c-1.5,0-2.3.9-2.3,2.9v1.6c0,1.4.7,2.2,2.2,2.2h6.6c1.1,0,1.6.3,1.6.7,0,.5-.5.8-1.6.8h-8.3c-2.2,0-3.2-.9-3.2-2.6v-4.3c0-1.9,1.2-2.8,3.5-2.8h4.8c1.4,0,2.2-.9,2.2-2.8v-1c0-1.4-.7-2.1-2.2-2.1h-6.6c-1,0-1.6-.3-1.6-.7,0-.6.5-.8,1.5-.8h8.4c2.2,0,3.3.9,3.3,2.8v3.4c0,1.9-1.2,2.8-3.5,2.8ZM680.3,500.5h-4.6c-1.5,0-2.3.9-2.3,2.9v1.6c0,1.4.7,2.2,2.2,2.2h6.6c1.1,0,1.6.3,1.6.7,0,.5-.5.8-1.6.8h-8.3c-2.2,0-3.2-.9-3.2-2.6v-4.3c0-1.9,1.2-2.8,3.5-2.8h4.8c1.4,0,2.2-.9,2.2-2.8v-1c0-1.4-.7-2.1-2.2-2.1h-6.6c-1,0-1.6-.3-1.6-.7,0-.6.5-.8,1.5-.8h8.4c2.2,0,3.3.9,3.3,2.8v3.4c0,1.9-1.2,2.8-3.5,2.8Z"/>
  <path d="M649.2,529v-.9c0-1.3.2-2.1.6-2.7.4-.5.9-.8,1.5-.8.2,0,.4.1.4.3,0,.1,0,.2-.2.3-.1.1-.2.2-.4.4-.1.1-.3.3-.4.5-.1.2-.2.5-.2.9v.5s.2,0,.2,0c1,0,1.5.5,1.5,1.4,0,1.1-.5,1.6-1.6,1.6-1.1,0-1.6-.5-1.6-1.6ZM661.2,543.9v-11.7c0-.7-.1-1.2-.5-1.4-.3-.3-.7-.4-1.2-.5-.4-.1-.8-.2-1.2-.3-.3,0-.5-.3-.5-.6,0-.5.5-.8,1.5-.8h1.7c2.1,0,3.1,1,3.1,2.9v12.6c0,1.3-.5,2-1.5,2-1,0-1.5-.7-1.5-2.2ZM683.4,531v.7c0,.6-.2,1.3-.6,1.9-.4.6-.9,1.3-1.5,2l-2.9,3.2c-.3.3-.5.7-.6,1.1-.1.4-.2.8-.2,1.3v2.9c0,1.3-.5,2-1.5,2-1,0-1.5-.6-1.5-1.6v-3.5c0-1.3.5-2.5,1.6-3.6l3-3.3c.3-.3.5-.7.7-1.1.2-.4.3-.8.3-1.3v-.4c0-.8-.4-1.2-1.2-1.2h-7.6c-1,0-1.6-.3-1.6-.8,0-.5.5-.8,1.5-.8h8.8c2.1,0,3.1.9,3.1,2.5Z"/>
  <path d="M649.1,565v-.9c0-1.3.2-2.1.6-2.7.4-.5.9-.8,1.5-.8.2,0,.4.1.4.3s0,.2-.2.3c-.1.1-.2.2-.4.4-.1.1-.3.3-.4.5-.1.2-.2.5-.2.9v.5s.2,0,.2,0c1,0,1.5.5,1.5,1.4,0,1.1-.5,1.6-1.6,1.6-1.1,0-1.6-.5-1.6-1.6ZM661.1,579.9v-11.7c0-.7-.1-1.2-.5-1.4-.3-.3-.7-.4-1.2-.5-.4-.1-.8-.2-1.2-.3-.3,0-.5-.3-.5-.6,0-.5.5-.8,1.5-.8h1.7c2.1,0,3.1,1,3.1,2.9v12.6c0,1.3-.5,2-1.5,2s-1.5-.7-1.5-2.2ZM670.4,578.8v-11.4c0-1.9,1.1-2.9,3.2-2.9h8c1,0,1.5.3,1.5.8,0,.5-.5.8-1.6.8h-6c-1.5,0-2.3.9-2.3,2.7v1c0,1.5.7,2.2,2.2,2.2h4.7c2.3,0,3.4.9,3.4,2.6v4.3c0,1.8-1.1,2.8-3.3,2.8h-6.5c-2.1,0-3.2-1-3.2-2.9ZM678.3,573.5h-2.6c-1.6,0-2.4.9-2.4,2.8v1.8c0,1.4.8,2.1,2.4,2.1h2.8c1.6,0,2.4-.9,2.4-2.7v-1.8c0-1.5-.8-2.2-2.5-2.2Z"/>
  <path d="M649,601v-.9c0-1.3.2-2.1.6-2.7.4-.5.9-.8,1.5-.8.2,0,.4.1.4.3s0,.2-.2.3c-.1.1-.2.2-.4.4-.1.1-.3.3-.4.5-.1.2-.2.5-.2.9v.5s.2,0,.2,0c1,0,1.5.5,1.5,1.4,0,1.1-.5,1.6-1.6,1.6-1.1,0-1.6-.5-1.6-1.6ZM664.6,609.5h-4.6c-1.5,0-2.3.9-2.3,2.9v1.6c0,1.4.7,2.2,2.2,2.2h6.6c1.1,0,1.6.3,1.6.7,0,.5-.5.8-1.6.8h-8.3c-2.2,0-3.2-.9-3.2-2.6v-4.3c0-1.9,1.2-2.8,3.5-2.8h4.8c1.4,0,2.2-.9,2.2-2.8v-1c0-1.4-.7-2.1-2.2-2.1h-6.6c-1,0-1.6-.3-1.6-.7,0-.6.5-.8,1.5-.8h8.4c2.2,0,3.3.9,3.3,2.8v3.4c0,1.9-1.2,2.8-3.5,2.8ZM676.5,615.9v-11.7c0-.7-.1-1.2-.5-1.4-.3-.3-.7-.4-1.2-.5-.4-.1-.8-.2-1.2-.3-.3,0-.5-.3-.5-.6,0-.5.5-.8,1.5-.8h1.7c2.1,0,3.1,1,3.1,2.9v12.6c0,1.3-.5,2-1.5,2-1,0-1.5-.7-1.5-2.2Z"/>
  <path d="M490.9,502.8v2.8c0,1.8-1.1,2.7-3.3,2.7h-6.6c-2.2,0-3.2-1-3.2-2.9v-11.4c0-1.9,1.1-2.9,3.3-2.9h6.6c2.2,0,3.3,1,3.3,2.8v1.9c-.1.8-.7,1.6-1.7,2.4-.4.3-.6.7-.6,1,0,.3.2.7.6,1,1.1,1,1.6,1.8,1.8,2.5ZM487.3,501.7l-1.2-.9c-.3-.2-.6-.4-.9-.5s-.6-.2-.9-.2h-1.4c-1.6,0-2.4.9-2.4,2.8v1.7c0,1.4.8,2.2,2.4,2.2h3.2c1.3,0,2-.6,2-1.9v-1.8c0-.2,0-.4-.3-.6-.2-.2-.4-.5-.6-.8ZM487.3,496.9c.2-.2.4-.5.6-.8.2-.3.3-.7.3-1.1v-.9c0-1-.7-1.5-2-1.5h-3.2c-1.6,0-2.4.9-2.4,2.9v.7c0,1.6.8,2.4,2.3,2.4h1.4c.3,0,.6,0,.9-.2.3-.1.6-.3.9-.5l1.2-1ZM502.9,497.5c.6-.6.8-1.3.8-2.1v-.9c0-.6-.2-1-.6-1.3-.3-.3-.8-.5-1.4-.5h-3.3c-1.5,0-2.3.9-2.3,2.7v1.1c0,1.8.8,2.7,2.3,2.7h1.2c.9,0,1.6-.2,2.1-.8l1.2-.9ZM505.1,508.5c-.9,0-1.4-.6-1.4-1.7v-2.8c0-.2,0-.4-.2-.7-.2-.3-.4-.5-.6-.8l-1.2-1c-.7-.5-1.3-.8-1.8-.8h-1.4c-1.5,0-2.3.8-2.3,2.3v3.6c0,1.2-.5,1.8-1.4,1.8-.9,0-1.4-.7-1.4-2v-12.4c0-1.9,1.1-2.9,3.1-2.9h6.6c2.3,0,3.4.9,3.4,2.7v2.6c-.1.8-.7,1.6-1.7,2.4-.4.3-.6.7-.6,1,0,.3.2.7.6,1,1.1,1,1.6,1.8,1.8,2.5v3.2c0,1.2-.5,1.8-1.5,1.8ZM510.5,508.4c-.9,0-1.4-.7-1.4-2v-13.6c0-1.3.4-1.9,1.4-1.9.9,0,1.4.6,1.4,1.9v13.6c0,1.3-.5,2-1.4,2ZM521.7,502.9c-.2-.2-.4-.3-.5-.3-.2,0-.3,0-.5.3l-3.1,4.6c-.7.8-1.3,1.2-1.8,1.2-.3,0-.5-.1-.7-.4-.2-.2-.3-.5-.3-.7,0-.2,0-.4.2-.6.1-.2.3-.5.4-.7l3.2-4.8c.6-.7.8-1.4.8-2,0-.6-.3-1.2-.9-1.9l-3.1-4.2c-.2-.2-.3-.5-.4-.6-.1-.2-.2-.4-.2-.6,0-.2,0-.5.3-.7.2-.3.4-.4.7-.4.5,0,1.1.4,1.8,1.2l3.1,4.2c.1.2.3.2.5.2.1,0,.3,0,.5-.2l3-4.2c.6-.8,1.2-1.2,1.7-1.2.3,0,.6.1.7.4.2.2.3.5.3.8,0,.2,0,.4-.1.6,0,.2-.2.4-.4.6l-3.1,4.2c-.6.6-1,1.3-1,1.9,0,.6.3,1.3.9,2l3.1,4.8c.2.3.3.5.4.7.1.2.1.4.1.6,0,.3-.1.6-.3.8-.2.2-.5.3-.7.3-.5,0-1.1-.4-1.7-1.2l-3-4.6ZM528.7,492c0-.5.5-.8,1.4-.8h10.2c1,0,1.4.3,1.4.8,0,.5-.5.8-1.5.8h-1.4c-1.5,0-2.3.7-2.3,2.1v11.7c0,1.4-.5,2.1-1.4,2.1-.9,0-1.4-.7-1.4-2.1v-11.7c0-1.4-.7-2.1-2.2-2.1h-1.3c-1,0-1.5-.3-1.5-.8ZM547.9,506.9h2.8c1.6,0,2.4-.8,2.4-2.3v-9.5c0-1.5-.8-2.3-2.4-2.3h-2.7c-1.6,0-2.4.7-2.4,2.3v9.6c0,1.5.8,2.3,2.3,2.3ZM555.9,505.7c0,1.8-1.1,2.7-3.2,2.7h-6.7c-2.2,0-3.2-.9-3.2-2.7v-11.6c0-1.9,1.1-2.8,3.3-2.8h6.6c2.2,0,3.3,1,3.3,2.8v11.6ZM567.6,503.8c.3.8.6,1.2.8,1.2s.2-.2.2-.7v-10.7c0-1.6.5-2.4,1.5-2.4,1,0,1.4.7,1.4,2v12.6c0,1.9-1,2.9-2.7,2.9-.8,0-1.5-.6-2.1-1.9l-4.7-10.8c-.3-.5-.6-.8-.7-.8-.2,0-.2.3-.2,1v10.2c0,1.4-.5,2.2-1.4,2.2-1,0-1.4-.6-1.4-1.9v-12.7c0-1.9.9-2.9,2.7-2.9.7,0,1.4.7,2.1,2l4.6,10.8Z"/>
  <path d="M480.5,541.3c0,1.6.8,2.4,2.3,2.4h5.7c1,0,1.5.3,1.5.8,0,.5-.5.7-1.5.7h-7.6c-2.1,0-3.2-1-3.2-2.9v-12.5c0-1.3.5-2,1.4-2,1,0,1.4.7,1.4,2.1v11.3ZM492.6,545.3c-.9,0-1.4-.7-1.4-2v-13.6c0-1.3.4-1.9,1.4-1.9.9,0,1.4.6,1.4,1.9v13.6c0,1.3-.5,2-1.4,2ZM506,540.7c.3.8.6,1.2.8,1.2.1,0,.2-.2.2-.7v-10.7c0-1.6.5-2.4,1.5-2.4,1,0,1.4.7,1.4,2v12.6c0,1.9-1,2.9-2.7,2.9-.8,0-1.5-.6-2.1-1.9l-4.7-10.8c-.3-.5-.6-.8-.7-.8-.2,0-.2.3-.2,1v10.2c0,1.4-.5,2.2-1.4,2.2-1,0-1.4-.6-1.4-1.9v-12.7c0-1.9.9-2.9,2.7-2.9.7,0,1.4.7,2.1,2l4.6,10.8ZM522.5,541.7c0-.3.1-.5.3-.7.2-.2.6-.3,1.1-.3.9,0,1.4.4,1.4,1.3v.7c0,1.8-1,2.6-3,2.6h-7.2c-1.9,0-2.9-1-2.9-2.9v-11.4c0-1.9,1-2.9,3-2.9h7.2c2,0,3,.9,3,2.7v.6c0,1-.5,1.4-1.4,1.4-.9,0-1.4-.3-1.4-.9,0-1.5-.8-2.2-2.4-2.2h-2.7c-1.6,0-2.4.7-2.4,2.1v10c0,1.4.8,2,2.3,2h2.8c1.6,0,2.4-.7,2.4-2.1ZM532.9,543.9h2.8c1.6,0,2.4-.8,2.4-2.3v-9.5c0-1.5-.8-2.3-2.4-2.3h-2.7c-1.6,0-2.4.7-2.4,2.3v9.6c0,1.5.8,2.3,2.3,2.3ZM540.9,542.7c0,1.8-1.1,2.7-3.2,2.7h-6.7c-2.2,0-3.2-.9-3.2-2.7v-11.6c0-1.9,1.1-2.8,3.3-2.8h6.6c2.2,0,3.3,1,3.3,2.8v11.6ZM546,541.5c0,1.6.8,2.4,2.3,2.4h5.7c1,0,1.5.3,1.5.8,0,.5-.5.7-1.5.7h-7.6c-2.1,0-3.2-1-3.2-2.9v-12.5c0-1.3.5-2,1.4-2,1,0,1.4.7,1.4,2.1v11.3ZM565.7,540.8c.3.8.6,1.2.8,1.2.1,0,.2-.2.2-.7v-10.7c0-1.6.5-2.4,1.5-2.4,1,0,1.4.7,1.4,2v12.6c0,1.9-1,2.9-2.7,2.9-.8,0-1.5-.6-2.1-1.9l-4.7-10.8c-.3-.5-.6-.8-.7-.8-.2,0-.2.3-.2,1v10.2c0,1.4-.5,2.2-1.4,2.2-1,0-1.4-.6-1.4-1.9v-12.7c0-1.9.9-2.9,2.7-2.9.7,0,1.4.7,2.1,2l4.6,10.8Z"/>
  <path d="M481.1,573.1c-2.3,0-3.4-.9-3.4-2.7v-3.6c0-1.8,1.1-2.8,3.3-2.8h8.3c1.1,0,1.6.3,1.6.9,0,.5-.5.7-1.6.7h-6.5c-1.5,0-2.2.8-2.2,2.4v1c0,1.7.7,2.5,2.2,2.5h4.7c2.3,0,3.4.9,3.4,2.7v4.3c0,1.8-1.1,2.7-3.3,2.7h-8.3c-1,0-1.6-.3-1.6-.8,0-.5.5-.7,1.6-.7h6.6c1.4,0,2.2-.7,2.2-2.1v-1.9c0-1.8-.7-2.7-2.3-2.7h-4.6ZM491.7,564.9c0-.5.5-.8,1.4-.8h10.2c1,0,1.4.3,1.4.8,0,.5-.5.8-1.5.8h-1.4c-1.5,0-2.3.7-2.3,2.1v11.7c0,1.4-.5,2.1-1.4,2.1-.9,0-1.4-.7-1.4-2.1v-11.7c0-1.4-.7-2.1-2.2-2.1h-1.3c-1,0-1.5-.3-1.5-.8ZM513.6,565.7h-2.7c-1.6,0-2.4.8-2.4,2.5v1.5c0,1.6.8,2.4,2.4,2.4h2.8c1.6,0,2.4-1,2.4-2.9v-1.5c0-1.3-.8-2-2.4-2ZM516,579.2v-3.5c0-1.3-.8-2-2.4-2h-2.7c-1.6,0-2.4.6-2.4,1.9v3.6c0,1.4-.5,2.1-1.4,2.1-.9,0-1.4-.6-1.4-1.9v-12.4c0-1.9,1-2.9,3-2.9h6.9c2.2,0,3.3,1,3.3,2.9v12.3c0,1.3-.5,1.9-1.4,1.9-.9,0-1.4-.7-1.4-2.1ZM524,579.6c0,1.4-.5,2.1-1.4,2.1-.9,0-1.4-.7-1.4-2v-12.8c0-1.8,1.1-2.7,3.3-2.7h8.4c1,0,1.6.3,1.6.8,0,.5-.5.8-1.6.8h-6.5c-1.5,0-2.2.8-2.2,2.3v1.2c0,1.6.7,2.4,2.2,2.4h6.6c1,0,1.6.2,1.6.7,0,.6-.4.9-1.3.9h-6.8c-1.5,0-2.2.7-2.2,2.1v4.4ZM538.2,579.7c0,1.4-.5,2.1-1.4,2.1-.9,0-1.4-.7-1.4-2v-12.8c0-1.8,1.1-2.7,3.3-2.7h8.4c1,0,1.6.3,1.6.8,0,.5-.5.8-1.6.8h-6.5c-1.5,0-2.2.8-2.2,2.3v1.2c0,1.6.7,2.4,2.2,2.4h6.6c1,0,1.6.2,1.6.7,0,.6-.4.9-1.3.9h-6.8c-1.5,0-2.2.7-2.2,2.1v4.4ZM554.7,579.9h2.8c1.6,0,2.4-.8,2.4-2.3v-9.5c0-1.5-.8-2.3-2.4-2.3h-2.7c-1.6,0-2.4.7-2.4,2.3v9.6c0,1.5.8,2.3,2.3,2.3ZM562.7,578.7c0,1.8-1.1,2.7-3.2,2.7h-6.7c-2.2,0-3.2-.9-3.2-2.7v-11.6c0-1.9,1.1-2.8,3.3-2.8h6.6c2.2,0,3.3,1,3.3,2.8v11.6ZM574.6,570.7c.6-.6.8-1.3.8-2.1v-.9c0-.6-.2-1-.6-1.3-.3-.3-.8-.5-1.4-.5h-3.3c-1.5,0-2.3.9-2.3,2.7v1.1c0,1.8.8,2.7,2.3,2.7h1.2c.9,0,1.6-.2,2.1-.8l1.2-.9ZM576.8,581.6c-.9,0-1.4-.6-1.4-1.7v-2.8c0-.2,0-.4-.2-.7-.2-.3-.4-.5-.6-.8l-1.2-1c-.7-.5-1.3-.8-1.8-.8h-1.4c-1.5,0-2.3.8-2.3,2.3v3.6c0,1.2-.5,1.8-1.4,1.8-.9,0-1.4-.7-1.4-2v-12.4c0-1.9,1.1-2.9,3.1-2.9h6.6c2.3,0,3.4.9,3.4,2.7v2.6c-.1.8-.7,1.6-1.7,2.4-.4.3-.6.7-.6,1,0,.3.2.7.6,1,1.1,1,1.6,1.8,1.8,2.5v3.2c0,1.2-.5,1.8-1.5,1.8ZM592.8,566.7c.3.3.5.7.6,1.1.2.4.2.9.2,1.6v7.1c0,.7-.1,1.2-.3,1.7-.2.5-.4.8-.6,1.1l-1.4,1.4c-.3.2-.6.4-1.1.6-.5.1-1,.2-1.6.2h-5c-2.2,0-3.2-1-3.2-3.1v-11c0-2.1,1.1-3.1,3.3-3.1h4.8c1.3,0,2.2.4,2.8.9l.7.8.8.8ZM585.7,565.9c-1.6,0-2.4.8-2.4,2.3v9.6c0,1.5.8,2.3,2.4,2.3h.9c1.2,0,2.1-.2,2.7-.7l.6-.5c.6-.7,1-1.5,1-2.5v-6.8c0-.4-.1-.8-.3-1.2-.2-.4-.4-.8-.8-1.2l-.4-.4c-.3-.3-.7-.5-1.1-.6-.4-.1-.9-.2-1.4-.3h-1.2Z"/>
  <path d="M485.5,614.4h0c-.3,0-.7.3-1,.8l-.4.6c-.4.6-.8.9-1.1,1.2-.3.2-.5.3-.6.4h-.9c-.2,0-.5,0-.8-.3-.3-.2-.6-.6-.8-1.1l-1.8-3.6c-.3-.5-.5-1-.6-1.7-.1-.7-.2-1.5-.2-2.4v-6.4c0-1.3.5-2,1.3-2,.9,0,1.4.7,1.4,2v8.2c0,.4,0,.8,0,1.2,0,.3.2.6.3.8l1,1.8c.2.3.3.5.5.5.1,0,.3-.2.6-.6l1-1.7c.3-.7.5-1.4.5-2.3v-8c0-1.3.5-2,1.4-2,.9,0,1.4.7,1.4,2v8c0,.1,0,.3,0,.5,0,.7.2,1.3.6,1.8l1,1.7c.2.3.3.5.6.5.2,0,.4-.2.7-.5l1-1.8c.1-.3.2-.7.3-1,.1-.3.2-.6.2-1v-8.2c0-1.4.5-2,1.3-2,.9,0,1.4.7,1.4,2v6.4c0,1,0,1.8-.2,2.4-.1.7-.3,1.2-.6,1.7l-1.8,3.6c-.6.9-1.2,1.4-1.7,1.4h-.9c-.2,0-.4,0-.7-.4-.2-.3-.6-.7-1-1.2l-.4-.6c-.4-.5-.7-.8-1-.8ZM501.2,615.8h6.6c.9,0,1.3.3,1.3.8,0,.5-.4.7-1.2.7h-8.7c-2.2,0-3.2-.9-3.2-2.7v-11.8c0-1.8,1.1-2.7,3.3-2.7h8.7c.8,0,1.2.3,1.2.8,0,.5-.4.8-1.3.8h-6.6c-1.7,0-2.5.7-2.5,2.1v1.7c0,1.4.8,2.1,2.4,2.1h6.6c.9,0,1.3.2,1.3.7,0,.6-.4.8-1.3.8h-6.6c-1.6,0-2.4.7-2.4,2.1v2.6c0,1.3.8,2,2.5,2ZM513.7,609.2c-2.3,0-3.4-.9-3.4-2.7v-3.6c0-1.8,1.1-2.8,3.3-2.8h8.3c1.1,0,1.6.3,1.6.9,0,.5-.5.7-1.6.7h-6.5c-1.5,0-2.2.8-2.2,2.4v1c0,1.7.7,2.5,2.2,2.5h4.7c2.3,0,3.4.9,3.4,2.7v4.3c0,1.8-1.1,2.7-3.3,2.7h-8.3c-1,0-1.6-.3-1.6-.8,0-.5.5-.7,1.6-.7h6.6c1.4,0,2.2-.7,2.2-2.1v-1.9c0-1.8-.7-2.7-2.3-2.7h-4.6ZM524.3,600.9c0-.5.5-.8,1.4-.8h10.2c1,0,1.4.3,1.4.8,0,.5-.5.8-1.5.8h-1.4c-1.5,0-2.3.7-2.3,2.1v11.7c0,1.4-.5,2.1-1.4,2.1-.9,0-1.4-.7-1.4-2.1v-11.7c0-1.4-.7-2.1-2.2-2.1h-1.3c-1,0-1.5-.3-1.5-.8ZM554.8,612.8c.3.8.6,1.2.8,1.2s.2-.2.2-.7v-10.7c0-1.6.5-2.4,1.5-2.4,1,0,1.4.7,1.4,2v12.6c0,1.9-1,2.9-2.7,2.9-.8,0-1.5-.6-2.1-1.9l-4.7-10.8c-.3-.5-.6-.8-.7-.8-.2,0-.2.3-.2,1v10.2c0,1.4-.5,2.2-1.4,2.2-1,0-1.4-.6-1.4-1.9v-12.7c0-1.9.9-2.9,2.7-2.9.7,0,1.4.7,2.1,2l4.6,10.8ZM566.2,616h2.8c1.6,0,2.4-.8,2.4-2.3v-9.5c0-1.5-.8-2.3-2.4-2.3h-2.7c-1.6,0-2.4.7-2.4,2.3v9.6c0,1.5.8,2.3,2.3,2.3ZM574.2,614.7c0,1.8-1.1,2.7-3.2,2.7h-6.7c-2.2,0-3.2-.9-3.2-2.7v-11.6c0-1.9,1.1-2.8,3.3-2.8h6.6c2.2,0,3.3,1,3.3,2.8v11.6ZM575,601.1c0-.5.5-.8,1.4-.8h10.2c1,0,1.4.3,1.4.8,0,.5-.5.8-1.5.8h-1.4c-1.5,0-2.3.7-2.3,2.1v11.7c0,1.4-.5,2.1-1.4,2.1-.9,0-1.4-.7-1.4-2.1v-11.7c0-1.4-.7-2.1-2.2-2.1h-1.3c-1,0-1.5-.3-1.5-.8ZM587.6,601.1c0-.5.5-.8,1.4-.8h10.2c1,0,1.4.3,1.4.8,0,.5-.5.8-1.5.8h-1.4c-1.5,0-2.3.7-2.3,2.1v11.7c0,1.4-.5,2.1-1.4,2.1-.9,0-1.4-.7-1.4-2.1v-11.7c0-1.4-.7-2.1-2.2-2.1h-1.3c-1,0-1.5-.3-1.5-.8ZM605,609.4c-2.3,0-3.4-.9-3.4-2.7v-3.6c0-1.8,1.1-2.8,3.3-2.8h8.3c1.1,0,1.6.3,1.6.9,0,.5-.5.7-1.6.7h-6.5c-1.5,0-2.2.8-2.2,2.4v1c0,1.7.7,2.5,2.2,2.5h4.7c2.3,0,3.4.9,3.4,2.7v4.3c0,1.8-1.1,2.7-3.3,2.7h-8.3c-1,0-1.6-.3-1.6-.8,0-.5.5-.7,1.6-.7h6.6c1.4,0,2.2-.7,2.2-2.1v-1.9c0-1.8-.7-2.7-2.3-2.7h-4.6Z"/>
  <path d="M332.2,42.9c0-.4.1-.7.4-.9.3-.3.8-.4,1.5-.4,1.3,0,1.9.6,1.9,1.8v.9c0,2.4-1.4,3.6-4.2,3.6h-9.9c-2.7,0-4-1.3-4-3.9v-15.7c0-2.7,1.4-4,4.1-4h9.8c2.8,0,4.2,1.2,4.2,3.7v.8c0,1.3-.6,2-1.9,2-1.3,0-1.9-.4-1.9-1.3,0-2-1.1-3-3.3-3h-3.7c-2.2,0-3.3.9-3.3,2.8v13.8c0,1.9,1,2.8,3.2,2.8h3.9c2.2,0,3.2-1,3.3-3ZM348.4,47.9h-.7c-1,0-1.8-.4-2.4-1.3l-5.2-6c-.4-.5-.8-1-.9-1.7-.2-.7-.3-1.5-.3-2.5v-9.6c0-1.9.7-2.8,2-2.8,1.3,0,2,.9,2,2.8v10.1c0,1.1.5,2.4,1.8,3.7l2.8,3.3c.3.2.5.3.7.3.3,0,.6-.1.8-.4l2.8-3c.6-.7,1.1-1.3,1.5-2,.4-.7.6-1.3.6-1.8v-10.1c0-1.9.7-2.8,1.9-2.8,1.3,0,2,.9,2,2.8v9.6c0,1.9-.6,3.3-1.5,4.2l-5.1,5.9c-.4.5-.9.9-1.3,1.1-.4.2-.8.3-1.3.3ZM363,46.8c-1.4,0-2.1-.6-2.1-1.8,0-1.4.7-2.1,2.1-2.1,1.4,0,2.1.7,2.1,2.1,0,1.2-.7,1.8-2.1,1.8Z"/>
  <path d="M100.8,144.3h9c1.2,0,1.8.4,1.8,1.1,0,.7-.6,1-1.7,1h-11.9c-3,0-4.5-1.2-4.4-3.7v-16.2c0-2.5,1.5-3.7,4.5-3.7h11.9c1.1,0,1.7.4,1.7,1.1,0,.7-.6,1.1-1.8,1.1h-9c-2.3,0-3.5.9-3.5,2.8v2.4c0,1.9,1.1,2.9,3.3,2.9h9.1c1.2,0,1.8.3,1.8,1,0,.8-.6,1.2-1.8,1.1h-9.1c-2.2,0-3.4.9-3.4,2.9v3.5c0,1.8,1.1,2.8,3.5,2.8ZM122.9,138.9c-.3-.3-.5-.4-.7-.4-.2,0-.4.1-.7.4l-4.2,6.3c-1,1.1-1.8,1.6-2.4,1.6-.4,0-.7-.2-1-.5-.3-.3-.4-.7-.4-1,0-.3,0-.6.2-.9.2-.3.4-.6.6-1l4.4-6.6c.8-1,1.2-1.9,1.2-2.7,0-.8-.4-1.7-1.2-2.6l-4.3-5.8c-.2-.3-.4-.6-.6-.9-.2-.3-.3-.6-.2-.9,0-.3.1-.7.4-1,.3-.4.6-.5,1-.5.7,0,1.5.5,2.5,1.6l4.2,5.7c.1.2.4.3.7.3.2,0,.4-.1.7-.3l4.2-5.7c.8-1.1,1.6-1.6,2.4-1.6.4,0,.8.2,1,.6.3.3.4.7.4,1,0,.3,0,.6-.2.8-.1.3-.3.5-.6.9l-4.2,5.8c-.9.9-1.3,1.7-1.3,2.6s.4,1.8,1.3,2.8l4.3,6.6c.3.4.4.7.5,1,.1.3.2.5.2.8,0,.4-.1.8-.4,1.1-.3.3-.6.4-1,.4-.7,0-1.5-.6-2.3-1.7l-4.2-6.3ZM138.5,138.1v5.6c0,1.9-.7,2.9-1.9,2.9-1.3,0-2-.9-2-2.7v-17.1c.1-2.7,1.6-4,4.6-4h9.5c2.8,0,4.2,1.3,4.2,3.7v5.1c0,2.6-1.5,3.9-4.3,3.9h-6.9c-2.1,0-3.1.8-3.1,2.6ZM145.5,125h-3.7c-2.2,0-3.3,1.2-3.3,3.6v1.6c0,2.1,1.1,3.2,3.2,3.2h3.8c2.2,0,3.3-1.3,3.3-3.8v-1.6c0-2-1.1-3-3.3-3ZM162.2,144.5h9c1.2,0,1.8.4,1.8,1.1,0,.7-.6,1-1.7,1h-11.9c-3,0-4.5-1.2-4.4-3.7v-16.2c0-2.5,1.5-3.7,4.5-3.7h11.9c1.1,0,1.7.4,1.7,1.1,0,.7-.6,1.1-1.8,1.1h-9c-2.3,0-3.5.9-3.5,2.8v2.4c0,1.9,1.1,2.9,3.3,2.9h9.1c1.2,0,1.8.3,1.8,1,0,.8-.6,1.2-1.8,1.2h-9.1c-2.2,0-3.4.9-3.4,2.9v3.5c0,1.8,1.1,2.8,3.5,2.8ZM187.9,131.7c.8-.8,1.2-1.7,1.2-2.9v-1.2c0-.8-.3-1.4-.8-1.8-.4-.4-1.1-.7-1.9-.7h-4.5c-2.1,0-3.2,1.2-3.2,3.7v1.5c0,2.5,1,3.7,3.1,3.7h1.6c1.2,0,2.2-.3,2.9-1l1.6-1.2ZM190.9,146.8c-1.2,0-1.9-.8-1.9-2.4v-3.9c0-.3-.1-.6-.3-.9-.2-.4-.5-.7-.9-1.1l-1.6-1.3c-.9-.7-1.7-1-2.5-1.1h-2c-2.1,0-3.1,1-3.1,3.1v5c0,1.7-.7,2.5-1.9,2.5-1.3,0-1.9-.9-1.9-2.7v-17.1c0-2.7,1.5-4,4.3-4h9.1c3.2,0,4.7,1.3,4.7,3.8v3.6c-.2,1.1-1,2.2-2.4,3.4-.6.4-.8.9-.8,1.4,0,.4.3.9.8,1.4,1.5,1.4,2.3,2.5,2.4,3.4v4.5c0,1.7-.7,2.5-2,2.5ZM198.4,146.7c-1.2,0-1.9-.9-1.9-2.7v-18.8c0-1.7.6-2.6,1.9-2.6,1.3,0,1.9.9,1.9,2.6v18.7c0,1.8-.6,2.7-1.9,2.7ZM211.5,144.6h9c1.2,0,1.8.4,1.8,1.1,0,.7-.6,1-1.7,1h-11.9c-3,0-4.5-1.2-4.4-3.7v-16.2c0-2.5,1.5-3.7,4.5-3.7h11.9c1.1,0,1.7.4,1.7,1.1,0,.7-.6,1.1-1.8,1.1h-9c-2.3,0-3.5.9-3.5,2.8v2.4c0,1.9,1.1,2.9,3.3,2.9h9.1c1.2,0,1.8.3,1.8,1,0,.8-.6,1.2-1.8,1.2h-9.1c-2.2,0-3.4.9-3.4,2.9v3.5c0,1.8,1.1,2.8,3.5,2.8ZM236.8,140.3c.5,1.1.8,1.6,1.1,1.6.2,0,.3-.3.3-1v-14.7c0-2.2.7-3.3,2-3.3,1.3,0,2,.9,2,2.7v17.4c-.1,2.6-1.3,4-3.7,4-1.1,0-2.1-.9-2.9-2.6l-6.5-14.8c-.5-.7-.8-1-.9-1-.2,0-.3.4-.3,1.3v14.1c0,2-.7,3-2,3-1.3,0-2-.9-2-2.6v-17.4c.1-2.7,1.3-4,3.7-4,.9,0,1.9.9,2.9,2.7l6.3,14.8ZM259.5,141.7c0-.4.1-.7.4-.9.3-.3.8-.4,1.5-.4,1.3,0,1.9.6,1.9,1.8v.9c0,2.4-1.4,3.6-4.2,3.6h-9.9c-2.7,0-4-1.3-4-3.9v-15.7c0-2.7,1.4-4,4.1-4h9.8c2.8,0,4.2,1.2,4.2,3.7v.8c0,1.3-.6,2-1.9,2-1.3,0-1.9-.4-1.9-1.3,0-2-1.1-3-3.3-3h-3.7c-2.2,0-3.3.9-3.3,2.8v13.8c0,1.9,1,2.8,3.2,2.8h3.9c2.2,0,3.2-1,3.3-3ZM274,144.7h9c1.2,0,1.8.4,1.8,1.1,0,.7-.6,1-1.7,1h-11.9c-3,0-4.5-1.2-4.4-3.7v-16.2c0-2.5,1.5-3.7,4.5-3.7h11.9c1.1,0,1.7.4,1.7,1.1,0,.7-.6,1.1-1.8,1.1h-9c-2.3,0-3.5.9-3.5,2.8v2.4c0,1.9,1.1,2.9,3.3,2.9h9.1c1.2,0,1.8.3,1.8,1,0,.8-.6,1.2-1.8,1.2h-9.1c-2.2,0-3.4.9-3.4,2.9v3.5c0,1.8,1.1,2.8,3.4,2.8Z"/>
  <path d="M100.1,426.3h9c1.2,0,1.8.4,1.8,1.1,0,.7-.6,1-1.7,1h-11.9c-3,0-4.5-1.2-4.4-3.7v-16.2c0-2.5,1.5-3.7,4.5-3.7h11.9c1.1,0,1.7.4,1.7,1.1,0,.7-.6,1.1-1.8,1.1h-9c-2.3,0-3.5.9-3.5,2.8v2.4c0,1.9,1.1,2.9,3.3,2.9h9.1c1.2,0,1.8.3,1.8,1,0,.8-.6,1.2-1.8,1.2h-9.1c-2.2,0-3.4.9-3.4,2.9v3.5c0,1.8,1.1,2.8,3.5,2.8ZM129.5,408.1c.4.4.7.9.9,1.5.2.6.3,1.3.3,2.1v9.8c0,.9-.1,1.7-.4,2.3-.2.6-.5,1.1-.9,1.5l-1.9,2c-.4.3-.9.6-1.5.8-.7.2-1.4.3-2.2.3h-6.8c-3,0-4.5-1.4-4.4-4.2v-15.1c0-2.9,1.5-4.3,4.5-4.3h6.6c1.8.1,3,.5,3.8,1.2l1,1,1,1.1ZM119.7,406.9c-2.2,0-3.2,1-3.3,3.1v13.1c0,2.1,1.1,3.1,3.3,3.1h1.3c1.6,0,2.9-.3,3.7-1l.8-.7c.9-1,1.3-2.1,1.3-3.4v-9.3c0-.6-.2-1.2-.4-1.7-.2-.6-.6-1.1-1-1.6l-.5-.6c-.4-.4-1-.7-1.5-.8-.6-.1-1.2-.3-1.9-.4h-1.7ZM137.7,407.4v16.1c0,1.9,1.1,2.9,3.3,2.9h3.9c2.1,0,3.2-1,3.2-2.9v-16.1c0-1.9.7-2.9,2-2.9,1.3,0,1.9.9,1.9,2.7v17.2c0,2.6-1.6,4-4.6,3.9h-9.1c-3,0-4.5-1.3-4.5-3.9v-17.3c0-1.8.7-2.7,2-2.7,1.3,0,1.9,1,1.9,2.9ZM169.5,423.5c0-.4.1-.7.4-.9.3-.3.8-.4,1.5-.4,1.3,0,1.9.6,1.9,1.8v.9c0,2.4-1.4,3.6-4.2,3.6h-9.9c-2.7,0-4-1.3-4-3.9v-15.7c0-2.7,1.4-4,4.1-4h9.8c2.8,0,4.2,1.2,4.2,3.7v.8c0,1.3-.6,2-1.9,2-1.3,0-1.9-.4-1.9-1.3,0-2-1.1-3-3.3-3h-3.7c-2.2,0-3.3.9-3.3,2.8v13.8c0,1.9,1,2.8,3.2,2.8h3.9c2.2,0,3.2-1,3.3-3ZM187.5,407.1h-3.7c-2.2,0-3.3,1.1-3.3,3.4v2.1c0,2.2,1.1,3.3,3.2,3.3h3.9c2.2,0,3.2-1.3,3.3-4.1v-2c0-1.8-1.1-2.8-3.3-2.8ZM190.8,425.6v-4.8c0-1.8-1.1-2.7-3.3-2.7h-3.7c-2.2,0-3.3.9-3.3,2.7v4.9c0,1.9-.7,2.9-1.9,2.9-1.3,0-1.9-.9-1.9-2.6v-17c0-2.6,1.4-4,4.1-4h9.5c3,0,4.6,1.4,4.6,4v16.9c0,1.8-.7,2.6-2,2.6-1.3,0-1.9-1-1.9-2.9ZM195.9,406c0-.7.6-1,1.9-1h14c1.3,0,2,.4,2,1.1,0,.7-.7,1.1-2,1.1h-1.9c-2.1,0-3.1.9-3.1,2.8v16.1c0,1.9-.7,2.9-2,2.9-1.2,0-1.9-1-1.9-2.9v-16.1c0-1.9-1-2.9-3.1-2.9h-1.8c-1.4,0-2.1-.4-2.1-1.1ZM217.5,428.7c-1.2,0-1.9-.9-1.9-2.7v-18.8c0-1.7.6-2.6,1.9-2.6,1.3,0,1.9.9,1.9,2.6v18.7c0,1.8-.6,2.7-1.9,2.7ZM230.3,426.6h3.9c2.2,0,3.3-1.1,3.3-3.2v-13c0-2.1-1.1-3.1-3.3-3.1h-3.7c-2.2,0-3.3,1-3.3,3.1v13.1c0,2.1,1,3.1,3.2,3.1ZM241.3,424.9c0,2.5-1.5,3.7-4.5,3.7h-9.2c-3,0-4.5-1.3-4.4-3.8v-16c0-2.6,1.5-3.8,4.5-3.8h9.1c3,0,4.5,1.3,4.5,3.9v16ZM257.4,422.3c.5,1.1.8,1.6,1.1,1.6.2,0,.3-.3.3-1v-14.7c0-2.2.7-3.3,2-3.3,1.3,0,2,.9,2,2.7v17.4c-.1,2.6-1.3,4-3.7,4-1.1,0-2.1-.9-2.9-2.6l-6.5-14.8c-.5-.7-.8-1-.9-1-.2,0-.3.4-.3,1.3v14.1c0,2-.7,3-2,3-1.3,0-2-.9-2-2.6v-17.4c.1-2.7,1.3-4,3.7-4,.9,0,1.9.9,2.9,2.7l6.3,14.8Z"/>
  <path d="M93.2,219.8c1.5,0,2.3-.7,2.3-2.1v-11.6c0-1.4.5-2.1,1.4-2.1.9,0,1.4.7,1.4,2v12.3c0,2-1.1,3-3.2,3h-2.8c-.9,0-1.4-.2-1.4-.7,0-.6.5-.8,1.5-.8h.8ZM103.7,206.1v11.7c0,1.4.8,2.1,2.4,2.1h2.8c1.5,0,2.3-.7,2.3-2.1v-11.7c0-1.4.5-2.1,1.5-2.1.9,0,1.4.7,1.4,2v12.5c0,1.9-1.1,2.9-3.4,2.9h-6.6c-2.2,0-3.3-1-3.3-2.9v-12.6c0-1.3.5-2,1.5-2,.9,0,1.4.7,1.4,2.1ZM125.8,216.8c.3.8.6,1.2.8,1.2s.2-.2.2-.7v-10.7c0-1.6.5-2.4,1.5-2.4,1,0,1.4.7,1.4,2v12.6c0,1.9-1,2.9-2.7,2.9-.8,0-1.5-.6-2.1-1.9l-4.7-10.8c-.3-.5-.6-.8-.7-.8-.2,0-.2.3-.2,1v10.2c0,1.4-.5,2.2-1.4,2.2-1,0-1.4-.6-1.4-1.9v-12.7c0-1.9.9-2.9,2.7-2.9.7,0,1.4.7,2.1,2l4.6,10.8ZM133.7,221.5c-.9,0-1.4-.7-1.4-2v-13.6c0-1.3.4-1.9,1.4-1.9.9,0,1.4.6,1.4,1.9v13.6c0,1.3-.5,2-1.4,2ZM143,220h2.8c1.6,0,2.4-.8,2.4-2.3v-9.5c0-1.5-.8-2.3-2.4-2.3h-2.7c-1.6,0-2.4.7-2.4,2.3v9.6c0,1.5.8,2.3,2.3,2.3ZM151,218.7c0,1.8-1.1,2.7-3.2,2.7h-6.7c-2.2,0-3.2-.9-3.2-2.7v-11.6c0-1.9,1.1-2.8,3.3-2.8h6.6c2.2,0,3.3,1,3.3,2.8v11.6ZM162.9,210.7c.6-.6.8-1.3.8-2.1v-.9c0-.6-.2-1-.6-1.3-.3-.3-.8-.5-1.4-.5h-3.3c-1.5,0-2.3.9-2.3,2.7v1.1c0,1.8.8,2.7,2.3,2.7h1.2c.9,0,1.6-.2,2.1-.8l1.2-.9ZM165.1,221.7c-.9,0-1.4-.6-1.4-1.7v-2.8c0-.2,0-.4-.2-.7-.2-.3-.4-.5-.6-.8l-1.2-1c-.7-.5-1.3-.8-1.8-.8h-1.4c-1.5,0-2.3.8-2.3,2.3v3.6c0,1.2-.5,1.8-1.4,1.8-.9,0-1.4-.7-1.4-2v-12.4c0-1.9,1.1-2.9,3.1-2.9h6.6c2.3,0,3.4.9,3.4,2.7v2.6c-.1.8-.7,1.6-1.7,2.4-.4.3-.6.7-.6,1,0,.3.2.7.6,1,1.1,1,1.6,1.8,1.8,2.5v3.2c0,1.2-.5,1.8-1.5,1.8ZM188.3,206.8c.3.3.5.7.6,1.1.2.4.2.9.2,1.6v7.1c0,.7,0,1.2-.3,1.7-.2.5-.4.8-.6,1.1l-1.4,1.4c-.3.2-.6.4-1.1.6-.5.1-1,.2-1.6.2h-5c-2.2,0-3.2-1-3.2-3.1v-11c0-2.1,1.1-3.1,3.3-3.1h4.8c1.3,0,2.2.4,2.8.9l.7.8.8.8ZM181.2,205.9c-1.6,0-2.4.8-2.4,2.3v9.6c0,1.5.8,2.3,2.4,2.3h.9c1.2,0,2.1-.2,2.7-.7l.6-.5c.6-.7,1-1.5,1-2.5v-6.8c0-.4-.1-.8-.3-1.2-.2-.4-.4-.8-.8-1.2l-.4-.4c-.3-.3-.7-.5-1.1-.6-.4-.1-.9-.2-1.4-.3h-1.2ZM196.9,220.1h6.6c.9,0,1.3.3,1.3.8,0,.5-.4.7-1.2.7h-8.7c-2.2,0-3.2-.9-3.2-2.7v-11.8c0-1.8,1.1-2.7,3.3-2.7h8.7c.8,0,1.2.3,1.2.8,0,.5-.4.8-1.3.8h-6.6c-1.7,0-2.5.7-2.5,2.1v1.7c0,1.4.8,2.1,2.4,2.1h6.6c.9,0,1.3.2,1.3.7,0,.6-.4.8-1.3.8h-6.6c-1.6,0-2.4.7-2.4,2.1v2.6c0,1.3.8,2,2.5,2ZM209.4,213.4c-2.3,0-3.4-.9-3.4-2.7v-3.6c0-1.8,1.1-2.8,3.3-2.8h8.3c1.1,0,1.6.3,1.6.9,0,.5-.5.7-1.6.7h-6.5c-1.5,0-2.2.8-2.2,2.4v1c0,1.7.7,2.5,2.2,2.5h4.7c2.3,0,3.4.9,3.4,2.7v4.3c0,1.8-1.1,2.7-3.3,2.7h-8.3c-1,0-1.6-.3-1.6-.8,0-.5.5-.7,1.6-.7h6.6c1.4,0,2.2-.7,2.2-2.1v-1.9c0-1.8-.7-2.7-2.3-2.7h-4.6ZM223.2,221.7c-.9,0-1.4-.7-1.4-2v-13.6c0-1.3.4-1.9,1.4-1.9.9,0,1.4.6,1.4,1.9v13.6c0,1.3-.5,2-1.4,2ZM238.9,206.1h-6.5c-1.5,0-2.2.7-2.2,2.3v9.6c0,1.5.8,2.3,2.3,2.3h2.8c1.6,0,2.4-.9,2.4-2.8v-2.2c0-1.1-.6-1.6-1.9-1.6h-1.8c-1,0-1.5-.3-1.5-.8,0-.5.5-.8,1.4-.8h3.6c2,0,3,.9,3,2.5v4.5c0,1.8-1.1,2.7-3.3,2.7h-6.6c-2.1,0-3.2-1-3.2-2.9v-11.4c0-1.9,1.1-2.9,3.3-2.9h8.4c1,0,1.5.3,1.5.8,0,.5-.5.8-1.6.8ZM252.2,217.1c.3.8.6,1.2.8,1.2.1,0,.2-.2.2-.7v-10.7c0-1.6.5-2.4,1.5-2.4,1,0,1.4.7,1.4,2v12.6c0,1.9-1,2.9-2.7,2.9-.8,0-1.5-.6-2.1-1.9l-4.7-10.8c-.3-.5-.6-.8-.7-.8-.2,0-.2.3-.2,1v10.2c0,1.4-.5,2.2-1.4,2.2-1,0-1.4-.6-1.4-1.9v-12.7c0-1.9.9-2.9,2.7-2.9.7,0,1.4.7,2.1,2l4.6,10.8ZM263.8,220.3h6.6c.9,0,1.3.3,1.3.8,0,.5-.4.7-1.2.7h-8.7c-2.2,0-3.2-.9-3.2-2.7v-11.8c0-1.8,1.1-2.7,3.3-2.7h8.7c.8,0,1.2.3,1.2.8,0,.5-.4.8-1.3.8h-6.6c-1.7,0-2.5.7-2.5,2.1v1.7c0,1.4.8,2.1,2.4,2.1h6.6c.9,0,1.3.2,1.3.7,0,.6-.4.8-1.3.8h-6.6c-1.6,0-2.4.7-2.4,2.1v2.6c0,1.3.8,2,2.5,2ZM282.4,211c.6-.6.8-1.3.8-2.1v-.9c0-.6-.2-1-.6-1.3-.3-.3-.8-.5-1.4-.5h-3.3c-1.5,0-2.3.9-2.3,2.7v1.1c0,1.8.8,2.7,2.3,2.7h1.2c.9,0,1.6-.2,2.1-.8l1.2-.9ZM284.6,221.9c-.9,0-1.4-.6-1.4-1.7v-2.8c0-.2,0-.4-.2-.7-.2-.3-.4-.5-.6-.8l-1.2-1c-.7-.5-1.3-.8-1.8-.8h-1.4c-1.5,0-2.3.8-2.3,2.3v3.6c0,1.2-.5,1.8-1.4,1.8-.9,0-1.4-.7-1.4-2v-12.4c0-1.9,1.1-2.9,3.1-2.9h6.6c2.3,0,3.4.9,3.4,2.7v2.6c-.1.8-.7,1.6-1.7,2.4-.4.3-.6.7-.6,1,0,.3.2.7.6,1,1.1,1,1.6,1.8,1.8,2.5v3.2c0,1.2-.5,1.8-1.5,1.8ZM304.9,205l-7.2,17.3c-.5,1-1.1,1.5-1.6,1.5-.4,0-.7-.1-.9-.4-.2-.3-.3-.5-.3-.8,0-.3.1-.8.4-1.4l7-16.9c.4-1,.9-1.5,1.6-1.5.4,0,.7.1.9.4.2.2.3.5.3.8s0,.6-.2,1ZM317.4,213.7c-2.3,0-3.4-.9-3.4-2.7v-3.6c0-1.8,1.1-2.8,3.3-2.8h8.3c1.1,0,1.6.3,1.6.9,0,.5-.5.7-1.6.7h-6.5c-1.5,0-2.2.8-2.2,2.4v1c0,1.7.7,2.5,2.2,2.5h4.7c2.3,0,3.4.9,3.4,2.7v4.3c0,1.8-1.1,2.7-3.3,2.7h-8.3c-1,0-1.6-.3-1.6-.8,0-.5.5-.7,1.6-.7h6.6c1.4,0,2.2-.7,2.2-2.1v-1.9c0-1.8-.8-2.7-2.3-2.7h-4.6ZM337.4,216.1c-.9,0-1.4-.7-1.4-2.1,0-.9-.2-1.8-.6-2.8-.4-1-.9-2.1-1.6-3.2-.2-.3-.5-.6-.7-.8-.2-.2-.4-.3-.5-.3-.2,0-.4.2-.4.7v12.4c0,1.3-.5,1.9-1.5,1.9-.9,0-1.4-.6-1.4-1.9v-12.4c0-1.9.8-2.9,2.4-2.9h.8c1,0,1.9.6,2.8,1.9l2,3.4,2-3.4c.4-.6.8-1.1,1.2-1.4.5-.3,1-.5,1.6-.5h.8c1.5,0,2.3,1,2.3,2.9v12.4c0,1.3-.5,1.9-1.4,1.9-.9,0-1.4-.6-1.4-1.9v-12.4c0-.5-.2-.7-.4-.7-.3,0-.7.3-1.1,1-.7,1.1-1.3,2.2-1.6,3.2-.3,1-.5,1.9-.5,2.8,0,1.4-.5,2.1-1.4,2.1ZM355.7,206.3h-2.7c-1.6,0-2.4.8-2.4,2.5v1.5c0,1.6.8,2.4,2.4,2.4h2.8c1.6,0,2.4-1,2.4-2.9v-1.5c0-1.3-.8-2-2.4-2ZM358.1,219.8v-3.5c0-1.3-.8-2-2.4-2h-2.7c-1.6,0-2.4.6-2.4,1.9v3.6c0,1.4-.5,2.1-1.4,2.1-.9,0-1.4-.6-1.4-1.9v-12.4c0-1.9,1-2.9,3-2.9h6.9c2.2,0,3.3,1,3.3,2.9v12.3c0,1.3-.5,1.9-1.4,1.9-.9,0-1.4-.7-1.4-2.1ZM372.9,211.2c.6-.6.8-1.3.8-2.1v-.9c0-.6-.2-1-.6-1.3-.3-.3-.8-.5-1.4-.5h-3.3c-1.5,0-2.3.9-2.3,2.7v1.1c0,1.8.8,2.7,2.3,2.7h1.2c.9,0,1.6-.2,2.1-.8l1.2-.9ZM375,222.2c-.9,0-1.4-.6-1.4-1.7v-2.8c0-.2,0-.4-.2-.7-.2-.3-.4-.5-.6-.8l-1.2-1c-.7-.5-1.3-.8-1.8-.8h-1.4c-1.5,0-2.3.8-2.3,2.3v3.6c0,1.2-.5,1.8-1.4,1.8-.9,0-1.4-.7-1.4-2v-12.4c0-1.9,1.1-2.9,3.1-2.9h6.6c2.3,0,3.4.9,3.4,2.7v2.6c-.1.8-.7,1.6-1.7,2.4-.4.3-.6.7-.6,1,0,.3.2.7.6,1,1.1,1,1.6,1.8,1.8,2.5v3.2c0,1.2-.5,1.8-1.5,1.8ZM377.3,205.6c0-.5.5-.8,1.4-.8h10.2c1,0,1.4.3,1.4.8,0,.5-.5.8-1.5.8h-1.4c-1.5,0-2.3.7-2.3,2.1v11.7c0,1.4-.5,2.1-1.4,2.1-.9,0-1.4-.7-1.4-2.1v-11.7c0-1.4-.7-2.1-2.2-2.1h-1.3c-1,0-1.5-.3-1.5-.8ZM401.9,213.9c-2.3,0-3.4-.9-3.4-2.7v-3.6c0-1.8,1.1-2.8,3.3-2.8h8.3c1.1,0,1.6.3,1.6.9,0,.5-.5.7-1.6.7h-6.5c-1.5,0-2.2.8-2.2,2.4v1c0,1.7.7,2.5,2.2,2.5h4.7c2.3,0,3.4.9,3.4,2.7v4.3c0,1.8-1.1,2.7-3.3,2.7h-8.3c-1,0-1.6-.3-1.6-.8,0-.5.5-.7,1.6-.7h6.6c1.4,0,2.2-.7,2.2-2.1v-1.9c0-1.8-.7-2.7-2.3-2.7h-4.6ZM419.2,220.6h2.8c1.6,0,2.4-.8,2.4-2.3v-9.5c0-1.5-.8-2.3-2.4-2.3h-2.7c-1.6,0-2.4.7-2.4,2.3v9.6c0,1.5.8,2.3,2.3,2.3ZM427.2,219.4c0,1.8-1.1,2.7-3.2,2.7h-6.7c-2.2,0-3.2-.9-3.2-2.7v-11.6c0-1.9,1.1-2.8,3.3-2.8h6.6c2.2,0,3.3,1,3.3,2.8v11.6ZM439.8,220.3v-4.2c0-1.4-.8-2.1-2.4-2.1h-2.7c-1.6,0-2.4.7-2.4,2.1v4.2c0,1.3-.5,2-1.5,2-.9,0-1.4-.6-1.4-1.8v-13.7c0-1.3.5-1.9,1.4-1.9,1,0,1.4.7,1.4,2v3.5c0,1.4.8,2.1,2.4,2.1h2.8c1.5,0,2.3-.7,2.3-2.1v-3.5c0-1.3.5-2,1.4-2,1,0,1.4.6,1.4,1.9v13.7c0,1.2-.5,1.8-1.5,1.8-.9,0-1.4-.7-1.4-2ZM450.2,220.7h2.8c1.6,0,2.4-.8,2.4-2.3v-9.5c0-1.5-.8-2.3-2.4-2.3h-2.7c-1.6,0-2.4.7-2.4,2.3v9.6c0,1.5.8,2.3,2.3,2.3ZM458.2,219.5c0,1.8-1.1,2.7-3.2,2.7h-6.7c-2.2,0-3.2-.9-3.2-2.7v-11.6c0-1.9,1.1-2.8,3.3-2.8h6.6c2.2,0,3.3,1,3.3,2.8v11.6Z"/>
  <path d="M99.7,491.7h-2.7c-1.6,0-2.4.8-2.4,2.5v1.5c0,1.6.8,2.4,2.4,2.4h2.8c1.6,0,2.4-1,2.4-2.9v-1.5c0-1.3-.8-2-2.4-2ZM102.1,505.2v-3.5c0-1.3-.8-2-2.4-2h-2.7c-1.6,0-2.4.6-2.4,1.9v3.6c0,1.4-.5,2.1-1.4,2.1-.9,0-1.4-.6-1.4-1.9v-12.4c0-1.9,1-2.9,3-2.9h6.9c2.2,0,3.3,1,3.3,2.9v12.3c0,1.3-.5,1.9-1.4,1.9-.9,0-1.4-.7-1.4-2.1ZM119.6,492.6c.3.3.5.7.6,1.1.2.4.2.9.2,1.6v7.1c0,.7,0,1.2-.3,1.7-.2.5-.4.8-.6,1.1l-1.4,1.4c-.3.2-.6.4-1.1.6-.5.1-1,.2-1.6.2h-5c-2.2,0-3.2-1-3.2-3.1v-11c0-2.1,1.1-3.1,3.3-3.1h4.8c1.3,0,2.2.4,2.8.9l.7.8.8.8ZM112.5,491.8c-1.6,0-2.4.8-2.4,2.3v9.6c0,1.5.8,2.3,2.4,2.3h.9c1.2,0,2.1-.2,2.7-.7l.6-.5c.6-.7,1-1.5,1-2.5v-6.8c0-.4-.1-.8-.3-1.2-.2-.4-.4-.8-.8-1.2l-.4-.4c-.3-.3-.7-.5-1.1-.6-.4-.1-.9-.2-1.4-.3h-1.2ZM134.3,499.8h-9.5c-1.1,0-1.6-.3-1.6-.9,0-.6.5-.9,1.6-.9h9.5c1.1,0,1.6.3,1.6.9,0,.6-.5.9-1.6.9ZM148.9,503.8c0-.3.1-.5.3-.7.2-.2.6-.3,1.1-.3.9,0,1.4.4,1.4,1.3v.7c0,1.8-1,2.6-3,2.6h-7.2c-1.9,0-2.9-1-2.9-2.9v-11.4c0-1.9,1-2.9,3-2.9h7.2c2,0,3,.9,3,2.7v.6c0,1-.5,1.4-1.4,1.4-.9,0-1.4-.3-1.4-.9,0-1.5-.8-2.2-2.4-2.2h-2.7c-1.6,0-2.4.7-2.4,2.1v10c0,1.4.8,2,2.3,2h2.8c1.6,0,2.4-.7,2.4-2.1ZM164.4,503.9c0-.3.1-.5.3-.7.2-.2.6-.3,1.1-.3.9,0,1.4.4,1.4,1.3v.7c0,1.8-1,2.6-3,2.6h-7.2c-1.9,0-2.9-1-2.9-2.9v-11.4c0-1.9,1-2.9,3-2.9h7.2c2,0,3,.9,3,2.7v.6c0,1-.5,1.4-1.4,1.4-.9,0-1.4-.3-1.4-.9,0-1.5-.8-2.2-2.4-2.2h-2.7c-1.6,0-2.4.7-2.4,2.1v10c0,1.4.8,2,2.3,2h2.8c1.6,0,2.4-.7,2.4-2.1ZM174.9,506h6.6c.9,0,1.3.3,1.3.8,0,.5-.4.7-1.2.7h-8.7c-2.2,0-3.2-.9-3.2-2.7v-11.8c0-1.8,1.1-2.7,3.3-2.7h8.7c.8,0,1.2.3,1.2.8,0,.5-.4.8-1.3.8h-6.6c-1.7,0-2.5.7-2.5,2.1v1.7c0,1.4.8,2.1,2.4,2.1h6.6c.9,0,1.3.2,1.3.7,0,.6-.4.8-1.3.8h-6.6c-1.6,0-2.4.7-2.4,2.1v2.6c0,1.3.8,2,2.5,2ZM186.8,503.6c0,1.6.8,2.4,2.3,2.4h5.7c1,0,1.5.3,1.5.8,0,.5-.5.7-1.5.7h-7.6c-2.1,0-3.2-1-3.2-2.9v-12.5c0-1.3.5-2,1.4-2,1,0,1.4.7,1.4,2.1v11.3ZM202.5,506.1h6.6c.9,0,1.3.3,1.3.8,0,.5-.4.7-1.2.7h-8.7c-2.2,0-3.2-.9-3.2-2.7v-11.8c0-1.8,1.1-2.7,3.3-2.7h8.7c.8,0,1.2.3,1.2.8,0,.5-.4.8-1.3.8h-6.6c-1.7,0-2.5.7-2.5,2.1v1.7c0,1.4.8,2.1,2.4,2.1h6.6c.9,0,1.3.2,1.3.7,0,.6-.4.8-1.3.8h-6.6c-1.6,0-2.4.7-2.4,2.1v2.6c0,1.3.8,2,2.5,2ZM221.2,496.8c.6-.6.8-1.3.8-2.1v-.9c0-.6-.2-1-.6-1.3-.3-.3-.8-.5-1.4-.5h-3.3c-1.5,0-2.3.9-2.3,2.7v1.1c0,1.8.8,2.7,2.3,2.7h1.2c.9,0,1.6-.2,2.1-.8l1.2-.9ZM223.3,507.8c-.9,0-1.4-.6-1.4-1.7v-2.8c0-.2,0-.4-.2-.7-.2-.3-.4-.5-.6-.8l-1.2-1c-.7-.5-1.3-.8-1.8-.8h-1.4c-1.5,0-2.3.8-2.3,2.3v3.6c0,1.2-.5,1.8-1.4,1.8-.9,0-1.4-.7-1.4-2v-12.4c0-1.9,1.1-2.9,3.1-2.9h6.6c2.3,0,3.4.9,3.4,2.7v2.6c-.1.8-.7,1.6-1.7,2.4-.4.3-.6.7-.6,1,0,.3.2.7.6,1,1.1,1,1.6,1.8,1.8,2.5v3.2c0,1.2-.5,1.8-1.5,1.8ZM235,492.1h-2.7c-1.6,0-2.4.8-2.4,2.5v1.5c0,1.6.8,2.4,2.4,2.4h2.8c1.6,0,2.4-1,2.4-2.9v-1.5c0-1.3-.8-2-2.4-2ZM237.4,505.5v-3.5c0-1.3-.8-2-2.4-2h-2.7c-1.6,0-2.4.6-2.4,1.9v3.6c0,1.4-.5,2.1-1.4,2.1-.9,0-1.4-.6-1.4-1.9v-12.4c0-1.9,1-2.9,3-2.9h6.9c2.2,0,3.3,1,3.3,2.9v12.3c0,1.3-.5,1.9-1.4,1.9-.9,0-1.4-.7-1.4-2.1ZM241.1,491.3c0-.5.5-.8,1.4-.8h10.2c1,0,1.4.3,1.4.8,0,.5-.5.8-1.5.8h-1.4c-1.5,0-2.3.7-2.3,2.1v11.7c0,1.4-.5,2.1-1.4,2.1-.9,0-1.4-.7-1.4-2.1v-11.7c0-1.4-.7-2.1-2.2-2.1h-1.3c-1,0-1.5-.3-1.5-.8ZM260.5,506.2h6.6c.9,0,1.3.3,1.3.8,0,.5-.4.7-1.2.7h-8.7c-2.2,0-3.2-.9-3.2-2.7v-11.8c0-1.8,1.1-2.7,3.3-2.7h8.7c.8,0,1.2.3,1.2.8,0,.5-.4.8-1.3.8h-6.6c-1.7,0-2.5.7-2.5,2.1v1.7c0,1.4.8,2.1,2.4,2.1h6.6c.9,0,1.3.2,1.3.7,0,.6-.4.8-1.3.8h-6.6c-1.6,0-2.4.7-2.4,2.1v2.6c0,1.3.8,2,2.5,2ZM284.7,492.2h-2.7c-1.6,0-2.4.8-2.4,2.5v1.5c0,1.6.8,2.4,2.4,2.4h2.8c1.6,0,2.4-1,2.4-2.9v-1.5c0-1.3-.8-2-2.4-2ZM287.1,505.6v-3.5c0-1.3-.8-2-2.4-2h-2.7c-1.6,0-2.4.6-2.4,1.9v3.6c0,1.4-.5,2.1-1.4,2.1-.9,0-1.4-.6-1.4-1.9v-12.4c0-1.9,1-2.9,3-2.9h6.9c2.2,0,3.3,1,3.3,2.9v12.3c0,1.3-.5,1.9-1.4,1.9-.9,0-1.4-.7-1.4-2.1ZM295.1,506.1c0,1.4-.5,2.1-1.4,2.1-.9,0-1.4-.7-1.4-2v-12.8c0-1.8,1.1-2.7,3.3-2.7h8.4c1,0,1.6.3,1.6.8,0,.5-.5.8-1.6.8h-6.5c-1.5,0-2.2.8-2.2,2.3v1.2c0,1.6.7,2.4,2.2,2.4h6.6c1,0,1.6.2,1.6.7,0,.6-.4.9-1.3.9h-6.8c-1.5,0-2.2.7-2.2,2.1v4.4ZM305,491.4c0-.5.5-.8,1.4-.8h10.2c1,0,1.4.3,1.4.8,0,.5-.5.8-1.5.8h-1.4c-1.5,0-2.3.7-2.3,2.1v11.7c0,1.4-.5,2.1-1.4,2.1-.9,0-1.4-.7-1.4-2.1v-11.7c0-1.4-.7-2.1-2.2-2.1h-1.3c-1,0-1.5-.3-1.5-.8ZM324.4,506.4h6.6c.9,0,1.3.3,1.3.8,0,.5-.4.7-1.2.7h-8.7c-2.2,0-3.2-.9-3.2-2.7v-11.8c0-1.8,1.1-2.7,3.3-2.7h8.7c.8,0,1.2.3,1.2.8,0,.5-.4.8-1.3.8h-6.6c-1.7,0-2.5.7-2.5,2.1v1.7c0,1.4.8,2.1,2.4,2.1h6.6c.9,0,1.3.2,1.3.7,0,.6-.4.8-1.3.8h-6.6c-1.6,0-2.4.7-2.4,2.1v2.6c0,1.3.8,2,2.5,2ZM343.1,497.1c.6-.6.8-1.3.8-2.1v-.9c0-.6-.2-1-.6-1.3-.3-.3-.8-.5-1.4-.5h-3.3c-1.5,0-2.3.9-2.3,2.7v1.1c0,1.8.8,2.7,2.3,2.7h1.2c.9,0,1.6-.2,2.1-.8l1.2-.9ZM345.2,508.1c-.9,0-1.4-.6-1.4-1.7v-2.8c0-.2,0-.4-.2-.7-.2-.3-.4-.5-.6-.8l-1.2-1c-.7-.5-1.3-.8-1.8-.8h-1.4c-1.5,0-2.3.8-2.3,2.3v3.6c0,1.2-.5,1.8-1.4,1.8-.9,0-1.4-.7-1.4-2v-12.4c0-1.9,1.1-2.9,3.1-2.9h6.6c2.3,0,3.4.9,3.4,2.7v2.6c-.1.8-.7,1.6-1.7,2.4-.4.3-.6.7-.6,1,0,.3.2.7.6,1,1.1,1,1.6,1.8,1.8,2.5v3.2c0,1.2-.5,1.8-1.5,1.8ZM368.4,493.2c.3.3.5.7.6,1.1.2.4.2.9.2,1.6v7.1c0,.7,0,1.2-.3,1.7-.2.5-.4.8-.6,1.1l-1.4,1.4c-.3.2-.6.4-1.1.6-.5.1-1,.2-1.6.2h-5c-2.2,0-3.2-1-3.2-3.1v-11c0-2.1,1.1-3.1,3.3-3.1h4.8c1.3,0,2.2.4,2.8.9l.7.8.8.8ZM361.3,492.4c-1.6,0-2.4.8-2.4,2.3v9.6c0,1.5.8,2.3,2.4,2.3h.9c1.2,0,2.1-.2,2.7-.7l.6-.5c.6-.7,1-1.5,1-2.5v-6.8c0-.4-.1-.8-.3-1.2-.2-.4-.4-.8-.8-1.2l-.4-.4c-.3-.3-.7-.5-1.1-.6-.4-.1-.9-.2-1.4-.3h-1.2ZM379.6,492.4h-2.7c-1.6,0-2.4.8-2.4,2.5v1.5c0,1.6.8,2.4,2.4,2.4h2.8c1.6,0,2.4-1,2.4-2.9v-1.5c0-1.3-.8-2-2.4-2ZM382,505.9v-3.5c0-1.3-.8-2-2.4-2h-2.7c-1.6,0-2.4.6-2.4,1.9v3.6c0,1.4-.5,2.1-1.4,2.1-.9,0-1.4-.6-1.4-1.9v-12.4c0-1.9,1-2.9,3-2.9h6.9c2.2,0,3.3,1,3.3,2.9v12.3c0,1.3-.5,1.9-1.4,1.9-.9,0-1.4-.7-1.4-2.1ZM396.8,497.2c.6-.6.8-1.3.8-2.1v-.9c0-.6-.2-1-.6-1.3-.3-.3-.8-.5-1.4-.5h-3.3c-1.5,0-2.3.9-2.3,2.7v1.1c0,1.8.8,2.7,2.3,2.7h1.2c.9,0,1.6-.2,2.1-.8l1.2-.9ZM398.9,508.2c-.9,0-1.4-.6-1.4-1.7v-2.8c0-.2,0-.4-.2-.7-.2-.3-.4-.5-.6-.8l-1.2-1c-.7-.5-1.3-.8-1.8-.8h-1.4c-1.5,0-2.3.8-2.3,2.3v3.6c0,1.2-.5,1.8-1.4,1.8-.9,0-1.4-.7-1.4-2v-12.4c0-1.9,1.1-2.9,3.1-2.9h6.6c2.3,0,3.4.9,3.4,2.7v2.6c-.1.8-.7,1.6-1.7,2.4-.4.3-.6.7-.6,1,0,.3.2.7.6,1,1.1,1,1.6,1.8,1.8,2.5v3.2c0,1.2-.5,1.8-1.5,1.8ZM407,500.3c-1,0-1.4.6-1.4,2v4c0,1.4-.5,2.1-1.4,2.1-1,0-1.4-.7-1.4-2v-13.9c0-1.3.5-2,1.5-2,.9,0,1.4.7,1.4,2.1v3.6c0,1.4.5,2.1,1.6,2.1.5,0,1.2-.5,2.1-1.6l2.7-4.8c.5-.9,1.1-1.4,1.6-1.4.4,0,.6.2.8.5.2.3.3.5.3.8,0,.3,0,.5-.2.8l-3.9,6.3c-.2.2-.4.5-.4.7,0,.3.1.6.3.8l3.8,6c.2.3.2.6.2.8,0,.3-.1.6-.4.9-.2.3-.5.4-.8.4-.5,0-1-.4-1.5-1.2l-3.5-5.6c-.3-.4-.6-.7-.8-.9-.2-.2-.4-.4-.5-.4Z"/>
  <path d="M103.9,240.8h-6.5c-1.5,0-2.2.7-2.2,2.3v9.6c0,1.5.8,2.3,2.3,2.3h2.8c1.6,0,2.4-.9,2.4-2.8v-2.2c0-1.1-.6-1.6-1.9-1.6h-1.8c-1,0-1.5-.3-1.5-.8s.5-.8,1.4-.8h3.6c2,0,3,.9,3,2.5v4.5c0,1.8-1.1,2.7-3.3,2.7h-6.6c-2.1,0-3.2-1-3.2-2.9v-11.4c0-1.9,1.1-2.9,3.3-2.9h8.4c1,0,1.5.3,1.5.8,0,.5-.5.8-1.6.8ZM117.5,245.6c.6-.6.8-1.3.8-2.1v-.9c0-.6-.2-1-.6-1.3-.3-.3-.8-.5-1.4-.5h-3.3c-1.5,0-2.3.9-2.3,2.7v1.1c0,1.8.8,2.7,2.3,2.7h1.2c.9,0,1.6-.2,2.1-.8l1.2-.9ZM119.7,256.6c-.9,0-1.4-.6-1.4-1.7v-2.8c0-.2,0-.4-.2-.7-.2-.3-.4-.5-.6-.8l-1.2-1c-.7-.5-1.3-.8-1.8-.8h-1.4c-1.5,0-2.3.8-2.3,2.3v3.6c0,1.2-.5,1.8-1.4,1.8-.9,0-1.4-.7-1.4-2v-12.4c0-1.9,1.1-2.9,3.1-2.9h6.6c2.3,0,3.4.9,3.4,2.7v2.6c-.1.8-.7,1.6-1.7,2.4-.4.3-.6.7-.6,1,0,.3.2.7.6,1,1.1,1,1.6,1.8,1.8,2.5v3.2c0,1.2-.5,1.8-1.5,1.8ZM131.3,240.8h-2.7c-1.6,0-2.4.8-2.4,2.5v1.5c0,1.6.8,2.4,2.4,2.4h2.8c1.6,0,2.4-1,2.4-2.9v-1.5c0-1.3-.8-2-2.4-2ZM133.7,254.3v-3.5c0-1.3-.8-2-2.4-2h-2.7c-1.6,0-2.4.6-2.4,1.9v3.6c0,1.4-.5,2.1-1.4,2.1-.9,0-1.4-.6-1.4-1.9v-12.4c0-1.9,1-2.9,3-2.9h6.9c2.2,0,3.3,1,3.3,2.9v12.3c0,1.3-.5,1.9-1.4,1.9-.9,0-1.4-.7-1.4-2.1ZM141.7,250.4v4.1c0,1.4-.5,2.1-1.4,2.1-1,0-1.4-.7-1.4-2v-12.4c0-1.9,1.2-2.9,3.3-2.9h6.9c2,0,3,.9,3,2.7v3.7c0,1.9-1.1,2.8-3.1,2.8h-5c-1.5,0-2.2.6-2.2,1.9ZM146.9,240.9h-2.7c-1.6,0-2.4.9-2.4,2.6v1.2c0,1.5.8,2.3,2.4,2.3h2.8c1.6,0,2.4-.9,2.4-2.8v-1.2c0-1.4-.8-2.2-2.4-2.2ZM163.9,254.6v-4.2c0-1.4-.8-2.1-2.4-2.1h-2.7c-1.6,0-2.4.7-2.4,2.1v4.2c0,1.3-.5,2-1.5,2-.9,0-1.4-.6-1.4-1.8v-13.7c0-1.3.5-1.9,1.4-1.9,1,0,1.4.7,1.4,2v3.5c0,1.4.8,2.1,2.4,2.1h2.8c1.5,0,2.3-.7,2.3-2.1v-3.5c0-1.3.5-2,1.4-2,1,0,1.4.6,1.4,1.9v13.7c0,1.2-.5,1.8-1.5,1.8-.9,0-1.4-.7-1.4-2ZM170.9,256.6c-.9,0-1.4-.7-1.4-2v-13.6c0-1.3.5-1.9,1.4-1.9.9,0,1.4.6,1.4,1.9v13.6c0,1.3-.5,2-1.4,2ZM185.3,252.9c0-.3.1-.5.3-.7.2-.2.6-.3,1.1-.3.9,0,1.4.4,1.4,1.3v.7c0,1.8-1,2.6-3,2.6h-7.2c-1.9,0-2.9-1-2.9-2.9v-11.4c0-1.9,1-2.9,3-2.9h7.2c2,0,3,.9,3,2.7v.6c0,1-.5,1.4-1.4,1.4-.9,0-1.4-.3-1.4-.9,0-1.5-.8-2.2-2.4-2.2h-2.7c-1.6,0-2.4.7-2.4,2.1v10c0,1.4.8,2,2.3,2h2.8c1.6,0,2.4-.7,2.4-2.1ZM210,241.8c.3.3.5.7.6,1.1.2.4.2.9.2,1.6v7.1c0,.7-.1,1.2-.3,1.7s-.4.8-.6,1.1l-1.4,1.4c-.3.2-.6.4-1.1.6-.5.1-1,.2-1.6.2h-5c-2.2,0-3.2-1-3.2-3.1v-11c0-2.1,1.1-3.1,3.3-3.1h4.8c1.3,0,2.2.4,2.8.9l.7.8.8.8ZM202.9,241c-1.6,0-2.4.8-2.4,2.3v9.6c0,1.5.8,2.3,2.4,2.3h.9c1.2,0,2.1-.2,2.7-.7l.6-.5c.6-.7,1-1.5,1-2.5v-6.8c0-.4-.1-.8-.3-1.2-.2-.4-.4-.8-.8-1.2l-.4-.4c-.3-.3-.7-.5-1.1-.6-.4-.1-.9-.2-1.4-.3h-1.2ZM218.6,255.1h6.6c.9,0,1.3.3,1.3.8,0,.5-.4.7-1.2.7h-8.7c-2.2,0-3.2-.9-3.2-2.7v-11.8c0-1.8,1.1-2.7,3.3-2.7h8.7c.8,0,1.2.3,1.2.8,0,.5-.4.8-1.3.8h-6.6c-1.7,0-2.5.7-2.5,2.1v1.7c0,1.4.8,2.1,2.4,2.1h6.6c.9,0,1.3.2,1.3.7,0,.6-.4.8-1.3.8h-6.6c-1.6,0-2.4.7-2.4,2.1v2.6c0,1.3.8,2,2.5,2ZM231.1,248.5c-2.3,0-3.4-.9-3.4-2.7v-3.6c0-1.8,1.1-2.8,3.3-2.8h8.3c1.1,0,1.6.3,1.6.9,0,.5-.5.7-1.6.7h-6.5c-1.5,0-2.2.8-2.2,2.4v1c0,1.7.7,2.5,2.2,2.5h4.7c2.3,0,3.4.9,3.4,2.7v4.3c0,1.8-1.1,2.7-3.3,2.7h-8.3c-1,0-1.6-.3-1.6-.8,0-.5.5-.7,1.6-.7h6.6c1.4,0,2.2-.7,2.2-2.1v-1.9c0-1.8-.8-2.7-2.3-2.7h-4.6ZM244.9,256.8c-.9,0-1.4-.7-1.4-2v-13.6c0-1.3.4-1.9,1.4-1.9.9,0,1.4.6,1.4,1.9v13.6c0,1.3-.5,2-1.4,2ZM260.6,241.1h-6.5c-1.5,0-2.2.7-2.2,2.3v9.6c0,1.5.8,2.3,2.3,2.3h2.8c1.6,0,2.4-.9,2.4-2.8v-2.2c0-1.1-.6-1.6-1.9-1.6h-1.8c-1,0-1.5-.3-1.5-.8,0-.5.5-.8,1.4-.8h3.6c2,0,3,.9,3,2.5v4.5c0,1.8-1.1,2.7-3.3,2.7h-6.6c-2.1,0-3.2-1-3.2-2.9v-11.4c0-1.9,1.1-2.9,3.3-2.9h8.4c1,0,1.5.3,1.5.8,0,.5-.5.8-1.6.8ZM273.9,252.1c.3.8.6,1.2.8,1.2.1,0,.2-.2.2-.7v-10.7c0-1.6.5-2.4,1.5-2.4,1,0,1.4.7,1.4,2v12.6c0,1.9-1,2.9-2.7,2.9-.8,0-1.5-.6-2.1-1.9l-4.7-10.8c-.3-.5-.6-.8-.7-.8-.2,0-.2.3-.2,1v10.2c0,1.4-.5,2.2-1.4,2.2-1,0-1.4-.6-1.4-1.9v-12.7c0-1.9.9-2.9,2.7-2.9.7,0,1.4.7,2.1,2l4.6,10.8ZM285.4,255.3h6.6c.9,0,1.3.3,1.3.8,0,.5-.4.7-1.2.7h-8.7c-2.2,0-3.2-.9-3.2-2.7v-11.8c0-1.8,1.1-2.7,3.3-2.7h8.7c.8,0,1.2.3,1.2.8,0,.5-.4.8-1.3.8h-6.6c-1.7,0-2.5.7-2.5,2.1v1.7c0,1.4.8,2.1,2.4,2.1h6.6c.9,0,1.3.2,1.3.7,0,.6-.4.8-1.3.8h-6.6c-1.6,0-2.4.7-2.4,2.1v2.6c0,1.3.8,2,2.5,2ZM304.1,246c.6-.6.8-1.3.8-2.1v-.9c0-.6-.2-1-.6-1.3-.3-.3-.8-.5-1.4-.5h-3.3c-1.5,0-2.3.9-2.3,2.7v1.1c0,1.8.8,2.7,2.3,2.7h1.2c.9,0,1.6-.2,2.1-.8l1.2-.9ZM306.3,257c-.9,0-1.4-.6-1.4-1.7v-2.8c0-.2,0-.4-.2-.7-.2-.3-.4-.5-.6-.8l-1.2-1c-.7-.5-1.3-.8-1.8-.8h-1.4c-1.5,0-2.3.8-2.3,2.3v3.6c0,1.2-.5,1.8-1.4,1.8-.9,0-1.4-.7-1.4-2v-12.4c0-1.9,1.1-2.9,3.1-2.9h6.6c2.3,0,3.4.9,3.4,2.7v2.6c-.1.8-.7,1.6-1.7,2.4-.4.3-.6.7-.6,1,0,.3.2.7.6,1,1.1,1,1.6,1.8,1.8,2.5v3.2c0,1.2-.5,1.8-1.5,1.8ZM326.6,240.1l-7.2,17.3c-.5,1-1.1,1.5-1.6,1.5-.4,0-.7-.1-.9-.4-.2-.3-.3-.5-.3-.8,0-.3.1-.8.4-1.4l7-16.9c.4-1,.9-1.5,1.6-1.5.4,0,.7.1.9.4.2.2.3.5.3.8,0,.3,0,.6-.2,1ZM338.5,250.9v4.1c0,1.4-.5,2.1-1.4,2.1-1,0-1.4-.7-1.4-2v-12.4c0-1.9,1.2-2.9,3.3-2.9h6.9c2,0,3,.9,3,2.7v3.7c0,1.9-1.1,2.8-3.1,2.8h-5c-1.5,0-2.2.6-2.2,1.9ZM343.7,241.3h-2.7c-1.6,0-2.4.9-2.4,2.6v1.2c0,1.5.8,2.3,2.4,2.3h2.8c1.6,0,2.4-.9,2.4-2.8v-1.2c0-1.4-.8-2.2-2.4-2.2ZM360,246.2c.6-.6.8-1.3.8-2.1v-.9c0-.6-.2-1-.6-1.3-.3-.3-.8-.5-1.4-.5h-3.3c-1.5,0-2.3.9-2.3,2.7v1.1c0,1.8.8,2.7,2.3,2.7h1.2c.9,0,1.6-.2,2.1-.8l1.2-.9ZM362.2,257.1c-.9,0-1.4-.6-1.4-1.7v-2.8c0-.2,0-.4-.2-.7-.2-.3-.4-.5-.6-.8l-1.2-1c-.7-.5-1.3-.8-1.8-.8h-1.4c-1.5,0-2.3.8-2.3,2.3v3.6c0,1.2-.5,1.8-1.4,1.8-.9,0-1.4-.7-1.4-2v-12.4c0-1.9,1.1-2.9,3.1-2.9h6.6c2.3,0,3.4.9,3.4,2.7v2.6c-.1.8-.7,1.6-1.7,2.4-.4.3-.6.7-.6,1,0,.3.2.7.6,1,1.1,1,1.6,1.8,1.8,2.5v3.2c0,1.2-.5,1.8-1.5,1.8ZM371.1,255.5h2.8c1.6,0,2.4-.8,2.4-2.3v-9.5c0-1.5-.8-2.3-2.4-2.3h-2.7c-1.6,0-2.4.7-2.4,2.3v9.6c0,1.5.8,2.3,2.3,2.3ZM379.1,254.3c0,1.8-1.1,2.7-3.2,2.7h-6.7c-2.2,0-3.2-.9-3.2-2.7v-11.6c0-1.9,1.1-2.8,3.3-2.8h6.6c2.2,0,3.3,1,3.3,2.8v11.6ZM391.8,253.4c0-.3.1-.5.3-.7.2-.2.6-.3,1.1-.3.9,0,1.4.4,1.4,1.3v.7c0,1.8-1,2.6-3,2.6h-7.2c-1.9,0-2.9-1-2.9-2.9v-11.4c0-1.9,1-2.9,3-2.9h7.2c2,0,3,.9,3,2.7v.6c0,1-.5,1.4-1.4,1.4-.9,0-1.4-.3-1.4-.9,0-1.5-.8-2.2-2.4-2.2h-2.7c-1.6,0-2.4.7-2.4,2.1v10c0,1.4.8,2,2.3,2h2.8c1.6,0,2.4-.7,2.4-2.1ZM406.5,246.3c.6-.6.8-1.3.8-2.1v-.9c0-.6-.2-1-.6-1.3-.3-.3-.8-.5-1.4-.5h-3.3c-1.5,0-2.3.9-2.3,2.7v1.1c0,1.8.8,2.7,2.3,2.7h1.2c.9,0,1.6-.2,2.1-.8l1.2-.9ZM408.7,257.2c-.9,0-1.4-.6-1.4-1.7v-2.8c0-.2,0-.4-.2-.7-.2-.3-.4-.5-.6-.8l-1.2-1c-.7-.5-1.3-.8-1.8-.8h-1.4c-1.5,0-2.3.8-2.3,2.3v3.6c0,1.2-.5,1.8-1.4,1.8-.9,0-1.4-.7-1.4-2v-12.4c0-1.9,1.1-2.9,3.1-2.9h6.6c2.3,0,3.4.9,3.4,2.7v2.6c-.1.8-.7,1.6-1.7,2.4-.4.3-.6.7-.6,1,0,.3.2.7.6,1,1.1,1,1.6,1.8,1.8,2.5v3.2c0,1.2-.5,1.8-1.5,1.8ZM417.8,255.6h6.6c.9,0,1.3.3,1.3.8,0,.5-.4.7-1.2.7h-8.7c-2.2,0-3.2-.9-3.2-2.7v-11.8c0-1.8,1.1-2.7,3.3-2.7h8.7c.8,0,1.2.3,1.2.8,0,.5-.4.8-1.3.8h-6.6c-1.7,0-2.5.7-2.5,2.1v1.7c0,1.4.8,2.1,2.4,2.1h6.6c.9,0,1.3.2,1.3.7,0,.6-.4.8-1.3.8h-6.6c-1.6,0-2.4.7-2.4,2.1v2.6c0,1.3.8,2,2.5,2ZM434.8,241.5h-2.7c-1.6,0-2.4.8-2.4,2.5v1.5c0,1.6.8,2.4,2.4,2.4h2.8c1.6,0,2.4-1,2.4-2.9v-1.5c0-1.3-.8-2-2.4-2ZM437.2,255v-3.5c0-1.3-.8-2-2.4-2h-2.7c-1.6,0-2.4.6-2.4,1.9v3.6c0,1.4-.5,2.1-1.4,2.1-.9,0-1.4-.6-1.4-1.9v-12.4c0-1.9,1-2.9,3-2.9h6.9c2.2,0,3.3,1,3.3,2.9v12.3c0,1.3-.5,1.9-1.4,1.9-.9,0-1.4-.7-1.4-2.1ZM441,240.7c0-.5.5-.8,1.4-.8h10.2c1,0,1.4.3,1.4.8,0,.5-.5.8-1.5.8h-1.4c-1.5,0-2.3.7-2.3,2.1v11.7c0,1.4-.5,2.1-1.4,2.1-.9,0-1.4-.7-1.4-2.1v-11.7c0-1.4-.7-2.1-2.2-2.1h-1.3c-1,0-1.5-.3-1.5-.8ZM460.3,255.7h6.6c.9,0,1.3.3,1.3.8,0,.5-.4.7-1.2.7h-8.7c-2.2,0-3.2-.9-3.2-2.7v-11.8c0-1.8,1.1-2.7,3.3-2.7h8.7c.8,0,1.2.3,1.2.8,0,.5-.4.8-1.3.8h-6.6c-1.7,0-2.5.7-2.5,2.1v1.7c0,1.4.8,2.1,2.4,2.1h6.6c.9,0,1.3.2,1.3.7,0,.6-.4.8-1.3.8h-6.6c-1.6,0-2.4.7-2.4,2.1v2.6c0,1.3.8,2,2.5,2ZM479.4,253.3c0,1.6.8,2.4,2.3,2.4h5.7c1,0,1.5.3,1.5.8,0,.5-.5.7-1.5.7h-7.6c-2.1,0-3.2-1-3.2-2.9v-12.5c0-1.3.5-2,1.4-2,1,0,1.4.7,1.4,2.1v11.3ZM499.1,252.6c.3.8.6,1.2.8,1.2.1,0,.2-.2.2-.7v-10.7c0-1.6.5-2.4,1.5-2.4,1,0,1.4.7,1.4,2v12.6c0,1.9-1,2.9-2.7,2.9-.8,0-1.5-.6-2.1-1.9l-4.7-10.8c-.3-.5-.6-.8-.7-.8-.2,0-.2.3-.2,1v10.2c0,1.4-.5,2.2-1.4,2.2-1,0-1.4-.6-1.4-1.9v-12.7c0-1.9.9-2.9,2.7-2.9.7,0,1.4.7,2.1,2l4.6,10.8ZM517.5,242.6c.3.3.5.7.6,1.1.2.4.2.9.2,1.6v7.1c0,.7,0,1.2-.3,1.7-.2.5-.4.8-.6,1.1l-1.4,1.4c-.3.2-.6.4-1.1.6-.5.1-1,.2-1.6.2h-5c-2.2,0-3.2-1-3.2-3.1v-11c0-2.1,1.1-3.1,3.3-3.1h4.8c1.3,0,2.2.4,2.8.9l.7.8.8.8ZM510.4,241.7c-1.6,0-2.4.8-2.4,2.3v9.6c0,1.5.8,2.3,2.4,2.3h.9c1.2,0,2.1-.2,2.7-.7l.6-.5c.6-.7,1-1.5,1-2.5v-6.8c0-.4-.1-.8-.3-1.2-.2-.4-.4-.8-.8-1.2l-.4-.4c-.3-.3-.7-.5-1.1-.6-.4-.1-.9-.2-1.4-.3h-1.2Z"/>
  <path d="M93.4,544.4c-.9,0-1.4-.7-1.4-2v-13.6c0-1.3.4-1.9,1.4-1.9.9,0,1.4.6,1.4,1.9v13.6c0,1.3-.5,2-1.4,2ZM106.9,539.7c.3.8.6,1.2.8,1.2.1,0,.2-.2.2-.7v-10.7c0-1.6.5-2.4,1.5-2.4,1,0,1.4.7,1.4,2v12.6c0,1.9-1,2.9-2.7,2.9-.8,0-1.5-.6-2.1-1.9l-4.7-10.8c-.3-.5-.6-.8-.7-.8-.2,0-.2.3-.2,1v10.2c0,1.4-.5,2.2-1.4,2.2-1,0-1.4-.6-1.4-1.9v-12.7c0-1.9.9-2.9,2.7-2.9.7,0,1.4.7,2.1,2l4.6,10.8ZM111.6,528c0-.5.5-.8,1.4-.8h10.2c1,0,1.4.3,1.4.8,0,.5-.5.8-1.5.8h-1.4c-1.5,0-2.3.7-2.3,2.1v11.7c0,1.4-.5,2.1-1.4,2.1-.9,0-1.4-.7-1.4-2.1v-11.7c0-1.4-.7-2.1-2.2-2.1h-1.3c-1,0-1.5-.3-1.5-.8ZM131,542.9h6.6c.9,0,1.3.3,1.3.8,0,.5-.4.7-1.2.7h-8.7c-2.2,0-3.2-.9-3.2-2.7v-11.8c0-1.8,1.1-2.7,3.3-2.7h8.7c.8,0,1.2.3,1.2.8,0,.5-.4.8-1.3.8h-6.6c-1.7,0-2.5.7-2.5,2.1v1.7c0,1.4.8,2.1,2.4,2.1h6.6c.9,0,1.3.2,1.3.7,0,.6-.4.8-1.3.8h-6.6c-1.6,0-2.4.7-2.4,2.1v2.6c0,1.3.8,2,2.5,2ZM149.7,533.7c.6-.6.8-1.3.8-2.1v-.9c0-.6-.2-1-.6-1.3-.3-.3-.8-.5-1.4-.5h-3.3c-1.5,0-2.3.9-2.3,2.7v1.1c0,1.8.8,2.7,2.3,2.7h1.2c.9,0,1.6-.2,2.1-.8l1.2-.9ZM151.8,544.6c-.9,0-1.4-.6-1.4-1.7v-2.8c0-.2,0-.4-.2-.7-.2-.3-.4-.5-.6-.8l-1.2-1c-.7-.5-1.3-.8-1.8-.8h-1.4c-1.5,0-2.3.8-2.3,2.3v3.6c0,1.2-.5,1.8-1.4,1.8-.9,0-1.4-.7-1.4-2v-12.4c0-1.9,1.1-2.9,3.1-2.9h6.6c2.3,0,3.4.9,3.4,2.7v2.6c-.1.8-.7,1.6-1.7,2.4-.4.3-.6.7-.6,1,0,.3.2.7.6,1,1.1,1,1.6,1.8,1.8,2.5v3.2c0,1.2-.5,1.8-1.5,1.8ZM163.5,528.9h-2.7c-1.6,0-2.4.8-2.4,2.5v1.5c0,1.6.8,2.4,2.4,2.4h2.8c1.6,0,2.4-1,2.4-2.9v-1.5c0-1.3-.8-2-2.4-2ZM165.9,542.3v-3.5c0-1.3-.8-2-2.4-2h-2.7c-1.6,0-2.4.6-2.4,1.9v3.6c0,1.4-.5,2.1-1.4,2.1-.9,0-1.4-.6-1.4-1.9v-12.4c0-1.9,1-2.9,3-2.9h6.9c2.2,0,3.3,1,3.3,2.9v12.3c0,1.3-.5,1.9-1.4,1.9-.9,0-1.4-.7-1.4-2.1ZM181.4,540.9c0-.3.1-.5.3-.7.2-.2.6-.3,1.1-.3.9,0,1.4.4,1.4,1.3v.7c0,1.8-1,2.6-3,2.6h-7.2c-1.9,0-2.9-1-2.9-2.9v-11.4c0-1.9,1-2.9,3-2.9h7.2c2,0,3,.9,3,2.7v.6c0,1-.5,1.4-1.4,1.4-.9,0-1.4-.3-1.4-.9,0-1.5-.8-2.2-2.4-2.2h-2.7c-1.6,0-2.4.7-2.4,2.1v10c0,1.4.8,2,2.3,2h2.8c1.6,0,2.4-.7,2.4-2.1ZM185.1,528.1c0-.5.5-.8,1.4-.8h10.2c1,0,1.4.3,1.4.8,0,.5-.5.8-1.5.8h-1.4c-1.5,0-2.3.7-2.3,2.1v11.7c0,1.4-.5,2.1-1.4,2.1-.9,0-1.4-.7-1.4-2.1v-11.7c0-1.4-.7-2.1-2.2-2.1h-1.3c-1,0-1.5-.3-1.5-.8ZM200.9,544.7c-.9,0-1.4-.7-1.4-2v-13.6c0-1.3.4-1.9,1.4-1.9.9,0,1.4.6,1.4,1.9v13.6c0,1.3-.5,2-1.4,2ZM211.6,544.6h-.5c-.7,0-1.3-.3-1.8-1l-3.8-4.3c-.3-.3-.5-.8-.7-1.2-.1-.5-.2-1.1-.2-1.8v-7c0-1.4.5-2,1.4-2,1,0,1.4.7,1.4,2v7.4c0,.8.4,1.7,1.3,2.7l2,2.4c.2.1.4.2.5.2.2,0,.4-.1.6-.3l2-2.2c.5-.5.8-1,1.1-1.4.3-.5.4-.9.4-1.3v-7.4c0-1.4.5-2,1.4-2,1,0,1.4.7,1.4,2v7c0,1.4-.4,2.4-1.1,3.1l-3.7,4.3c-.3.4-.6.6-1,.8-.3.1-.6.2-.9.2ZM225.9,543.2h6.6c.9,0,1.3.3,1.3.8,0,.5-.4.7-1.2.7h-8.7c-2.2,0-3.2-.9-3.2-2.7v-11.8c0-1.8,1.1-2.7,3.3-2.7h8.7c.8,0,1.2.3,1.2.8,0,.5-.4.8-1.3.8h-6.6c-1.7,0-2.5.7-2.5,2.1v1.7c0,1.4.8,2.1,2.4,2.1h6.6c.9,0,1.3.2,1.3.7,0,.6-.4.8-1.3.8h-6.6c-1.6,0-2.4.7-2.4,2.1v2.6c0,1.3.8,2,2.5,2ZM254.4,530c.3.3.5.7.6,1.1.2.4.2.9.2,1.6v7.1c0,.7,0,1.2-.3,1.7s-.4.8-.6,1.1l-1.4,1.4c-.3.2-.6.4-1.1.6-.5.1-1,.2-1.6.2h-5c-2.2,0-3.2-1-3.2-3.1v-11c0-2.1,1.1-3.1,3.3-3.1h4.8c1.3,0,2.2.4,2.8.9l.7.8.8.8ZM247.3,529.1c-1.6,0-2.4.8-2.4,2.3v9.6c0,1.5.8,2.3,2.4,2.3h.9c1.2,0,2.1-.2,2.7-.7l.6-.5c.6-.7,1-1.5,1-2.5v-6.8c0-.4-.1-.8-.3-1.2-.2-.4-.4-.8-.8-1.2l-.4-.4c-.3-.3-.7-.5-1.1-.6-.4-.1-.9-.2-1.4-.3h-1.2ZM263,543.3h6.6c.9,0,1.3.3,1.3.8,0,.5-.4.7-1.2.7h-8.7c-2.2,0-3.2-.9-3.2-2.7v-11.8c0-1.8,1.1-2.7,3.3-2.7h8.7c.8,0,1.2.3,1.2.8,0,.5-.4.8-1.3.8h-6.6c-1.7,0-2.5.7-2.5,2.1v1.7c0,1.4.8,2.1,2.4,2.1h6.6c.9,0,1.3.2,1.3.7,0,.6-.4.8-1.3.8h-6.6c-1.6,0-2.4.7-2.4,2.1v2.6c0,1.3.8,2,2.5,2ZM275.5,536.6c-2.3,0-3.4-.9-3.4-2.7v-3.6c0-1.8,1.1-2.8,3.3-2.8h8.3c1.1,0,1.6.3,1.6.9,0,.5-.5.7-1.6.7h-6.5c-1.5,0-2.2.8-2.2,2.4v1c0,1.7.7,2.5,2.2,2.5h4.7c2.3,0,3.4.9,3.4,2.7v4.3c0,1.8-1.1,2.7-3.3,2.7h-8.3c-1,0-1.6-.3-1.6-.8,0-.5.5-.7,1.6-.7h6.6c1.4,0,2.2-.7,2.2-2.1v-1.9c0-1.8-.7-2.7-2.3-2.7h-4.6ZM289.4,544.9c-.9,0-1.4-.7-1.4-2v-13.6c0-1.3.4-1.9,1.4-1.9.9,0,1.4.6,1.4,1.9v13.6c0,1.3-.5,2-1.4,2ZM305.1,529.2h-6.5c-1.5,0-2.2.7-2.2,2.3v9.6c0,1.5.8,2.3,2.3,2.3h2.8c1.6,0,2.4-.9,2.4-2.8v-2.2c0-1.1-.6-1.6-1.9-1.6h-1.8c-1,0-1.5-.3-1.5-.8,0-.5.5-.8,1.4-.8h3.6c2,0,3,.9,3,2.5v4.5c0,1.8-1.1,2.7-3.3,2.7h-6.6c-2.1,0-3.2-1-3.2-2.9v-11.4c0-1.9,1.1-2.9,3.3-2.9h8.4c1,0,1.5.3,1.5.8,0,.5-.5.8-1.6.8ZM318.3,540.2c.3.8.6,1.2.8,1.2.1,0,.2-.2.2-.7v-10.7c0-1.6.5-2.4,1.5-2.4,1,0,1.4.7,1.4,2v12.6c0,1.9-1,2.9-2.7,2.9-.8,0-1.5-.6-2.1-1.9l-4.7-10.8c-.3-.5-.6-.8-.7-.8-.2,0-.2.3-.2,1v10.2c0,1.4-.5,2.2-1.4,2.2-1,0-1.4-.6-1.4-1.9v-12.7c0-1.9.9-2.9,2.7-2.9.7,0,1.4.7,2.1,2l4.6,10.8Z"/>
  <path d="M103.9,275.8h-6.5c-1.5,0-2.2.7-2.2,2.3v9.6c0,1.5.8,2.3,2.3,2.3h2.8c1.6,0,2.4-.9,2.4-2.8v-2.2c0-1.1-.6-1.6-1.9-1.6h-1.8c-1,0-1.5-.3-1.5-.8,0-.5.5-.8,1.4-.8h3.6c2,0,3,.9,3,2.5v4.5c0,1.8-1.1,2.7-3.3,2.7h-6.6c-2.1,0-3.2-1-3.2-2.9v-11.4c0-1.9,1.1-2.9,3.3-2.9h8.4c1,0,1.5.3,1.5.8,0,.5-.5.8-1.6.8ZM117.4,280.6c.6-.6.8-1.3.8-2.1v-.9c0-.6-.2-1-.6-1.3-.3-.3-.8-.5-1.4-.5h-3.3c-1.5,0-2.3.9-2.3,2.7v1.1c0,1.8.8,2.7,2.3,2.7h1.2c.9,0,1.6-.2,2.1-.8l1.2-.9ZM119.6,291.6c-.9,0-1.4-.6-1.4-1.7v-2.8c0-.2,0-.4-.2-.7-.2-.3-.4-.5-.6-.8l-1.2-1c-.7-.5-1.3-.8-1.8-.8h-1.4c-1.5,0-2.3.8-2.3,2.3v3.6c0,1.2-.5,1.8-1.4,1.8-.9,0-1.4-.7-1.4-2v-12.4c0-1.9,1.1-2.9,3.1-2.9h6.6c2.3,0,3.4.9,3.4,2.7v2.6c-.1.8-.7,1.6-1.7,2.4-.4.3-.6.7-.6,1,0,.3.2.7.6,1,1.1,1,1.6,1.8,1.8,2.5v3.2c0,1.2-.5,1.8-1.5,1.8ZM131.2,275.8h-2.7c-1.6,0-2.4.8-2.4,2.5v1.5c0,1.6.8,2.4,2.4,2.4h2.8c1.6,0,2.4-1,2.4-2.9v-1.5c0-1.3-.8-2-2.4-2ZM133.7,289.3v-3.5c0-1.3-.8-2-2.4-2h-2.7c-1.6,0-2.4.6-2.4,1.9v3.6c0,1.4-.5,2.1-1.4,2.1-.9,0-1.4-.6-1.4-1.9v-12.4c0-1.9,1-2.9,3-2.9h6.9c2.2,0,3.3,1,3.3,2.9v12.3c0,1.3-.5,1.9-1.4,1.9-.9,0-1.4-.7-1.4-2.1ZM141.7,285.4v4.1c0,1.4-.5,2.1-1.4,2.1-1,0-1.4-.7-1.4-2v-12.4c0-1.9,1.2-2.9,3.3-2.9h6.9c2,0,3,.9,3,2.7v3.7c0,1.9-1.1,2.8-3.1,2.8h-5c-1.5,0-2.2.6-2.2,1.9ZM146.8,275.9h-2.7c-1.6,0-2.4.9-2.4,2.6v1.2c0,1.5.8,2.3,2.4,2.3h2.8c1.6,0,2.4-.9,2.4-2.8v-1.2c0-1.4-.8-2.2-2.4-2.2ZM163.8,289.6v-4.2c0-1.4-.8-2.1-2.4-2.1h-2.7c-1.6,0-2.4.7-2.4,2.1v4.2c0,1.3-.5,2-1.5,2-.9,0-1.4-.6-1.4-1.8v-13.7c0-1.3.5-1.9,1.4-1.9,1,0,1.4.7,1.4,2v3.5c0,1.4.8,2.1,2.4,2.1h2.8c1.5,0,2.3-.7,2.3-2.1v-3.5c0-1.3.5-2,1.4-2,1,0,1.4.6,1.4,1.9v13.7c0,1.2-.5,1.8-1.5,1.8-.9,0-1.4-.7-1.4-2ZM170.8,291.6c-.9,0-1.4-.7-1.4-2v-13.6c0-1.3.5-1.9,1.4-1.9.9,0,1.4.6,1.4,1.9v13.6c0,1.3-.5,2-1.4,2ZM185.3,287.9c0-.3.1-.5.3-.7.2-.2.6-.3,1.1-.3.9,0,1.4.4,1.4,1.3v.7c0,1.8-1,2.6-3,2.6h-7.2c-1.9,0-2.9-1-2.9-2.9v-11.4c0-1.9,1-2.9,3-2.9h7.2c2,0,3,.9,3,2.7v.6c0,1-.5,1.4-1.4,1.4-.9,0-1.4-.3-1.4-.9,0-1.5-.8-2.2-2.4-2.2h-2.7c-1.6,0-2.4.7-2.4,2.1v10c0,1.4.8,2,2.3,2h2.8c1.6,0,2.4-.7,2.4-2.1ZM209.9,276.8c.3.3.5.7.6,1.1.2.4.2.9.2,1.6v7.1c0,.7,0,1.2-.3,1.7-.2.5-.4.8-.6,1.1l-1.4,1.4c-.3.2-.6.4-1.1.6-.5.1-1,.2-1.6.2h-5c-2.2,0-3.2-1-3.2-3.1v-11c0-2.1,1.1-3.1,3.3-3.1h4.8c1.3,0,2.2.4,2.8.9l.7.8.8.8ZM202.8,276c-1.6,0-2.4.8-2.4,2.3v9.6c0,1.5.8,2.3,2.4,2.3h.9c1.2,0,2.1-.2,2.7-.7l.6-.5c.6-.7,1-1.5,1-2.5v-6.8c0-.4-.1-.8-.3-1.2-.2-.4-.4-.8-.8-1.2l-.4-.4c-.3-.3-.7-.5-1.1-.6-.4-.1-.9-.2-1.4-.3h-1.2ZM218.5,290.1h6.6c.9,0,1.3.3,1.3.8,0,.5-.4.7-1.2.7h-8.7c-2.2,0-3.2-.9-3.2-2.7v-11.8c0-1.8,1.1-2.7,3.3-2.7h8.7c.8,0,1.2.3,1.2.8,0,.5-.4.8-1.3.8h-6.6c-1.7,0-2.5.7-2.5,2.1v1.7c0,1.4.8,2.1,2.4,2.1h6.6c.9,0,1.3.2,1.3.7,0,.6-.4.8-1.3.8h-6.6c-1.6,0-2.4.7-2.4,2.1v2.6c0,1.3.8,2,2.5,2ZM231,283.5c-2.3,0-3.4-.9-3.4-2.7v-3.6c0-1.8,1.1-2.8,3.3-2.8h8.3c1.1,0,1.6.3,1.6.9,0,.5-.5.7-1.6.7h-6.5c-1.5,0-2.2.8-2.2,2.4v1c0,1.7.7,2.5,2.2,2.5h4.7c2.3,0,3.4.9,3.4,2.7v4.3c0,1.8-1.1,2.7-3.3,2.7h-8.3c-1,0-1.6-.3-1.6-.8,0-.5.5-.7,1.6-.7h6.6c1.4,0,2.2-.7,2.2-2.1v-1.9c0-1.8-.7-2.7-2.3-2.7h-4.6ZM244.8,291.8c-.9,0-1.4-.7-1.4-2v-13.6c0-1.3.4-1.9,1.4-1.9.9,0,1.4.6,1.4,1.9v13.6c0,1.3-.5,2-1.4,2ZM260.5,276.1h-6.5c-1.5,0-2.2.7-2.2,2.3v9.6c0,1.5.8,2.3,2.3,2.3h2.8c1.6,0,2.4-.9,2.4-2.8v-2.2c0-1.1-.6-1.6-1.9-1.6h-1.8c-1,0-1.5-.3-1.5-.8,0-.5.5-.8,1.4-.8h3.6c2,0,3,.9,3,2.5v4.5c0,1.8-1.1,2.7-3.3,2.7h-6.6c-2.1,0-3.2-1-3.2-2.9v-11.4c0-1.9,1.1-2.9,3.3-2.9h8.4c1,0,1.5.3,1.5.8,0,.5-.5.8-1.6.8ZM273.8,287.1c.3.8.6,1.2.8,1.2.1,0,.2-.2.2-.7v-10.7c0-1.6.5-2.4,1.5-2.4,1,0,1.4.7,1.4,2v12.6c0,1.9-1,2.9-2.7,2.9-.8,0-1.5-.6-2.1-1.9l-4.7-10.8c-.3-.5-.6-.8-.7-.8-.2,0-.2.3-.2,1v10.2c0,1.4-.5,2.2-1.4,2.2-1,0-1.4-.6-1.4-1.9v-12.7c0-1.9.9-2.9,2.7-2.9.7,0,1.4.7,2.1,2l4.6,10.8ZM285.4,290.3h6.6c.9,0,1.3.3,1.3.8,0,.5-.4.7-1.2.7h-8.7c-2.2,0-3.2-.9-3.2-2.7v-11.8c0-1.8,1.1-2.7,3.3-2.7h8.7c.8,0,1.2.3,1.2.8,0,.5-.4.8-1.3.8h-6.6c-1.7,0-2.5.7-2.5,2.1v1.7c0,1.4.8,2.1,2.4,2.1h6.6c.9,0,1.3.2,1.3.7,0,.6-.4.8-1.3.8h-6.6c-1.6,0-2.4.7-2.4,2.1v2.6c0,1.3.8,2,2.5,2ZM304,281c.6-.6.8-1.3.8-2.1v-.9c0-.6-.2-1-.6-1.3-.3-.3-.8-.5-1.4-.5h-3.3c-1.5,0-2.3.9-2.3,2.7v1.1c0,1.8.8,2.7,2.3,2.7h1.2c.9,0,1.6-.2,2.1-.8l1.2-.9ZM306.2,292c-.9,0-1.4-.6-1.4-1.7v-2.8c0-.2,0-.4-.2-.7-.2-.3-.4-.5-.6-.8l-1.2-1c-.7-.5-1.3-.8-1.8-.8h-1.4c-1.5,0-2.3.8-2.3,2.3v3.6c0,1.2-.5,1.8-1.4,1.8-.9,0-1.4-.7-1.4-2v-12.4c0-1.9,1.1-2.9,3.1-2.9h6.6c2.3,0,3.4.9,3.4,2.7v2.6c-.1.8-.7,1.6-1.7,2.4-.4.3-.6.7-.6,1,0,.3.2.7.6,1,1.1,1,1.6,1.8,1.8,2.5v3.2c0,1.2-.5,1.8-1.5,1.8ZM326.5,275.1l-7.2,17.3c-.5,1-1.1,1.5-1.6,1.5-.4,0-.7-.1-.9-.4-.2-.3-.3-.5-.3-.8,0-.3.1-.8.4-1.4l7-16.9c.4-1,.9-1.5,1.6-1.5.4,0,.7.1.9.4.2.2.3.5.3.8,0,.3,0,.6-.2,1ZM341,290.4h6.6c.9,0,1.3.3,1.3.8,0,.5-.4.7-1.2.7h-8.7c-2.2,0-3.2-.9-3.2-2.7v-11.8c0-1.8,1.1-2.7,3.3-2.7h8.7c.8,0,1.2.3,1.2.8,0,.5-.4.8-1.3.8h-6.6c-1.7,0-2.5.7-2.5,2.1v1.7c0,1.4.8,2.1,2.4,2.1h6.6c.9,0,1.3.2,1.3.7,0,.6-.4.8-1.3.8h-6.6c-1.6,0-2.4.7-2.4,2.1v2.6c0,1.3.8,2,2.5,2ZM358,276.4h-2.7c-1.6,0-2.4.8-2.4,2.5v1.5c0,1.6.8,2.4,2.4,2.4h2.8c1.6,0,2.4-1,2.4-2.9v-1.5c0-1.3-.8-2-2.4-2ZM360.4,289.8v-3.5c0-1.3-.8-2-2.4-2h-2.7c-1.6,0-2.4.6-2.4,1.9v3.6c0,1.4-.5,2.1-1.4,2.1-.9,0-1.4-.6-1.4-1.9v-12.4c0-1.9,1-2.9,3-2.9h6.9c2.2,0,3.3,1,3.3,2.9v12.3c0,1.3-.5,1.9-1.4,1.9-.9,0-1.4-.7-1.4-2.1ZM375.2,281.2c.6-.6.8-1.3.8-2.1v-.9c0-.6-.2-1-.6-1.3-.3-.3-.8-.5-1.4-.5h-3.3c-1.5,0-2.3.9-2.3,2.7v1.1c0,1.8.8,2.7,2.3,2.7h1.2c.9,0,1.6-.2,2.1-.8l1.2-.9ZM377.3,292.2c-.9,0-1.4-.6-1.4-1.7v-2.8c0-.2,0-.4-.2-.7-.2-.3-.4-.5-.6-.8l-1.2-1c-.7-.5-1.3-.8-1.8-.8h-1.4c-1.5,0-2.3.8-2.3,2.3v3.6c0,1.2-.5,1.8-1.4,1.8-.9,0-1.4-.7-1.4-2v-12.4c0-1.9,1.1-2.9,3.1-2.9h6.6c2.3,0,3.4.9,3.4,2.7v2.6c-.1.8-.7,1.6-1.7,2.4-.4.3-.6.7-.6,1,0,.3.2.7.6,1,1.1,1,1.6,1.8,1.8,2.5v3.2c0,1.2-.5,1.8-1.5,1.8ZM383.9,288.1c0,1.6.8,2.4,2.3,2.4h5.7c1,0,1.5.3,1.5.8,0,.5-.5.7-1.5.7h-7.6c-2.1,0-3.2-1-3.2-2.9v-12.5c0-1.3.5-2,1.4-2,1,0,1.4.7,1.4,2.1v11.3ZM402.4,290.6c1.4,0,2.2-.7,2.2-2.1v-2.3c0-1.4-.8-2.1-2.3-2.1h-5c-2.1,0-3.1-.9-3.1-2.5v-5.2c0-1.1.5-1.7,1.4-1.7.9,0,1.4.6,1.4,1.8v4c0,1.4.8,2.1,2.3,2.1h2.8c1.6,0,2.4-.7,2.4-2.1v-4c0-1.2.5-1.8,1.4-1.8,1,0,1.4.6,1.4,1.8v13c-.1,1.7-1.1,2.6-3.2,2.6h-8.9c-.8,0-1.2-.3-1.2-.8,0-.5.4-.7,1.2-.7h7ZM420.3,283.9c-2.3,0-3.4-.9-3.4-2.7v-3.6c0-1.8,1.1-2.8,3.3-2.8h8.3c1.1,0,1.6.3,1.6.9,0,.5-.5.7-1.6.7h-6.5c-1.5,0-2.2.8-2.2,2.4v1c0,1.7.7,2.5,2.2,2.5h4.7c2.3,0,3.4.9,3.4,2.7v4.3c0,1.8-1.1,2.7-3.3,2.7h-8.3c-1,0-1.6-.3-1.6-.8,0-.5.5-.7,1.6-.7h6.6c1.4,0,2.2-.7,2.2-2.1v-1.9c0-1.8-.7-2.7-2.3-2.7h-4.6ZM430.9,275.7c0-.5.5-.8,1.4-.8h10.2c1,0,1.4.3,1.4.8,0,.5-.5.8-1.5.8h-1.4c-1.5,0-2.3.7-2.3,2.1v11.7c0,1.4-.5,2.1-1.4,2.1-.9,0-1.4-.7-1.4-2.1v-11.7c0-1.4-.7-2.1-2.2-2.1h-1.3c-1,0-1.5-.3-1.5-.8ZM452.9,276.6h-2.7c-1.6,0-2.4.8-2.4,2.5v1.5c0,1.6.8,2.4,2.4,2.4h2.8c1.6,0,2.4-1,2.4-2.9v-1.5c0-1.3-.8-2-2.4-2ZM455.3,290v-3.5c0-1.3-.8-2-2.4-2h-2.7c-1.6,0-2.4.6-2.4,1.9v3.6c0,1.4-.5,2.1-1.4,2.1-.9,0-1.4-.6-1.4-1.9v-12.4c0-1.9,1-2.9,3-2.9h6.9c2.2,0,3.3,1,3.3,2.9v12.3c0,1.3-.5,1.9-1.4,1.9-.9,0-1.4-.7-1.4-2.1ZM472,276.6h-6.5c-1.5,0-2.2.7-2.2,2.3v9.6c0,1.5.8,2.3,2.3,2.3h2.8c1.6,0,2.4-.9,2.4-2.8v-2.2c0-1.1-.6-1.6-1.9-1.6h-1.8c-1,0-1.5-.3-1.5-.8,0-.5.5-.8,1.4-.8h3.6c2,0,3,.9,3,2.5v4.5c0,1.8-1.1,2.7-3.3,2.7h-6.6c-2.1,0-3.2-1-3.2-2.9v-11.4c0-1.9,1.1-2.9,3.3-2.9h8.4c1,0,1.5.3,1.5.8,0,.5-.5.8-1.6.8ZM481.4,290.8h6.6c.9,0,1.3.3,1.3.8,0,.5-.4.7-1.2.7h-8.7c-2.2,0-3.2-.9-3.2-2.7v-11.8c0-1.8,1.1-2.7,3.3-2.7h8.7c.8,0,1.2.3,1.2.8,0,.5-.4.8-1.3.8h-6.6c-1.7,0-2.5.7-2.5,2.1v1.7c0,1.4.8,2.1,2.4,2.1h6.6c.9,0,1.3.2,1.3.7,0,.6-.4.8-1.3.8h-6.6c-1.6,0-2.4.7-2.4,2.1v2.6c0,1.3.8,2,2.5,2ZM501.1,284.1c-2.3,0-3.4-.9-3.4-2.7v-3.6c0-1.8,1.1-2.8,3.3-2.8h8.3c1.1,0,1.6.3,1.6.9,0,.5-.5.7-1.6.7h-6.5c-1.5,0-2.2.8-2.2,2.4v1c0,1.7.7,2.5,2.2,2.5h4.7c2.3,0,3.4.9,3.4,2.7v4.3c0,1.8-1.1,2.7-3.3,2.7h-8.3c-1,0-1.6-.3-1.6-.8,0-.5.5-.7,1.6-.7h6.6c1.4,0,2.2-.7,2.2-2.1v-1.9c0-1.8-.7-2.7-2.3-2.7h-4.6ZM511.7,275.9c0-.5.5-.8,1.4-.8h10.2c1,0,1.4.3,1.4.8,0,.5-.5.8-1.5.8h-1.4c-1.5,0-2.3.7-2.3,2.1v11.7c0,1.4-.5,2.1-1.4,2.1-.9,0-1.4-.7-1.4-2.1v-11.7c0-1.4-.7-2.1-2.2-2.1h-1.3c-1,0-1.5-.3-1.5-.8ZM528.4,277.1v11.7c0,1.4.8,2.1,2.4,2.1h2.8c1.5,0,2.3-.7,2.3-2.1v-11.7c0-1.4.5-2.1,1.5-2.1.9,0,1.4.7,1.4,2v12.5c0,1.9-1.1,2.9-3.4,2.9h-6.6c-2.2,0-3.3-1-3.3-2.9v-12.6c0-1.3.5-2,1.5-2,.9,0,1.4.7,1.4,2.1ZM553.5,277.7c.3.3.5.7.6,1.1.2.4.2.9.2,1.6v7.1c0,.7,0,1.2-.3,1.7-.2.5-.4.8-.6,1.1l-1.4,1.4c-.3.2-.6.4-1.1.6-.5.1-1,.2-1.6.2h-5c-2.2,0-3.2-1-3.2-3.1v-11c0-2.1,1.1-3.1,3.3-3.1h4.8c1.3,0,2.2.4,2.8.9l.7.8.8.8ZM546.3,276.8c-1.6,0-2.4.8-2.4,2.3v9.6c0,1.5.8,2.3,2.4,2.3h.9c1.2,0,2.1-.2,2.7-.7l.6-.5c.6-.7,1-1.5,1-2.5v-6.8c0-.4-.1-.8-.3-1.2-.2-.4-.4-.8-.8-1.2l-.4-.4c-.3-.3-.7-.5-1.1-.6-.4-.1-.9-.2-1.4-.3h-1.2ZM558.4,292.5c-.9,0-1.4-.7-1.4-2v-13.6c0-1.3.5-1.9,1.4-1.9.9,0,1.4.6,1.4,1.9v13.6c0,1.3-.5,2-1.4,2ZM567.7,291h2.8c1.6,0,2.4-.8,2.4-2.3v-9.5c0-1.5-.8-2.3-2.4-2.3h-2.7c-1.6,0-2.4.7-2.4,2.3v9.6c0,1.5.8,2.3,2.3,2.3ZM575.7,289.7c0,1.8-1.1,2.7-3.2,2.7h-6.7c-2.2,0-3.2-.9-3.2-2.7v-11.6c0-1.9,1.1-2.8,3.3-2.8h6.6c2.2,0,3.3,1,3.3,2.8v11.6Z"/>
  <path d="M102,576.7c0-.3.1-.5.3-.7.2-.2.6-.3,1.1-.3.9,0,1.4.4,1.4,1.3v.7c0,1.8-1,2.6-3,2.6h-7.2c-1.9,0-2.9-1-2.9-2.9v-11.4c0-1.9,1-2.9,3-2.9h7.2c2,0,3,.9,3,2.7v.6c0,1-.5,1.4-1.4,1.4-.9,0-1.4-.3-1.4-.9,0-1.5-.8-2.2-2.4-2.2h-2.7c-1.6,0-2.4.7-2.4,2.1v10c0,1.4.8,2,2.3,2h2.8c1.6,0,2.4-.7,2.4-2.1ZM116.7,569.6c.6-.6.8-1.3.8-2.1v-.9c0-.6-.2-1-.6-1.3-.3-.3-.8-.5-1.4-.5h-3.3c-1.5,0-2.3.9-2.3,2.7v1.1c0,1.8.8,2.7,2.3,2.7h1.2c.9,0,1.6-.2,2.1-.8l1.2-.9ZM118.9,580.6c-.9,0-1.4-.6-1.4-1.7v-2.8c0-.2,0-.4-.2-.7-.2-.3-.4-.5-.6-.8l-1.2-1c-.7-.5-1.3-.8-1.8-.8h-1.4c-1.5,0-2.3.8-2.3,2.3v3.6c0,1.2-.5,1.8-1.4,1.8-.9,0-1.4-.7-1.4-2v-12.4c0-1.9,1.1-2.9,3.1-2.9h6.6c2.3,0,3.4.9,3.4,2.7v2.6c-.1.8-.7,1.6-1.7,2.4-.4.3-.6.7-.6,1,0,.3.2.7.6,1,1.1,1,1.6,1.8,1.8,2.5v3.2c0,1.2-.5,1.8-1.5,1.8ZM128,578.9h6.6c.9,0,1.3.3,1.3.8,0,.5-.4.7-1.2.7h-8.7c-2.2,0-3.2-.9-3.2-2.7v-11.8c0-1.8,1.1-2.7,3.3-2.7h8.7c.8,0,1.2.3,1.2.8,0,.5-.4.8-1.3.8h-6.6c-1.7,0-2.5.7-2.5,2.1v1.7c0,1.4.8,2.1,2.4,2.1h6.6c.9,0,1.3.2,1.3.7,0,.6-.4.8-1.3.8h-6.6c-1.6,0-2.4.7-2.4,2.1v2.6c0,1.3.8,2,2.5,2ZM145,564.9h-2.7c-1.6,0-2.4.8-2.4,2.5v1.5c0,1.6.8,2.4,2.4,2.4h2.8c1.6,0,2.4-1,2.4-2.9v-1.5c0-1.3-.8-2-2.4-2ZM147.4,578.3v-3.5c0-1.3-.8-2-2.4-2h-2.7c-1.6,0-2.4.6-2.4,1.9v3.6c0,1.4-.5,2.1-1.4,2.1-.9,0-1.4-.6-1.4-1.9v-12.4c0-1.9,1-2.9,3-2.9h6.9c2.2,0,3.3,1,3.3,2.9v12.3c0,1.3-.5,1.9-1.4,1.9-.9,0-1.4-.7-1.4-2.1ZM151.1,564.1c0-.5.5-.8,1.4-.8h10.2c1,0,1.4.3,1.4.8,0,.5-.5.8-1.5.8h-1.4c-1.5,0-2.3.7-2.3,2.1v11.7c0,1.4-.5,2.1-1.4,2.1-.9,0-1.4-.7-1.4-2.1v-11.7c0-1.4-.7-2.1-2.2-2.1h-1.3c-1,0-1.5-.3-1.5-.8ZM166.9,580.6c-.9,0-1.4-.7-1.4-2v-13.6c0-1.3.4-1.9,1.4-1.9.9,0,1.4.6,1.4,1.9v13.6c0,1.3-.5,2-1.4,2ZM177.6,580.5h-.5c-.7,0-1.3-.3-1.8-1l-3.8-4.3c-.3-.3-.5-.8-.7-1.2-.1-.5-.2-1.1-.2-1.8v-7c0-1.4.5-2,1.4-2,1,0,1.4.7,1.4,2v7.4c0,.8.4,1.7,1.3,2.7l2,2.4c.2.1.4.2.5.2.2,0,.4-.1.6-.3l2-2.2c.5-.5.8-1,1.1-1.4.3-.5.4-.9.4-1.3v-7.4c0-1.4.5-2,1.4-2,1,0,1.4.7,1.4,2v7c0,1.4-.4,2.4-1.1,3.1l-3.7,4.3c-.3.4-.6.6-1,.8-.3.1-.6.2-.9.2ZM191.9,579.1h6.6c.9,0,1.3.3,1.3.8,0,.5-.4.7-1.2.7h-8.7c-2.2,0-3.2-.9-3.2-2.7v-11.8c0-1.8,1.1-2.7,3.3-2.7h8.7c.8,0,1.2.3,1.2.8,0,.5-.4.8-1.3.8h-6.6c-1.7,0-2.5.7-2.5,2.1v1.7c0,1.4.8,2.1,2.4,2.1h6.6c.9,0,1.3.2,1.3.7,0,.6-.4.8-1.3.8h-6.6c-1.6,0-2.4.7-2.4,2.1v2.6c0,1.3.8,2,2.5,2ZM216.1,574.8c-.9,0-1.4-.7-1.4-2.1,0-.9-.2-1.8-.6-2.8-.4-1-.9-2.1-1.6-3.2-.2-.3-.5-.6-.7-.8-.2-.2-.4-.3-.5-.3-.2,0-.4.2-.4.7v12.4c0,1.3-.5,1.9-1.5,1.9-.9,0-1.4-.6-1.4-1.9v-12.4c0-1.9.8-2.9,2.4-2.9h.8c1,0,1.9.6,2.8,1.9l2,3.4,2-3.4c.4-.6.8-1.1,1.2-1.4.5-.3,1-.5,1.6-.5h.8c1.5,0,2.3,1,2.3,2.9v12.4c0,1.3-.5,1.9-1.4,1.9-.9,0-1.4-.6-1.4-1.9v-12.4c0-.5-.2-.7-.4-.7-.3,0-.7.3-1.1,1-.7,1.1-1.3,2.2-1.6,3.2-.3,1-.5,1.9-.5,2.8,0,1.4-.5,2.1-1.4,2.1ZM231.8,579.2h6.6c.9,0,1.3.3,1.3.8,0,.5-.4.7-1.2.7h-8.7c-2.2,0-3.2-.9-3.2-2.7v-11.8c0-1.8,1.1-2.7,3.3-2.7h8.7c.8,0,1.2.3,1.2.8,0,.5-.4.8-1.3.8h-6.6c-1.7,0-2.5.7-2.5,2.1v1.7c0,1.4.8,2.1,2.4,2.1h6.6c.9,0,1.3.2,1.3.7,0,.6-.4.8-1.3.8h-6.6c-1.6,0-2.4.7-2.4,2.1v2.6c0,1.3.8,2,2.5,2ZM253.1,565.9c.3.3.5.7.6,1.1.2.4.2.9.2,1.6v7.1c0,.7,0,1.2-.3,1.7-.2.5-.4.8-.6,1.1l-1.4,1.4c-.3.2-.6.4-1.1.6-.5.1-1,.2-1.6.2h-5c-2.2,0-3.2-1-3.2-3.1v-11c0-2.1,1.1-3.1,3.3-3.1h4.8c1.3,0,2.2.4,2.8.9l.7.8.8.8ZM246,565.1c-1.6,0-2.4.8-2.4,2.3v9.6c0,1.5.8,2.3,2.4,2.3h.9c1.2,0,2.1-.2,2.7-.7l.6-.5c.6-.7,1-1.5,1-2.5v-6.8c0-.4-.1-.8-.3-1.2-.2-.4-.4-.8-.8-1.2l-.4-.4c-.3-.3-.7-.5-1.1-.6-.4-.1-.9-.2-1.4-.3h-1.2ZM258.1,580.8c-.9,0-1.4-.7-1.4-2v-13.6c0-1.3.4-1.9,1.4-1.9.9,0,1.4.6,1.4,1.9v13.6c0,1.3-.5,2-1.4,2ZM270.2,565.1h-2.7c-1.6,0-2.4.8-2.4,2.5v1.5c0,1.6.8,2.4,2.4,2.4h2.8c1.6,0,2.4-1,2.4-2.9v-1.5c0-1.3-.8-2-2.4-2ZM272.6,578.6v-3.5c0-1.3-.8-2-2.4-2h-2.7c-1.6,0-2.4.6-2.4,1.9v3.6c0,1.4-.5,2.1-1.4,2.1-.9,0-1.4-.6-1.4-1.9v-12.4c0-1.9,1-2.9,3-2.9h6.9c2.2,0,3.3,1,3.3,2.9v12.3c0,1.3-.5,1.9-1.4,1.9-.9,0-1.4-.7-1.4-2.1ZM287.8,574.7v4.1c0,1.4-.5,2.1-1.4,2.1-1,0-1.4-.7-1.4-2v-12.4c0-1.9,1.2-2.9,3.3-2.9h6.9c2,0,3,.9,3,2.7v3.7c0,1.9-1.1,2.8-3.1,2.8h-5c-1.5,0-2.2.6-2.2,1.9ZM292.9,565.2h-2.7c-1.6,0-2.4.9-2.4,2.6v1.2c0,1.5.8,2.3,2.4,2.3h2.8c1.6,0,2.4-.9,2.4-2.8v-1.2c0-1.4-.8-2.2-2.4-2.2ZM309.3,570c.6-.6.8-1.3.8-2.1v-.9c0-.6-.2-1-.6-1.3-.3-.3-.8-.5-1.4-.5h-3.3c-1.5,0-2.3.9-2.3,2.7v1.1c0,1.8.8,2.7,2.3,2.7h1.2c.9,0,1.6-.2,2.1-.8l1.2-.9ZM311.4,581c-.9,0-1.4-.6-1.4-1.7v-2.8c0-.2,0-.4-.2-.7-.2-.3-.4-.5-.6-.8l-1.2-1c-.7-.5-1.3-.8-1.8-.8h-1.4c-1.5,0-2.3.8-2.3,2.3v3.6c0,1.2-.5,1.8-1.4,1.8-.9,0-1.4-.7-1.4-2v-12.4c0-1.9,1.1-2.9,3.1-2.9h6.6c2.3,0,3.4.9,3.4,2.7v2.6c-.1.8-.7,1.6-1.7,2.4-.4.3-.6.7-.6,1,0,.3.2.7.6,1,1.1,1,1.6,1.8,1.8,2.5v3.2c0,1.2-.5,1.8-1.5,1.8ZM320.3,579.4h2.8c1.6,0,2.4-.8,2.4-2.3v-9.5c0-1.5-.8-2.3-2.4-2.3h-2.7c-1.6,0-2.4.7-2.4,2.3v9.6c0,1.5.8,2.3,2.3,2.3ZM328.3,578.2c0,1.8-1.1,2.7-3.2,2.7h-6.7c-2.2,0-3.2-.9-3.2-2.7v-11.6c0-1.9,1.1-2.8,3.3-2.8h6.6c2.2,0,3.3,1,3.3,2.8v11.6ZM343,566.2c.3.3.5.7.6,1.1.2.4.2.9.2,1.6v7.1c0,.7-.1,1.2-.3,1.7-.2.5-.4.8-.6,1.1l-1.4,1.4c-.3.2-.6.4-1.1.6-.5.1-1,.2-1.6.2h-5c-2.2,0-3.2-1-3.2-3.1v-11c0-2.1,1.1-3.1,3.3-3.1h4.8c1.3,0,2.2.4,2.8.9l.7.8.8.8ZM335.8,565.3c-1.6,0-2.4.8-2.4,2.3v9.6c0,1.5.8,2.3,2.4,2.3h.9c1.2,0,2.1-.2,2.7-.7l.6-.5c.6-.7,1-1.5,1-2.5v-6.8c0-.4-.1-.8-.3-1.2-.2-.4-.4-.8-.8-1.2l-.4-.4c-.3-.3-.7-.5-1.1-.6-.4-.1-.9-.2-1.4-.3h-1.2ZM348.9,565.7v11.7c0,1.4.8,2.1,2.4,2.1h2.8c1.5,0,2.3-.7,2.3-2.1v-11.7c0-1.4.5-2.1,1.5-2.1.9,0,1.4.7,1.4,2v12.5c0,1.9-1.1,2.9-3.4,2.9h-6.6c-2.2,0-3.3-1-3.3-2.9v-12.6c0-1.3.5-2,1.5-2,.9,0,1.4.7,1.4,2.1ZM372,577.3c0-.3.1-.5.3-.7.2-.2.6-.3,1.1-.3.9,0,1.4.4,1.4,1.3v.7c0,1.8-1,2.6-3,2.6h-7.2c-1.9,0-2.9-1-2.9-2.9v-11.4c0-1.9,1-2.9,3-2.9h7.2c2,0,3,.9,3,2.7v.6c0,1-.5,1.4-1.4,1.4-.9,0-1.4-.3-1.4-.9,0-1.5-.8-2.2-2.4-2.2h-2.7c-1.6,0-2.4.7-2.4,2.1v10c0,1.4.8,2,2.3,2h2.8c1.6,0,2.4-.7,2.4-2.1ZM375.7,564.6c0-.5.5-.8,1.4-.8h10.2c1,0,1.4.3,1.4.8,0,.5-.5.8-1.5.8h-1.4c-1.5,0-2.3.7-2.3,2.1v11.7c0,1.4-.5,2.1-1.4,2.1-.9,0-1.4-.7-1.4-2.1v-11.7c0-1.4-.7-2.1-2.2-2.1h-1.3c-1,0-1.5-.3-1.5-.8ZM391.5,581.1c-.9,0-1.4-.7-1.4-2v-13.6c0-1.3.4-1.9,1.4-1.9.9,0,1.4.6,1.4,1.9v13.6c0,1.3-.5,2-1.4,2ZM400.8,579.6h2.8c1.6,0,2.4-.8,2.4-2.3v-9.5c0-1.5-.8-2.3-2.4-2.3h-2.7c-1.6,0-2.4.7-2.4,2.3v9.6c0,1.5.8,2.3,2.3,2.3ZM408.8,578.4c0,1.8-1.1,2.7-3.2,2.7h-6.7c-2.2,0-3.2-.9-3.2-2.7v-11.6c0-1.9,1.1-2.8,3.3-2.8h6.6c2.2,0,3.3,1,3.3,2.8v11.6ZM420.5,576.5c.3.8.6,1.2.8,1.2s.2-.2.2-.7v-10.7c0-1.6.5-2.4,1.5-2.4,1,0,1.4.7,1.4,2v12.6c0,1.9-1,2.9-2.7,2.9-.8,0-1.5-.6-2.1-1.9l-4.7-10.8c-.3-.5-.6-.8-.7-.8-.2,0-.2.3-.2,1v10.2c0,1.4-.5,2.2-1.4,2.2-1,0-1.4-.6-1.4-1.9v-12.7c0-1.9.9-2.9,2.7-2.9.7,0,1.4.7,2.1,2l4.6,10.8Z"/>
  <path d="M104.5,312.6c.3.3.5.7.6,1.1.2.4.2.9.2,1.6v7.1c0,.7,0,1.2-.3,1.7-.2.5-.4.8-.6,1.1l-1.4,1.4c-.3.2-.6.4-1.1.6-.5.1-1,.2-1.6.2h-5c-2.2,0-3.2-1-3.2-3.1v-11c0-2.1,1.1-3.1,3.3-3.1h4.8c1.3,0,2.2.4,2.8.9l.7.8.8.8ZM97.4,311.7c-1.6,0-2.4.8-2.4,2.3v9.6c0,1.5.8,2.3,2.4,2.3h.9c1.2,0,2.1-.2,2.7-.7l.6-.5c.6-.7,1-1.5,1-2.5v-6.8c0-.4-.1-.8-.3-1.2-.2-.4-.4-.8-.8-1.2l-.4-.4c-.3-.3-.7-.5-1.1-.6-.4-.1-.9-.2-1.4-.3h-1.2ZM113.1,325.9h6.6c.9,0,1.3.3,1.3.8,0,.5-.4.7-1.2.7h-8.7c-2.2,0-3.2-.9-3.2-2.7v-11.8c0-1.8,1.1-2.7,3.3-2.7h8.7c.8,0,1.2.3,1.2.8,0,.5-.4.8-1.3.8h-6.6c-1.7,0-2.5.7-2.5,2.1v1.7c0,1.4.8,2.1,2.4,2.1h6.6c.9,0,1.3.2,1.3.7,0,.6-.4.8-1.3.8h-6.6c-1.6,0-2.4.7-2.4,2.1v2.6c0,1.3.8,2,2.5,2ZM125.6,319.2c-2.3,0-3.4-.9-3.4-2.7v-3.6c0-1.8,1.1-2.8,3.3-2.8h8.3c1.1,0,1.6.3,1.6.9,0,.5-.5.7-1.6.7h-6.5c-1.5,0-2.2.8-2.2,2.4v1c0,1.7.7,2.5,2.2,2.5h4.7c2.3,0,3.4.9,3.4,2.7v4.3c0,1.8-1.1,2.7-3.3,2.7h-8.3c-1,0-1.6-.3-1.6-.8,0-.5.5-.7,1.6-.7h6.6c1.4,0,2.2-.7,2.2-2.1v-1.9c0-1.8-.8-2.7-2.3-2.7h-4.6ZM139.4,327.5c-.9,0-1.4-.7-1.4-2v-13.6c0-1.3.5-1.9,1.4-1.9.9,0,1.4.6,1.4,1.9v13.6c0,1.3-.5,2-1.4,2ZM155.1,311.9h-6.5c-1.5,0-2.2.7-2.2,2.3v9.6c0,1.5.8,2.3,2.3,2.3h2.8c1.6,0,2.4-.9,2.4-2.8v-2.2c0-1.1-.6-1.6-1.9-1.6h-1.8c-1,0-1.5-.3-1.5-.8,0-.5.5-.8,1.4-.8h3.6c2,0,3,.9,3,2.5v4.5c0,1.8-1.1,2.7-3.3,2.7h-6.6c-2.1,0-3.2-1-3.2-2.9v-11.4c0-1.9,1.1-2.9,3.3-2.9h8.4c1,0,1.5.3,1.5.8,0,.5-.5.8-1.6.8ZM168.4,322.9c.3.8.6,1.2.8,1.2.1,0,.2-.2.2-.7v-10.7c0-1.6.5-2.4,1.5-2.4,1,0,1.4.7,1.4,2v12.6c0,1.9-1,2.9-2.7,2.9-.8,0-1.5-.6-2.1-1.9l-4.7-10.8c-.3-.5-.6-.8-.7-.8-.2,0-.2.3-.2,1v10.2c0,1.4-.5,2.2-1.4,2.2-1,0-1.4-.6-1.4-1.9v-12.7c0-1.9.9-2.9,2.7-2.9.7,0,1.4.7,2.1,2l4.6,10.8ZM179.9,326.1h6.6c.9,0,1.3.3,1.3.8,0,.5-.4.7-1.2.7h-8.7c-2.2,0-3.2-.9-3.2-2.7v-11.8c0-1.8,1.1-2.7,3.3-2.7h8.7c.8,0,1.2.3,1.2.8,0,.5-.4.8-1.3.8h-6.6c-1.7,0-2.5.7-2.5,2.1v1.7c0,1.4.8,2.1,2.4,2.1h6.6c.9,0,1.3.2,1.3.7,0,.6-.4.8-1.3.8h-6.6c-1.6,0-2.4.7-2.4,2.1v2.6c0,1.3.8,2,2.5,2ZM198.6,316.8c.6-.6.8-1.3.8-2.1v-.9c0-.6-.2-1-.6-1.3-.3-.3-.8-.5-1.4-.5h-3.3c-1.5,0-2.3.9-2.3,2.7v1.1c0,1.8.8,2.7,2.3,2.7h1.2c.9,0,1.6-.2,2.1-.8l1.2-.9ZM200.8,327.7c-.9,0-1.4-.6-1.4-1.7v-2.8c0-.2,0-.4-.2-.7-.2-.3-.4-.5-.6-.8l-1.2-1c-.7-.5-1.3-.8-1.8-.8h-1.4c-1.5,0-2.3.8-2.3,2.3v3.6c0,1.2-.5,1.8-1.4,1.8-.9,0-1.4-.7-1.4-2v-12.4c0-1.9,1.1-2.9,3.1-2.9h6.6c2.3,0,3.4.9,3.4,2.7v2.6c-.1.8-.7,1.6-1.7,2.4-.4.3-.6.7-.6,1,0,.3.2.7.6,1,1.1,1,1.6,1.8,1.8,2.5v3.2c0,1.2-.5,1.8-1.5,1.8ZM211.4,313.1c0-1.8,1-2.7,3-2.7h5.3c1,0,1.6.3,1.6.9,0,.6-.5.9-1.6.9h-3.5c-1.2,0-1.8.5-1.8,1.5v.8c0,.7.3,1.2.8,1.7l1.1.8c.3.3.7.5,1,.6.4,0,.7.1,1,.2.3,0,.6,0,.8.2.2,0,.3.3.3.6,0,.6-.5.9-1.4.9h0c-.4,0-.7,0-1,.2-.3.1-.5.3-.8.6l-1.2,1c-.5.5-.7,1.1-.7,1.8v1.2c0,1.1.6,1.6,1.8,1.6h3.1c1.5,0,2.3-.6,2.3-1.8v-2.7c0-2.1,1-3.1,2.9-3.1h2.1c.9,0,1.4.3,1.4.8,0,.3-.2.5-.6.6-.3,0-.7.1-1.2.2-.4,0-.8.2-1.2.4-.3.2-.5.6-.5,1.3v3c0,2.1-1,3.1-3.1,3.1h-7c-2,0-3-.9-3-2.5v-1.2c0-1.9.6-3.3,1.9-4.2.4-.3.6-.6.6-1,0-.3-.2-.7-.6-1-1.2-1.1-1.8-2.6-1.8-4.6ZM247.1,324.1c0-.3.1-.5.3-.7.2-.2.6-.3,1.1-.3.9,0,1.4.4,1.4,1.3v.7c0,1.8-1,2.6-3,2.6h-7.2c-1.9,0-2.9-1-2.9-2.9v-11.4c0-1.9,1-2.9,3-2.9h7.2c2,0,3,.9,3,2.7v.6c0,1-.5,1.4-1.4,1.4-.9,0-1.4-.3-1.4-.9,0-1.5-.8-2.2-2.4-2.2h-2.7c-1.6,0-2.4.7-2.4,2.1v10c0,1.4.8,2,2.3,2h2.8c1.6,0,2.4-.7,2.4-2.1ZM257.4,326.2h2.8c1.6,0,2.4-.8,2.4-2.3v-9.5c0-1.5-.8-2.3-2.4-2.3h-2.7c-1.6,0-2.4.7-2.4,2.3v9.6c0,1.5.8,2.3,2.3,2.3ZM265.5,325c0,1.8-1.1,2.7-3.2,2.7h-6.7c-2.2,0-3.2-.9-3.2-2.7v-11.6c0-1.9,1.1-2.8,3.3-2.8h6.6c2.2,0,3.3,1,3.3,2.8v11.6ZM277.1,323.1c.3.8.6,1.2.8,1.2.1,0,.2-.2.2-.7v-10.7c0-1.6.5-2.4,1.5-2.4,1,0,1.4.7,1.4,2v12.6c0,1.9-1,2.9-2.7,2.9-.8,0-1.5-.6-2.1-1.9l-4.7-10.8c-.3-.5-.6-.8-.7-.8-.2,0-.2.3-.2,1v10.2c0,1.4-.5,2.2-1.4,2.2-1,0-1.4-.6-1.4-1.9v-12.7c0-1.9.9-2.9,2.7-2.9.7,0,1.4.7,2.1,2l4.6,10.8ZM281.8,311.4c0-.5.5-.8,1.4-.8h10.2c1,0,1.4.3,1.4.8,0,.5-.5.8-1.5.8h-1.4c-1.5,0-2.3.7-2.3,2.1v11.7c0,1.4-.5,2.1-1.4,2.1-.9,0-1.4-.7-1.4-2.1v-11.7c0-1.4-.7-2.1-2.2-2.1h-1.3c-1,0-1.5-.3-1.5-.8ZM301.2,326.3h6.6c.9,0,1.3.3,1.3.8,0,.5-.4.7-1.2.7h-8.7c-2.2,0-3.2-.9-3.2-2.7v-11.8c0-1.8,1.1-2.7,3.3-2.7h8.7c.8,0,1.2.3,1.2.8,0,.5-.4.8-1.3.8h-6.6c-1.7,0-2.5.7-2.5,2.1v1.7c0,1.4.8,2.1,2.4,2.1h6.6c.9,0,1.3.2,1.3.7,0,.6-.4.8-1.3.8h-6.6c-1.6,0-2.4.7-2.4,2.1v2.6c0,1.3.8,2,2.5,2ZM319.6,323.2c.3.8.6,1.2.8,1.2s.2-.2.2-.7v-10.7c0-1.6.5-2.4,1.5-2.4,1,0,1.4.7,1.4,2v12.6c0,1.9-1,2.9-2.7,2.9-.8,0-1.5-.6-2.1-1.9l-4.7-10.8c-.3-.5-.6-.8-.7-.8-.2,0-.2.3-.2,1v10.2c0,1.4-.5,2.2-1.4,2.2-1,0-1.4-.6-1.4-1.9v-12.7c0-1.9.9-2.9,2.7-2.9.7,0,1.4.7,2.1,2l4.6,10.8ZM324.3,311.5c0-.5.5-.8,1.4-.8h10.2c1,0,1.4.3,1.4.8,0,.5-.5.8-1.5.8h-1.4c-1.5,0-2.3.7-2.3,2.1v11.7c0,1.4-.5,2.1-1.4,2.1-.9,0-1.4-.7-1.4-2.1v-11.7c0-1.4-.7-2.1-2.2-2.1h-1.3c-1,0-1.5-.3-1.5-.8ZM355.9,324.3c0-.3.1-.5.3-.7.2-.2.6-.3,1.1-.3.9,0,1.4.4,1.4,1.3v.7c0,1.8-1,2.6-3,2.6h-7.2c-1.9,0-2.9-1-2.9-2.9v-11.4c0-1.9,1-2.9,3-2.9h7.2c2,0,3,.9,3,2.7v.6c0,1-.5,1.4-1.4,1.4-.9,0-1.4-.3-1.4-.9,0-1.5-.8-2.2-2.4-2.2h-2.7c-1.6,0-2.4.7-2.4,2.1v10c0,1.4.8,2,2.3,2h2.8c1.6,0,2.4-.7,2.4-2.1ZM370.6,317.2c.6-.6.8-1.3.8-2.1v-.9c0-.6-.2-1-.6-1.3-.3-.3-.8-.5-1.4-.5h-3.3c-1.5,0-2.3.9-2.3,2.7v1.1c0,1.8.8,2.7,2.3,2.7h1.2c.9,0,1.6-.2,2.1-.8l1.2-.9ZM372.8,328.1c-.9,0-1.4-.6-1.4-1.7v-2.8c0-.2,0-.4-.2-.7-.2-.3-.4-.5-.6-.8l-1.2-1c-.7-.5-1.3-.8-1.8-.8h-1.4c-1.5,0-2.3.8-2.3,2.3v3.6c0,1.2-.5,1.8-1.4,1.8-.9,0-1.4-.7-1.4-2v-12.4c0-1.9,1.1-2.9,3.1-2.9h6.6c2.3,0,3.4.9,3.4,2.7v2.6c-.1.8-.7,1.6-1.7,2.4-.4.3-.6.7-.6,1,0,.3.2.7.6,1,1.1,1,1.6,1.8,1.8,2.5v3.2c0,1.2-.5,1.8-1.5,1.8ZM381.9,326.5h6.6c.9,0,1.3.3,1.3.8,0,.5-.4.7-1.2.7h-8.7c-2.2,0-3.2-.9-3.2-2.7v-11.8c0-1.8,1.1-2.7,3.3-2.7h8.7c.8,0,1.2.3,1.2.8,0,.5-.4.8-1.3.8h-6.6c-1.7,0-2.5.7-2.5,2.1v1.7c0,1.4.8,2.1,2.4,2.1h6.6c.9,0,1.3.2,1.3.7,0,.6-.4.8-1.3.8h-6.6c-1.6,0-2.4.7-2.4,2.1v2.6c0,1.3.8,2,2.5,2ZM398.9,312.4h-2.7c-1.6,0-2.4.8-2.4,2.5v1.5c0,1.6.8,2.4,2.4,2.4h2.8c1.6,0,2.4-1,2.4-2.9v-1.5c0-1.3-.8-2-2.4-2ZM401.3,325.9v-3.5c0-1.3-.8-2-2.4-2h-2.7c-1.6,0-2.4.6-2.4,1.9v3.6c0,1.4-.5,2.1-1.4,2.1-.9,0-1.4-.6-1.4-1.9v-12.4c0-1.9,1-2.9,3-2.9h6.9c2.2,0,3.3,1,3.3,2.9v12.3c0,1.3-.5,1.9-1.4,1.9-.9,0-1.4-.7-1.4-2.1ZM405,311.7c0-.5.5-.8,1.4-.8h10.2c1,0,1.4.3,1.4.8,0,.5-.5.8-1.5.8h-1.4c-1.5,0-2.3.7-2.3,2.1v11.7c0,1.4-.5,2.1-1.4,2.1-.9,0-1.4-.7-1.4-2.1v-11.7c0-1.4-.7-2.1-2.2-2.1h-1.3c-1,0-1.5-.3-1.5-.8ZM424.2,326.6h2.8c1.6,0,2.4-.8,2.4-2.3v-9.5c0-1.5-.8-2.3-2.4-2.3h-2.7c-1.6,0-2.4.7-2.4,2.3v9.6c0,1.5.8,2.3,2.3,2.3ZM432.2,325.4c0,1.8-1.1,2.7-3.2,2.7h-6.7c-2.2,0-3.2-.9-3.2-2.7v-11.6c0-1.9,1.1-2.8,3.3-2.8h6.6c2.2,0,3.3,1,3.3,2.8v11.6ZM444.2,317.4c.6-.6.8-1.3.8-2.1v-.9c0-.6-.2-1-.6-1.3-.3-.3-.8-.5-1.4-.5h-3.3c-1.5,0-2.3.9-2.3,2.7v1.1c0,1.8.8,2.7,2.3,2.7h1.2c.9,0,1.6-.2,2.1-.8l1.2-.9ZM446.3,328.3c-.9,0-1.4-.6-1.4-1.7v-2.8c0-.2,0-.4-.2-.7-.2-.3-.4-.5-.6-.8l-1.2-1c-.7-.5-1.3-.8-1.8-.8h-1.4c-1.5,0-2.3.8-2.3,2.3v3.6c0,1.2-.5,1.8-1.4,1.8-.9,0-1.4-.7-1.4-2v-12.4c0-1.9,1.1-2.9,3.1-2.9h6.6c2.3,0,3.4.9,3.4,2.7v2.6c-.1.8-.7,1.6-1.7,2.4-.4.3-.6.7-.6,1,0,.3.2.7.6,1,1.1,1,1.6,1.8,1.8,2.5v3.2c0,1.2-.5,1.8-1.5,1.8ZM466.6,311.4l-7.2,17.3c-.5,1-1.1,1.5-1.6,1.5-.4,0-.7-.1-.9-.4-.2-.3-.3-.5-.3-.8,0-.3.1-.8.4-1.4l7-16.9c.4-1,.9-1.5,1.6-1.5.4,0,.7.1.9.4.2.2.3.5.3.8s0,.6-.2,1ZM486,326.4v-4.2c0-1.4-.8-2.1-2.4-2.1h-2.7c-1.6,0-2.4.7-2.4,2.1v4.2c0,1.3-.5,2-1.5,2-.9,0-1.4-.6-1.4-1.8v-13.7c0-1.3.5-1.9,1.4-1.9,1,0,1.4.7,1.4,2v3.5c0,1.4.8,2.1,2.4,2.1h2.8c1.5,0,2.3-.7,2.3-2.1v-3.5c0-1.3.5-2,1.4-2,1,0,1.4.6,1.4,1.9v13.7c0,1.2-.5,1.8-1.5,1.8-.9,0-1.4-.7-1.4-2ZM496.4,326.8h2.8c1.6,0,2.4-.8,2.4-2.3v-9.5c0-1.5-.8-2.3-2.4-2.3h-2.7c-1.6,0-2.4.7-2.4,2.3v9.6c0,1.5.8,2.3,2.3,2.3ZM504.4,325.6c0,1.8-1.1,2.7-3.2,2.7h-6.7c-2.2,0-3.2-.9-3.2-2.7v-11.6c0-1.9,1.1-2.8,3.3-2.8h6.6c2.2,0,3.3,1,3.3,2.8v11.6ZM511.9,326.8h2.8c1.6,0,2.4-.8,2.4-2.3v-9.5c0-1.5-.8-2.3-2.4-2.3h-2.7c-1.6,0-2.4.7-2.4,2.3v9.6c0,1.5.8,2.3,2.3,2.3ZM519.9,325.6c0,1.8-1.1,2.7-3.2,2.7h-6.7c-2.2,0-3.2-.9-3.2-2.7v-11.6c0-1.9,1.1-2.8,3.3-2.8h6.6c2.2,0,3.3,1,3.3,2.8v11.6ZM526.6,320.6c-1,0-1.4.6-1.4,2v4c0,1.4-.5,2.1-1.4,2.1-1,0-1.4-.7-1.4-2v-13.9c0-1.3.5-2,1.5-2,.9,0,1.4.7,1.4,2.1v3.6c0,1.4.5,2.1,1.6,2.1.5,0,1.2-.5,2.1-1.6l2.7-4.8c.5-.9,1.1-1.4,1.6-1.4.4,0,.6.2.8.5.2.3.3.5.3.8,0,.3,0,.5-.2.8l-3.9,6.3c-.2.2-.4.5-.4.7,0,.3.1.6.3.8l3.8,6c.2.3.2.6.2.8,0,.3-.1.6-.4.9-.2.3-.5.4-.8.4-.5,0-1-.4-1.5-1.2l-3.5-5.6c-.3-.4-.6-.7-.8-.9-.2-.2-.4-.4-.5-.4ZM542.1,326.9h6.6c.9,0,1.3.3,1.3.8,0,.5-.4.7-1.2.7h-8.7c-2.2,0-3.2-.9-3.2-2.7v-11.8c0-1.8,1.1-2.7,3.3-2.7h8.7c.8,0,1.2.3,1.2.8,0,.5-.4.8-1.3.8h-6.6c-1.7,0-2.5.7-2.5,2.1v1.7c0,1.4.8,2.1,2.4,2.1h6.6c.9,0,1.3.2,1.3.7,0,.6-.4.8-1.3.8h-6.6c-1.6,0-2.4.7-2.4,2.1v2.6c0,1.3.8,2,2.5,2ZM563.4,313.7c.3.3.5.7.6,1.1.2.4.2.9.2,1.6v7.1c0,.7,0,1.2-.3,1.7-.2.5-.4.8-.6,1.1l-1.4,1.4c-.3.2-.6.4-1.1.6-.5.1-1,.2-1.6.2h-5c-2.2,0-3.2-1-3.2-3.1v-11c0-2.1,1.1-3.1,3.3-3.1h4.8c1.3,0,2.2.4,2.8.9l.7.8.8.8ZM556.3,312.8c-1.6,0-2.4.8-2.4,2.3v9.6c0,1.5.8,2.3,2.4,2.3h.9c1.2,0,2.1-.2,2.7-.7l.6-.5c.6-.7,1-1.5,1-2.5v-6.8c0-.4-.1-.8-.3-1.2-.2-.4-.4-.8-.8-1.2l-.4-.4c-.3-.3-.7-.5-1.1-.6-.4-.1-.9-.2-1.4-.3h-1.2ZM579.2,327h6.6c.9,0,1.3.3,1.3.8,0,.5-.4.7-1.2.7h-8.7c-2.2,0-3.2-.9-3.2-2.7v-11.8c0-1.8,1.1-2.7,3.3-2.7h8.7c.8,0,1.2.3,1.2.8,0,.5-.4.8-1.3.8h-6.6c-1.7,0-2.5.7-2.5,2.1v1.7c0,1.4.8,2.1,2.4,2.1h6.6c.9,0,1.3.2,1.3.7,0,.6-.4.8-1.3.8h-6.6c-1.6,0-2.4.7-2.4,2.1v2.6c0,1.3.8,2,2.5,2ZM594.9,328.5h-.5c-.7,0-1.3-.3-1.8-1l-3.7-4.3c-.3-.3-.5-.8-.7-1.2-.1-.5-.2-1.1-.2-1.8v-7c0-1.4.5-2,1.4-2,1,0,1.4.7,1.4,2v7.4c0,.8.4,1.7,1.3,2.7l2,2.4c.2.1.4.2.5.2.2,0,.4-.1.6-.3l2-2.2c.5-.5.8-1,1.1-1.4.3-.5.4-.9.4-1.3v-7.4c0-1.4.5-2,1.4-2,1,0,1.4.7,1.4,2v7c0,1.4-.4,2.4-1.1,3.1l-3.7,4.3c-.3.4-.6.6-1,.8-.3.1-.6.2-.9.2ZM609.2,327.1h6.6c.9,0,1.3.3,1.3.8,0,.5-.4.7-1.2.7h-8.7c-2.2,0-3.2-.9-3.2-2.7v-11.8c0-1.8,1.1-2.7,3.3-2.7h8.7c.8,0,1.2.3,1.2.8,0,.5-.4.8-1.3.8h-6.6c-1.7,0-2.5.7-2.5,2.1v1.7c0,1.4.8,2.1,2.4,2.1h6.6c.9,0,1.3.2,1.3.7,0,.6-.4.8-1.3.8h-6.6c-1.6,0-2.4.7-2.4,2.1v2.6c0,1.3.8,2,2.5,2ZM627.6,323.9c.3.8.6,1.2.8,1.2.1,0,.2-.2.2-.7v-10.7c0-1.6.5-2.4,1.5-2.4,1,0,1.4.7,1.4,2v12.6c0,1.9-1,2.9-2.7,2.9-.8,0-1.5-.6-2.1-1.9l-4.7-10.8c-.3-.5-.6-.8-.7-.8-.2,0-.2.3-.2,1v10.2c0,1.4-.5,2.2-1.4,2.2-1,0-1.4-.6-1.4-1.9v-12.7c0-1.9.9-2.9,2.7-2.9.7,0,1.4.7,2.1,2l4.6,10.8ZM632.3,312.2c0-.5.5-.8,1.4-.8h10.2c1,0,1.4.3,1.4.8,0,.5-.5.8-1.5.8h-1.4c-1.5,0-2.3.7-2.3,2.1v11.7c0,1.4-.5,2.1-1.4,2.1-.9,0-1.4-.7-1.4-2.1v-11.7c0-1.4-.7-2.1-2.2-2.1h-1.3c-1,0-1.5-.3-1.5-.8ZM649.7,320.5c-2.3,0-3.4-.9-3.4-2.7v-3.6c0-1.8,1.1-2.8,3.3-2.8h8.3c1.1,0,1.6.3,1.6.9,0,.5-.5.7-1.6.7h-6.5c-1.5,0-2.2.8-2.2,2.4v1c0,1.7.7,2.5,2.2,2.5h4.7c2.3,0,3.4.9,3.4,2.7v4.3c0,1.8-1.1,2.7-3.3,2.7h-8.3c-1,0-1.6-.3-1.6-.8,0-.5.5-.7,1.6-.7h6.6c1.4,0,2.2-.7,2.2-2.1v-1.9c0-1.8-.8-2.7-2.3-2.7h-4.6Z"/>
  <path d="M98.1,616.3h-.5c-.7,0-1.3-.3-1.8-1l-3.7-4.3c-.3-.3-.5-.8-.7-1.2-.1-.5-.2-1.1-.2-1.8v-7c0-1.4.5-2,1.4-2,1,0,1.4.7,1.4,2v7.4c0,.8.4,1.7,1.3,2.7l2,2.4c.2.1.4.2.5.2.2,0,.4-.1.6-.3l2-2.2c.5-.5.8-1,1.1-1.4.3-.5.4-.9.4-1.3v-7.4c0-1.4.5-2,1.4-2,1,0,1.4.7,1.4,2v7c0,1.4-.4,2.4-1.1,3.1l-3.7,4.3c-.3.4-.6.6-1,.8-.3.1-.6.2-.9.2ZM115,600.8h-2.7c-1.6,0-2.4.8-2.4,2.5v1.5c0,1.6.8,2.4,2.4,2.4h2.8c1.6,0,2.4-1,2.4-2.9v-1.5c0-1.3-.8-2-2.4-2ZM117.4,614.2v-3.5c0-1.3-.8-2-2.4-2h-2.7c-1.6,0-2.4.6-2.4,1.9v3.6c0,1.4-.5,2.1-1.4,2.1-.9,0-1.4-.6-1.4-1.9v-12.4c0-1.9,1-2.9,3-2.9h6.9c2.2,0,3.3,1,3.3,2.9v12.3c0,1.3-.5,1.9-1.4,1.9-.9,0-1.4-.7-1.4-2.1ZM132.2,605.6c.6-.6.8-1.3.8-2.1v-.9c0-.6-.2-1-.6-1.3-.3-.3-.8-.5-1.4-.5h-3.3c-1.5,0-2.3.9-2.3,2.7v1.1c0,1.8.8,2.7,2.3,2.7h1.2c.9,0,1.6-.2,2.1-.8l1.2-.9ZM134.3,616.6c-.9,0-1.4-.6-1.4-1.7v-2.8c0-.2,0-.4-.2-.7-.2-.3-.4-.5-.6-.8l-1.2-1c-.7-.5-1.3-.8-1.8-.8h-1.4c-1.5,0-2.3.8-2.3,2.3v3.6c0,1.2-.5,1.8-1.4,1.8-.9,0-1.4-.7-1.4-2v-12.4c0-1.9,1.1-2.9,3.1-2.9h6.6c2.3,0,3.4.9,3.4,2.7v2.6c-.1.8-.7,1.6-1.7,2.4-.4.3-.6.7-.6,1,0,.3.2.7.6,1,1.1,1,1.6,1.8,1.8,2.5v3.2c0,1.2-.5,1.8-1.5,1.8ZM139.8,616.5c-.9,0-1.4-.7-1.4-2v-13.6c0-1.3.5-1.9,1.4-1.9.9,0,1.4.6,1.4,1.9v13.6c0,1.3-.5,2-1.4,2ZM149.1,615h2.8c1.6,0,2.4-.8,2.4-2.3v-9.5c0-1.5-.8-2.3-2.4-2.3h-2.7c-1.6,0-2.4.7-2.4,2.3v9.6c0,1.5.8,2.3,2.3,2.3ZM157.1,613.8c0,1.8-1.1,2.7-3.2,2.7h-6.7c-2.2,0-3.2-.9-3.2-2.7v-11.6c0-1.9,1.1-2.8,3.3-2.8h6.6c2.2,0,3.3,1,3.3,2.8v11.6ZM162.2,601.2v11.7c0,1.4.8,2.1,2.4,2.1h2.8c1.5,0,2.3-.7,2.3-2.1v-11.7c0-1.4.5-2.1,1.5-2.1.9,0,1.4.7,1.4,2v12.5c0,1.9-1.1,2.9-3.4,2.9h-6.6c-2.2,0-3.3-1-3.3-2.9v-12.6c0-1.3.5-2,1.5-2,.9,0,1.4.7,1.4,2.1ZM178.4,608.4c-2.3,0-3.4-.9-3.4-2.7v-3.6c0-1.8,1.1-2.8,3.3-2.8h8.3c1.1,0,1.6.3,1.6.9,0,.5-.5.7-1.6.7h-6.5c-1.5,0-2.2.8-2.2,2.4v1c0,1.7.7,2.5,2.2,2.5h4.7c2.3,0,3.4.9,3.4,2.7v4.3c0,1.8-1.1,2.7-3.3,2.7h-8.3c-1,0-1.6-.3-1.6-.8,0-.5.5-.7,1.6-.7h6.6c1.4,0,2.2-.7,2.2-2.1v-1.9c0-1.8-.7-2.7-2.3-2.7h-4.6ZM210.8,611.1v2.8c0,1.8-1.1,2.7-3.3,2.7h-6.6c-2.2,0-3.2-1-3.2-2.9v-11.4c0-1.9,1.1-2.9,3.3-2.9h6.6c2.2,0,3.3,1,3.3,2.8v1.9c-.1.8-.7,1.6-1.7,2.4-.4.3-.6.7-.6,1,0,.3.2.7.6,1,1.1,1,1.6,1.8,1.8,2.5ZM207.1,610l-1.2-.9c-.3-.2-.6-.4-.9-.5-.3-.1-.6-.2-.9-.2h-1.4c-1.6,0-2.4.9-2.4,2.8v1.7c0,1.4.8,2.2,2.4,2.2h3.2c1.3,0,2-.6,2-1.9v-1.8c0-.2,0-.4-.3-.6-.2-.2-.4-.5-.6-.8ZM207.1,605.3c.2-.2.4-.5.6-.8.2-.3.3-.7.3-1.1v-.9c0-1-.7-1.5-2-1.5h-3.2c-1.6,0-2.4.9-2.4,2.9v.7c0,1.6.8,2.4,2.3,2.4h1.4c.3,0,.6,0,.9-.2.3-.1.6-.3.9-.5l1.2-1ZM214.9,615.8c-1,0-1.5-.4-1.5-1.3,0-1,.5-1.5,1.5-1.5,1,0,1.5.5,1.5,1.5,0,.9-.5,1.3-1.5,1.3ZM229.7,613c0-.3.1-.5.3-.7.2-.2.6-.3,1.1-.3.9,0,1.4.4,1.4,1.3v.7c0,1.8-1,2.6-3,2.6h-7.2c-1.9,0-2.9-1-2.9-2.9v-11.4c0-1.9,1-2.9,3-2.9h7.2c2,0,3,.9,3,2.7v.6c0,1-.5,1.4-1.4,1.4-.9,0-1.4-.3-1.4-.9,0-1.5-.8-2.2-2.4-2.2h-2.7c-1.6,0-2.4.7-2.4,2.1v10c0,1.4.8,2,2.3,2h2.8c1.6,0,2.4-.7,2.4-2.1ZM236.6,615.8c-1,0-1.5-.4-1.5-1.3,0-1,.5-1.5,1.5-1.5s1.5.5,1.5,1.5c0,.9-.5,1.3-1.5,1.3ZM244.4,608.5c-2.3,0-3.4-.9-3.4-2.7v-3.6c0-1.8,1.1-2.8,3.3-2.8h8.3c1.1,0,1.6.3,1.6.9,0,.5-.5.7-1.6.7h-6.5c-1.5,0-2.2.8-2.2,2.4v1c0,1.7.7,2.5,2.2,2.5h4.7c2.3,0,3.4.9,3.4,2.7v4.3c0,1.8-1.1,2.7-3.3,2.7h-8.3c-1,0-1.6-.3-1.6-.8,0-.5.5-.7,1.6-.7h6.6c1.4,0,2.2-.7,2.2-2.1v-1.9c0-1.8-.7-2.7-2.3-2.7h-4.6ZM272.4,612.5c.4.5.8.8,1.1.8.4,0,.6-.4.6-1.2v-8.4c0-1.6-.8-2.4-2.5-2.4h-2.1c-2,0-3,.7-3,2.2v9.6c0,1.5.8,2.3,2.6,2.3h2.4c.4,0,.6-.1.6-.4,0-.2-.2-.6-.5-1.1l-.5-.5c-.6-.6-.9-1.1-.9-1.3,0-.1,0-.3.2-.4.1-.1.2-.2.4-.2.4,0,1,.3,1.7,1ZM276.9,614.2c0,.3,0,.6-.1.8,0,.2-.1.3-.1.4,0,0,0,.2.2.4.1.2.2.3.4.5.2.2.3.4.4.5.1.2.2.3.2.5,0,.4-.2.6-.6.6-.1,0-.3,0-.4-.2-.1-.1-.3-.2-.4-.4-.2-.1-.4-.3-.6-.4-.3-.1-.6-.2-1.1-.2h-7.6c-2.2,0-3.3-.9-3.3-2.7v-11.6c0-1.9,1.1-2.8,3.3-2.8h6.6c2.2,0,3.3,1,3.3,2.9v11.7ZM282,601.5v11.7c0,1.4.8,2.1,2.4,2.1h2.8c1.5,0,2.3-.7,2.3-2.1v-11.7c0-1.4.5-2.1,1.5-2.1.9,0,1.4.7,1.4,2v12.5c0,1.9-1.1,2.9-3.4,2.9h-6.6c-2.2,0-3.3-1-3.3-2.9v-12.6c0-1.3.5-2,1.5-2,.9,0,1.4.7,1.4,2.1ZM302.7,601.2h-2.7c-1.6,0-2.4.8-2.4,2.5v1.5c0,1.6.8,2.4,2.3,2.4h2.8c1.6,0,2.4-1,2.4-2.9v-1.5c0-1.3-.8-2-2.4-2ZM305.1,614.7v-3.5c0-1.3-.8-2-2.4-2h-2.7c-1.6,0-2.4.6-2.4,1.9v3.6c0,1.4-.5,2.1-1.4,2.1-.9,0-1.4-.6-1.4-1.9v-12.4c0-1.9,1-2.9,3-2.9h6.9c2.2,0,3.3,1,3.3,2.9v12.3c0,1.3-.5,1.9-1.4,1.9-.9,0-1.4-.7-1.4-2.1ZM313,612.9c0,1.6.8,2.4,2.3,2.4h5.7c1,0,1.5.3,1.5.8,0,.5-.5.7-1.5.7h-7.6c-2.1,0-3.2-1-3.2-2.9v-12.5c0-1.3.5-2,1.4-2,1,0,1.4.7,1.4,2.1v11.3ZM325.1,617c-.9,0-1.4-.7-1.4-2v-13.6c0-1.3.5-1.9,1.4-1.9.9,0,1.4.6,1.4,1.9v13.6c0,1.3-.5,2-1.4,2ZM332,615.2c0,1.4-.5,2.1-1.4,2.1-.9,0-1.4-.7-1.4-2v-12.8c0-1.8,1.1-2.7,3.3-2.7h8.4c1,0,1.6.3,1.6.8,0,.5-.5.8-1.6.8h-6.5c-1.5,0-2.2.8-2.2,2.3v1.2c0,1.6.7,2.4,2.2,2.4h6.6c1,0,1.6.2,1.6.7,0,.6-.4.9-1.3.9h-6.8c-1.5,0-2.2.7-2.2,2.1v4.4ZM345.1,617c-.9,0-1.4-.7-1.4-2v-13.6c0-1.3.5-1.9,1.4-1.9.9,0,1.4.6,1.4,1.9v13.6c0,1.3-.5,2-1.4,2ZM359.6,613.3c0-.3.1-.5.3-.7.2-.2.6-.3,1.1-.3.9,0,1.4.4,1.4,1.3v.7c0,1.8-1,2.6-3,2.6h-7.2c-1.9,0-2.9-1-2.9-2.9v-11.4c0-1.9,1-2.9,3-2.9h7.2c2,0,3,.9,3,2.7v.6c0,1-.5,1.4-1.4,1.4-.9,0-1.4-.3-1.4-.9,0-1.5-.8-2.2-2.4-2.2h-2.7c-1.6,0-2.4.7-2.4,2.1v10c0,1.4.8,2,2.3,2h2.8c1.6,0,2.4-.7,2.4-2.1ZM372.7,601.4h-2.7c-1.6,0-2.4.8-2.4,2.5v1.5c0,1.6.8,2.4,2.4,2.4h2.8c1.6,0,2.4-1,2.4-2.9v-1.5c0-1.3-.8-2-2.4-2ZM375.1,614.8v-3.5c0-1.3-.8-2-2.4-2h-2.7c-1.6,0-2.4.6-2.4,1.9v3.6c0,1.4-.5,2.1-1.4,2.1-.9,0-1.4-.6-1.4-1.9v-12.4c0-1.9,1-2.9,3-2.9h6.9c2.2,0,3.3,1,3.3,2.9v12.3c0,1.3-.5,1.9-1.4,1.9-.9,0-1.4-.7-1.4-2.1ZM378.8,600.6c0-.5.5-.8,1.4-.8h10.2c1,0,1.4.3,1.4.8,0,.5-.5.8-1.5.8h-1.4c-1.5,0-2.3.7-2.3,2.1v11.7c0,1.4-.5,2.1-1.4,2.1-.9,0-1.4-.7-1.4-2.1v-11.7c0-1.4-.7-2.1-2.2-2.1h-1.3c-1,0-1.5-.3-1.5-.8ZM394.6,617.1c-.9,0-1.4-.7-1.4-2v-13.6c0-1.3.4-1.9,1.4-1.9.9,0,1.4.6,1.4,1.9v13.6c0,1.3-.5,2-1.4,2ZM403.9,615.6h2.8c1.6,0,2.4-.8,2.4-2.3v-9.5c0-1.5-.8-2.3-2.4-2.3h-2.7c-1.6,0-2.4.7-2.4,2.3v9.6c0,1.5.8,2.3,2.3,2.3ZM411.9,614.4c0,1.8-1.1,2.7-3.2,2.7h-6.7c-2.2,0-3.2-.9-3.2-2.7v-11.6c0-1.9,1.1-2.8,3.3-2.8h6.6c2.2,0,3.3,1,3.3,2.8v11.6ZM423.5,612.5c.3.8.6,1.2.8,1.2.1,0,.2-.2.2-.7v-10.7c0-1.6.5-2.4,1.5-2.4,1,0,1.4.7,1.4,2v12.6c0,1.9-1,2.9-2.7,2.9-.8,0-1.5-.6-2.1-1.9l-4.7-10.8c-.3-.5-.6-.8-.7-.8-.2,0-.2.3-.2,1v10.2c0,1.4-.5,2.2-1.4,2.2-1,0-1.4-.6-1.4-1.9v-12.7c0-1.9.9-2.9,2.7-2.9.7,0,1.4.7,2.1,2l4.6,10.8ZM433.1,609c-2.3,0-3.4-.9-3.4-2.7v-3.6c0-1.8,1.1-2.8,3.3-2.8h8.3c1.1,0,1.6.3,1.6.9,0,.5-.5.7-1.6.7h-6.5c-1.5,0-2.2.8-2.2,2.4v1c0,1.7.7,2.5,2.2,2.5h4.7c2.3,0,3.4.9,3.4,2.7v4.3c0,1.8-1.1,2.7-3.3,2.7h-8.3c-1,0-1.6-.3-1.6-.8,0-.5.5-.7,1.6-.7h6.6c1.4,0,2.2-.7,2.2-2.1v-1.9c0-1.8-.7-2.7-2.3-2.7h-4.6Z"/>
  <circle cx="66.7" cy="177.7" r="7.5"/>
</svg>