<svg width="685" height="230" viewBox="0 0 685 230" fill="none" xmlns="http://www.w3.org/2000/svg">
<path d="M12 130C12 120.611 19.6112 113 29 113H675V219C675 222.866 671.866 226 668 226H19C15.134 226 12 222.866 12 219V130Z" fill="white" stroke="white" stroke-width="8" stroke-linejoin="bevel"/>
<path d="M139 11C139 7.13401 142.134 4 146 4H658C667.389 4 675 11.6112 675 21V112H139V11Z" fill="white" stroke="white" stroke-width="8" stroke-linejoin="round"/>
<path d="M153.594 103.25C163.094 103.25 167.844 98.8333 167.844 90L168.094 17.25C168.094 8.58333 170.927 4.24999 176.594 4.24999C182.427 4.24999 185.344 8.49999 185.344 17V94C185.344 106.667 178.677 113 165.344 113H148.094C142.26 113 139.344 111.5 139.344 108.5C139.344 105 142.51 103.25 148.844 103.25H153.594ZM234.082 103.75H251.582C261.582 103.75 266.582 98.8333 266.582 89V29.75C266.582 20.25 261.499 15.5 251.332 15.5H234.332C224.332 15.5 219.332 20.25 219.332 29.75V89.5C219.332 99 224.249 103.75 234.082 103.75ZM284.082 96C284.082 107.333 277.332 113 263.832 113H222.082C208.582 113 201.832 107.333 201.832 96V23.25C201.832 11.5833 208.582 5.74999 222.082 5.74999H263.582C277.249 5.74999 284.082 11.5833 284.082 23.25V96ZM320.016 62C305.682 62 298.516 56.4167 298.516 45.25V23C298.516 11.5 305.266 5.74999 318.766 5.74999H370.766C377.432 5.74999 380.766 7.49999 380.766 11C380.766 14 377.432 15.5 370.766 15.5H330.016C320.682 15.5 316.016 20.5 316.016 30.5V36.75C316.016 47.25 320.599 52.5 329.766 52.5H359.266C373.599 52.5 380.766 58.0833 380.766 69.25V96.25C380.766 107.417 373.849 113 360.016 113H308.266C301.766 113 298.516 111.417 298.516 108.25C298.516 105.25 301.849 103.75 308.516 103.75H349.766C358.766 103.75 363.266 99.3333 363.266 90.5V78.75C363.266 67.5833 358.516 62 349.016 62H320.016ZM459.699 101.25V75C459.699 66.3333 454.699 62 444.699 62H427.699C417.699 62 412.699 66.3333 412.699 75L412.449 101.25C412.449 109.583 409.533 113.75 403.699 113.75C397.866 113.75 394.949 109.917 394.949 102.25V16.75C394.949 8.91666 397.866 5 403.699 5C409.699 5 412.699 9.16666 412.699 17.5V39.25C412.699 48.0833 417.699 52.5 427.699 52.5H445.199C454.866 52.5 459.699 48.0833 459.699 39.25V17.5C459.699 9.16666 462.616 5 468.449 5C474.449 5 477.449 8.91666 477.449 16.75V102.25C477.449 109.917 474.449 113.75 468.449 113.75C462.616 113.75 459.699 109.583 459.699 101.25ZM509.633 17.5V90.5C509.633 99.3333 514.633 103.75 524.633 103.75H542.133C551.799 103.75 556.633 99.3333 556.633 90.5L556.883 17.5C556.883 8.83333 559.799 4.5 565.633 4.5C571.466 4.5 574.383 8.58333 574.383 16.75V95C574.383 107 567.466 113 553.633 113H512.383C498.716 113 491.883 107.083 491.883 95.25V16.75C491.883 8.58333 494.883 4.5 500.883 4.5C506.716 4.5 509.633 8.83333 509.633 17.5ZM638.816 15.5H621.816C611.816 15.5 606.816 20.75 606.816 31.25V40.75C606.816 50.75 611.733 55.75 621.566 55.75H639.316C649.15 55.75 654.066 49.5833 654.066 37.25V28C654.066 19.6667 648.983 15.5 638.816 15.5ZM654.066 99.5V77.5C654.066 69.3333 648.983 65.25 638.816 65.25H621.816C611.816 65.25 606.816 69.3333 606.816 77.5V99.75C606.816 108.417 603.9 112.75 598.066 112.75C592.233 112.75 589.316 108.833 589.316 101V23.75C589.316 11.75 595.4 5.74999 607.566 5.74999H650.816C664.65 5.74999 671.566 11.75 671.566 23.75V100.75C671.566 108.75 668.65 112.75 662.816 112.75C656.983 112.75 654.066 108.333 654.066 99.5Z" fill="#F28BCA"/>
<path d="M30.8594 214.25C30.8594 222.917 27.9427 227.25 22.1094 227.25C16.276 227.25 13.3594 223 13.3594 214.5V134.5C13.3594 123.333 20.1094 117.75 33.6094 117.75H85.8594C92.3594 117.75 95.6094 119.417 95.6094 122.75C95.6094 125.917 92.1927 127.5 85.3594 127.5H44.8594C35.526 127.5 30.8594 132.333 30.8594 142V149.75C30.8594 159.583 35.4427 164.5 44.6094 164.5H85.8594C92.3594 164.5 95.6094 165.833 95.6094 168.5C95.6094 172.167 92.9427 174 87.6094 174H44.8594C35.526 174 30.8594 178.333 30.8594 187V214.25ZM161.742 157.5C165.242 154 166.992 149.583 166.992 144.25V138.75C166.659 135.083 165.492 132.333 163.492 130.5C161.492 128.5 158.576 127.5 154.742 127.5H134.242C124.576 127.5 119.742 133.083 119.742 144.25V151C119.742 162.167 124.492 167.75 133.992 167.75H141.242C146.742 167.75 151.159 166.167 154.492 163L161.742 157.5ZM175.492 226C169.826 226 166.992 222.417 166.992 215.25V197.5C166.992 196.167 166.492 194.75 165.492 193.25C164.492 191.583 163.159 189.917 161.492 188.25L154.242 182.25C150.076 179.083 146.326 177.5 142.992 177.5H133.992C124.492 177.5 119.742 182.25 119.742 191.75V214.5C119.742 222.167 116.826 226 110.992 226C105.159 226 102.242 221.917 102.242 213.75V136C102.242 123.833 108.659 117.75 121.492 117.75H162.992C177.326 117.75 184.492 123.417 184.492 134.75V151.25C183.659 156.083 180.076 161.167 173.742 166.5C171.242 168.5 169.992 170.583 169.992 172.75C169.992 174.75 171.159 176.833 173.492 179C180.159 185.333 183.826 190.5 184.492 194.5V214.75C184.492 222.25 181.492 226 175.492 226ZM232.426 215.75H273.426C278.759 215.75 281.426 217.333 281.426 220.5C281.426 223.5 278.842 225 273.676 225H219.426C205.926 225 199.176 219.5 199.176 208.5V134.75C199.176 123.417 205.926 117.75 219.426 117.75H273.676C278.842 117.75 281.426 119.333 281.426 122.5C281.426 125.833 278.759 127.5 273.426 127.5H232.426C221.926 127.5 216.676 131.833 216.676 140.5V151.25C216.676 160.083 221.759 164.5 231.926 164.5H273.176C278.676 164.5 281.426 165.917 281.426 168.75C281.426 172.25 278.759 174 273.426 174H231.926C221.759 174 216.676 178.417 216.676 187.25V203.25C216.676 211.583 221.926 215.75 232.426 215.75ZM322.768 215.75H363.768C369.101 215.75 371.768 217.333 371.768 220.5C371.768 223.5 369.184 225 364.018 225H309.768C296.268 225 289.518 219.5 289.518 208.5V134.75C289.518 123.417 296.268 117.75 309.768 117.75H364.018C369.184 117.75 371.768 119.333 371.768 122.5C371.768 125.833 369.101 127.5 363.768 127.5H322.768C312.268 127.5 307.018 131.833 307.018 140.5V151.25C307.018 160.083 312.101 164.5 322.268 164.5H363.518C369.018 164.5 371.768 165.917 371.768 168.75C371.768 172.25 369.101 174 363.768 174H322.268C312.101 174 307.018 178.417 307.018 187.25V203.25C307.018 211.583 312.268 215.75 322.768 215.75ZM428.859 188.75C423.193 188.75 420.359 184.333 420.359 175.5C420.359 170.167 419.109 164.333 416.609 158C414.276 151.5 410.943 144.75 406.609 137.75C405.109 135.583 403.693 134 402.359 133C401.026 132 400.026 131.417 399.359 131.25C397.859 131.25 397.109 132.667 397.109 135.5V212.75C397.109 220.75 394.109 224.75 388.109 224.75C382.276 224.75 379.359 220.75 379.359 212.75V135.25C379.359 123.083 384.193 117 393.859 117H398.609C404.943 117 410.776 121 416.109 129L428.609 150L441.359 129C443.693 125.333 446.193 122.417 448.859 120.25C451.693 118.083 454.943 117 458.609 117H463.859C473.359 117 478.109 123.083 478.109 135.25V212.75C478.109 220.75 475.193 224.75 469.359 224.75C463.526 224.75 460.609 220.75 460.609 212.75V135.5C459.943 132.667 459.026 131.25 457.859 131.25C456.026 131.25 453.693 133.417 450.859 137.75C446.359 144.75 443.026 151.5 440.859 158C438.693 164.333 437.609 170.167 437.609 175.5C437.609 184.333 434.693 188.75 428.859 188.75ZM542.883 127.5H525.883C515.883 127.5 510.883 132.75 510.883 143.25V152.75C510.883 162.75 515.799 167.75 525.633 167.75H543.383C553.216 167.75 558.133 161.583 558.133 149.25V140C558.133 131.667 553.049 127.5 542.883 127.5ZM558.133 211.5V189.5C558.133 181.333 553.049 177.25 542.883 177.25H525.883C515.883 177.25 510.883 181.333 510.883 189.5V211.75C510.883 220.417 507.966 224.75 502.133 224.75C496.299 224.75 493.383 220.833 493.383 213V135.75C493.383 123.75 499.466 117.75 511.633 117.75H554.883C568.716 117.75 575.633 123.75 575.633 135.75V212.75C575.633 220.75 572.716 224.75 566.883 224.75C561.049 224.75 558.133 220.333 558.133 211.5ZM648.816 196C650.983 200.833 652.65 203.25 653.816 203.25C654.65 203.25 655.066 201.75 655.066 198.75L655.316 132C655.316 122 658.233 117 664.066 117C670.066 117 673.066 121.083 673.066 129.25L672.816 208.25C672.816 220.25 667.316 226.25 656.316 226.25C651.15 226.25 646.816 222.333 643.316 214.5L613.816 147.25C611.65 144.083 610.233 142.5 609.566 142.5C608.566 142.5 608.066 144.5 608.066 148.5V212.5C608.066 221.5 605.15 226 599.316 226C593.316 226 590.316 222 590.316 214L590.566 134.75C590.566 122.583 595.983 116.5 606.816 116.5C610.983 116.5 615.316 120.583 619.816 128.75L648.816 196Z" fill="#F28BCA"/>
</svg>
