<?xml version="1.0" encoding="UTF-8"?>
<svg id="Layer_1" xmlns="http://www.w3.org/2000/svg" version="1.1" viewBox="0 0 854 649">
  <!-- Generator: Adobe Illustrator 29.0.1, SVG Export Plug-In . SVG Version: 2.1.0 Build 192)  -->
  <defs>
    <style>
      .st0 {
        fill: #83bbe5;
      }

      .st1 {
        fill: #fff;
      }

      .st2 {
        fill: none;
        stroke: #000;
      }
    </style>
  </defs>
  <rect class="st0" x="15.6" y="21.3" width="823" height="606" rx="33" ry="33"/>
  <rect class="st1" x="33.5" y="39.3" width="788" height="570" rx="33" ry="33"/>
  <path d="M61.7,112.9v-3.2c0-1-.6-1.6-1.8-1.6h-2c-1.2,0-1.8.5-1.8,1.6v3.1c0,1-.4,1.5-1.1,1.5-.7,0-1-.5-1-1.4v-10.3c0-.9.4-1.4,1.1-1.4.7,0,1.1.5,1.1,1.5v2.6c0,1.1.6,1.6,1.8,1.6h2.1c1.2,0,1.7-.5,1.7-1.6v-2.6c0-1,.4-1.5,1.1-1.5.7,0,1.1.5,1.1,1.4v10.3c0,.9-.4,1.4-1.1,1.4-.7,0-1-.5-1-1.5ZM68.8,113.2h4.9c.6,0,1,.2,1,.6,0,.4-.3.5-.9.5h-6.5c-1.6,0-2.4-.7-2.4-2v-8.9c0-1.4.8-2,2.4-2h6.5c.6,0,.9.2.9.6,0,.4-.3.6-1,.6h-4.9c-1.3,0-1.9.5-1.9,1.5v1.3c0,1.1.6,1.6,1.8,1.6h4.9c.7,0,1,.2,1,.5,0,.4-.3.6-1,.6h-5c-1.2,0-1.8.5-1.8,1.6v1.9c0,1,.6,1.5,1.9,1.5ZM76.8,111.4c0,1.2.6,1.8,1.7,1.8h4.3c.8,0,1.1.2,1.1.6,0,.4-.4.5-1.1.5h-5.7c-1.6,0-2.4-.7-2.4-2.1v-9.4c0-1,.4-1.5,1.1-1.5.7,0,1.1.5,1.1,1.6v8.5ZM85.7,111.4c0,1.2.6,1.8,1.7,1.8h4.3c.8,0,1.1.2,1.1.6,0,.4-.4.5-1.1.5h-5.7c-1.6,0-2.4-.7-2.4-2.1v-9.4c0-1,.4-1.5,1.1-1.5.7,0,1.1.5,1.1,1.6v8.5ZM96.5,113.3h2.1c1.2,0,1.8-.6,1.8-1.8v-7.1c0-1.1-.6-1.7-1.8-1.7h-2c-1.2,0-1.8.6-1.8,1.7v7.2c0,1.1.6,1.7,1.8,1.7ZM102.5,112.4c0,1.4-.8,2-2.4,2h-5c-1.6,0-2.4-.7-2.4-2.1v-8.7c0-1.4.8-2.1,2.4-2.1h5c1.6,0,2.5.7,2.5,2.1v8.7ZM109.9,113.1c0,1-.4,1.6-1.1,1.6-.7,0-1-.5-1-1.5v-9.6c0-1.3.8-2,2.5-2h6.3c.8,0,1.2.2,1.2.6,0,.4-.4.6-1.2.6h-4.9c-1.1,0-1.7.6-1.7,1.7v.9c0,1.2.5,1.8,1.6,1.8h4.9c.8,0,1.2.2,1.2.5,0,.4-.3.7-1,.7h-5.1c-1.1,0-1.7.5-1.7,1.5v3.3ZM124.8,106.3c.4-.4.6-.9.6-1.6v-.7c0-.4-.2-.8-.4-1-.2-.2-.6-.4-1-.4h-2.5c-1.2,0-1.7.7-1.7,2v.8c0,1.3.6,2,1.7,2h.9c.7,0,1.2-.2,1.6-.6l.9-.7ZM126.4,114.6c-.7,0-1-.4-1-1.3v-2.1c0-.2,0-.3-.2-.5-.1-.2-.3-.4-.5-.6l-.9-.7c-.5-.4-.9-.6-1.3-.6h-1.1c-1.1,0-1.7.6-1.7,1.7v2.7c0,.9-.4,1.4-1.1,1.4-.7,0-1-.5-1-1.5v-9.3c0-1.5.8-2.2,2.3-2.2h5c1.7,0,2.6.7,2.6,2.1v2c-.1.6-.5,1.2-1.3,1.8-.3.2-.5.5-.5.7,0,.2.1.5.4.8.8.8,1.2,1.4,1.3,1.9v2.4c0,.9-.4,1.3-1.1,1.3ZM132.2,113.3h2.1c1.2,0,1.8-.6,1.8-1.8v-7.1c0-1.1-.6-1.7-1.8-1.7h-2c-1.2,0-1.8.6-1.8,1.7v7.2c0,1.1.6,1.7,1.8,1.7ZM138.2,112.4c0,1.4-.8,2-2.4,2h-5c-1.6,0-2.4-.7-2.4-2.1v-8.7c0-1.4.8-2.1,2.4-2.1h5c1.6,0,2.5.7,2.5,2.1v8.7ZM145,110.1c-.7,0-1-.5-1-1.6,0-.6-.1-1.3-.4-2.1-.3-.8-.7-1.6-1.2-2.4-.2-.3-.3-.5-.5-.6-.2-.1-.3-.2-.4-.2-.2,0-.3.2-.3.5v9.3c0,1-.4,1.4-1.1,1.4-.7,0-1-.5-1-1.4v-9.3c0-1.5.6-2.2,1.8-2.2h.6c.8,0,1.5.5,2.1,1.4l1.5,2.5,1.5-2.5c.3-.4.6-.8.9-1,.3-.3.7-.4,1.2-.4h.6c1.1,0,1.7.7,1.7,2.2v9.3c0,1-.4,1.4-1.1,1.4-.7,0-1-.5-1-1.4v-9.3c0-.3-.2-.5-.3-.5-.2,0-.5.3-.8.8-.5.8-.9,1.6-1.2,2.4-.3.8-.4,1.5-.4,2.1,0,1.1-.4,1.6-1.1,1.6ZM158.4,111.6c0,1.2.6,1.8,1.7,1.8h4.3c.8,0,1.1.2,1.1.6,0,.4-.4.5-1.1.5h-5.7c-1.6,0-2.4-.7-2.4-2.1v-9.4c0-1,.4-1.5,1.1-1.5.7,0,1.1.5,1.1,1.6v8.5ZM169.1,113.4h2.1c1.2,0,1.8-.6,1.8-1.8v-7.1c0-1.1-.6-1.7-1.8-1.7h-2c-1.2,0-1.8.6-1.8,1.7v7.2c0,1.1.6,1.7,1.8,1.7ZM175.1,112.5c0,1.4-.8,2-2.4,2h-5c-1.6,0-2.4-.7-2.4-2.1v-8.7c0-1.4.8-2.1,2.4-2.1h5c1.6,0,2.5.7,2.5,2.1v8.7ZM183,111.1c.3.6.5.9.6.9.1,0,.2-.2.2-.5v-8c0-1.2.4-1.8,1.1-1.8.7,0,1.1.5,1.1,1.5v9.5c0,1.4-.7,2.2-2,2.2-.6,0-1.1-.5-1.6-1.4l-3.5-8.1c-.3-.4-.4-.6-.5-.6-.1,0-.2.2-.2.7v7.7c0,1.1-.4,1.6-1.1,1.6-.7,0-1.1-.5-1.1-1.4v-9.5c0-1.5.7-2.2,2-2.2.5,0,1,.5,1.6,1.5l3.5,8.1ZM195.9,103.5c.2.2.4.5.5.8.1.3.2.7.2,1.2v5.3c0,.5,0,.9-.2,1.3-.1.3-.3.6-.5.8l-1,1.1c-.2.2-.5.3-.8.4-.4,0-.8.1-1.2.1h-3.7c-1.6,0-2.4-.8-2.4-2.3v-8.3c0-1.6.8-2.3,2.4-2.3h3.6c1,0,1.6.3,2.1.6l.5.6.6.6ZM190.6,102.9c-1.2,0-1.8.6-1.8,1.7v7.2c0,1.1.6,1.7,1.8,1.7h.7c.9,0,1.6-.2,2-.5l.4-.4c.5-.5.7-1.1.7-1.9v-5.1c0-.3-.1-.6-.2-.9-.1-.3-.3-.6-.6-.9l-.3-.3c-.2-.2-.5-.4-.8-.5-.3,0-.7-.2-1-.2h-.9ZM201.3,113.5h2.1c1.2,0,1.8-.6,1.8-1.8v-7.1c0-1.1-.6-1.7-1.8-1.7h-2c-1.2,0-1.8.6-1.8,1.7v7.2c0,1.1.6,1.7,1.8,1.7ZM207.3,112.5c0,1.4-.8,2-2.4,2h-5c-1.6,0-2.4-.7-2.4-2.1v-8.7c0-1.4.8-2.1,2.4-2.1h5c1.6,0,2.5.7,2.5,2.1v8.7ZM215.2,111.1c.3.6.5.9.6.9.1,0,.2-.2.2-.5v-8c0-1.2.4-1.8,1.1-1.8.7,0,1.1.5,1.1,1.5v9.5c0,1.4-.7,2.2-2,2.2-.6,0-1.1-.5-1.6-1.4l-3.5-8.1c-.3-.4-.4-.6-.5-.6-.1,0-.2.2-.2.7v7.7c0,1.1-.4,1.6-1.1,1.6-.7,0-1.1-.5-1.1-1.4v-9.5c0-1.5.7-2.2,2-2.2.5,0,1,.5,1.6,1.5l3.5,8.1ZM221.4,113c0,.8,0,1.4-.1,1.8,0,.4-.2.8-.3,1-.2.2-.3.3-.5.4-.2,0-.4,0-.6,0-.2,0-.4-.1-.4-.3,0,0,0-.1.1-.1,0,0,.2,0,.3-.2,0,0,.2-.2.3-.4.1-.2.2-.4.2-.7v-.4s-.1,0-.1,0c-.8,0-1.1-.4-1.1-1.1,0-.8.4-1.1,1.2-1.1.8,0,1.1.4,1.1,1.1ZM59.9,176.2h0c-.2,0-.5.2-.8.6l-.3.4c-.3.4-.6.7-.8.9-.2.2-.4.3-.5.3h-.7c-.2,0-.4,0-.6-.2-.2-.2-.4-.4-.6-.8l-1.4-2.7c-.2-.3-.3-.8-.4-1.3,0-.5-.1-1.1-.1-1.8v-4.8c0-1,.3-1.5,1-1.5.7,0,1,.5,1,1.5v6.2c0,.3,0,.6,0,.9,0,.3.1.5.2.6l.8,1.4c.1.3.2.4.4.4.1,0,.3-.1.5-.4l.8-1.3c.3-.5.4-1.1.4-1.7v-6c0-1,.4-1.5,1.1-1.5.7,0,1,.5,1,1.5v6c0,.1,0,.2,0,.4,0,.5.1,1,.4,1.4l.7,1.3c.1.3.3.4.4.4.2,0,.3-.1.5-.4l.7-1.4c0-.3.2-.5.2-.7,0-.2.1-.5.1-.7v-6.2c0-1,.3-1.5,1-1.5.7,0,1,.5,1,1.5v4.8c0,.7,0,1.3-.2,1.8-.1.5-.2.9-.4,1.3l-1.4,2.7c-.5.7-.9,1-1.3,1h-.7c-.1,0-.3,0-.5-.3-.2-.2-.4-.5-.7-.9l-.3-.4c-.3-.4-.5-.6-.7-.6ZM68,178.4c-.7,0-1-.5-1-1.5v-10.2c0-.9.3-1.4,1-1.4.7,0,1,.5,1,1.4v10.2c0,1-.3,1.5-1,1.5ZM72.8,172.2c-1.7,0-2.6-.7-2.6-2v-2.7c0-1.4.8-2.1,2.4-2.1h6.2c.8,0,1.2.2,1.2.6,0,.4-.4.5-1.2.5h-4.9c-1.1,0-1.7.6-1.7,1.8v.8c0,1.3.5,1.9,1.6,1.9h3.5c1.7,0,2.6.7,2.6,2v3.2c0,1.3-.8,2-2.5,2h-6.2c-.8,0-1.2-.2-1.2-.6,0-.4.4-.5,1.2-.5h4.9c1.1,0,1.6-.5,1.6-1.6v-1.4c0-1.3-.6-2-1.7-2h-3.5ZM88.6,177v-3.1c0-1-.6-1.6-1.8-1.6h-2c-1.2,0-1.8.5-1.8,1.6v3.2c0,1-.4,1.5-1.1,1.5-.7,0-1-.5-1-1.4v-10.3c0-.9.4-1.4,1.1-1.4.7,0,1.1.5,1.1,1.5v2.6c0,1.1.6,1.6,1.8,1.6h2.1c1.2,0,1.7-.5,1.7-1.6v-2.6c0-1,.4-1.5,1.1-1.5.7,0,1.1.5,1.1,1.4v10.3c0,.9-.4,1.4-1.1,1.4-.7,0-1-.5-1-1.5ZM102.3,177.3c1.1,0,1.6-.5,1.6-1.6v-1.7c0-1-.6-1.6-1.7-1.6h-3.7c-1.6,0-2.3-.6-2.3-1.9v-3.9c0-.9.4-1.3,1.1-1.3.7,0,1,.5,1,1.4v3c0,1.1.6,1.6,1.8,1.6h2.1c1.2,0,1.8-.5,1.8-1.6v-3c0-.9.4-1.3,1.1-1.3.7,0,1.1.4,1.1,1.3v9.7c0,1.3-.9,1.9-2.4,1.9h-6.7c-.6,0-.9-.2-.9-.6,0-.4.3-.5.9-.5h5.2ZM110.8,177.3h2.1c1.2,0,1.8-.6,1.8-1.8v-7.1c0-1.1-.6-1.7-1.8-1.7h-2c-1.2,0-1.8.6-1.8,1.7v7.2c0,1.1.6,1.7,1.8,1.7ZM116.8,176.4c0,1.4-.8,2-2.4,2h-5c-1.6,0-2.4-.7-2.4-2.1v-8.7c0-1.4.8-2.1,2.4-2.1h5c1.6,0,2.5.7,2.5,2.1v8.7ZM119.7,167v8.8c0,1.1.6,1.6,1.8,1.6h2.1c1.2,0,1.7-.5,1.7-1.6v-8.8c0-1,.4-1.6,1.1-1.6.7,0,1,.5,1,1.5v9.4c0,1.4-.9,2.2-2.5,2.2h-4.9c-1.6,0-2.5-.7-2.5-2.1v-9.4c0-1,.4-1.5,1.1-1.5.7,0,1,.5,1,1.6ZM138.8,176.3h0c-.2,0-.5.2-.8.6l-.3.4c-.3.4-.6.7-.8.9-.2.2-.4.2-.5.3h-.7c-.2,0-.4,0-.6-.2-.2-.2-.4-.4-.6-.8l-1.4-2.7c-.2-.3-.3-.8-.4-1.3,0-.5-.1-1.1-.1-1.8v-4.8c0-1,.3-1.5,1-1.5.7,0,1,.5,1,1.5v6.2c0,.3,0,.6,0,.9,0,.3.1.5.2.6l.8,1.4c.1.3.2.4.4.4,0,0,.3-.1.5-.4l.8-1.3c.3-.5.4-1.1.4-1.7v-6c0-1,.4-1.5,1.1-1.5.7,0,1,.5,1,1.5v6c0,0,0,.2,0,.4,0,.5.1,1,.4,1.4l.7,1.3c.1.3.3.4.4.4.2,0,.3-.1.5-.4l.7-1.4c0-.3.2-.5.2-.8,0-.2.1-.5.1-.7v-6.2c0-1,.3-1.5,1-1.5.7,0,1,.5,1,1.5v4.8c0,.7,0,1.3-.2,1.8-.1.5-.2.9-.4,1.3l-1.4,2.7c-.5.7-.9,1-1.3,1h-.7c-.1,0-.3,0-.5-.3-.2-.2-.4-.5-.7-.9l-.3-.5c-.3-.4-.5-.6-.7-.6ZM149.7,177.4h4.9c.6,0,1,.2,1,.6,0,.4-.3.5-.9.5h-6.5c-1.6,0-2.4-.7-2.4-2v-8.9c0-1.4.8-2,2.4-2h6.5c.6,0,.9.2.9.6,0,.4-.3.6-1,.6h-4.9c-1.3,0-1.9.5-1.9,1.5v1.3c0,1.1.6,1.6,1.8,1.6h4.9c.7,0,1,.2,1,.5,0,.4-.3.6-1,.6h-5c-1.2,0-1.8.5-1.8,1.6v1.9c0,1,.6,1.5,1.9,1.5ZM162.8,170.4c.4-.4.6-.9.6-1.6v-.7c0-.4-.2-.8-.4-1-.2-.2-.6-.4-1-.4h-2.5c-1.2,0-1.7.7-1.7,2v.8c0,1.3.6,2,1.7,2h.9c.7,0,1.2-.2,1.6-.6l.9-.7ZM164.4,178.6c-.7,0-1-.4-1-1.3v-2.1c0-.2,0-.3-.2-.5-.1-.2-.3-.4-.5-.6l-.9-.7c-.5-.4-.9-.6-1.3-.6h-1.1c-1.1,0-1.7.6-1.7,1.7v2.7c0,.9-.4,1.4-1.1,1.4s-1-.5-1-1.5v-9.3c0-1.5.8-2.2,2.3-2.2h5c1.7,0,2.6.7,2.6,2.1v2c-.1.6-.5,1.2-1.3,1.8-.3.2-.5.5-.5.7,0,.2.1.5.4.8.8.8,1.2,1.4,1.3,1.9v2.4c0,.9-.4,1.3-1.1,1.3ZM170.3,177.4h4.9c.6,0,1,.2,1,.6,0,.4-.3.5-.9.5h-6.5c-1.6,0-2.4-.7-2.4-2v-8.9c0-1.4.8-2,2.4-2h6.5c.6,0,.9.2.9.6,0,.4-.3.6-1,.6h-4.9c-1.3,0-1.9.5-1.9,1.5v1.3c0,1.1.6,1.6,1.8,1.6h4.9c.7,0,1,.2,1,.5,0,.4-.3.6-1,.6h-5c-1.2,0-1.8.5-1.8,1.6v1.9c0,1,.6,1.5,1.9,1.5ZM188.4,177.1v-3.1c0-1-.6-1.6-1.8-1.6h-2c-1.2,0-1.8.5-1.8,1.6v3.1c0,1-.4,1.5-1.1,1.5-.7,0-1-.5-1-1.4v-10.3c0-.9.4-1.4,1.1-1.4.7,0,1.1.5,1.1,1.5v2.6c0,1.1.6,1.6,1.8,1.6h2.1c1.2,0,1.7-.5,1.7-1.6v-2.6c0-1,.4-1.5,1.1-1.5.7,0,1.1.5,1.1,1.4v10.3c0,.9-.4,1.4-1.1,1.4-.7,0-1-.5-1-1.5ZM195.5,177.5h4.9c.6,0,1,.2,1,.6,0,.4-.3.5-.9.5h-6.5c-1.6,0-2.4-.7-2.4-2v-8.9c0-1.4.8-2,2.4-2h6.5c.6,0,.9.2.9.6,0,.4-.3.6-1,.6h-4.9c-1.3,0-1.9.5-1.9,1.5v1.3c0,1.1.6,1.6,1.8,1.6h4.9c.7,0,1,.2,1,.5,0,.4-.3.6-1,.6h-5c-1.2,0-1.8.5-1.8,1.6v1.9c0,1,.6,1.5,1.9,1.5ZM208.6,170.5c.4-.4.6-.9.6-1.6v-.7c0-.4-.2-.8-.4-1-.2-.2-.6-.4-1-.4h-2.5c-1.2,0-1.7.7-1.7,2v.8c0,1.3.6,2,1.7,2h.9c.7,0,1.2-.2,1.6-.6l.9-.7ZM210.2,178.7c-.7,0-1-.4-1-1.3v-2.1c0-.2,0-.3-.2-.5-.1-.2-.3-.4-.5-.6l-.9-.7c-.5-.4-.9-.6-1.3-.6h-1.1c-1.1,0-1.7.6-1.7,1.7v2.7c0,.9-.4,1.4-1.1,1.4-.7,0-1-.5-1-1.5v-9.3c0-1.5.8-2.2,2.3-2.2h5c1.7,0,2.6.7,2.6,2.1v2c-.1.6-.5,1.2-1.3,1.8-.3.2-.5.5-.5.7,0,.2.1.5.4.8.8.8,1.2,1.4,1.3,1.9v2.4c0,.9-.4,1.3-1.1,1.3ZM216.2,177.5h4.9c.6,0,1,.2,1,.6,0,.4-.3.5-.9.5h-6.5c-1.6,0-2.4-.7-2.4-2v-8.8c0-1.4.8-2,2.4-2h6.5c.6,0,.9.2.9.6,0,.4-.3.6-1,.6h-4.9c-1.3,0-1.9.5-1.9,1.5v1.3c0,1.1.6,1.6,1.8,1.6h4.9c.7,0,1,.2,1,.5,0,.4-.3.6-1,.6h-5c-1.2,0-1.8.5-1.8,1.6v1.9c0,1,.6,1.5,1.9,1.5ZM221.8,171.7v-2.3s27.6,0,27.6,0v2.3s-27.6,0-27.6,0ZM248.9,166.4c0-.4.4-.6,1.1-.6h7.6c.7,0,1.1.2,1.1.6,0,.4-.4.6-1.1.6h-1.1c-1.1,0-1.7.5-1.7,1.6v8.8c0,1-.4,1.6-1.1,1.6-.7,0-1-.5-1-1.6v-8.8c0-1-.6-1.6-1.7-1.6h-1c-.8,0-1.1-.2-1.1-.6ZM266.2,177.3v-3.2c0-1-.6-1.6-1.8-1.6h-2c-1.2,0-1.8.5-1.8,1.6v3.1c0,1-.4,1.5-1.1,1.5-.7,0-1-.5-1-1.4v-10.3c0-.9.4-1.4,1.1-1.4.7,0,1.1.5,1.1,1.5v2.6c0,1.1.6,1.6,1.8,1.6h2.1c1.2,0,1.7-.5,1.7-1.6v-2.6c0-1,.4-1.5,1.1-1.5.7,0,1.1.5,1.1,1.4v10.3c0,.9-.4,1.4-1.1,1.4-.7,0-1-.5-1-1.5ZM273.1,177.6h2.1c1.2,0,1.8-.6,1.8-1.8v-7.1c0-1.1-.6-1.7-1.8-1.7h-2c-1.2,0-1.8.6-1.8,1.7v7.2c0,1.1.6,1.7,1.8,1.7ZM279.1,176.7c0,1.4-.8,2-2.4,2h-5c-1.6,0-2.4-.7-2.4-2.1v-8.7c0-1.4.8-2.1,2.4-2.1h5c1.6,0,2.5.7,2.5,2.1v8.7ZM282,167.3v8.8c0,1.1.6,1.6,1.8,1.6h2.1c1.2,0,1.7-.5,1.7-1.6v-8.8c0-1,.4-1.6,1.1-1.6s1,.5,1,1.5v9.4c0,1.4-.9,2.2-2.5,2.2h-4.9c-1.6,0-2.5-.7-2.5-2.1v-9.4c0-1,.4-1.5,1.1-1.5.7,0,1,.5,1,1.6ZM299.4,167.1h-4.9c-1.1,0-1.7.6-1.7,1.7v7.2c0,1.1.6,1.7,1.8,1.7h2.1c1.2,0,1.8-.7,1.8-2.1v-1.7c0-.8-.5-1.2-1.4-1.2h-1.3c-.8,0-1.1-.2-1.1-.6,0-.4.4-.6,1.1-.6h2.7c1.5,0,2.2.6,2.2,1.9v3.4c0,1.3-.8,2-2.5,2h-5c-1.6,0-2.4-.7-2.4-2.1v-8.6c0-1.5.8-2.2,2.4-2.2h6.3c.8,0,1.1.2,1.1.6,0,.4-.4.6-1.2.6ZM309.1,177.4v-3.2c0-1-.6-1.6-1.8-1.6h-2c-1.2,0-1.8.5-1.8,1.6v3.1c0,1-.4,1.5-1.1,1.5-.7,0-1-.5-1-1.4v-10.3c0-.9.4-1.4,1.1-1.4.7,0,1.1.5,1.1,1.5v2.6c0,1.1.6,1.6,1.8,1.6h2.1c1.2,0,1.7-.5,1.7-1.6v-2.6c0-1,.4-1.5,1.1-1.5.7,0,1.1.5,1.1,1.4v10.3c0,.9-.4,1.4-1.1,1.4-.7,0-1-.5-1-1.5ZM317.9,178.8c-.7,0-1-.5-1-1.5v-10.2c0-.9.3-1.4,1-1.4.7,0,1,.5,1,1.4v10.2c0,1-.3,1.5-1,1.5ZM327.2,172.7c-1.7,0-2.6-.7-2.6-2v-2.7c0-1.4.8-2.1,2.4-2.1h6.2c.8,0,1.2.2,1.2.6,0,.4-.4.5-1.2.5h-4.9c-1.1,0-1.7.6-1.7,1.8v.8c0,1.3.5,1.9,1.6,1.9h3.5c1.7,0,2.6.7,2.6,2v3.2c0,1.3-.8,2-2.5,2h-6.2c-.8,0-1.2-.2-1.2-.6,0-.4.4-.5,1.2-.5h4.9c1.1,0,1.6-.5,1.6-1.6v-1.4c0-1.3-.6-2-1.7-2h-3.5ZM337.4,167.4v8.8c0,1.1.6,1.6,1.8,1.6h2.1c1.2,0,1.7-.5,1.7-1.6v-8.8c0-1,.4-1.6,1.1-1.6.7,0,1,.5,1,1.5v9.4c0,1.4-.9,2.2-2.5,2.2h-5c-1.6,0-2.5-.7-2.5-2.1v-9.4c0-1,.4-1.5,1.1-1.5.7,0,1,.5,1,1.6ZM348.2,174.3v3.1c0,1.1-.4,1.6-1.1,1.6-.7,0-1.1-.5-1.1-1.5v-9.3c0-1.5.9-2.2,2.5-2.2h5.2c1.5,0,2.3.7,2.3,2v2.8c0,1.4-.8,2.1-2.3,2.1h-3.7c-1.1,0-1.7.5-1.7,1.4ZM352.1,167.1h-2c-1.2,0-1.8.7-1.8,2v.9c0,1.2.6,1.7,1.8,1.7h2.1c1.2,0,1.8-.7,1.8-2.1v-.9c0-1.1-.6-1.6-1.8-1.6ZM358.4,174.3v3.1c0,1.1-.4,1.6-1.1,1.6-.7,0-1.1-.5-1.1-1.5v-9.3c0-1.5.9-2.2,2.5-2.2h5.2c1.5,0,2.3.7,2.3,2v2.8c0,1.4-.8,2.1-2.3,2.1h-3.7c-1.1,0-1.7.5-1.7,1.4ZM362.2,167.2h-2c-1.2,0-1.8.7-1.8,2v.9c0,1.2.6,1.7,1.8,1.7h2.1c1.2,0,1.8-.7,1.8-2.1v-.9c0-1.1-.6-1.6-1.8-1.6ZM370.3,177.8h2.1c1.2,0,1.8-.6,1.8-1.8v-7.1c0-1.1-.6-1.7-1.8-1.7h-2c-1.2,0-1.8.6-1.8,1.7v7.2c0,1.1.6,1.7,1.8,1.7ZM376.3,176.9c0,1.4-.8,2-2.4,2h-5c-1.6,0-2.4-.7-2.4-2.1v-8.7c0-1.4.8-2.1,2.4-2.1h5c1.6,0,2.5.7,2.5,2.1v8.7ZM379.7,172.8c-1.7,0-2.6-.7-2.6-2v-2.7c0-1.4.8-2.1,2.4-2.1h6.2c.8,0,1.2.2,1.2.6,0,.4-.4.5-1.2.5h-4.9c-1.1,0-1.7.6-1.7,1.8v.8c0,1.3.5,1.9,1.6,1.9h3.5c1.7,0,2.6.7,2.6,2v3.2c0,1.3-.8,2-2.5,2h-6.2c-.8,0-1.2-.2-1.2-.6,0-.4.4-.5,1.2-.5h5c1.1,0,1.6-.5,1.6-1.6v-1.4c0-1.3-.6-2-1.7-2h-3.5ZM391.9,177.8h4.9c.6,0,1,.2,1,.6,0,.4-.3.5-.9.5h-6.5c-1.6,0-2.4-.7-2.4-2v-8.9c0-1.4.8-2,2.4-2h6.5c.6,0,.9.2.9.6,0,.4-.3.6-1,.6h-4.9c-1.3,0-1.9.5-1.9,1.5v1.3c0,1.1.6,1.6,1.8,1.6h5c.7,0,1,.2,1,.5,0,.4-.3.6-1,.6h-5c-1.2,0-1.8.5-1.8,1.6v1.9c0,1,.6,1.5,1.9,1.5ZM52.8,198c0-.4.4-.6,1.1-.6h7.6c.7,0,1.1.2,1.1.6,0,.4-.4.6-1.1.6h-1.1c-1.1,0-1.7.5-1.7,1.6v8.8c0,1-.4,1.6-1.1,1.6-.7,0-1-.5-1-1.6v-8.8c0-1-.6-1.6-1.7-1.6h-1c-.8,0-1.1-.2-1.1-.6ZM70.1,208.9v-3.1c0-1-.6-1.6-1.8-1.6h-2c-1.2,0-1.8.5-1.8,1.6v3.1c0,1-.4,1.5-1.1,1.5-.7,0-1-.5-1-1.4v-10.3c0-.9.4-1.4,1.1-1.4.7,0,1.1.5,1.1,1.5v2.6c0,1.1.6,1.6,1.8,1.6h2.1c1.2,0,1.7-.5,1.7-1.6v-2.6c0-1,.4-1.5,1.1-1.5.7,0,1.1.5,1.1,1.4v10.3c0,.9-.4,1.4-1.1,1.4-.7,0-1-.5-1-1.5ZM74.4,210.4c-.7,0-1-.5-1-1.5v-10.2c0-.9.3-1.4,1-1.4.7,0,1,.5,1,1.4v10.2c0,1-.3,1.5-1,1.5ZM79.2,204.2c-1.7,0-2.6-.7-2.6-2v-2.7c0-1.4.8-2.1,2.4-2.1h6.2c.8,0,1.2.2,1.2.6,0,.4-.4.5-1.2.5h-4.9c-1.1,0-1.7.6-1.7,1.8v.8c0,1.3.5,1.9,1.6,1.9h3.5c1.7,0,2.6.7,2.6,2v3.2c0,1.3-.8,2-2.5,2h-6.2c-.8,0-1.2-.2-1.2-.6,0-.4.4-.5,1.2-.5h4.9c1.1,0,1.6-.5,1.6-1.6v-1.4c0-1.3-.6-2-1.7-2h-3.5ZM97.8,208.2h0c-.2,0-.5.2-.8.6l-.3.4c-.3.4-.6.7-.8.9-.2.2-.4.2-.5.3h-.7c-.2,0-.4,0-.6-.2-.2-.2-.4-.4-.6-.8l-1.4-2.7c-.2-.3-.3-.8-.4-1.3,0-.5-.1-1.1-.1-1.8v-4.8c0-1,.3-1.5,1-1.5.7,0,1,.5,1,1.5v6.2c0,.3,0,.6,0,.9,0,.3.1.5.2.6l.8,1.4c.1.3.2.4.4.4.1,0,.3-.1.5-.4l.8-1.3c.3-.5.4-1.1.4-1.7v-6c0-1,.4-1.5,1.1-1.5.7,0,1,.5,1,1.5v6c0,0,0,.2,0,.4,0,.5.1,1,.4,1.4l.7,1.3c.1.3.3.4.4.4.2,0,.3-.1.5-.4l.7-1.4c0-.3.2-.5.2-.7,0-.2.1-.5.1-.7v-6.2c0-1,.3-1.5,1-1.5.7,0,1,.5,1,1.5v4.8c0,.7,0,1.3-.2,1.8-.1.5-.2.9-.4,1.3l-1.4,2.7c-.5.7-.9,1-1.3,1h-.7c-.1,0-.3,0-.5-.3-.2-.2-.4-.5-.7-.9l-.3-.5c-.3-.4-.5-.6-.7-.6ZM108.6,209.3h4.9c.6,0,1,.2,1,.6,0,.4-.3.5-.9.5h-6.5c-1.6,0-2.4-.7-2.4-2v-8.9c0-1.4.8-2,2.4-2h6.5c.6,0,.9.2.9.6,0,.4-.3.6-1,.6h-4.9c-1.3,0-1.9.5-1.9,1.5v1.3c0,1.1.6,1.6,1.8,1.6h4.9c.7,0,1,.2,1,.5,0,.4-.3.6-1,.6h-5c-1.2,0-1.8.5-1.8,1.6v1.9c0,1,.6,1.5,1.9,1.5ZM124.4,206.3v2.1c0,1.4-.8,2-2.5,2h-4.9c-1.6,0-2.4-.7-2.4-2.1v-8.6c0-1.5.8-2.2,2.4-2.2h5c1.7,0,2.5.7,2.5,2.1v1.4c-.1.6-.5,1.2-1.3,1.8-.3.2-.5.5-.5.8,0,.3.1.5.4.8.8.7,1.2,1.4,1.3,1.9ZM121.6,205.5l-.9-.7c-.2-.2-.4-.3-.7-.4-.2-.1-.5-.2-.7-.2h-1c-1.2,0-1.8.7-1.8,2.1v1.3c0,1.1.6,1.6,1.8,1.6h2.4c1,0,1.5-.5,1.5-1.5v-1.3c0-.1,0-.3-.2-.5-.1-.2-.3-.4-.4-.6ZM121.7,201.9c.2-.2.3-.4.5-.6.1-.2.2-.5.2-.8v-.7c0-.8-.5-1.1-1.5-1.1h-2.4c-1.2,0-1.8.7-1.8,2.2v.5c0,1.2.6,1.8,1.7,1.8h1.1c.2,0,.4,0,.7-.1.2,0,.5-.2.7-.4l.9-.7ZM127.8,204.3c-1.7,0-2.6-.7-2.6-2v-2.7c0-1.4.8-2.1,2.4-2.1h6.2c.8,0,1.2.2,1.2.6,0,.4-.4.5-1.2.5h-4.9c-1.1,0-1.7.6-1.7,1.8v.8c0,1.3.5,1.9,1.6,1.9h3.5c1.7,0,2.6.7,2.6,2v3.2c0,1.3-.8,2-2.5,2h-6.2c-.8,0-1.2-.2-1.2-.6,0-.4.4-.5,1.2-.5h4.9c1.1,0,1.6-.5,1.6-1.6v-1.4c0-1.3-.6-2-1.7-2h-3.5ZM137.3,210.5c-.7,0-1-.5-1-1.5v-10.2c0-.9.3-1.4,1-1.4.7,0,1,.5,1,1.4v10.2c0,1-.3,1.5-1,1.5ZM138.4,198.2c0-.4.4-.6,1.1-.6h7.6c.7,0,1.1.2,1.1.6,0,.4-.4.6-1.1.6h-1.1c-1.1,0-1.7.5-1.7,1.6v8.8c0,1-.4,1.6-1.1,1.6-.7,0-1-.5-1-1.6v-8.8c0-1-.6-1.6-1.7-1.6h-1c-.8,0-1.1-.2-1.1-.6ZM152,209.4h4.9c.6,0,1,.2,1,.6,0,.4-.3.5-.9.5h-6.5c-1.6,0-2.4-.7-2.4-2v-8.9c0-1.4.8-2,2.4-2h6.5c.6,0,.9.2.9.6,0,.4-.3.6-1,.6h-4.9c-1.3,0-1.9.5-1.9,1.5v1.3c0,1.1.6,1.6,1.8,1.6h5c.7,0,1,.2,1,.5,0,.4-.3.6-1,.6h-5c-1.2,0-1.8.5-1.8,1.6v1.9c0,1,.6,1.5,1.9,1.5ZM168.4,208.4h0c-.2,0-.5.2-.8.6l-.3.4c-.3.4-.6.7-.8.9-.2.2-.4.2-.5.3h-.7c-.2,0-.4,0-.6-.2-.2-.2-.4-.4-.6-.8l-1.4-2.7c-.2-.3-.3-.8-.4-1.3,0-.5-.1-1.1-.1-1.8v-4.8c0-1,.3-1.5,1-1.5.7,0,1,.5,1,1.5v6.2c0,.3,0,.6,0,.9,0,.3.1.5.2.6l.8,1.4c.1.3.2.4.4.4.1,0,.3-.1.5-.4l.8-1.3c.3-.5.4-1.1.4-1.7v-6c0-1,.4-1.5,1.1-1.5.7,0,1,.5,1,1.5v6c0,0,0,.2,0,.4,0,.5.1,1,.4,1.4l.7,1.3c.1.3.3.4.4.4.2,0,.3-.1.5-.4l.7-1.4c0-.3.2-.5.2-.7,0-.2.1-.5.1-.7v-6.2c0-1,.3-1.5,1-1.5.7,0,1,.5,1,1.5v4.8c0,.7,0,1.3-.2,1.8-.1.5-.2.9-.4,1.3l-1.4,2.7c-.5.7-.9,1-1.3,1h-.7c-.1,0-.3,0-.5-.3-.2-.2-.4-.5-.7-.9l-.3-.5c-.3-.4-.5-.6-.7-.6ZM176.5,210.6c-.7,0-1-.5-1-1.5v-10.2c0-.9.3-1.4,1-1.4.7,0,1,.5,1,1.4v10.2c0,1-.3,1.5-1,1.5ZM180.8,207.6c0,1.2.6,1.8,1.7,1.8h4.3c.8,0,1.1.2,1.1.6,0,.4-.4.5-1.1.5h-5.7c-1.6,0-2.4-.7-2.4-2.1v-9.4c0-1,.4-1.5,1.1-1.5.7,0,1.1.5,1.1,1.6v8.5ZM189.8,207.6c0,1.2.6,1.8,1.7,1.8h4.3c.8,0,1.1.2,1.1.6,0,.4-.4.5-1.1.5h-5.7c-1.6,0-2.4-.7-2.4-2.1v-9.4c0-1,.4-1.5,1.1-1.5.7,0,1.1.5,1.1,1.6v8.5ZM208.8,209.2v-3.2c0-1-.6-1.6-1.8-1.6h-2c-1.2,0-1.8.5-1.8,1.6v3.1c0,1-.4,1.5-1.1,1.5s-1-.5-1-1.4v-10.3c0-.9.4-1.4,1.1-1.4.7,0,1.1.5,1.1,1.5v2.6c0,1.1.6,1.6,1.8,1.6h2.1c1.2,0,1.7-.5,1.7-1.6v-2.6c0-1,.4-1.5,1.1-1.5.7,0,1.1.5,1.1,1.4v10.3c0,.9-.4,1.4-1.1,1.4-.7,0-1-.5-1-1.5ZM217.8,198.9h-2c-1.2,0-1.8.6-1.8,1.9v1.1c0,1.2.6,1.8,1.8,1.8h2.1c1.2,0,1.8-.7,1.8-2.2v-1.1c0-1-.6-1.5-1.8-1.5ZM219.6,209v-2.6c0-1-.6-1.5-1.8-1.5h-2c-1.2,0-1.8.5-1.8,1.5v2.7c0,1-.4,1.6-1.1,1.6s-1-.5-1-1.4v-9.3c0-1.4.8-2.2,2.2-2.2h5.2c1.7,0,2.5.7,2.5,2.2v9.2c0,1-.4,1.4-1.1,1.4-.7,0-1-.5-1-1.6ZM227.5,210.6h-.4c-.5,0-1-.2-1.3-.7l-2.8-3.2c-.2-.3-.4-.6-.5-.9,0-.4-.1-.8-.1-1.4v-5.2c0-1,.4-1.5,1.1-1.5.7,0,1.1.5,1.1,1.5v5.5c0,.6.3,1.3,1,2l1.5,1.8c.2,0,.3.2.4.2.2,0,.3,0,.5-.2l1.5-1.6c.3-.4.6-.7.8-1.1s.3-.7.3-1v-5.5c0-1,.4-1.5,1-1.5.7,0,1.1.5,1.1,1.5v5.3c0,1-.3,1.8-.8,2.3l-2.8,3.2c-.2.3-.5.5-.7.6-.2,0-.4.1-.7.1ZM237.3,209.5h4.9c.6,0,1,.2,1,.6,0,.4-.3.5-.9.5h-6.5c-1.6,0-2.4-.7-2.4-2v-8.9c0-1.4.8-2,2.4-2h6.5c.6,0,.9.2.9.6,0,.4-.3.6-1,.6h-4.9c-1.3,0-1.9.5-1.9,1.5v1.3c0,1.1.6,1.6,1.8,1.6h5c.7,0,1,.2,1,.5,0,.4-.3.6-1,.6h-5c-1.2,0-1.8.5-1.8,1.6v1.9c0,1,.6,1.5,1.9,1.5ZM246.6,198.4c0-.4.4-.6,1.1-.6h7.6c.7,0,1.1.2,1.1.6,0,.4-.4.6-1.1.6h-1.1c-1.1,0-1.7.5-1.7,1.6v8.8c0,1-.4,1.6-1.1,1.6-.7,0-1-.5-1-1.6v-8.8c0-1-.6-1.6-1.7-1.6h-1c-.8,0-1.1-.2-1.1-.6ZM260.1,209.6h2.1c1.2,0,1.8-.6,1.8-1.8v-7.1c0-1.1-.6-1.7-1.8-1.7h-2c-1.2,0-1.8.6-1.8,1.7v7.2c0,1.1.6,1.7,1.8,1.7ZM266.1,208.7c0,1.4-.8,2-2.4,2h-5c-1.6,0-2.4-.7-2.4-2.1v-8.7c0-1.4.8-2.1,2.4-2.1h5c1.6,0,2.5.7,2.5,2.1v8.7ZM280.7,199.6c.2.2.4.5.5.8.1.3.2.7.2,1.2v5.3c0,.5,0,.9-.2,1.3-.1.3-.3.6-.5.8l-1,1.1c-.2.2-.5.3-.8.4-.4,0-.8.1-1.2.1h-3.7c-1.6,0-2.4-.8-2.4-2.3v-8.3c0-1.6.8-2.3,2.4-2.3h3.6c1,0,1.6.3,2.1.6l.5.6.6.6ZM275.3,199c-1.2,0-1.8.6-1.8,1.7v7.2c0,1.1.6,1.7,1.8,1.7h.7c.9,0,1.6-.2,2-.5l.4-.4c.5-.5.7-1.1.7-1.9v-5.1c0-.3-.1-.6-.2-.9-.1-.3-.3-.6-.6-.9l-.3-.3c-.2-.2-.5-.4-.8-.5-.3,0-.7-.2-1-.2h-.9ZM286.1,209.6h2.1c1.2,0,1.8-.6,1.8-1.8v-7.1c0-1.1-.6-1.7-1.8-1.7h-2c-1.2,0-1.8.6-1.8,1.7v7.2c0,1.1.6,1.7,1.8,1.7ZM292.1,208.7c0,1.4-.8,2-2.4,2h-5c-1.6,0-2.4-.7-2.4-2.1v-8.7c0-1.4.8-2.1,2.4-2.1h5c1.6,0,2.5.7,2.5,2.1v8.7ZM294.3,210.1c-.8,0-1.1-.3-1.1-1,0-.8.4-1.1,1.1-1.1.8,0,1.1.4,1.1,1.1,0,.7-.4,1-1.1,1ZM302.4,210.8c-.7,0-1-.5-1-1.5v-10.2c0-.9.3-1.4,1-1.4.7,0,1,.5,1,1.4v10.2c0,1-.3,1.5-1,1.5ZM307.2,196.6c0,.7,0,1.2,0,1.6,0,.4-.1.7-.2.9,0,.2-.2.3-.4.4s-.3.1-.4.2c-.2.1-.4.2-.5.2-.1,0-.2,0-.2,0,0,0,0-.1,0-.2,0-.1,0-.1,0-.1,0,0,.1,0,.2,0,.1,0,.2-.2.3-.4.1-.2.2-.5.2-1v-.4s-.2,0-.2,0c-.8,0-1.2-.4-1.2-1.1,0-.8.4-1.2,1.2-1.2.8,0,1.2.4,1.2,1.2ZM314.4,206.4c-.7,0-1-.5-1-1.6,0-.6-.1-1.3-.4-2.1-.3-.8-.7-1.6-1.2-2.4-.2-.3-.3-.5-.5-.6-.2-.1-.3-.2-.4-.2-.2,0-.3.2-.3.5v9.3c0,1-.4,1.4-1.1,1.4-.7,0-1-.5-1-1.4v-9.3c0-1.5.6-2.2,1.8-2.2h.6c.8,0,1.5.5,2.1,1.4l1.5,2.5,1.5-2.5c.3-.4.6-.8.9-1,.3-.3.7-.4,1.2-.4h.6c1.1,0,1.7.7,1.7,2.2v9.3c0,1-.4,1.4-1.1,1.4-.7,0-1-.5-1-1.4v-9.3c0-.3-.2-.5-.3-.5-.2,0-.5.3-.8.8-.5.8-.9,1.6-1.2,2.4-.3.8-.4,1.5-.4,2.1,0,1.1-.4,1.6-1.1,1.6ZM331.6,199.1h-2c-1.2,0-1.8.6-1.8,1.9v1.1c0,1.2.6,1.8,1.8,1.8h2.1c1.2,0,1.8-.7,1.8-2.2v-1.1c0-1-.6-1.5-1.8-1.5ZM333.5,209.2v-2.6c0-1-.6-1.5-1.8-1.5h-2c-1.2,0-1.8.5-1.8,1.5v2.7c0,1-.4,1.6-1.1,1.6-.7,0-1-.5-1-1.4v-9.3c0-1.4.8-2.2,2.2-2.2h5.2c1.7,0,2.5.7,2.5,2.2v9.2c0,1-.4,1.4-1.1,1.4s-1-.5-1-1.6ZM349.6,199.1h-4.9c-1.1,0-1.7.6-1.7,1.7v7.2c0,1.1.6,1.7,1.8,1.7h2.1c1.2,0,1.8-.7,1.8-2.1v-1.7c0-.8-.5-1.2-1.4-1.2h-1.4c-.8,0-1.1-.2-1.1-.6,0-.4.4-.6,1.1-.6h2.7c1.5,0,2.2.6,2.2,1.9v3.4c0,1.3-.8,2-2.5,2h-5c-1.6,0-2.4-.7-2.4-2.1v-8.6c0-1.5.8-2.2,2.5-2.2h6.3c.8,0,1.1.2,1.1.6,0,.4-.4.6-1.2.6ZM358.9,202.8c.4-.4.6-.9.6-1.6v-.7c0-.4-.2-.8-.4-1-.2-.2-.6-.4-1-.4h-2.5c-1.2,0-1.7.7-1.7,2v.8c0,1.3.6,2,1.7,2h.9c.7,0,1.2-.2,1.6-.6l.9-.7ZM360.5,211c-.7,0-1-.4-1-1.3v-2.1c0-.2,0-.3-.2-.5-.1-.2-.3-.4-.5-.6l-.9-.7c-.5-.4-.9-.6-1.3-.6h-1.1c-1.1,0-1.7.6-1.7,1.7v2.7c0,.9-.4,1.4-1.1,1.4s-1-.5-1-1.5v-9.3c0-1.5.8-2.2,2.3-2.2h5c1.7,0,2.6.7,2.6,2.1v2c-.1.6-.5,1.2-1.3,1.8-.3.2-.5.5-.5.8,0,.2.1.5.4.8.8.8,1.2,1.4,1.3,1.9v2.4c0,.9-.4,1.3-1.1,1.3ZM368.3,199.2h-2c-1.2,0-1.8.6-1.8,1.9v1.1c0,1.2.6,1.8,1.8,1.8h2.1c1.2,0,1.8-.7,1.8-2.2v-1.1c0-1-.6-1.5-1.8-1.5ZM370.1,209.3v-2.6c0-1-.6-1.5-1.8-1.5h-2c-1.2,0-1.8.5-1.8,1.5v2.7c0,1-.4,1.6-1.1,1.6s-1-.5-1-1.4v-9.3c0-1.4.8-2.2,2.2-2.2h5.2c1.7,0,2.5.7,2.5,2.2v9.2c0,1-.4,1.4-1.1,1.4-.7,0-1-.5-1-1.6ZM375.2,206.4v3.1c0,1.1-.4,1.6-1.1,1.6-.7,0-1.1-.5-1.1-1.5v-9.3c0-1.5.9-2.2,2.5-2.2h5.2c1.5,0,2.3.7,2.3,2v2.8c0,1.4-.8,2.1-2.3,2.1h-3.8c-1.1,0-1.7.5-1.7,1.4ZM379.1,199.2h-2c-1.2,0-1.8.7-1.8,2v.9c0,1.2.6,1.7,1.8,1.7h2.1c1.2,0,1.8-.7,1.8-2.1v-.9c0-1.1-.6-1.6-1.8-1.6ZM391,209.5v-3.1c0-1-.6-1.6-1.8-1.6h-2c-1.2,0-1.8.5-1.8,1.6v3.2c0,1-.4,1.5-1.1,1.5-.7,0-1-.5-1-1.4v-10.3c0-.9.4-1.4,1.1-1.4.7,0,1.1.5,1.1,1.5v2.6c0,1.1.6,1.6,1.8,1.6h2.1c1.2,0,1.7-.5,1.7-1.6v-2.6c0-1,.4-1.5,1.1-1.5.7,0,1.1.5,1.1,1.4v10.3c0,.9-.4,1.4-1.1,1.4-.7,0-1-.5-1-1.5ZM395.3,211c-.7,0-1-.5-1-1.5v-10.2c0-.9.3-1.4,1-1.4.7,0,1,.5,1,1.4v10.2c0,1-.3,1.5-1,1.5ZM405.3,208.2c0-.2,0-.4.2-.5.2-.1.4-.2.8-.2.7,0,1,.3,1,1v.5c0,1.3-.8,2-2.3,2h-5.4c-1.5,0-2.2-.7-2.2-2.1v-8.6c0-1.5.8-2.2,2.2-2.2h5.4c1.5,0,2.3.7,2.3,2v.5c0,.7-.4,1.1-1.1,1.1-.7,0-1-.2-1-.7,0-1.1-.6-1.7-1.8-1.7h-2c-1.2,0-1.8.5-1.8,1.6v7.5c0,1,.6,1.5,1.8,1.5h2.1c1.2,0,1.8-.5,1.8-1.6ZM59.7,230.6h-2c-1.2,0-1.8.6-1.8,1.9v1.1c0,1.2.6,1.8,1.8,1.8h2.1c1.2,0,1.8-.7,1.8-2.2v-1.1c0-1-.6-1.5-1.8-1.5ZM61.6,240.7v-2.6c0-1-.6-1.5-1.8-1.5h-2c-1.2,0-1.8.5-1.8,1.5v2.7c0,1-.4,1.6-1.1,1.6-.7,0-1-.5-1-1.4v-9.3c0-1.4.8-2.2,2.2-2.2h5.2c1.7,0,2.5.7,2.5,2.2v9.2c0,1-.4,1.4-1.1,1.4-.7,0-1-.5-1-1.6ZM71.5,238.9c.3.6.5.9.6.9.1,0,.2-.2.2-.5v-8c0-1.2.4-1.8,1.1-1.8.7,0,1.1.5,1.1,1.5v9.5c0,1.4-.7,2.2-2,2.2-.6,0-1.1-.5-1.6-1.4l-3.5-8.1c-.3-.4-.4-.6-.5-.6-.1,0-.2.2-.2.7v7.7c0,1.1-.4,1.6-1.1,1.6-.7,0-1.1-.5-1.1-1.4v-9.5c0-1.5.7-2.2,2-2.2.5,0,1,.5,1.6,1.5l3.5,8.1ZM84.5,231.3c.2.2.4.5.5.8.1.3.2.7.2,1.2v5.3c0,.5,0,.9-.2,1.3-.1.3-.3.6-.5.8l-1,1.1c-.2.2-.5.3-.8.4-.4,0-.8.1-1.2.1h-3.7c-1.6,0-2.4-.8-2.4-2.3v-8.3c0-1.6.8-2.3,2.4-2.3h3.6c1,0,1.6.3,2.1.6l.5.6.6.6ZM79.1,230.7c-1.2,0-1.8.6-1.8,1.7v7.2c0,1.1.6,1.7,1.8,1.7h.7c.9,0,1.6-.2,2-.5l.4-.4c.5-.5.7-1.1.7-1.9v-5.1c0-.3-.1-.6-.2-.9s-.3-.6-.6-.9l-.3-.3c-.2-.2-.5-.4-.8-.5-.3,0-.7-.2-1-.2h-.9ZM96.4,238c-.7,0-1-.5-1-1.6,0-.6-.1-1.3-.4-2.1-.3-.8-.7-1.6-1.2-2.4-.2-.3-.3-.5-.5-.6-.2-.1-.3-.2-.4-.2-.2,0-.3.2-.3.5v9.3c0,1-.4,1.4-1.1,1.4-.7,0-1-.5-1-1.4v-9.3c0-1.5.6-2.2,1.8-2.2h.6c.8,0,1.5.5,2.1,1.4l1.5,2.5,1.5-2.5c.3-.4.6-.8.9-1,.3-.3.7-.4,1.2-.4h.6c1.1,0,1.7.7,1.7,2.2v9.3c0,1-.4,1.4-1.1,1.4s-1-.5-1-1.4v-9.3c0-.3-.2-.5-.3-.5-.2,0-.5.3-.8.8-.5.8-.9,1.6-1.2,2.4-.3.8-.4,1.5-.4,2.1,0,1.1-.4,1.6-1.1,1.6ZM107.2,241.3h2.1c1.2,0,1.8-.6,1.8-1.8v-7.1c0-1.1-.6-1.7-1.8-1.7h-2c-1.2,0-1.8.6-1.8,1.7v7.2c0,1.1.6,1.7,1.8,1.7ZM113.2,240.4c0,1.4-.8,2-2.4,2h-5c-1.6,0-2.4-.7-2.4-2.1v-8.7c0-1.4.8-2.1,2.4-2.1h5c1.6,0,2.5.7,2.5,2.1v8.7ZM112.9,230.1c0-.4.4-.6,1.1-.6h7.6c.7,0,1.1.2,1.1.6,0,.4-.4.6-1.1.6h-1.1c-1.1,0-1.7.5-1.7,1.6v8.8c0,1-.4,1.6-1.1,1.6-.7,0-1-.5-1-1.6v-8.8c0-1-.6-1.6-1.7-1.6h-1c-.8,0-1.1-.2-1.1-.6ZM123.8,242.5c-.7,0-1-.5-1-1.5v-10.2c0-.9.3-1.4,1-1.4.7,0,1,.5,1,1.4v10.2c0,1-.3,1.5-1,1.5ZM129.9,241.3h2.1c1.2,0,1.8-.6,1.8-1.8v-7.1c0-1.1-.6-1.7-1.8-1.7h-2c-1.2,0-1.8.6-1.8,1.7v7.2c0,1.1.6,1.7,1.8,1.7ZM135.9,240.4c0,1.4-.8,2-2.4,2h-5c-1.6,0-2.4-.7-2.4-2.1v-8.7c0-1.4.8-2.1,2.5-2.1h5c1.6,0,2.5.7,2.5,2.1v8.7ZM143.7,239c.3.6.5.9.6.9.1,0,.2-.2.2-.5v-8c0-1.2.4-1.8,1.1-1.8.7,0,1.1.5,1.1,1.5v9.5c0,1.4-.7,2.2-2,2.2-.6,0-1.1-.5-1.6-1.4l-3.5-8.1c-.3-.4-.4-.6-.5-.6-.1,0-.2.2-.2.7v7.7c0,1.1-.4,1.6-1.1,1.6-.7,0-1.1-.5-1.1-1.4v-9.5c0-1.5.7-2.2,2-2.2.5,0,1,.5,1.6,1.5l3.5,8.1ZM161.2,231.4c.2.2.4.5.5.8.1.3.2.7.2,1.2v5.3c0,.5,0,.9-.2,1.3-.1.3-.3.6-.5.8l-1,1.1c-.2.2-.5.3-.8.4-.4,0-.8.1-1.2.1h-3.7c-1.6,0-2.4-.8-2.4-2.3v-8.3c0-1.6.8-2.3,2.4-2.3h3.6c1,0,1.6.3,2.1.6l.5.6.6.6ZM155.8,230.8c-1.2,0-1.8.6-1.8,1.7v7.2c0,1.1.6,1.7,1.8,1.7h.7c.9,0,1.6-.2,2-.5l.4-.4c.5-.5.7-1.1.7-1.9v-5.1c0-.3-.1-.6-.2-.9-.1-.3-.3-.6-.6-.9l-.3-.3c-.2-.2-.5-.4-.8-.5-.3,0-.7-.2-1-.2h-.9ZM166.7,241.4h4.9c.6,0,1,.2,1,.6,0,.4-.3.5-.9.5h-6.5c-1.6,0-2.4-.7-2.4-2v-8.9c0-1.4.8-2,2.4-2h6.5c.6,0,.9.2.9.6,0,.4-.3.6-1,.6h-4.9c-1.3,0-1.9.5-1.9,1.5v1.3c0,1.1.6,1.6,1.8,1.6h4.9c.7,0,1,.2,1,.5,0,.4-.3.6-1,.6h-5c-1.2,0-1.8.5-1.8,1.6v1.9c0,1,.6,1.5,1.9,1.5ZM175.2,236.4c-1.7,0-2.6-.7-2.6-2v-2.7c0-1.4.8-2.1,2.4-2.1h6.2c.8,0,1.2.2,1.2.6,0,.4-.4.5-1.2.5h-4.9c-1.1,0-1.7.6-1.7,1.8v.8c0,1.3.5,1.9,1.6,1.9h3.5c1.7,0,2.6.7,2.6,2v3.2c0,1.3-.8,2-2.5,2h-6.2c-.8,0-1.2-.2-1.2-.6,0-.4.4-.5,1.2-.5h5c1.1,0,1.6-.5,1.6-1.6v-1.4c0-1.3-.6-2-1.7-2h-3.5ZM184.7,242.6c-.7,0-1-.5-1-1.5v-10.2c0-.9.3-1.4,1-1.4.7,0,1,.5,1,1.4v10.2c0,1-.3,1.5-1,1.5ZM195.5,230.9h-4.9c-1.1,0-1.7.6-1.7,1.7v7.2c0,1.1.6,1.7,1.8,1.7h2.1c1.2,0,1.8-.7,1.8-2.1v-1.6c0-.8-.5-1.2-1.4-1.2h-1.4c-.8,0-1.1-.2-1.1-.6,0-.4.4-.6,1.1-.6h2.7c1.5,0,2.2.6,2.2,1.9v3.4c0,1.3-.8,2-2.5,2h-5c-1.6,0-2.4-.7-2.4-2.1v-8.6c0-1.5.8-2.2,2.4-2.2h6.3c.8,0,1.1.2,1.1.6,0,.4-.4.6-1.2.6ZM204.6,239.1c.3.6.5.9.6.9.1,0,.2-.2.2-.5v-8c0-1.2.4-1.8,1.1-1.8.7,0,1.1.5,1.1,1.5v9.5c0,1.4-.7,2.2-2,2.2-.6,0-1.1-.5-1.6-1.4l-3.5-8.1c-.3-.4-.4-.6-.5-.6-.1,0-.2.2-.2.7v7.7c0,1.1-.4,1.6-1.1,1.6-.7,0-1.1-.5-1.1-1.4v-9.5c0-1.5.7-2.2,2-2.2.5,0,1,.5,1.6,1.5l3.5,8.1ZM212.4,241.5h4.9c.6,0,1,.2,1,.6,0,.4-.3.5-.9.5h-6.5c-1.6,0-2.4-.7-2.4-2v-8.9c0-1.4.8-2,2.5-2h6.5c.6,0,.9.2.9.6,0,.4-.3.6-1,.6h-4.9c-1.3,0-1.9.5-1.9,1.5v1.3c0,1.1.6,1.6,1.8,1.6h4.9c.7,0,1,.2,1,.5,0,.4-.3.6-1,.6h-5c-1.2,0-1.8.5-1.8,1.6v1.9c0,1,.6,1.5,1.9,1.5ZM225.5,234.5c.4-.4.6-.9.6-1.6v-.7c0-.4-.2-.8-.4-1-.2-.2-.6-.4-1-.4h-2.5c-1.2,0-1.7.7-1.7,2v.8c0,1.3.6,2,1.7,2h.9c.7,0,1.2-.2,1.6-.6l.9-.7ZM227.1,242.7c-.7,0-1-.4-1-1.3v-2.1c0-.2,0-.3-.2-.5-.1-.2-.3-.4-.5-.6l-.9-.7c-.5-.4-.9-.6-1.3-.6h-1.1c-1.1,0-1.7.6-1.7,1.7v2.7c0,.9-.4,1.4-1.1,1.4-.7,0-1-.5-1-1.5v-9.3c0-1.5.8-2.2,2.3-2.2h5c1.7,0,2.6.7,2.6,2.1v2c-.1.6-.5,1.2-1.3,1.8-.3.2-.5.5-.5.7,0,.2.1.5.4.8.8.8,1.2,1.4,1.3,1.9v2.4c0,.9-.4,1.3-1.1,1.3ZM239.5,240.5h0c-.2,0-.5.2-.8.6l-.3.4c-.3.4-.6.7-.8.9-.2.2-.4.3-.5.3h-.7c-.2,0-.4,0-.6-.2-.2-.2-.4-.4-.6-.8l-1.4-2.7c-.2-.3-.3-.8-.4-1.3,0-.5-.1-1.1-.1-1.8v-4.8c0-1,.3-1.5,1-1.5.7,0,1,.5,1,1.5v6.2c0,.3,0,.6,0,.9,0,.3.1.5.2.6l.8,1.4c.1.3.2.4.4.4.1,0,.3-.1.5-.4l.8-1.3c.3-.5.4-1.1.4-1.7v-6c0-1,.4-1.5,1.1-1.5.7,0,1,.5,1,1.5v6c0,0,0,.2,0,.4,0,.5.1,1,.4,1.4l.7,1.3c.1.3.3.4.4.4.2,0,.3-.1.5-.4l.7-1.4c0-.3.2-.5.2-.7,0-.2.1-.5.1-.7v-6.2c0-1,.3-1.5,1-1.5.7,0,1,.5,1,1.5v4.8c0,.7,0,1.3-.2,1.8-.1.5-.2.9-.4,1.3l-1.4,2.7c-.5.7-.9,1-1.3,1h-.7c-.1,0-.3,0-.5-.3-.2-.2-.4-.5-.7-.9l-.3-.4c-.3-.4-.5-.6-.7-.6ZM250.2,241.6h2.1c1.2,0,1.8-.6,1.8-1.8v-7.1c0-1.1-.6-1.7-1.8-1.7h-2c-1.2,0-1.8.6-1.8,1.7v7.2c0,1.1.6,1.7,1.8,1.7ZM256.2,240.6c0,1.4-.8,2-2.4,2h-5c-1.6,0-2.4-.7-2.4-2.1v-8.7c0-1.4.8-2.1,2.4-2.1h5c1.6,0,2.5.7,2.5,2.1v8.7ZM264.2,234.6c.4-.4.6-.9.6-1.6v-.7c0-.4-.2-.8-.4-1-.2-.2-.6-.4-1-.4h-2.5c-1.2,0-1.7.7-1.7,2v.8c0,1.3.6,2,1.7,2h.9c.7,0,1.2-.2,1.6-.6l.9-.7ZM265.8,242.8c-.7,0-1-.4-1-1.3v-2.1c0-.2,0-.3-.2-.5-.1-.2-.3-.4-.5-.6l-.9-.7c-.5-.4-.9-.6-1.3-.6h-1.1c-1.1,0-1.7.6-1.7,1.7v2.7c0,.9-.4,1.4-1.1,1.4-.7,0-1-.5-1-1.5v-9.3c0-1.5.8-2.2,2.3-2.2h5c1.7,0,2.6.7,2.6,2.1v2c-.1.6-.5,1.2-1.3,1.8-.3.2-.5.5-.5.7,0,.2.1.5.4.8.8.8,1.2,1.4,1.3,1.9v2.4c0,.9-.4,1.3-1.1,1.3ZM271,236.9c-.7,0-1.1.5-1.1,1.5v3c0,1.1-.4,1.6-1.1,1.6-.7,0-1.1-.5-1.1-1.5v-10.4c0-1,.4-1.5,1.1-1.5.7,0,1,.5,1,1.6v2.7c0,1,.4,1.6,1.2,1.6.4,0,.9-.4,1.6-1.2l2-3.6c.4-.7.8-1,1.2-1,.3,0,.5.1.6.4.1.2.2.4.2.6,0,.2,0,.4-.1.6l-2.9,4.7c-.2.2-.3.3-.3.5,0,.3,0,.5.2.6l2.8,4.5c.1.3.2.5.2.6,0,.2,0,.4-.3.7-.2.2-.4.3-.6.3-.4,0-.7-.3-1.1-.9l-2.6-4.2c-.2-.3-.4-.5-.6-.7-.2-.2-.3-.3-.4-.3ZM279,242.8c-.7,0-1-.5-1-1.5v-10.2c0-.9.3-1.4,1-1.4.7,0,1,.5,1,1.4v10.2c0,1-.3,1.5-1,1.5ZM288.2,239.3c.3.6.5.9.6.9,0,0,.2-.2.2-.5v-8c0-1.2.4-1.8,1.1-1.8.7,0,1.1.5,1.1,1.5v9.5c0,1.4-.7,2.2-2,2.2-.6,0-1.1-.5-1.6-1.4l-3.5-8.1c-.3-.4-.4-.6-.5-.6-.1,0-.2.2-.2.7v7.7c0,1.1-.4,1.6-1.1,1.6-.7,0-1.1-.5-1.1-1.4v-9.5c0-1.5.7-2.2,2-2.2.5,0,1,.5,1.6,1.5l3.5,8.1ZM300.6,231.1h-4.9c-1.1,0-1.7.6-1.7,1.7v7.2c0,1.1.6,1.7,1.8,1.7h2.1c1.2,0,1.8-.7,1.8-2.1v-1.7c0-.8-.5-1.2-1.4-1.2h-1.4c-.8,0-1.1-.2-1.1-.6,0-.4.4-.6,1.1-.6h2.7c1.5,0,2.2.6,2.2,1.9v3.4c0,1.3-.8,2-2.5,2h-5c-1.6,0-2.4-.7-2.4-2.1v-8.6c0-1.5.8-2.2,2.5-2.2h6.3c.8,0,1.1.2,1.1.6,0,.4-.4.6-1.2.6ZM313,231.1h-2c-1.2,0-1.8.6-1.8,1.9v1.1c0,1.2.6,1.8,1.8,1.8h2.1c1.2,0,1.8-.7,1.8-2.2v-1.1c0-1-.6-1.5-1.8-1.5ZM314.9,241.2v-2.6c0-1-.6-1.5-1.8-1.5h-2c-1.2,0-1.8.5-1.8,1.5v2.7c0,1-.4,1.6-1.1,1.6s-1-.5-1-1.4v-9.3c0-1.4.8-2.2,2.2-2.2h5.2c1.7,0,2.5.7,2.5,2.2v9.2c0,1-.4,1.4-1.1,1.4-.7,0-1-.5-1-1.6ZM325.6,240.1c0-.2,0-.4.2-.5.2-.1.4-.2.8-.2.7,0,1,.3,1,1v.5c0,1.3-.8,2-2.3,2h-5.4c-1.5,0-2.2-.7-2.2-2.1v-8.6c0-1.5.8-2.2,2.2-2.2h5.4c1.5,0,2.3.7,2.3,2v.5c0,.7-.4,1.1-1.1,1.1s-1-.2-1-.7c0-1.1-.6-1.7-1.8-1.7h-2c-1.2,0-1.8.5-1.8,1.6v7.5c0,1,.6,1.5,1.8,1.5h2.1c1.2,0,1.8-.5,1.8-1.6ZM335.8,234.7c.4-.4.6-.9.6-1.6v-.7c0-.4-.2-.8-.4-1-.2-.2-.6-.4-1-.4h-2.5c-1.2,0-1.7.7-1.7,2v.8c0,1.3.6,2,1.7,2h.9c.7,0,1.2-.2,1.6-.6l.9-.7ZM337.4,242.9c-.7,0-1-.4-1-1.3v-2.1c0-.2,0-.3-.2-.5-.1-.2-.3-.4-.5-.6l-.9-.7c-.5-.4-.9-.6-1.3-.6h-1.1c-1.1,0-1.7.6-1.7,1.7v2.7c0,.9-.4,1.4-1.1,1.4-.7,0-1-.5-1-1.5v-9.3c0-1.5.8-2.2,2.3-2.2h5c1.7,0,2.6.7,2.6,2.1v2c-.1.6-.5,1.2-1.3,1.8-.3.2-.5.5-.5.7,0,.2.1.5.4.8.8.8,1.2,1.4,1.3,1.9v2.4c0,.9-.4,1.3-1.1,1.3ZM343.2,241.7h2.1c1.2,0,1.8-.6,1.8-1.8v-7.1c0-1.1-.6-1.7-1.8-1.7h-2c-1.2,0-1.8.6-1.8,1.7v7.2c0,1.1.6,1.7,1.8,1.7ZM349.2,240.8c0,1.4-.8,2-2.4,2h-5c-1.6,0-2.4-.7-2.4-2.1v-8.7c0-1.4.8-2.1,2.4-2.1h5c1.6,0,2.5.7,2.5,2.1v8.7ZM352.6,236.7c-1.7,0-2.6-.7-2.6-2v-2.7c0-1.4.8-2.1,2.4-2.1h6.2c.8,0,1.2.2,1.2.6,0,.4-.4.5-1.2.5h-4.9c-1.1,0-1.7.6-1.7,1.8v.8c0,1.3.5,1.9,1.6,1.9h3.5c1.7,0,2.6.7,2.6,2v3.2c0,1.3-.8,2-2.5,2h-6.2c-.8,0-1.2-.2-1.2-.6,0-.4.4-.5,1.2-.5h4.9c1.1,0,1.6-.5,1.6-1.6v-1.4c0-1.3-.6-2-1.7-2h-3.5ZM363.3,236.8c-1.7,0-2.6-.7-2.6-2v-2.7c0-1.4.8-2.1,2.4-2.1h6.2c.8,0,1.2.2,1.2.6,0,.4-.4.5-1.2.5h-4.9c-1.1,0-1.7.6-1.7,1.8v.8c0,1.3.5,1.9,1.6,1.9h3.5c1.7,0,2.6.7,2.6,2v3.2c0,1.3-.8,2-2.5,2h-6.2c-.8,0-1.2-.2-1.2-.6,0-.4.4-.5,1.2-.5h4.9c1.1,0,1.6-.5,1.6-1.6v-1.4c0-1.3-.6-2-1.7-2h-3.5ZM63.6,270.2v2.1c0,1.4-.8,2-2.5,2h-4.9c-1.6,0-2.4-.7-2.4-2.1v-8.5c0-1.5.8-2.2,2.4-2.2h5c1.7,0,2.5.7,2.5,2.1v1.4c-.1.6-.5,1.2-1.3,1.8-.3.2-.5.5-.5.8,0,.3.1.5.4.8.8.7,1.2,1.4,1.3,1.9ZM60.8,269.4l-.9-.7c-.2-.2-.4-.3-.7-.4-.2-.1-.5-.2-.7-.2h-1c-1.2,0-1.8.7-1.8,2.1v1.3c0,1.1.6,1.6,1.8,1.6h2.4c1,0,1.5-.5,1.5-1.5v-1.3c0-.1,0-.3-.2-.4-.1-.2-.3-.4-.4-.6ZM60.9,265.8c.2-.2.3-.4.5-.6.1-.2.2-.5.2-.8v-.7c0-.8-.5-1.1-1.5-1.1h-2.4c-1.2,0-1.8.7-1.8,2.2v.5c0,1.2.6,1.8,1.7,1.8h1.1c.2,0,.4,0,.7-.1.2,0,.5-.2.7-.4l.9-.7ZM71.7,266.2c.4-.4.6-.9.6-1.6v-.7c0-.4-.2-.8-.4-1-.2-.2-.6-.4-1-.4h-2.5c-1.2,0-1.7.7-1.7,2v.8c0,1.3.6,2,1.7,2h.9c.7,0,1.2-.2,1.6-.6l.9-.7ZM73.3,274.5c-.7,0-1-.4-1-1.3v-2.1c0-.2,0-.3-.2-.5-.1-.2-.3-.4-.5-.6l-.9-.7c-.5-.4-.9-.6-1.3-.6h-1.1c-1.1,0-1.7.6-1.7,1.7v2.7c0,.9-.4,1.4-1.1,1.4-.7,0-1-.5-1-1.5v-9.3c0-1.5.8-2.2,2.3-2.2h5c1.7,0,2.6.7,2.6,2.1v2c-.1.6-.5,1.2-1.3,1.8-.3.2-.5.5-.5.7,0,.2.1.5.4.8.8.8,1.2,1.4,1.3,1.9v2.4c0,.9-.4,1.3-1.1,1.3ZM81.2,262.7h-2c-1.2,0-1.8.6-1.8,1.9v1.1c0,1.2.6,1.8,1.8,1.8h2.1c1.2,0,1.8-.7,1.8-2.2v-1.1c0-1-.6-1.5-1.8-1.5ZM83,272.7v-2.6c0-1-.6-1.5-1.8-1.5h-2c-1.2,0-1.8.5-1.8,1.5v2.7c0,1-.4,1.6-1.1,1.6-.7,0-1-.5-1-1.4v-9.3c0-1.4.8-2.2,2.2-2.2h5.2c1.7,0,2.5.7,2.5,2.2v9.2c0,1-.4,1.4-1.1,1.4-.7,0-1-.5-1-1.6ZM92.9,270.9c.3.6.5.9.6.9.1,0,.2-.2.2-.5v-8c0-1.2.4-1.8,1.1-1.8.7,0,1.1.5,1.1,1.5v9.5c0,1.4-.7,2.2-2,2.2-.6,0-1.1-.5-1.6-1.4l-3.5-8.1c-.3-.4-.4-.6-.5-.6-.1,0-.2.2-.2.7v7.7c0,1.1-.4,1.6-1.1,1.6-.7,0-1.1-.5-1.1-1.4v-9.5c0-1.5.7-2.2,2-2.2.5,0,1,.5,1.6,1.5l3.5,8.1ZM105.9,263.3c.2.2.4.5.5.8.1.3.2.7.2,1.2v5.3c0,.5,0,.9-.2,1.3-.1.3-.3.6-.5.8l-1,1.1c-.2.2-.5.3-.8.4-.4,0-.8.1-1.2.1h-3.7c-1.6,0-2.4-.8-2.4-2.3v-8.2c0-1.6.8-2.3,2.4-2.3h3.6c1,0,1.6.3,2.1.6l.5.6.6.6ZM100.5,262.7c-1.2,0-1.8.6-1.8,1.7v7.2c0,1.1.6,1.7,1.8,1.7h.7c.9,0,1.6-.2,2-.5l.4-.4c.5-.5.7-1.1.7-1.9v-5.1c0-.3-.1-.6-.2-.9-.1-.3-.3-.6-.6-.9l-.3-.3c-.2-.2-.5-.4-.8-.5-.3,0-.7-.2-1-.2h-.9ZM108.7,274.5c-.7,0-1-.5-1-1.5v-10.2c0-.9.3-1.4,1-1.4.7,0,1,.5,1,1.4v10.2c0,1-.3,1.5-1,1.5ZM117.9,270.9c.3.6.5.9.6.9.1,0,.2-.2.2-.5v-8c0-1.2.4-1.8,1.1-1.8.7,0,1.1.5,1.1,1.5v9.5c0,1.4-.7,2.2-2,2.2-.6,0-1.1-.5-1.6-1.4l-3.5-8.1c-.3-.4-.4-.6-.5-.6-.1,0-.2.2-.2.7v7.7c0,1.1-.4,1.6-1.1,1.6-.7,0-1.1-.5-1.1-1.4v-9.5c0-1.5.7-2.2,2-2.2.5,0,1,.5,1.6,1.5l3.5,8.1ZM130.3,262.7h-4.9c-1.1,0-1.7.6-1.7,1.7v7.2c0,1.1.6,1.7,1.8,1.7h2.1c1.2,0,1.8-.7,1.8-2.1v-1.7c0-.8-.5-1.2-1.4-1.2h-1.4c-.8,0-1.1-.2-1.1-.6,0-.4.4-.6,1.1-.6h2.7c1.5,0,2.2.6,2.2,1.9v3.4c0,1.3-.8,2-2.5,2h-5c-1.6,0-2.4-.7-2.4-2.1v-8.6c0-1.5.8-2.2,2.5-2.2h6.3c.8,0,1.1.2,1.1.6,0,.4-.4.6-1.2.6ZM134.9,272.8c0,.8,0,1.4-.1,1.8,0,.4-.2.8-.3,1-.2.2-.3.3-.5.4-.2,0-.4,0-.6,0-.2,0-.4-.1-.4-.3,0,0,0-.1.1-.1,0,0,.2,0,.3-.2,0,0,.2-.2.3-.4.1-.2.2-.4.2-.7v-.4s-.1,0-.1,0c-.8,0-1.1-.4-1.1-1.1,0-.8.4-1.1,1.2-1.1.8,0,1.1.4,1.1,1.1ZM146.5,262.8h-2c-1.2,0-1.8.6-1.8,1.9v1.1c0,1.2.6,1.8,1.8,1.8h2.1c1.2,0,1.8-.7,1.8-2.2v-1.1c0-1-.6-1.5-1.8-1.5ZM148.3,272.9v-2.6c0-1-.6-1.5-1.8-1.5h-2c-1.2,0-1.8.5-1.8,1.5v2.7c0,1-.4,1.6-1.1,1.6-.7,0-1-.5-1-1.4v-9.3c0-1.4.8-2.2,2.2-2.2h5.2c1.7,0,2.5.7,2.5,2.2v9.2c0,1-.4,1.4-1.1,1.4-.7,0-1-.5-1-1.6ZM158.3,271c.3.6.5.9.6.9.1,0,.2-.2.2-.5v-8c0-1.2.4-1.8,1.1-1.8.7,0,1.1.5,1.1,1.5v9.5c0,1.4-.7,2.2-2,2.2-.6,0-1.1-.5-1.6-1.4l-3.5-8.1c-.3-.4-.4-.6-.5-.6-.1,0-.2.2-.2.7v7.7c0,1.1-.4,1.6-1.1,1.6-.7,0-1.1-.5-1.1-1.4v-9.5c0-1.5.7-2.2,2-2.2.5,0,1,.5,1.6,1.5l3.5,8.1ZM163.4,274.6c-.7,0-1-.5-1-1.5v-10.2c0-.9.3-1.4,1-1.4.7,0,1,.5,1,1.4v10.2c0,1-.3,1.5-1,1.5ZM171.5,270.2c-.7,0-1-.5-1-1.6,0-.6-.1-1.3-.4-2.1-.3-.8-.7-1.6-1.2-2.4-.2-.3-.3-.5-.5-.6-.2-.1-.3-.2-.4-.2-.2,0-.3.2-.3.5v9.3c0,1-.4,1.4-1.1,1.4-.7,0-1-.5-1-1.4v-9.3c0-1.5.6-2.2,1.8-2.2h.6c.8,0,1.5.5,2.1,1.4l1.5,2.5,1.5-2.5c.3-.4.6-.8.9-1,.3-.3.7-.4,1.2-.4h.6c1.1,0,1.7.7,1.7,2.2v9.3c0,1-.4,1.4-1.1,1.4-.7,0-1-.5-1-1.4v-9.3c0-.3-.2-.5-.3-.5-.2,0-.5.3-.8.8-.5.8-.9,1.6-1.2,2.4-.3.8-.4,1.5-.4,2.1,0,1.1-.4,1.6-1.1,1.6ZM184.3,262.8h-2c-1.2,0-1.8.6-1.8,1.9v1.1c0,1.2.6,1.8,1.8,1.8h2.1c1.2,0,1.8-.7,1.8-2.2v-1.1c0-1-.6-1.5-1.8-1.5ZM186.1,272.9v-2.6c0-1-.6-1.5-1.8-1.5h-2c-1.2,0-1.8.5-1.8,1.5v2.7c0,1-.4,1.6-1.1,1.6-.7,0-1-.5-1-1.4v-9.3c0-1.4.8-2.2,2.2-2.2h5.2c1.7,0,2.5.7,2.5,2.2v9.2c0,1-.4,1.4-1.1,1.4-.7,0-1-.5-1-1.6ZM188,262.2c0-.4.4-.6,1.1-.6h7.6c.7,0,1.1.2,1.1.6,0,.4-.4.6-1.1.6h-1.1c-1.1,0-1.7.5-1.7,1.6v8.8c0,1-.4,1.6-1.1,1.6-.7,0-1-.5-1-1.6v-8.8c0-1-.6-1.6-1.7-1.6h-1c-.8,0-1.1-.2-1.1-.6ZM198.9,274.6c-.7,0-1-.5-1-1.5v-10.2c0-.9.3-1.4,1-1.4.7,0,1,.5,1,1.4v10.2c0,1-.3,1.5-1,1.5ZM204.9,273.5h2.1c1.2,0,1.8-.6,1.8-1.8v-7.1c0-1.1-.6-1.7-1.8-1.7h-2c-1.2,0-1.8.6-1.8,1.7v7.2c0,1.1.6,1.7,1.8,1.7ZM210.9,272.6c0,1.4-.8,2-2.4,2h-5c-1.6,0-2.4-.7-2.4-2.1v-8.7c0-1.4.8-2.1,2.4-2.1h5c1.6,0,2.5.7,2.5,2.1v8.7ZM218.8,271.1c.3.6.5.9.6.9.1,0,.2-.2.2-.5v-8c0-1.2.4-1.8,1.1-1.8.7,0,1.1.5,1.1,1.5v9.5c0,1.4-.7,2.2-2,2.2-.6,0-1.1-.5-1.6-1.4l-3.5-8.1c-.3-.4-.4-.6-.5-.6-.1,0-.2.2-.2.7v7.7c0,1.1-.4,1.6-1.1,1.6-.7,0-1.1-.5-1.1-1.4v-9.5c0-1.5.7-2.2,2-2.2.5,0,1,.5,1.6,1.5l3.5,8.1ZM225,273c0,.8,0,1.4-.1,1.8,0,.4-.2.8-.3,1-.2.2-.3.3-.5.4-.2,0-.4,0-.6,0-.2,0-.4-.1-.4-.3,0,0,0-.1.1-.1,0,0,.2,0,.3-.2.1,0,.2-.2.3-.4.1-.2.2-.4.2-.7v-.4s-.1,0-.1,0c-.8,0-1.1-.4-1.1-1.1,0-.8.4-1.1,1.2-1.1.8,0,1.1.4,1.1,1.1ZM236.7,262.9h-2c-1.2,0-1.8.6-1.8,1.9v1.1c0,1.2.6,1.8,1.8,1.8h2.1c1.2,0,1.8-.7,1.8-2.2v-1.1c0-1-.6-1.5-1.8-1.5ZM238.5,273v-2.6c0-1-.6-1.5-1.8-1.5h-2c-1.2,0-1.8.5-1.8,1.5v2.7c0,1-.4,1.6-1.1,1.6-.7,0-1-.5-1-1.4v-9.3c0-1.4.8-2.2,2.2-2.2h5.2c1.7,0,2.5.7,2.5,2.2v9.2c0,1-.4,1.4-1.1,1.4-.7,0-1-.5-1-1.6ZM248.5,271.2c.3.6.5.9.6.9.1,0,.2-.2.2-.5v-8c0-1.2.4-1.8,1.1-1.8.7,0,1.1.5,1.1,1.5v9.5c0,1.4-.7,2.2-2,2.2-.6,0-1.1-.5-1.6-1.4l-3.5-8.1c-.3-.4-.4-.6-.5-.6-.1,0-.2.2-.2.7v7.7c0,1.1-.4,1.6-1.1,1.6-.7,0-1.1-.5-1.1-1.4v-9.5c0-1.5.7-2.2,2-2.2.5,0,1,.5,1.6,1.5l3.5,8.1ZM261.4,263.6c.2.2.4.5.5.8.1.3.2.7.2,1.2v5.3c0,.5,0,.9-.2,1.3-.1.3-.3.6-.5.8l-1,1.1c-.2.2-.5.3-.8.4-.4,0-.8.1-1.2.1h-3.7c-1.6,0-2.4-.8-2.4-2.3v-8.3c0-1.6.8-2.3,2.4-2.3h3.6c1,0,1.6.3,2.1.6l.5.6.6.6ZM256.1,263c-1.2,0-1.8.6-1.8,1.7v7.2c0,1.1.6,1.7,1.8,1.7h.7c.9,0,1.6-.2,2-.5l.4-.4c.5-.5.7-1.1.7-1.9v-5.1c0-.3-.1-.6-.2-.9-.1-.3-.3-.6-.6-.9l-.3-.3c-.2-.2-.5-.4-.8-.5-.3,0-.7-.2-1.1-.2h-.9ZM268.7,274.8c-.7,0-1-.5-1-1.5v-10.2c0-.9.3-1.4,1-1.4.7,0,1,.5,1,1.4v10.2c0,1-.3,1.5-1,1.5ZM273,271.8c0,1.2.6,1.8,1.7,1.8h4.3c.8,0,1.1.2,1.1.6,0,.4-.4.5-1.1.5h-5.7c-1.6,0-2.4-.7-2.4-2.1v-9.4c0-1,.4-1.5,1.1-1.5.7,0,1.1.5,1.1,1.6v8.5ZM282,271.8c0,1.2.6,1.8,1.7,1.8h4.3c.8,0,1.1.2,1.1.6,0,.4-.4.5-1.1.5h-5.7c-1.6,0-2.4-.7-2.4-2.1v-9.4c0-1,.4-1.5,1.1-1.5.7,0,1.1.5,1.1,1.6v8.5ZM290.9,263.3v8.8c0,1.1.6,1.6,1.8,1.6h2.1c1.2,0,1.7-.5,1.7-1.6v-8.8c0-1,.4-1.6,1.1-1.6.7,0,1,.5,1,1.5v9.4c0,1.4-.9,2.2-2.5,2.2h-4.9c-1.6,0-2.5-.7-2.5-2.1v-9.4c0-1,.4-1.5,1.1-1.5.7,0,1,.5,1,1.6ZM302.1,268.6c-1.7,0-2.6-.7-2.6-2v-2.7c0-1.4.8-2.1,2.4-2.1h6.2c.8,0,1.2.2,1.2.6,0,.4-.4.5-1.2.5h-4.9c-1.1,0-1.7.6-1.7,1.8v.8c0,1.3.5,1.9,1.6,1.9h3.5c1.7,0,2.6.7,2.6,2v3.2c0,1.3-.8,2-2.5,2h-6.2c-.8,0-1.2-.2-1.2-.6,0-.4.4-.5,1.2-.5h4.9c1.1,0,1.6-.5,1.6-1.6v-1.4c0-1.3-.6-2-1.7-2h-3.5ZM309.2,262.5c0-.4.4-.6,1.1-.6h7.6c.7,0,1.1.2,1.1.6,0,.4-.4.6-1.1.6h-1.1c-1.1,0-1.7.5-1.7,1.6v8.8c0,1-.4,1.6-1.1,1.6-.7,0-1-.5-1-1.6v-8.8c0-1-.6-1.6-1.7-1.6h-1c-.8,0-1.1-.2-1.1-.6ZM326,266.7c.4-.4.6-.9.6-1.6v-.7c0-.4-.2-.8-.4-1-.2-.2-.6-.4-1-.4h-2.5c-1.2,0-1.7.7-1.7,2v.8c0,1.3.6,2,1.7,2h.9c.7,0,1.2-.2,1.6-.6l.9-.7ZM327.6,274.9c-.7,0-1-.4-1-1.3v-2.1c0-.2,0-.3-.2-.5-.1-.2-.3-.4-.5-.6l-.9-.7c-.5-.4-.9-.6-1.3-.6h-1.1c-1.1,0-1.7.6-1.7,1.7v2.7c0,.9-.4,1.4-1.1,1.4-.7,0-1-.5-1-1.5v-9.3c0-1.5.8-2.2,2.3-2.2h5c1.7,0,2.6.7,2.6,2.1v2c-.1.6-.5,1.2-1.3,1.8-.3.2-.5.5-.5.7,0,.2.1.5.4.8.8.8,1.2,1.4,1.3,1.9v2.4c0,.9-.4,1.3-1.1,1.3ZM335.5,263.1h-2c-1.2,0-1.8.6-1.8,1.9v1.1c0,1.2.6,1.8,1.8,1.8h2.1c1.2,0,1.8-.7,1.8-2.2v-1.1c0-1-.6-1.5-1.8-1.5ZM337.3,273.2v-2.6c0-1-.6-1.5-1.8-1.5h-2c-1.2,0-1.8.5-1.8,1.5v2.7c0,1-.4,1.6-1.1,1.6-.7,0-1-.5-1-1.4v-9.3c0-1.4.8-2.2,2.2-2.2h5.2c1.7,0,2.5.7,2.5,2.2v9.2c0,1-.4,1.4-1.1,1.4-.7,0-1-.5-1-1.6ZM339.1,262.5c0-.4.4-.6,1.1-.6h7.6c.7,0,1.1.2,1.1.6,0,.4-.4.6-1.1.6h-1c-1.1,0-1.7.5-1.7,1.6v8.8c0,1-.4,1.6-1.1,1.6-.7,0-1-.5-1-1.6v-8.8c0-1-.6-1.6-1.7-1.6h-1c-.8,0-1.1-.2-1.1-.6ZM350.1,274.9c-.7,0-1-.5-1-1.5v-10.2c0-.9.3-1.4,1-1.4.7,0,1,.5,1,1.4v10.2c0,1-.3,1.5-1,1.5ZM356.1,273.7h2.1c1.2,0,1.8-.6,1.8-1.8v-7.1c0-1.1-.6-1.7-1.8-1.7h-2c-1.2,0-1.8.6-1.8,1.7v7.2c0,1.1.6,1.7,1.8,1.7ZM362.1,272.8c0,1.4-.8,2-2.4,2h-5c-1.6,0-2.4-.7-2.4-2.1v-8.7c0-1.4.8-2.1,2.4-2.1h5c1.6,0,2.5.7,2.5,2.1v8.7ZM370,271.4c.3.6.5.9.6.9,0,0,.2-.2.2-.5v-8c0-1.2.4-1.8,1.1-1.8.7,0,1.1.5,1.1,1.5v9.5c0,1.4-.7,2.2-2,2.2-.6,0-1.1-.5-1.6-1.4l-3.5-8.1c-.3-.4-.4-.6-.5-.6-.1,0-.2.2-.2.7v7.7c0,1.1-.4,1.6-1.1,1.6-.7,0-1.1-.5-1.1-1.4v-9.5c0-1.5.7-2.2,2-2.2.5,0,1,.5,1.6,1.5l3.5,8.1ZM375.1,274.3c-.8,0-1.1-.3-1.1-1,0-.8.4-1.1,1.1-1.1.8,0,1.1.4,1.1,1.1,0,.7-.4,1-1.1,1ZM59.6,302c-.7,0-1-.5-1-1.6,0-.6-.1-1.3-.4-2.1-.3-.8-.7-1.6-1.2-2.4-.2-.3-.3-.5-.5-.6-.2-.1-.3-.2-.4-.2-.2,0-.3.2-.3.5v9.3c0,1-.4,1.4-1.1,1.4-.7,0-1-.5-1-1.4v-9.3c0-1.5.6-2.2,1.8-2.2h.6c.8,0,1.5.5,2.1,1.4l1.5,2.5,1.5-2.5c.3-.4.6-.8.9-1,.3-.3.7-.4,1.2-.4h.6c1.1,0,1.7.7,1.7,2.2v9.3c0,1-.4,1.4-1.1,1.4-.7,0-1-.5-1-1.4v-9.3c0-.3-.2-.5-.3-.5-.2,0-.5.3-.8.8-.5.8-.9,1.6-1.2,2.4-.3.8-.4,1.5-.4,2.1,0,1.1-.4,1.6-1.1,1.6ZM72.6,305.2c1.1,0,1.6-.5,1.6-1.6v-1.7c0-1-.6-1.6-1.7-1.6h-3.7c-1.6,0-2.3-.6-2.3-1.9v-3.9c0-.9.4-1.3,1.1-1.3.7,0,1,.5,1,1.4v3c0,1.1.6,1.6,1.8,1.6h2.1c1.2,0,1.8-.5,1.8-1.6v-3c0-.9.4-1.3,1.1-1.3.7,0,1.1.4,1.1,1.3v9.7c0,1.3-.9,1.9-2.4,1.9h-6.7c-.6,0-.9-.2-.9-.6,0-.4.3-.5.9-.5h5.2ZM87.7,304.2h0c-.2,0-.5.2-.8.6l-.3.4c-.3.4-.6.7-.8.9-.2.2-.4.2-.5.3h-.7c-.2,0-.4,0-.6-.2-.2-.2-.4-.4-.6-.8l-1.4-2.7c-.2-.3-.3-.8-.4-1.3,0-.5-.1-1.1-.1-1.8v-4.8c0-1,.3-1.5,1-1.5.7,0,1,.5,1,1.5v6.2c0,.3,0,.6,0,.9,0,.3.1.5.2.6l.8,1.4c.1.3.2.4.4.4,0,0,.3-.1.5-.4l.8-1.3c.3-.5.4-1.1.4-1.7v-6c0-1,.4-1.5,1.1-1.5.7,0,1,.5,1,1.5v6c0,0,0,.2,0,.4,0,.5.1,1,.4,1.4l.7,1.3c.1.3.3.4.4.4.2,0,.3-.1.5-.4l.7-1.4c0-.3.2-.5.2-.7,0-.2.1-.5.1-.7v-6.2c0-1,.3-1.5,1-1.5.7,0,1,.5,1,1.5v4.8c0,.7,0,1.3-.2,1.8-.1.5-.2.9-.4,1.3l-1.4,2.7c-.5.7-.9,1-1.3,1h-.7c-.1,0-.3,0-.5-.3-.2-.2-.4-.5-.7-.9l-.3-.5c-.3-.4-.5-.6-.7-.6ZM98.4,305.3h2.1c1.2,0,1.8-.6,1.8-1.8v-7.1c0-1.1-.6-1.7-1.8-1.7h-2c-1.2,0-1.8.6-1.8,1.7v7.2c0,1.1.6,1.7,1.8,1.7ZM104.4,304.4c0,1.4-.8,2-2.4,2h-5c-1.6,0-2.4-.7-2.4-2.1v-8.7c0-1.4.8-2.1,2.4-2.1h5c1.6,0,2.5.7,2.5,2.1v8.7ZM112.4,298.3c.4-.4.6-.9.6-1.6v-.7c0-.4-.2-.8-.4-1-.2-.2-.6-.4-1-.4h-2.5c-1.2,0-1.7.7-1.7,2v.8c0,1.3.6,2,1.7,2h.9c.7,0,1.2-.2,1.6-.6l.9-.7ZM114,306.5c-.7,0-1-.4-1-1.3v-2.1c0-.2,0-.3-.2-.5-.1-.2-.3-.4-.5-.6l-.9-.7c-.5-.4-.9-.6-1.3-.6h-1.1c-1.1,0-1.7.6-1.7,1.7v2.7c0,.9-.4,1.4-1.1,1.4-.7,0-1-.5-1-1.5v-9.3c0-1.5.8-2.2,2.3-2.2h5c1.7,0,2.6.7,2.6,2.1v2c-.1.6-.5,1.2-1.3,1.8-.3.2-.5.5-.5.7,0,.2.1.5.4.8.8.8,1.2,1.4,1.3,1.9v2.4c0,.9-.4,1.3-1.1,1.3ZM119.2,300.6c-.7,0-1.1.5-1.1,1.5v3c0,1.1-.4,1.6-1.1,1.6-.7,0-1.1-.5-1.1-1.5v-10.4c0-1,.4-1.5,1.1-1.5.7,0,1,.5,1,1.6v2.7c0,1,.4,1.6,1.2,1.6.4,0,.9-.4,1.6-1.2l2-3.6c.4-.7.8-1,1.2-1,.3,0,.5.1.6.4.1.2.2.4.2.6,0,.2,0,.4-.1.6l-2.9,4.7c-.2.2-.3.3-.3.5,0,.3,0,.5.2.6l2.8,4.5c.1.3.2.5.2.6,0,.2,0,.4-.3.7-.2.2-.4.3-.6.3-.4,0-.7-.3-1.1-.9l-2.6-4.2c-.2-.3-.4-.5-.6-.7-.2-.2-.3-.3-.4-.3ZM140.2,302.4v2.1c0,1.4-.8,2-2.5,2h-5c-1.6,0-2.4-.7-2.4-2.1v-8.6c0-1.5.8-2.2,2.5-2.2h4.9c1.7,0,2.5.7,2.5,2.1v1.4c-.1.6-.5,1.2-1.3,1.8-.3.2-.5.5-.5.8,0,.3.1.5.4.8.8.7,1.2,1.4,1.3,1.9ZM137.4,301.5l-.9-.7c-.2-.2-.4-.3-.7-.4-.2-.1-.5-.2-.7-.2h-1c-1.2,0-1.8.7-1.8,2.1v1.3c0,1.1.6,1.6,1.8,1.6h2.4c1,0,1.5-.5,1.5-1.5v-1.3c0-.1,0-.3-.2-.5-.1-.2-.3-.4-.4-.6ZM137.5,298c.2-.2.3-.4.5-.6.1-.2.2-.5.2-.8v-.7c0-.8-.5-1.1-1.5-1.1h-2.4c-1.2,0-1.8.7-1.8,2.2v.5c0,1.2.6,1.8,1.7,1.8h1.1c.2,0,.4,0,.7-.1.2,0,.5-.2.7-.4l.9-.7ZM143.2,303.5c0,1.2.6,1.8,1.7,1.8h4.3c.8,0,1.1.2,1.1.6,0,.4-.4.5-1.1.5h-5.7c-1.6,0-2.4-.7-2.4-2.1v-9.4c0-1,.4-1.5,1.1-1.5.7,0,1.1.5,1.1,1.6v8.5ZM154.1,305.4h4.9c.6,0,1,.2,1,.6,0,.4-.3.5-.9.5h-6.5c-1.6,0-2.4-.7-2.4-2v-8.8c0-1.4.8-2,2.4-2h6.5c.6,0,.9.2.9.6,0,.4-.3.6-1,.6h-4.9c-1.3,0-1.9.5-1.9,1.5v1.3c0,1.1.6,1.6,1.8,1.6h5c.7,0,1,.2,1,.5,0,.4-.3.6-1,.6h-5c-1.2,0-1.8.5-1.8,1.6v1.9c0,1,.6,1.5,1.9,1.5ZM167,303c.3.6.5.9.6.9,0,0,.2-.2.2-.5v-8c0-1.2.4-1.8,1.1-1.8.7,0,1.1.5,1.1,1.5v9.5c0,1.4-.7,2.2-2,2.2-.6,0-1.1-.5-1.6-1.4l-3.5-8.1c-.3-.4-.4-.6-.5-.6-.1,0-.2.2-.2.7v7.7c0,1.1-.4,1.6-1.1,1.6-.7,0-1.1-.5-1.1-1.4v-9.5c0-1.5.7-2.2,2-2.2.5,0,1,.5,1.6,1.5l3.5,8.1ZM179.9,295.5c.2.2.4.5.5.8.1.3.2.7.2,1.2v5.3c0,.5,0,.9-.2,1.3-.1.3-.3.6-.5.8l-1,1.1c-.2.2-.5.3-.8.4-.4,0-.8.1-1.2.1h-3.7c-1.6,0-2.4-.8-2.4-2.3v-8.3c0-1.6.8-2.3,2.4-2.3h3.6c1,0,1.6.3,2.1.6l.5.6.6.6ZM174.6,294.8c-1.2,0-1.8.6-1.8,1.7v7.2c0,1.1.6,1.7,1.8,1.7h.7c.9,0,1.6-.2,2-.5l.4-.4c.5-.5.7-1.1.7-1.9v-5.1c0-.3-.1-.6-.2-.9-.1-.3-.3-.6-.6-.9l-.3-.3c-.2-.2-.5-.4-.8-.5-.3,0-.7-.2-1-.2h-.9ZM184,300.4c-1.7,0-2.6-.7-2.6-2v-2.7c0-1.4.8-2.1,2.4-2.1h6.2c.8,0,1.2.2,1.2.6,0,.4-.4.5-1.2.5h-4.9c-1.1,0-1.7.6-1.7,1.8v.8c0,1.3.5,1.9,1.6,1.9h3.5c1.7,0,2.6.7,2.6,2v3.2c0,1.3-.8,2-2.5,2h-6.2c-.8,0-1.2-.2-1.2-.6,0-.4.4-.5,1.2-.5h4.9c1.1,0,1.6-.5,1.6-1.6v-1.4c0-1.3-.6-2-1.7-2h-3.5ZM204.4,303.8c0-.2,0-.4.2-.5.2-.1.4-.2.8-.2.7,0,1,.3,1,1v.5c0,1.3-.8,2-2.3,2h-5.4c-1.5,0-2.2-.7-2.2-2.1v-8.6c0-1.5.8-2.2,2.2-2.2h5.4c1.5,0,2.3.7,2.3,2v.5c0,.7-.4,1.1-1.1,1.1-.7,0-1.1-.2-1-.7,0-1.1-.6-1.7-1.8-1.7h-2c-1.2,0-1.8.5-1.8,1.6v7.5c0,1,.6,1.5,1.8,1.5h2.1c1.2,0,1.8-.5,1.8-1.6ZM214.6,298.5c.4-.4.6-.9.6-1.6v-.7c0-.4-.2-.8-.4-1-.2-.2-.6-.4-1-.4h-2.5c-1.2,0-1.7.7-1.7,2v.8c0,1.3.6,2,1.7,2h.9c.7,0,1.2-.2,1.6-.6l.9-.7ZM216.2,306.7c-.7,0-1-.4-1-1.3v-2.1c0-.2,0-.3-.2-.5-.1-.2-.3-.4-.5-.6l-.9-.7c-.5-.4-.9-.6-1.3-.6h-1.1c-1.1,0-1.7.6-1.7,1.7v2.7c0,.9-.4,1.4-1.1,1.4-.7,0-1-.5-1-1.5v-9.3c0-1.5.8-2.2,2.3-2.2h5c1.7,0,2.6.7,2.6,2.1v2c-.1.6-.5,1.2-1.3,1.8-.3.2-.5.5-.5.7,0,.2.1.5.4.8.8.8,1.2,1.4,1.3,1.9v2.4c0,.9-.4,1.3-1.1,1.3ZM222.1,305.5h4.9c.6,0,1,.2,1,.6,0,.4-.3.5-.9.5h-6.5c-1.6,0-2.4-.7-2.4-2v-8.9c0-1.4.8-2,2.4-2h6.5c.6,0,.9.2.9.6,0,.4-.3.6-1,.6h-4.9c-1.3,0-1.9.5-1.9,1.5v1.3c0,1.1.6,1.6,1.8,1.6h4.9c.7,0,1,.2,1,.5,0,.4-.3.6-1,.6h-5c-1.2,0-1.8.5-1.8,1.6v1.9c0,1,.6,1.5,1.9,1.5ZM234,294.9h-2c-1.2,0-1.8.6-1.8,1.9v1.1c0,1.2.6,1.8,1.8,1.8h2.1c1.2,0,1.8-.7,1.8-2.2v-1.1c0-1-.6-1.5-1.8-1.5ZM235.8,305v-2.6c0-1-.6-1.5-1.8-1.5h-2c-1.2,0-1.8.5-1.8,1.5v2.7c0,1-.4,1.6-1.1,1.6-.7,0-1-.5-1-1.4v-9.3c0-1.4.8-2.2,2.2-2.2h5.2c1.7,0,2.5.7,2.5,2.2v9.2c0,1-.4,1.4-1.1,1.4-.7,0-1-.5-1-1.6ZM237.7,294.3c0-.4.4-.6,1.1-.6h7.6c.7,0,1.1.2,1.1.6,0,.4-.4.6-1.1.6h-1.1c-1.1,0-1.7.5-1.7,1.6v8.8c0,1-.4,1.6-1.1,1.6-.7,0-1-.5-1-1.6v-8.8c0-1-.6-1.6-1.7-1.6h-1c-.8,0-1.1-.2-1.1-.6ZM248.6,306.7c-.7,0-1-.5-1-1.5v-10.2c0-.9.3-1.4,1-1.4.7,0,1,.5,1,1.4v10.2c0,1-.3,1.5-1,1.5ZM255.7,306.7h-.4c-.5,0-1-.2-1.3-.7l-2.8-3.2c-.2-.3-.4-.6-.5-.9,0-.4-.1-.8-.1-1.4v-5.2c0-1,.4-1.5,1.1-1.5.7,0,1.1.5,1.1,1.5v5.5c0,.6.3,1.3,1,2l1.5,1.8c.2.1.3.2.4.2.2,0,.3,0,.5-.2l1.5-1.6c.3-.4.6-.7.8-1.1s.3-.7.3-1v-5.5c0-1,.4-1.5,1-1.5.7,0,1.1.5,1.1,1.5v5.3c0,1-.3,1.8-.8,2.3l-2.8,3.2c-.2.3-.5.5-.7.6-.2.1-.5.1-.7.1ZM262.8,306.7c-.7,0-1-.5-1-1.5v-10.2c0-.9.3-1.4,1-1.4.7,0,1,.5,1,1.4v10.2c0,1-.3,1.5-1,1.5ZM263.9,294.4c0-.4.4-.6,1.1-.6h7.6c.7,0,1.1.2,1.1.6,0,.4-.4.6-1.1.6h-1c-1.1,0-1.7.5-1.7,1.6v8.8c0,1-.4,1.6-1.1,1.6-.7,0-1-.5-1-1.6v-8.8c0-1-.6-1.6-1.7-1.6h-1c-.8,0-1.1-.2-1.1-.6ZM279.7,305.6c1.1,0,1.6-.5,1.6-1.6v-1.7c0-1-.6-1.6-1.7-1.6h-3.7c-1.6,0-2.3-.6-2.3-1.9v-3.9c0-.9.4-1.3,1.1-1.3.7,0,1,.5,1,1.4v3c0,1.1.6,1.6,1.8,1.6h2.1c1.2,0,1.8-.5,1.8-1.6v-3c0-.9.4-1.3,1.1-1.3.7,0,1.1.4,1.1,1.3v9.7c0,1.3-.9,1.9-2.4,1.9h-6.7c-.6,0-.9-.2-.9-.6,0-.4.3-.5.9-.5h5.2ZM294.7,304.6h0c-.2,0-.5.2-.8.6l-.3.4c-.3.4-.6.7-.8.9-.2.2-.4.2-.5.3h-.7c-.2,0-.4,0-.6-.2-.2-.2-.4-.4-.6-.8l-1.4-2.7c-.2-.3-.3-.8-.4-1.3,0-.5-.1-1.1-.1-1.8v-4.8c0-1,.3-1.5,1-1.5.7,0,1,.5,1,1.5v6.2c0,.3,0,.6,0,.9,0,.3.1.5.2.6l.8,1.4c.1.3.2.4.4.4.1,0,.3-.1.5-.4l.8-1.3c.3-.5.4-1.1.4-1.7v-6c0-1,.4-1.5,1.1-1.5.7,0,1,.5,1,1.5v6c0,.1,0,.2,0,.4,0,.5.1,1,.4,1.4l.7,1.3c.1.3.3.4.4.4.2,0,.3-.1.5-.4l.7-1.4c0-.3.2-.5.2-.7,0-.2.1-.5.1-.7v-6.2c0-1,.3-1.5,1-1.5.7,0,1,.5,1,1.5v4.8c0,.7,0,1.3-.2,1.8-.1.5-.2.9-.4,1.3l-1.4,2.7c-.5.7-.9,1-1.3,1h-.7c-.1,0-.3,0-.5-.3-.2-.2-.4-.5-.7-.9l-.3-.4c-.3-.4-.5-.6-.7-.6ZM302.8,306.8c-.7,0-1-.5-1-1.5v-10.2c0-.9.3-1.4,1-1.4.7,0,1,.5,1,1.4v10.2c0,1-.3,1.5-1,1.5ZM303.9,294.5c0-.4.4-.6,1.1-.6h7.6c.7,0,1.1.2,1.1.6,0,.4-.4.6-1.1.6h-1.1c-1.1,0-1.7.5-1.7,1.6v8.8c0,1-.4,1.6-1.1,1.6-.7,0-1-.5-1-1.6v-8.8c0-1-.6-1.6-1.7-1.6h-1c-.8,0-1.1-.2-1.1-.6ZM321.2,305.4v-3.1c0-1-.6-1.6-1.8-1.6h-2c-1.2,0-1.8.5-1.8,1.6v3.2c0,1-.4,1.5-1.1,1.5-.7,0-1-.5-1-1.4v-10.3c0-.9.4-1.4,1.1-1.4.7,0,1.1.5,1.1,1.5v2.6c0,1.1.6,1.6,1.8,1.6h2.1c1.2,0,1.7-.5,1.7-1.6v-2.6c0-1,.4-1.5,1.1-1.5.7,0,1.1.5,1.1,1.4v10.3c0,.9-.4,1.4-1.1,1.4-.7,0-1-.5-1-1.5ZM330.9,302.3v3.1c0,1.1-.4,1.6-1.1,1.6-.7,0-1.1-.5-1.1-1.5v-9.3c0-1.5.9-2.2,2.5-2.2h5.2c1.5,0,2.3.7,2.3,2v2.8c0,1.4-.8,2.1-2.3,2.1h-3.7c-1.1,0-1.7.5-1.7,1.4ZM334.7,295.1h-2c-1.2,0-1.8.7-1.8,2v.9c0,1.2.6,1.7,1.8,1.7h2.1c1.2,0,1.8-.7,1.8-2.1v-.9c0-1.1-.6-1.6-1.8-1.6ZM346.1,298.7c.4-.4.6-.9.6-1.6v-.7c0-.4-.2-.8-.4-1-.2-.2-.6-.4-1-.4h-2.5c-1.2,0-1.7.7-1.7,2v.8c0,1.3.6,2,1.7,2h.9c.7,0,1.2-.2,1.6-.6l.9-.7ZM347.7,307c-.7,0-1-.4-1-1.3v-2.1c0-.2,0-.3-.2-.5-.1-.2-.3-.4-.5-.6l-.9-.7c-.5-.4-.9-.6-1.3-.6h-1.1c-1.1,0-1.7.6-1.7,1.7v2.7c0,.9-.4,1.4-1.1,1.4-.7,0-1-.5-1-1.5v-9.3c0-1.5.8-2.2,2.3-2.2h5c1.7,0,2.6.7,2.6,2.1v2c-.1.6-.5,1.2-1.3,1.8-.3.2-.5.5-.5.7,0,.2.1.5.4.8.8.8,1.2,1.4,1.3,1.9v2.4c0,.9-.4,1.3-1.1,1.3ZM353.7,305.7h4.9c.6,0,1,.2,1,.6,0,.4-.3.5-.9.5h-6.5c-1.6,0-2.4-.7-2.4-2v-8.9c0-1.4.8-2,2.4-2h6.5c.6,0,.9.2.9.6,0,.4-.3.6-1,.6h-4.9c-1.3,0-1.9.5-1.9,1.5v1.3c0,1.1.6,1.6,1.8,1.6h4.9c.7,0,1,.2,1,.5,0,.4-.3.6-1,.6h-5c-1.2,0-1.8.5-1.8,1.6v1.9c0,1,.6,1.5,1.9,1.5ZM367.3,304.1c0-.2,0-.4.2-.5.2-.1.4-.2.8-.2.7,0,1,.3,1,1v.5c0,1.3-.8,2-2.3,2h-5.4c-1.5,0-2.2-.7-2.2-2.1v-8.6c0-1.5.8-2.2,2.2-2.2h5.4c1.5,0,2.3.7,2.3,2v.5c0,.7-.4,1.1-1.1,1.1-.7,0-1.1-.2-1-.7,0-1.1-.6-1.7-1.8-1.7h-2c-1.2,0-1.8.5-1.8,1.6v7.5c0,1,.6,1.5,1.8,1.5h2.1c1.2,0,1.8-.5,1.8-1.6ZM371.6,306.9c-.7,0-1-.5-1-1.5v-10.2c0-.9.3-1.4,1-1.4.7,0,1,.5,1,1.4v10.2c0,1-.3,1.5-1,1.5ZM376.4,300.8c-1.7,0-2.6-.7-2.6-2v-2.7c0-1.4.8-2.1,2.4-2.1h6.2c.8,0,1.2.2,1.2.6,0,.4-.4.5-1.2.5h-4.9c-1.1,0-1.7.6-1.7,1.8v.8c0,1.3.5,1.9,1.6,1.9h3.5c1.7,0,2.6.7,2.6,2v3.2c0,1.3-.8,2-2.5,2h-6.2c-.8,0-1.2-.2-1.2-.6,0-.4.4-.5,1.2-.5h4.9c1.1,0,1.6-.5,1.6-1.6v-1.4c0-1.3-.6-2-1.7-2h-3.5ZM385.8,307c-.7,0-1-.5-1-1.5v-10.2c0-.9.3-1.4,1-1.4.7,0,1,.5,1,1.4v10.2c0,1-.3,1.5-1,1.5ZM391.9,305.8h2.1c1.2,0,1.8-.6,1.8-1.8v-7.1c0-1.1-.6-1.7-1.8-1.7h-2c-1.2,0-1.8.6-1.8,1.7v7.2c0,1.1.6,1.7,1.8,1.7ZM397.9,304.9c0,1.4-.8,2-2.4,2h-5c-1.6,0-2.4-.7-2.4-2.1v-8.7c0-1.4.8-2.1,2.4-2.1h5c1.6,0,2.5.7,2.5,2.1v8.7ZM405.8,303.5c.3.6.5.9.6.9.1,0,.2-.2.2-.5v-8c0-1.2.4-1.8,1.1-1.8.7,0,1.1.5,1.1,1.5v9.5c0,1.4-.7,2.2-2,2.2-.6,0-1.1-.5-1.6-1.4l-3.5-8.1c-.3-.4-.4-.6-.5-.6-.1,0-.2.2-.2.7v7.7c0,1.1-.4,1.6-1.1,1.6-.7,0-1.1-.5-1.1-1.4v-9.5c0-1.5.7-2.2,2-2.2.5,0,1,.5,1.6,1.5l3.5,8.1ZM412,305.3c0,.8,0,1.4-.1,1.8,0,.4-.2.8-.3,1-.2.2-.3.3-.5.4-.2,0-.4,0-.6,0-.2,0-.4-.1-.4-.3,0,0,0-.1.1-.1,0,0,.2,0,.3-.2.1,0,.2-.2.3-.4.1-.2.2-.4.2-.7v-.4s-.1,0-.1,0c-.8,0-1.1-.4-1.1-1.1,0-.8.4-1.1,1.2-1.1.8,0,1.1.4,1.1,1.1ZM52.5,326c0-.4.4-.6,1.1-.6h7.7c.7,0,1.1.2,1.1.6,0,.4-.4.6-1.1.6h-1c-1.1,0-1.7.5-1.7,1.6v8.8c0,1-.4,1.6-1.1,1.6-.7,0-1-.5-1-1.6v-8.8c0-1-.6-1.6-1.7-1.6h-1c-.8,0-1.1-.2-1.1-.6ZM64.2,326.9v8.8c0,1.1.6,1.6,1.8,1.6h2.1c1.2,0,1.7-.5,1.7-1.6v-8.8c0-1,.4-1.6,1.1-1.6.7,0,1,.5,1,1.5v9.4c0,1.4-.9,2.2-2.5,2.2h-4.9c-1.6,0-2.5-.7-2.5-2.1v-9.4c0-1,.4-1.5,1.1-1.5.7,0,1,.5,1,1.6ZM80.1,330.3c.4-.4.6-.9.6-1.6v-.7c0-.4-.2-.8-.4-1-.2-.2-.6-.4-1-.4h-2.5c-1.2,0-1.7.7-1.7,2v.8c0,1.3.6,2,1.7,2h.9c.7,0,1.2-.2,1.6-.6l.9-.7ZM81.7,338.5c-.7,0-1-.4-1-1.3v-2.1c0-.2,0-.3-.2-.5-.1-.2-.3-.4-.5-.6l-.9-.7c-.5-.4-.9-.6-1.3-.6h-1.1c-1.1,0-1.7.6-1.7,1.7v2.7c0,.9-.4,1.4-1.1,1.4-.7,0-1-.5-1-1.5v-9.3c0-1.5.8-2.2,2.3-2.2h5c1.7,0,2.6.7,2.6,2.1v2c-.1.6-.5,1.2-1.3,1.8-.3.2-.5.5-.5.8,0,.2.1.5.4.8.8.8,1.2,1.4,1.3,1.9v2.4c0,.9-.4,1.3-1.1,1.3ZM90.6,334.9c.3.6.5.9.6.9,0,0,.2-.2.2-.5v-8c0-1.2.4-1.8,1.1-1.8.7,0,1.1.5,1.1,1.5v9.5c0,1.4-.7,2.2-2,2.2-.6,0-1.1-.5-1.6-1.4l-3.5-8.1c-.3-.4-.4-.6-.5-.6-.1,0-.2.2-.2.7v7.7c0,1.1-.4,1.6-1.1,1.6-.7,0-1.1-.5-1.1-1.4v-9.5c0-1.5.7-2.2,2-2.2.5,0,1,.5,1.6,1.5l3.5,8.1ZM95.6,338.4c-.7,0-1-.5-1-1.5v-10.2c0-.9.3-1.4,1-1.4.7,0,1,.5,1,1.4v10.2c0,1-.3,1.5-1,1.5ZM104.8,334.9c.3.6.5.9.6.9.1,0,.2-.2.2-.5v-8c0-1.2.4-1.8,1.1-1.8.7,0,1.1.5,1.1,1.5v9.5c0,1.4-.7,2.2-2,2.2-.6,0-1.1-.5-1.6-1.4l-3.5-8.1c-.3-.4-.4-.6-.5-.6-.1,0-.2.2-.2.7v7.7c0,1.1-.4,1.6-1.1,1.6-.7,0-1.1-.5-1.1-1.4v-9.5c0-1.5.7-2.2,2-2.2.5,0,1,.5,1.6,1.5l3.5,8.1ZM117.2,326.7h-4.9c-1.1,0-1.7.6-1.7,1.7v7.2c0,1.1.6,1.7,1.8,1.7h2.1c1.2,0,1.8-.7,1.8-2.1v-1.7c0-.8-.5-1.2-1.4-1.2h-1.4c-.8,0-1.1-.2-1.1-.6,0-.4.4-.6,1.1-.6h2.7c1.5,0,2.2.6,2.2,1.9v3.4c0,1.3-.8,2-2.5,2h-5c-1.6,0-2.4-.7-2.4-2.1v-8.6c0-1.5.8-2.2,2.5-2.2h6.3c.8,0,1.1.2,1.1.6,0,.4-.4.6-1.2.6ZM125.1,338.5c-.7,0-1-.5-1-1.5v-10.2c0-.9.3-1.4,1-1.4.7,0,1,.5,1,1.4v10.2c0,1-.3,1.5-1,1.5ZM136.5,327.4c.2.2.4.5.5.8.1.3.2.7.2,1.2v5.3c0,.5,0,.9-.2,1.3-.1.3-.3.6-.5.8l-1,1.1c-.2.2-.5.3-.8.4-.4,0-.8.1-1.2.1h-3.7c-1.6,0-2.4-.8-2.4-2.3v-8.3c0-1.6.8-2.3,2.4-2.3h3.6c1,0,1.7.3,2.1.6l.5.6.6.6ZM131.2,326.7c-1.2,0-1.8.6-1.8,1.7v7.2c0,1.1.6,1.7,1.8,1.7h.7c.9,0,1.6-.2,2-.5l.4-.4c.5-.5.7-1.1.7-1.9v-5.1c0-.3-.1-.6-.2-.9-.1-.3-.3-.6-.6-.9l-.3-.3c-.2-.2-.5-.4-.8-.5-.3,0-.7-.2-1.1-.2h-.9ZM142,337.4h4.9c.6,0,1,.2,1,.6,0,.4-.3.5-.9.5h-6.5c-1.6,0-2.4-.7-2.4-2v-8.9c0-1.4.8-2,2.5-2h6.5c.6,0,.9.2.9.6,0,.4-.3.6-1,.6h-4.9c-1.3,0-1.9.5-1.9,1.5v1.3c0,1.1.6,1.6,1.8,1.6h4.9c.7,0,1,.2,1,.5,0,.4-.3.6-1,.6h-5c-1.2,0-1.8.5-1.8,1.6v1.9c0,1,.6,1.5,1.9,1.5ZM153.9,326.8h-2c-1.2,0-1.8.6-1.8,1.9v1.1c0,1.2.6,1.8,1.8,1.8h2.1c1.2,0,1.8-.7,1.8-2.2v-1.1c0-1-.6-1.5-1.8-1.5ZM155.7,336.9v-2.6c0-1-.6-1.5-1.8-1.5h-2c-1.2,0-1.8.5-1.8,1.5v2.7c0,1-.4,1.6-1.1,1.6-.7,0-1-.5-1-1.4v-9.3c0-1.4.8-2.2,2.2-2.2h5.2c1.7,0,2.5.7,2.5,2.2v9.2c0,1-.4,1.4-1.1,1.4-.7,0-1-.5-1-1.6ZM161.3,332.4c-1.7,0-2.6-.7-2.6-2v-2.7c0-1.4.8-2.1,2.4-2.1h6.2c.8,0,1.2.2,1.2.6,0,.4-.4.5-1.2.5h-4.9c-1.1,0-1.7.6-1.7,1.8v.8c0,1.3.5,1.9,1.6,1.9h3.5c1.7,0,2.6.7,2.6,2v3.2c0,1.3-.8,2-2.5,2h-6.2c-.8,0-1.2-.2-1.2-.6,0-.4.4-.5,1.2-.5h4.9c1.1,0,1.6-.5,1.6-1.6v-1.4c0-1.3-.6-2-1.7-2h-3.5ZM175.2,338.6c-.7,0-1-.5-1-1.5v-10.2c0-.9.3-1.4,1-1.4.7,0,1,.5,1,1.4v10.2c0,1-.3,1.5-1,1.5ZM184.4,335.1c.3.6.5.9.6.9.1,0,.2-.2.2-.5v-8c0-1.2.4-1.8,1.1-1.8.7,0,1.1.5,1.1,1.5v9.5c0,1.4-.7,2.2-2,2.2-.6,0-1.1-.5-1.6-1.4l-3.5-8.1c-.3-.4-.4-.6-.5-.6-.1,0-.2.2-.2.7v7.7c0,1.1-.4,1.6-1.1,1.6-.7,0-1.1-.5-1.1-1.4v-9.5c0-1.5.7-2.2,2-2.2.5,0,1,.5,1.6,1.5l3.5,8.1ZM187,326.2c0-.4.4-.6,1.1-.6h7.6c.7,0,1.1.2,1.1.6,0,.4-.4.6-1.1.6h-1.1c-1.1,0-1.7.5-1.7,1.6v8.8c0,1-.4,1.6-1.1,1.6-.7,0-1-.5-1-1.6v-8.8c0-1-.6-1.6-1.7-1.6h-1c-.8,0-1.1-.2-1.1-.6ZM200.5,337.5h2.1c1.2,0,1.8-.6,1.8-1.8v-7.1c0-1.1-.6-1.7-1.8-1.7h-2c-1.2,0-1.8.6-1.8,1.7v7.2c0,1.1.6,1.7,1.8,1.7ZM206.5,336.5c0,1.4-.8,2-2.4,2h-5c-1.6,0-2.4-.7-2.4-2.1v-8.7c0-1.4.8-2.1,2.4-2.1h5c1.6,0,2.5.7,2.5,2.1v8.7ZM216.8,338.6h-.4c-.5,0-1-.2-1.3-.7l-2.8-3.2c-.2-.3-.4-.6-.5-.9,0-.4-.1-.8-.1-1.4v-5.2c0-1,.4-1.5,1.1-1.5.7,0,1.1.5,1.1,1.5v5.5c0,.6.3,1.3,1,2l1.5,1.8c.2,0,.3.2.4.2.2,0,.3,0,.5-.2l1.5-1.6c.3-.4.6-.7.8-1.1.2-.4.3-.7.3-1v-5.5c0-1,.4-1.5,1-1.5.7,0,1.1.5,1.1,1.5v5.3c0,1-.3,1.8-.8,2.3l-2.8,3.2c-.2.3-.5.5-.7.6-.2,0-.4.1-.7.1ZM223.9,338.7c-.7,0-1-.5-1-1.5v-10.2c0-.9.3-1.4,1-1.4.7,0,1,.5,1,1.4v10.2c0,1-.3,1.5-1,1.5ZM228.7,332.5c-1.7,0-2.6-.7-2.6-2v-2.7c0-1.4.8-2.1,2.4-2.1h6.2c.8,0,1.2.2,1.2.6,0,.4-.4.5-1.2.5h-4.9c-1.1,0-1.7.6-1.7,1.8v.8c0,1.3.5,1.9,1.6,1.9h3.5c1.7,0,2.6.7,2.6,2v3.2c0,1.3-.8,2-2.5,2h-6.2c-.8,0-1.2-.2-1.2-.6,0-.4.4-.5,1.2-.5h5c1.1,0,1.6-.5,1.6-1.6v-1.4c0-1.3-.6-2-1.7-2h-3.5ZM238.9,327.2v8.8c0,1.1.6,1.6,1.8,1.6h2.1c1.2,0,1.7-.5,1.7-1.6v-8.8c0-1,.4-1.6,1.1-1.6.7,0,1,.5,1,1.5v9.4c0,1.4-.9,2.2-2.5,2.2h-4.9c-1.6,0-2.5-.7-2.5-2.1v-9.4c0-1,.4-1.5,1.1-1.5.7,0,1,.5,1,1.6ZM253.5,327h-2c-1.2,0-1.8.6-1.8,1.9v1.1c0,1.2.6,1.8,1.8,1.8h2.1c1.2,0,1.8-.7,1.8-2.2v-1.1c0-1-.6-1.5-1.8-1.5ZM255.3,337.1v-2.6c0-1-.6-1.5-1.8-1.5h-2c-1.2,0-1.8.5-1.8,1.5v2.7c0,1-.4,1.6-1.1,1.6-.7,0-1-.5-1-1.4v-9.3c0-1.4.8-2.2,2.2-2.2h5.2c1.7,0,2.5.7,2.5,2.2v9.2c0,1-.4,1.4-1.1,1.4-.7,0-1-.5-1-1.6ZM260.4,335.7c0,1.2.6,1.8,1.7,1.8h4.3c.8,0,1.1.2,1.1.6,0,.4-.4.5-1.1.5h-5.7c-1.6,0-2.4-.7-2.4-2.1v-9.4c0-1,.4-1.5,1.1-1.5.7,0,1.1.5,1.1,1.6v8.5ZM269.8,332.6c-1.7,0-2.6-.7-2.6-2v-2.7c0-1.4.8-2.1,2.4-2.1h6.2c.8,0,1.2.2,1.2.6,0,.4-.4.5-1.2.5h-4.9c-1.1,0-1.7.6-1.7,1.8v.8c0,1.3.5,1.9,1.6,1.9h3.5c1.7,0,2.6.7,2.6,2v3.2c0,1.3-.8,2-2.5,2h-6.2c-.8,0-1.2-.2-1.2-.6,0-.4.4-.5,1.2-.5h4.9c1.1,0,1.6-.5,1.6-1.6v-1.4c0-1.3-.6-2-1.7-2h-3.5ZM281.3,326.4c0-.4.4-.6,1.1-.6h7.7c.7,0,1.1.2,1.1.6,0,.4-.4.6-1.1.6h-1c-1.1,0-1.7.5-1.7,1.6v8.8c0,1-.4,1.6-1.1,1.6-.7,0-1-.5-1-1.6v-8.8c0-1-.6-1.6-1.7-1.6h-1c-.8,0-1.1-.2-1.1-.6ZM298.7,337.3v-3.2c0-1-.6-1.6-1.8-1.6h-2c-1.2,0-1.8.5-1.8,1.6v3.1c0,1-.4,1.5-1.1,1.5-.7,0-1-.5-1-1.4v-10.3c0-.9.4-1.4,1.1-1.4.7,0,1.1.5,1.1,1.5v2.6c0,1.1.6,1.6,1.8,1.6h2.1c1.2,0,1.7-.5,1.7-1.6v-2.6c0-1,.4-1.5,1.1-1.5.7,0,1.1.5,1.1,1.4v10.3c0,.9-.4,1.4-1.1,1.4-.7,0-1-.5-1-1.5ZM307.6,327.1h-2c-1.2,0-1.8.6-1.8,1.9v1.1c0,1.2.6,1.8,1.8,1.8h2.1c1.2,0,1.8-.7,1.8-2.2v-1.1c0-1-.6-1.5-1.8-1.5ZM309.4,337.2v-2.6c0-1-.6-1.5-1.8-1.5h-2c-1.2,0-1.8.5-1.8,1.5v2.7c0,1-.4,1.6-1.1,1.6-.7,0-1-.5-1-1.4v-9.3c0-1.4.8-2.2,2.2-2.2h5.2c1.7,0,2.5.7,2.5,2.2v9.2c0,1-.4,1.4-1.1,1.4-.7,0-1-.5-1-1.6ZM311.3,326.5c0-.4.4-.6,1.1-.6h7.7c.7,0,1.1.2,1.1.6,0,.4-.4.6-1.1.6h-1.1c-1.1,0-1.7.5-1.7,1.6v8.8c0,1-.4,1.6-1.1,1.6-.7,0-1-.5-1-1.6v-8.8c0-1-.6-1.6-1.7-1.6h-1c-.8,0-1.1-.2-1.1-.6ZM331.4,334.5c-.7,0-1-.5-1-1.6,0-.6-.1-1.3-.4-2.1-.3-.8-.7-1.6-1.2-2.4-.2-.3-.3-.5-.5-.6-.2-.1-.3-.2-.4-.2-.2,0-.3.2-.3.5v9.3c0,1-.4,1.4-1.1,1.4-.7,0-1-.5-1-1.4v-9.3c0-1.5.6-2.2,1.8-2.2h.6c.8,0,1.5.5,2.1,1.4l1.5,2.5,1.5-2.5c.3-.4.6-.8.9-1,.3-.3.7-.4,1.2-.4h.6c1.1,0,1.7.7,1.7,2.2v9.3c0,1-.4,1.4-1.1,1.4-.7,0-1-.5-1-1.4v-9.3c0-.3-.2-.5-.3-.5-.2,0-.5.3-.8.8-.5.8-.9,1.6-1.2,2.4-.3.8-.4,1.5-.4,2.1,0,1.1-.4,1.6-1.1,1.6ZM342.1,337.7h2.1c1.2,0,1.8-.6,1.8-1.8v-7.1c0-1.1-.6-1.7-1.8-1.7h-2c-1.2,0-1.8.6-1.8,1.7v7.2c0,1.1.6,1.7,1.8,1.7ZM348.1,336.8c0,1.4-.8,2-2.4,2h-5c-1.6,0-2.4-.7-2.4-2.1v-8.7c0-1.4.8-2.1,2.4-2.1h5c1.6,0,2.5.7,2.5,2.1v8.7ZM353.9,338.9h-.4c-.5,0-1-.2-1.3-.7l-2.8-3.2c-.2-.3-.4-.6-.5-.9,0-.4-.1-.8-.1-1.4v-5.2c0-1,.4-1.5,1.1-1.5.7,0,1.1.5,1.1,1.5v5.5c0,.6.3,1.3,1,2l1.5,1.8c.2,0,.3.2.4.2.2,0,.3,0,.5-.2l1.5-1.6c.3-.4.6-.7.8-1.1.2-.4.3-.7.3-1v-5.5c0-1,.4-1.5,1-1.5.7,0,1.1.5,1.1,1.5v5.3c0,1-.3,1.8-.8,2.3l-2.8,3.2c-.2.3-.5.5-.7.6-.2,0-.5.1-.7.1ZM363.7,337.8h4.9c.6,0,1,.2,1,.6,0,.4-.3.5-.9.5h-6.5c-1.6,0-2.4-.7-2.4-2v-8.9c0-1.4.8-2,2.4-2h6.5c.6,0,.9.2.9.6,0,.4-.3.6-1,.6h-4.9c-1.3,0-1.9.5-1.9,1.5v1.3c0,1.1.6,1.6,1.8,1.6h4.9c.7,0,1,.2,1,.5,0,.4-.3.6-1,.6h-5c-1.2,0-1.8.5-1.8,1.6v1.9c0,1,.6,1.5,1.9,1.5ZM372.1,337.2c0,.8,0,1.4-.1,1.8,0,.4-.2.8-.3,1-.2.2-.3.3-.5.4-.2,0-.4,0-.6,0-.2,0-.4-.1-.4-.3,0,0,0-.1.1-.1,0,0,.2,0,.3-.2,0,0,.2-.2.3-.4.1-.2.2-.4.2-.7v-.4s-.1,0-.1,0c-.8,0-1.1-.4-1.1-1.1,0-.8.4-1.1,1.2-1.1.8,0,1.1.4,1.1,1.1ZM59.6,368.2h0c-.2,0-.5.2-.8.6l-.3.4c-.3.4-.6.7-.8.9-.2.2-.4.3-.5.3h-.7c-.2,0-.4,0-.6-.2-.2-.2-.4-.4-.6-.8l-1.4-2.7c-.2-.3-.3-.8-.4-1.3,0-.5-.1-1.1-.1-1.8v-4.8c0-1,.3-1.5,1-1.5.7,0,1,.5,1,1.5v6.2c0,.3,0,.6,0,.9,0,.3.1.5.2.6l.8,1.4c.1.3.2.4.4.4.1,0,.3-.1.5-.4l.8-1.3c.3-.5.4-1.1.4-1.7v-6c0-1,.4-1.5,1.1-1.5.7,0,1,.5,1,1.5v6c0,.1,0,.2,0,.4,0,.5.1,1,.4,1.4l.7,1.3c.1.3.3.4.4.4.2,0,.3-.1.5-.4l.7-1.4c0-.3.2-.5.2-.7,0-.2.1-.5.1-.7v-6.2c0-1,.3-1.5,1-1.5.7,0,1,.5,1,1.5v4.8c0,.7,0,1.3-.2,1.8-.1.5-.2.9-.4,1.3l-1.4,2.7c-.5.7-.9,1-1.3,1h-.7c-.1,0-.3,0-.5-.3-.2-.2-.4-.5-.7-.9l-.3-.4c-.3-.4-.5-.6-.7-.6ZM74,368.9v-3.2c0-1-.6-1.6-1.8-1.6h-2c-1.2,0-1.8.5-1.8,1.6v3.1c0,1-.4,1.5-1.1,1.5-.7,0-1-.5-1-1.4v-10.3c0-.9.4-1.4,1.1-1.4.7,0,1.1.5,1.1,1.5v2.6c0,1.1.6,1.6,1.8,1.6h2.1c1.2,0,1.7-.5,1.7-1.6v-2.6c0-1,.4-1.5,1.1-1.5.7,0,1.1.5,1.1,1.4v10.3c0,.9-.4,1.4-1.1,1.4-.7,0-1-.5-1-1.5ZM81.1,369.2h4.9c.6,0,1,.2,1,.6,0,.4-.3.5-.9.5h-6.5c-1.6,0-2.4-.7-2.4-2v-8.9c0-1.4.8-2,2.4-2h6.5c.6,0,.9.2.9.6,0,.4-.3.6-1,.6h-4.9c-1.3,0-1.9.5-1.9,1.5v1.3c0,1.1.6,1.6,1.8,1.6h5c.7,0,1,.2,1,.5,0,.4-.3.6-1,.6h-5c-1.2,0-1.8.5-1.8,1.6v1.9c0,1,.6,1.5,1.9,1.5ZM85.9,358.1c0-.4.4-.6,1.1-.6h7.6c.7,0,1.1.2,1.1.6,0,.4-.4.6-1.1.6h-1.1c-1.1,0-1.7.5-1.7,1.6v8.8c0,1-.4,1.6-1.1,1.6-.7,0-1-.5-1-1.6v-8.8c0-1-.6-1.6-1.7-1.6h-1c-.8,0-1.1-.2-1.1-.6ZM103.2,369v-3.1c0-1-.6-1.6-1.8-1.6h-2c-1.2,0-1.8.5-1.8,1.6v3.2c0,1-.4,1.5-1.1,1.5-.7,0-1-.5-1-1.4v-10.3c0-.9.4-1.4,1.1-1.4.7,0,1.1.5,1.1,1.5v2.6c0,1.1.6,1.6,1.8,1.6h2.1c1.2,0,1.7-.5,1.7-1.6v-2.6c0-1,.4-1.5,1.1-1.5.7,0,1.1.5,1.1,1.4v10.3c0,.9-.4,1.4-1.1,1.4-.7,0-1-.5-1-1.5ZM110.3,369.3h4.9c.6,0,1,.2,1,.6,0,.4-.3.5-.9.5h-6.5c-1.6,0-2.4-.7-2.4-2v-8.9c0-1.4.8-2,2.4-2h6.5c.6,0,.9.2.9.6,0,.4-.3.6-1,.6h-4.9c-1.3,0-1.9.5-1.9,1.5v1.3c0,1.1.6,1.6,1.8,1.6h5c.7,0,1,.2,1,.5,0,.4-.3.6-1,.6h-5c-1.2,0-1.8.5-1.8,1.6v1.9c0,1,.6,1.5,1.9,1.5ZM123.4,362.3c.4-.4.6-.9.6-1.6v-.7c0-.4-.2-.8-.4-1-.2-.2-.6-.4-1-.4h-2.5c-1.2,0-1.7.7-1.7,2v.8c0,1.3.6,2,1.7,2h.9c.7,0,1.2-.2,1.6-.6l.9-.7ZM125,370.6c-.7,0-1-.4-1-1.3v-2.1c0-.2,0-.3-.2-.5-.1-.2-.3-.4-.5-.6l-.9-.7c-.5-.4-.9-.6-1.3-.6h-1.1c-1.1,0-1.7.6-1.7,1.7v2.7c0,.9-.4,1.4-1.1,1.4-.7,0-1-.5-1-1.5v-9.3c0-1.5.8-2.2,2.3-2.2h5c1.7,0,2.6.7,2.6,2.1v2c-.1.6-.5,1.2-1.3,1.8-.3.2-.5.5-.5.7,0,.2.1.5.4.8.8.8,1.2,1.4,1.3,1.9v2.4c0,.9-.4,1.3-1.1,1.3ZM135.3,369.3h2.1c1.2,0,1.8-.6,1.8-1.8v-7.1c0-1.1-.6-1.7-1.8-1.7h-2c-1.2,0-1.8.6-1.8,1.7v7.2c0,1.1.6,1.7,1.8,1.7ZM141.3,368.4c0,1.4-.8,2-2.4,2h-5c-1.6,0-2.4-.7-2.4-2.1v-8.7c0-1.4.8-2.1,2.5-2.1h5c1.6,0,2.5.7,2.5,2.1v8.7ZM149.2,367c.3.6.5.9.6.9.1,0,.2-.2.2-.5v-8c0-1.2.4-1.8,1.1-1.8.7,0,1.1.5,1.1,1.5v9.5c0,1.4-.7,2.2-2,2.2-.6,0-1.1-.5-1.6-1.4l-3.5-8.1c-.3-.4-.4-.6-.5-.6-.1,0-.2.2-.2.7v7.7c0,1.1-.4,1.6-1.1,1.6-.7,0-1.1-.5-1.1-1.4v-9.5c0-1.5.7-2.2,2-2.2.5,0,1,.5,1.6,1.5l3.5,8.1ZM160,364.4c-1.7,0-2.6-.7-2.6-2v-2.7c0-1.4.8-2.1,2.4-2.1h6.2c.8,0,1.2.2,1.2.6,0,.4-.4.5-1.2.5h-4.9c-1.1,0-1.7.6-1.7,1.8v.8c0,1.3.5,1.9,1.6,1.9h3.5c1.7,0,2.6.7,2.6,2v3.2c0,1.3-.8,2-2.5,2h-6.2c-.8,0-1.2-.2-1.2-.6,0-.4.4-.5,1.2-.5h4.9c1.1,0,1.6-.5,1.6-1.6v-1.4c0-1.3-.6-2-1.7-2h-3.5ZM175.9,367.8c0-.2,0-.4.2-.5.2-.1.4-.2.8-.2.7,0,1,.3,1,1v.5c0,1.3-.8,2-2.3,2h-5.4c-1.5,0-2.2-.7-2.2-2.1v-8.5c0-1.5.8-2.2,2.2-2.2h5.4c1.5,0,2.3.7,2.3,2v.5c0,.7-.4,1.1-1.1,1.1-.7,0-1-.2-1-.7,0-1.1-.6-1.7-1.8-1.7h-2c-1.2,0-1.8.5-1.8,1.6v7.5c0,1,.6,1.5,1.8,1.5h2.1c1.2,0,1.8-.5,1.8-1.6ZM186,362.4c.4-.4.6-.9.6-1.6v-.7c0-.4-.2-.8-.4-1-.2-.2-.6-.4-1-.4h-2.5c-1.2,0-1.7.7-1.7,2v.8c0,1.3.6,2,1.7,2h.9c.7,0,1.2-.2,1.6-.6l.9-.7ZM187.7,370.7c-.7,0-1-.4-1-1.3v-2.1c0-.2,0-.3-.2-.5-.1-.2-.3-.4-.5-.6l-.9-.7c-.5-.4-.9-.6-1.3-.6h-1.1c-1.1,0-1.7.6-1.7,1.7v2.7c0,.9-.4,1.4-1.1,1.4-.7,0-1-.5-1-1.5v-9.3c0-1.5.8-2.2,2.3-2.2h5c1.7,0,2.6.7,2.6,2.1v2c-.1.6-.5,1.2-1.3,1.8-.3.2-.5.5-.5.7,0,.2.1.5.4.8.8.8,1.2,1.4,1.3,1.9v2.4c0,.9-.4,1.3-1.1,1.3ZM193.6,369.5h4.9c.6,0,1,.2,1,.6,0,.4-.3.5-.9.5h-6.5c-1.6,0-2.4-.7-2.4-2v-8.8c0-1.4.8-2,2.4-2h6.5c.6,0,.9.2.9.6,0,.4-.3.6-1,.6h-4.9c-1.3,0-1.9.5-1.9,1.5v1.3c0,1.1.6,1.6,1.8,1.6h5c.7,0,1,.2,1,.5,0,.4-.3.6-1,.6h-5c-1.2,0-1.8.5-1.8,1.6v1.9c0,1,.6,1.5,1.9,1.5ZM203.6,369.5h4.9c.6,0,1,.2,1,.6,0,.4-.3.5-.9.5h-6.5c-1.6,0-2.4-.7-2.4-2v-8.9c0-1.4.8-2,2.4-2h6.5c.6,0,.9.2.9.6,0,.4-.3.6-1,.6h-4.9c-1.3,0-1.9.5-1.9,1.5v1.3c0,1.1.6,1.6,1.8,1.6h4.9c.7,0,1,.2,1,.5,0,.4-.3.6-1,.6h-5c-1.2,0-1.8.5-1.8,1.6v1.9c0,1,.6,1.5,1.9,1.5ZM216.5,367.1c.3.6.5.9.6.9.1,0,.2-.2.2-.5v-8c0-1.2.4-1.8,1.1-1.8.7,0,1.1.5,1.1,1.5v9.5c0,1.4-.7,2.2-2,2.2-.6,0-1.1-.5-1.6-1.4l-3.5-8.1c-.3-.4-.4-.6-.5-.6-.1,0-.2.2-.2.7v7.7c0,1.1-.4,1.6-1.1,1.6-.7,0-1.1-.5-1.1-1.4v-9.5c0-1.5.7-2.2,2-2.2.5,0,1,.5,1.6,1.5l3.5,8.1ZM228.6,369.5h2.1c1.2,0,1.8-.6,1.8-1.8v-7.1c0-1.1-.6-1.7-1.8-1.7h-2c-1.2,0-1.8.6-1.8,1.7v7.2c0,1.1.6,1.7,1.8,1.7ZM234.6,368.6c0,1.4-.8,2-2.4,2h-5c-1.6,0-2.4-.7-2.4-2.1v-8.7c0-1.4.8-2.1,2.4-2.1h5c1.6,0,2.5.7,2.5,2.1v8.7ZM242.6,362.5c.4-.4.6-.9.6-1.6v-.7c0-.4-.2-.8-.4-1-.2-.2-.6-.4-1-.4h-2.5c-1.2,0-1.7.7-1.7,2v.8c0,1.3.6,2,1.7,2h.9c.7,0,1.2-.2,1.6-.6l.9-.7ZM244.2,370.8c-.7,0-1-.4-1-1.3v-2.1c0-.2,0-.3-.2-.5-.1-.2-.3-.4-.5-.6l-.9-.7c-.5-.4-.9-.6-1.3-.6h-1.1c-1.1,0-1.7.6-1.7,1.7v2.7c0,.9-.4,1.4-1.1,1.4-.7,0-1-.5-1-1.5v-9.3c0-1.5.8-2.2,2.3-2.2h5c1.7,0,2.6.7,2.6,2.1v2c-.1.6-.5,1.2-1.3,1.8-.3.2-.5.5-.5.7,0,.2.1.5.4.8.8.8,1.2,1.4,1.3,1.9v2.4c0,.9-.4,1.3-1.1,1.3ZM251.9,370.7c-.7,0-1-.5-1-1.5v-10.2c0-.9.3-1.4,1-1.4.7,0,1,.5,1,1.4v10.2c0,1-.3,1.5-1,1.5ZM261.1,367.2c.3.6.5.9.6.9.1,0,.2-.2.2-.5v-8c0-1.2.4-1.8,1.1-1.8.7,0,1.1.5,1.1,1.5v9.5c0,1.4-.7,2.2-2,2.2-.6,0-1.1-.5-1.6-1.4l-3.5-8.1c-.3-.4-.4-.6-.5-.6-.1,0-.2.2-.2.7v7.7c0,1.1-.4,1.6-1.1,1.6-.7,0-1.1-.5-1.1-1.4v-9.5c0-1.5.7-2.2,2-2.2.5,0,1,.5,1.6,1.5l3.5,8.1ZM271.5,366.2v3.1c0,1.1-.4,1.6-1.1,1.6-.7,0-1.1-.5-1.1-1.5v-9.3c0-1.5.9-2.2,2.5-2.2h5.2c1.5,0,2.3.7,2.3,2v2.8c0,1.4-.8,2.1-2.3,2.1h-3.8c-1.1,0-1.7.5-1.7,1.4ZM275.3,359h-2c-1.2,0-1.8.7-1.8,2v.9c0,1.2.6,1.7,1.8,1.7h2.1c1.2,0,1.8-.7,1.8-2.1v-.9c0-1.1-.6-1.6-1.8-1.6ZM286.7,362.6c.4-.4.6-.9.6-1.6v-.7c0-.4-.2-.8-.4-1-.2-.2-.6-.4-1-.4h-2.5c-1.2,0-1.7.7-1.7,2v.8c0,1.3.6,2,1.7,2h.9c.7,0,1.2-.2,1.6-.6l.9-.7ZM288.3,370.9c-.7,0-1-.4-1-1.3v-2.1c0-.2,0-.3-.2-.5-.1-.2-.3-.4-.5-.6l-.9-.7c-.5-.4-.9-.6-1.3-.6h-1.1c-1.1,0-1.7.6-1.7,1.7v2.7c0,.9-.4,1.4-1.1,1.4-.7,0-1-.5-1-1.5v-9.3c0-1.5.8-2.2,2.3-2.2h5c1.7,0,2.6.7,2.6,2.1v2c-.1.6-.5,1.2-1.3,1.8-.3.2-.5.5-.5.7,0,.2.1.5.4.8.8.8,1.2,1.4,1.3,1.9v2.4c0,.9-.4,1.3-1.1,1.3ZM291.5,370.8c-.7,0-1-.5-1-1.5v-10.2c0-.9.3-1.4,1-1.4.7,0,1,.5,1,1.4v10.2c0,1-.3,1.5-1,1.5ZM300.7,367.3c.3.6.5.9.6.9.1,0,.2-.2.2-.5v-8c0-1.2.4-1.8,1.1-1.8.7,0,1.1.5,1.1,1.5v9.5c0,1.4-.7,2.2-2,2.2-.6,0-1.1-.5-1.6-1.4l-3.5-8.1c-.3-.4-.4-.6-.5-.6-.1,0-.2.2-.2.7v7.7c0,1.1-.4,1.6-1.1,1.6-.7,0-1.1-.5-1.1-1.4v-9.5c0-1.5.7-2.2,2-2.2.5,0,1,.5,1.6,1.5l3.5,8.1ZM303.4,358.5c0-.4.4-.6,1.1-.6h7.7c.7,0,1.1.2,1.1.6,0,.4-.4.6-1.1.6h-1.1c-1.1,0-1.7.5-1.7,1.6v8.8c0,1-.4,1.6-1.1,1.6-.7,0-1-.5-1-1.6v-8.8c0-1-.6-1.6-1.7-1.6h-1c-.8,0-1.1-.2-1.1-.6ZM314.3,370.2c-.8,0-1.1-.3-1.1-1,0-.8.4-1.1,1.1-1.1.8,0,1.1.4,1.1,1.1,0,.7-.4,1-1.1,1ZM54.8,434.4c-.7,0-1-.5-1-1.5v-10.2c0-.9.3-1.4,1-1.4.7,0,1,.5,1,1.4v10.2c0,1-.3,1.5-1,1.5ZM59.1,433c0,1-.4,1.6-1.1,1.6-.7,0-1-.5-1-1.5v-9.6c0-1.3.8-2,2.5-2h6.3c.8,0,1.2.2,1.2.6,0,.4-.4.6-1.2.6h-4.9c-1.1,0-1.7.6-1.7,1.7v.9c0,1.2.5,1.8,1.6,1.8h5c.8,0,1.2.2,1.2.5,0,.4-.3.7-1,.7h-5.1c-1.1,0-1.7.5-1.7,1.5v3.3ZM77.3,433.2c1.1,0,1.6-.5,1.6-1.6v-1.7c0-1-.6-1.6-1.7-1.6h-3.7c-1.6,0-2.3-.6-2.3-1.9v-3.9c0-.9.4-1.3,1.1-1.3.7,0,1,.5,1,1.4v3c0,1.1.6,1.6,1.8,1.6h2.1c1.2,0,1.8-.5,1.8-1.6v-3c0-.9.4-1.3,1.1-1.3.7,0,1.1.4,1.1,1.3v9.7c0,1.3-.9,1.9-2.4,1.9h-6.7c-.6,0-.9-.2-.9-.6,0-.4.3-.5.9-.5h5.2ZM85.8,433.3h2.1c1.2,0,1.8-.6,1.8-1.8v-7.1c0-1.1-.6-1.7-1.8-1.7h-2c-1.2,0-1.8.6-1.8,1.7v7.2c0,1.1.6,1.7,1.8,1.7ZM91.8,432.3c0,1.4-.8,2-2.4,2h-5c-1.6,0-2.4-.7-2.4-2.1v-8.7c0-1.4.8-2.1,2.4-2.1h5c1.6,0,2.5.7,2.5,2.1v8.7ZM94.7,422.9v8.8c0,1.1.6,1.6,1.8,1.6h2.1c1.2,0,1.7-.5,1.7-1.6v-8.8c0-1,.4-1.6,1.1-1.6.7,0,1,.5,1,1.5v9.4c0,1.4-.9,2.2-2.5,2.2h-4.9c-1.6,0-2.5-.7-2.5-2.1v-9.4c0-1,.4-1.5,1.1-1.5.7,0,1,.5,1,1.6ZM106,420.3c0,.7,0,1.2,0,1.6,0,.4-.1.7-.2.9-.1.2-.2.3-.4.4-.1,0-.3.1-.5.2-.2.1-.4.2-.5.2-.1,0-.2,0-.2,0,0,0,0-.1,0-.2,0,0,0-.1,0-.1,0,0,.1,0,.2,0,.1,0,.2-.2.3-.4.1-.2.2-.5.2-1v-.4s-.1,0-.1,0c-.8,0-1.2-.4-1.2-1.1,0-.8.4-1.2,1.2-1.2.8,0,1.2.4,1.2,1.2ZM114.4,426.3c.4-.4.6-.9.6-1.6v-.7c0-.4-.2-.8-.4-1-.2-.2-.6-.4-1-.4h-2.5c-1.2,0-1.7.7-1.7,2v.8c0,1.3.6,2,1.7,2h.9c.7,0,1.2-.2,1.6-.6l.9-.7ZM116,434.5c-.7,0-1-.4-1-1.3v-2.1c0-.2,0-.3-.2-.5-.1-.2-.3-.4-.5-.6l-.9-.7c-.5-.4-.9-.6-1.3-.6h-1.1c-1.1,0-1.7.6-1.7,1.7v2.7c0,.9-.4,1.4-1.1,1.4-.7,0-1-.5-1-1.5v-9.3c0-1.5.8-2.2,2.3-2.2h5c1.7,0,2.6.7,2.6,2.1v2c-.1.6-.5,1.2-1.3,1.8-.3.2-.5.5-.5.7,0,.2.1.5.4.8.8.8,1.2,1.4,1.3,1.9v2.4c0,.9-.4,1.3-1.1,1.3ZM121.9,433.3h4.9c.6,0,1,.2,1,.6,0,.4-.3.5-.9.5h-6.5c-1.6,0-2.4-.7-2.4-2v-8.9c0-1.4.8-2,2.4-2h6.5c.6,0,.9.2.9.6,0,.4-.3.6-1,.6h-4.9c-1.3,0-1.9.5-1.9,1.5v1.3c0,1.1.6,1.6,1.8,1.6h5c.7,0,1,.2,1,.5,0,.4-.3.6-1,.6h-5c-1.2,0-1.8.5-1.8,1.6v1.9c0,1,.6,1.5,1.9,1.5ZM134.4,431.5c0,1.2.6,1.8,1.7,1.8h4.3c.8,0,1.1.2,1.1.6,0,.4-.4.5-1.1.5h-5.7c-1.6,0-2.4-.7-2.4-2.1v-9.4c0-1,.4-1.5,1.1-1.5.7,0,1.1.5,1.1,1.6v8.5ZM145.2,433.4h2.1c1.2,0,1.8-.6,1.8-1.8v-7.1c0-1.1-.6-1.7-1.8-1.7h-2c-1.2,0-1.8.6-1.8,1.7v7.2c0,1.1.6,1.7,1.8,1.7ZM151.2,432.4c0,1.4-.8,2-2.4,2h-5c-1.6,0-2.4-.7-2.4-2.1v-8.7c0-1.4.8-2.1,2.4-2.1h5c1.6,0,2.5.7,2.5,2.1v8.7ZM155.9,433.4h2.1c1.2,0,1.8-.6,1.8-1.8v-7.1c0-1.1-.6-1.7-1.8-1.7h-2c-1.2,0-1.8.6-1.8,1.7v7.2c0,1.1.6,1.7,1.8,1.7ZM161.9,432.5c0,1.4-.8,2-2.4,2h-5c-1.6,0-2.4-.7-2.4-2.1v-8.7c0-1.4.8-2.1,2.4-2.1h5c1.6,0,2.5.7,2.5,2.1v8.7ZM166,428.7c-.7,0-1.1.5-1.1,1.5v3c0,1.1-.4,1.6-1.1,1.6-.7,0-1.1-.5-1.1-1.5v-10.4c0-1,.4-1.5,1.1-1.5.7,0,1,.5,1,1.6v2.7c0,1,.4,1.6,1.2,1.6.4,0,.9-.4,1.6-1.2l2-3.6c.4-.7.8-1,1.2-1,.3,0,.5.1.6.4.1.2.2.4.2.6,0,.2,0,.4-.1.6l-2.9,4.7c-.2.2-.3.4-.3.5,0,.3,0,.4.2.6l2.8,4.5c.1.3.2.5.2.6,0,.2,0,.4-.3.7-.2.2-.4.3-.6.3-.4,0-.7-.3-1.1-.9l-2.6-4.2c-.2-.3-.4-.5-.6-.7-.2-.2-.3-.3-.4-.3ZM173.9,434.6c-.7,0-1-.5-1-1.5v-10.2c0-.9.3-1.4,1-1.4.7,0,1,.5,1,1.4v10.2c0,1-.3,1.5-1,1.5ZM183.1,431.1c.3.6.5.9.6.9.1,0,.2-.2.2-.5v-8c0-1.2.4-1.8,1.1-1.8.7,0,1.1.5,1.1,1.5v9.5c0,1.4-.7,2.2-2,2.2-.6,0-1.1-.5-1.6-1.4l-3.5-8.1c-.3-.4-.4-.6-.5-.6-.1,0-.2.2-.2.7v7.7c0,1.1-.4,1.6-1.1,1.6-.7,0-1.1-.5-1.1-1.4v-9.5c0-1.5.7-2.2,2-2.2.5,0,1,.5,1.6,1.5l3.5,8.1ZM195.5,422.9h-4.9c-1.1,0-1.7.6-1.7,1.7v7.2c0,1.1.6,1.7,1.8,1.7h2.1c1.2,0,1.8-.7,1.8-2.1v-1.7c0-.8-.5-1.2-1.4-1.2h-1.4c-.8,0-1.1-.2-1.1-.6,0-.4.4-.6,1.1-.6h2.7c1.5,0,2.2.6,2.2,1.9v3.4c0,1.3-.8,2-2.5,2h-5c-1.6,0-2.4-.7-2.4-2.1v-8.6c0-1.5.8-2.2,2.4-2.2h6.3c.8,0,1.1.2,1.1.6,0,.4-.4.6-1.2.6ZM204.2,433.3c0,1-.4,1.6-1.1,1.6-.7,0-1-.5-1-1.5v-9.6c0-1.3.8-2,2.5-2h6.3c.8,0,1.2.2,1.2.6,0,.4-.4.6-1.2.6h-4.9c-1.1,0-1.7.6-1.7,1.7v.9c0,1.2.5,1.8,1.6,1.8h5c.8,0,1.2.2,1.2.5,0,.4-.3.7-1,.7h-5.1c-1.1,0-1.7.5-1.7,1.5v3.3ZM215.7,433.5h2.1c1.2,0,1.8-.6,1.8-1.8v-7.1c0-1.1-.6-1.7-1.8-1.7h-2c-1.2,0-1.8.6-1.8,1.7v7.2c0,1.1.6,1.7,1.8,1.7ZM221.7,432.6c0,1.4-.8,2-2.4,2h-5c-1.6,0-2.4-.7-2.4-2.1v-8.7c0-1.4.8-2.1,2.4-2.1h5c1.6,0,2.5.7,2.5,2.1v8.7ZM229.8,426.5c.4-.4.6-.9.6-1.6v-.7c0-.4-.2-.8-.4-1-.2-.2-.6-.4-1-.4h-2.5c-1.2,0-1.7.7-1.7,2v.8c0,1.3.6,2,1.7,2h.9c.7,0,1.2-.2,1.6-.6l.9-.7ZM231.4,434.8c-.7,0-1-.4-1-1.3v-2.1c0-.2,0-.3-.2-.5-.1-.2-.3-.4-.5-.6l-.9-.7c-.5-.4-.9-.6-1.3-.6h-1.1c-1.1,0-1.7.6-1.7,1.7v2.7c0,.9-.4,1.4-1.1,1.4-.7,0-1-.5-1-1.5v-9.3c0-1.5.8-2.2,2.3-2.2h5c1.7,0,2.6.7,2.6,2.1v2c-.1.6-.5,1.2-1.3,1.8-.3.2-.5.5-.5.7,0,.2.1.5.4.8.8.8,1.2,1.4,1.3,1.9v2.4c0,.9-.4,1.3-1.1,1.3ZM247.6,430.5v2.1c0,1.4-.8,2-2.5,2h-4.9c-1.6,0-2.4-.7-2.4-2.1v-8.6c0-1.5.8-2.2,2.4-2.2h5c1.7,0,2.5.7,2.5,2.1v1.4c-.1.6-.5,1.2-1.3,1.8-.3.2-.5.5-.5.8,0,.3.1.5.4.8.8.7,1.2,1.4,1.3,1.9ZM244.9,429.7l-.9-.7c-.2-.2-.4-.3-.7-.4-.2-.1-.5-.2-.7-.2h-1c-1.2,0-1.8.7-1.8,2.1v1.3c0,1.1.6,1.6,1.8,1.6h2.4c1,0,1.5-.5,1.5-1.5v-1.3c0-.1,0-.3-.2-.5-.1-.2-.3-.4-.4-.6ZM244.9,426.2c.2-.2.3-.4.5-.6.1-.2.2-.5.2-.8v-.7c0-.8-.5-1.1-1.5-1.1h-2.4c-1.2,0-1.8.7-1.8,2.2v.5c0,1.2.6,1.8,1.7,1.8h1.1c.2,0,.4,0,.7-.1.2,0,.5-.2.7-.4l.9-.7ZM252.4,433.6h2.1c1.2,0,1.8-.6,1.8-1.8v-7.1c0-1.1-.6-1.7-1.8-1.7h-2c-1.2,0-1.8.6-1.8,1.7v7.2c0,1.1.6,1.7,1.8,1.7ZM258.4,432.6c0,1.4-.8,2-2.4,2h-5c-1.6,0-2.4-.7-2.4-2.1v-8.7c0-1.4.8-2.1,2.4-2.1h5c1.6,0,2.5.7,2.5,2.1v8.7ZM261.3,431.7c0,1.2.6,1.8,1.7,1.8h4.3c.8,0,1.1.2,1.1.6,0,.4-.4.5-1.1.5h-5.7c-1.6,0-2.4-.7-2.4-2.1v-9.4c0-1,.4-1.5,1.1-1.5.7,0,1.1.5,1.1,1.6v8.5ZM277.4,423.6c.2.2.4.5.5.8.1.3.2.7.2,1.2v5.3c0,.5,0,.9-.2,1.3-.1.3-.3.6-.5.8l-1,1.1c-.2.2-.5.3-.8.4-.4,0-.8.1-1.2.1h-3.7c-1.6,0-2.4-.8-2.4-2.3v-8.3c0-1.6.8-2.3,2.4-2.3h3.6c1,0,1.6.3,2.1.6l.5.6.6.6ZM272.1,423c-1.2,0-1.8.6-1.8,1.7v7.2c0,1.1.6,1.7,1.8,1.7h.7c.9,0,1.6-.2,2-.5l.4-.4c.5-.5.7-1.1.7-1.9v-5.1c0-.3-.1-.6-.2-.9s-.3-.6-.6-.9l-.3-.3c-.2-.2-.5-.4-.8-.5-.3,0-.7-.2-1-.2h-.9ZM292.6,423.7c.2.2.4.5.5.8.1.3.2.7.2,1.2v5.3c0,.5,0,.9-.2,1.3-.1.3-.3.6-.5.8l-1,1.1c-.2.2-.5.3-.8.4-.4,0-.8.1-1.2.1h-3.7c-1.6,0-2.4-.8-2.4-2.3v-8.2c0-1.6.8-2.3,2.4-2.3h3.6c1,0,1.6.3,2.1.6l.5.6.6.6ZM287.3,423c-1.2,0-1.8.6-1.8,1.7v7.2c0,1.1.6,1.7,1.8,1.7h.7c.9,0,1.6-.2,2-.5l.4-.4c.5-.5.7-1.1.7-1.9v-5.1c0-.3-.1-.6-.2-.9s-.3-.6-.6-.9l-.3-.3c-.2-.2-.5-.4-.8-.5-.3,0-.7-.2-1-.2h-.9ZM298.2,433.6h4.9c.6,0,1,.2,1,.6,0,.4-.3.5-.9.5h-6.5c-1.6,0-2.4-.7-2.4-2v-8.8c0-1.4.8-2,2.4-2h6.5c.6,0,.9.2.9.6,0,.4-.3.6-1,.6h-4.9c-1.3,0-1.9.5-1.9,1.5v1.3c0,1.1.6,1.6,1.8,1.6h4.9c.7,0,1,.2,1,.5,0,.4-.3.6-1,.6h-5c-1.2,0-1.8.5-1.8,1.6v1.9c0,1,.6,1.5,1.9,1.5ZM306.7,428.6c-1.7,0-2.6-.7-2.6-2v-2.7c0-1.4.8-2.1,2.4-2.1h6.2c.8,0,1.2.2,1.2.6,0,.4-.4.5-1.2.5h-4.9c-1.1,0-1.7.6-1.7,1.8v.8c0,1.3.5,1.9,1.6,1.9h3.5c1.7,0,2.6.7,2.6,2v3.2c0,1.3-.8,2-2.5,2h-6.2c-.8,0-1.2-.2-1.2-.6,0-.4.4-.5,1.2-.5h5c1.1,0,1.6-.5,1.6-1.6v-1.4c0-1.3-.6-2-1.7-2h-3.5ZM316.1,434.8c-.7,0-1-.5-1-1.5v-10.2c0-.9.3-1.4,1-1.4.7,0,1,.5,1,1.4v10.2c0,1-.3,1.5-1,1.5ZM327,423.1h-4.9c-1.1,0-1.7.6-1.7,1.7v7.2c0,1.1.6,1.7,1.8,1.7h2.1c1.2,0,1.8-.7,1.8-2.1v-1.7c0-.8-.5-1.2-1.4-1.2h-1.4c-.8,0-1.1-.2-1.1-.6,0-.4.4-.6,1.1-.6h2.7c1.5,0,2.2.6,2.2,1.9v3.4c0,1.3-.8,2-2.5,2h-5c-1.6,0-2.4-.7-2.4-2.1v-8.6c0-1.5.8-2.2,2.4-2.2h6.3c.8,0,1.1.2,1.1.6,0,.4-.4.6-1.2.6ZM336.1,431.3c.3.6.5.9.6.9.1,0,.2-.2.2-.5v-8c0-1.2.4-1.8,1.1-1.8.7,0,1.1.5,1.1,1.5v9.5c0,1.4-.7,2.2-2,2.2-.6,0-1.1-.5-1.6-1.4l-3.5-8.1c-.3-.4-.4-.6-.5-.6-.1,0-.2.2-.2.7v7.7c0,1.1-.4,1.6-1.1,1.6-.7,0-1.1-.5-1.1-1.4v-9.5c0-1.5.7-2.2,2-2.2.5,0,1,.5,1.6,1.5l3.5,8.1ZM342.3,433.2c0,.8,0,1.4-.1,1.8,0,.4-.2.8-.3,1-.2.2-.3.3-.5.4-.2,0-.4,0-.6,0-.2,0-.4-.1-.4-.3,0,0,0-.1.1-.1,0,0,.2,0,.3-.2.1,0,.2-.2.3-.4.1-.2.2-.4.2-.7v-.4s-.1,0-.1,0c-.8,0-1.1-.4-1.1-1.1,0-.8.4-1.1,1.2-1.1.8,0,1.1.4,1.1,1.1ZM350.6,428.7c-1.7,0-2.6-.7-2.6-2v-2.7c0-1.4.8-2.1,2.4-2.1h6.2c.8,0,1.2.2,1.2.6,0,.4-.4.5-1.2.5h-4.9c-1.1,0-1.7.6-1.7,1.8v.8c0,1.3.5,1.9,1.6,1.9h3.5c1.7,0,2.6.7,2.6,2v3.2c0,1.3-.8,2-2.5,2h-6.2c-.8,0-1.2-.2-1.2-.6,0-.4.4-.5,1.2-.5h5c1.1,0,1.6-.5,1.6-1.6v-1.4c0-1.3-.6-2-1.7-2h-3.5ZM366.4,433.5v-3.2c0-1-.6-1.6-1.8-1.6h-2c-1.2,0-1.8.5-1.8,1.6v3.1c0,1-.4,1.5-1.1,1.5-.7,0-1-.5-1-1.4v-10.3c0-.9.4-1.4,1.1-1.4.7,0,1.1.5,1.1,1.5v2.6c0,1.1.6,1.6,1.8,1.6h2.1c1.2,0,1.7-.5,1.7-1.6v-2.6c0-1,.4-1.5,1.1-1.5.7,0,1.1.5,1.1,1.4v10.3c0,.9-.4,1.4-1.1,1.4-.7,0-1-.5-1-1.5ZM375.4,423.2h-2c-1.2,0-1.8.6-1.8,1.9v1.1c0,1.2.6,1.8,1.8,1.8h2.1c1.2,0,1.8-.7,1.8-2.2v-1.1c0-1-.6-1.5-1.8-1.5ZM377.2,433.3v-2.6c0-1-.6-1.5-1.8-1.5h-2c-1.2,0-1.8.5-1.8,1.5v2.7c0,1-.4,1.6-1.1,1.6-.7,0-1-.5-1-1.4v-9.3c0-1.4.8-2.2,2.2-2.2h5.2c1.7,0,2.5.7,2.5,2.2v9.2c0,1-.4,1.4-1.1,1.4-.7,0-1-.5-1-1.6ZM387.4,426.8c.4-.4.6-.9.6-1.6v-.7c0-.4-.2-.8-.4-1-.2-.2-.6-.4-1-.4h-2.5c-1.2,0-1.7.7-1.7,2v.8c0,1.3.6,2,1.7,2h.9c.7,0,1.2-.2,1.6-.6l.9-.7ZM389,435c-.7,0-1-.4-1-1.3v-2.1c0-.2,0-.3-.2-.5-.1-.2-.3-.4-.5-.6l-.9-.7c-.5-.4-.9-.6-1.3-.6h-1.1c-1.1,0-1.7.6-1.7,1.7v2.7c0,.9-.4,1.4-1.1,1.4-.7,0-1-.5-1-1.5v-9.3c0-1.5.8-2.2,2.3-2.2h5c1.7,0,2.6.7,2.6,2.1v2c-.1.6-.5,1.2-1.3,1.8-.3.2-.5.5-.5.7,0,.2.1.5.4.8.8.8,1.2,1.4,1.3,1.9v2.4c0,.9-.4,1.3-1.1,1.3ZM393.1,430.4v3.1c0,1.1-.4,1.6-1.1,1.6-.7,0-1.1-.5-1.1-1.5v-9.3c0-1.5.9-2.2,2.5-2.2h5.2c1.5,0,2.3.7,2.3,2v2.8c0,1.4-.8,2.1-2.3,2.1h-3.7c-1.1,0-1.7.5-1.7,1.4ZM396.9,423.2h-2c-1.2,0-1.8.7-1.8,2v.9c0,1.2.6,1.7,1.8,1.7h2.1c1.2,0,1.8-.7,1.8-2.1v-.9c0-1.1-.6-1.6-1.8-1.6ZM56,460.2c-1.7,0-2.6-.7-2.6-2v-2.7c0-1.4.8-2.1,2.4-2.1h6.2c.8,0,1.2.2,1.2.6,0,.4-.4.5-1.2.5h-4.9c-1.1,0-1.7.6-1.7,1.8v.8c0,1.3.5,1.9,1.6,1.9h3.5c1.7,0,2.6.7,2.6,2v3.2c0,1.3-.8,2-2.5,2h-6.2c-.8,0-1.2-.2-1.2-.6,0-.4.4-.5,1.2-.5h5c1.1,0,1.6-.5,1.6-1.6v-1.4c0-1.3-.6-2-1.7-2h-3.5ZM63,454c0-.4.4-.6,1.1-.6h7.6c.7,0,1.1.2,1.1.6,0,.4-.4.6-1.1.6h-1.1c-1.1,0-1.7.5-1.7,1.6v8.8c0,1-.4,1.6-1.1,1.6-.7,0-1-.5-1-1.6v-8.8c0-1-.6-1.6-1.7-1.6h-1c-.8,0-1.1-.2-1.1-.6ZM76.5,465.2h2.1c1.2,0,1.8-.6,1.8-1.8v-7.1c0-1.1-.6-1.7-1.8-1.7h-2c-1.2,0-1.8.6-1.8,1.7v7.2c0,1.1.6,1.7,1.8,1.7ZM82.5,464.3c0,1.4-.8,2-2.4,2h-5c-1.6,0-2.4-.7-2.4-2.1v-8.7c0-1.4.8-2.1,2.4-2.1h5c1.6,0,2.5.7,2.5,2.1v8.7ZM90.6,458.3c.4-.4.6-.9.6-1.6v-.7c0-.4-.2-.8-.4-1-.2-.2-.6-.4-1-.4h-2.5c-1.2,0-1.7.7-1.7,2v.8c0,1.3.6,2,1.7,2h.9c.7,0,1.2-.2,1.6-.6l.9-.7ZM92.2,466.5c-.7,0-1-.4-1-1.3v-2.1c0-.2,0-.3-.2-.5-.1-.2-.3-.4-.5-.6l-.9-.7c-.5-.4-.9-.6-1.3-.6h-1.1c-1.1,0-1.7.6-1.7,1.7v2.7c0,.9-.4,1.4-1.1,1.4-.7,0-1-.5-1-1.5v-9.3c0-1.5.8-2.2,2.3-2.2h5c1.7,0,2.6.7,2.6,2.1v2c-.1.6-.5,1.2-1.3,1.8-.3.2-.5.5-.5.7,0,.2.1.5.4.8.8.8,1.2,1.4,1.3,1.9v2.4c0,.9-.4,1.3-1.1,1.3ZM100.2,465.3c1.1,0,1.6-.5,1.6-1.6v-1.7c0-1-.6-1.6-1.7-1.6h-3.7c-1.6,0-2.3-.6-2.3-1.9v-3.9c0-.9.4-1.3,1.1-1.3.7,0,1,.5,1,1.4v3c0,1.1.6,1.6,1.8,1.6h2.1c1.2,0,1.8-.5,1.8-1.6v-3c0-.9.4-1.3,1.1-1.3.7,0,1.1.4,1.1,1.3v9.7c0,1.3-.9,1.9-2.4,1.9h-6.7c-.6,0-.9-.2-.9-.6,0-.4.3-.5.9-.5h5.2ZM103.7,454.1c0-.4.4-.6,1.1-.6h7.6c.7,0,1.1.2,1.1.6,0,.4-.4.6-1.1.6h-1.1c-1.1,0-1.7.5-1.7,1.6v8.8c0,1-.4,1.6-1.1,1.6-.7,0-1-.5-1-1.6v-8.8c0-1-.6-1.6-1.7-1.6h-1c-.8,0-1.1-.2-1.1-.6ZM117.4,465.3h4.9c.6,0,1,.2,1,.6,0,.4-.3.5-.9.5h-6.5c-1.6,0-2.4-.7-2.4-2v-8.9c0-1.4.8-2,2.4-2h6.5c.6,0,.9.2.9.6,0,.4-.3.6-1,.6h-4.9c-1.3,0-1.9.5-1.9,1.5v1.3c0,1.1.6,1.6,1.8,1.6h4.9c.7,0,1,.2,1,.5,0,.4-.3.6-1,.6h-5c-1.2,0-1.8.5-1.8,1.6v1.9c0,1,.6,1.5,1.9,1.5ZM125.4,463.5c0,1.2.6,1.8,1.7,1.8h4.3c.8,0,1.1.2,1.1.6,0,.4-.4.5-1.1.5h-5.7c-1.6,0-2.4-.7-2.4-2.1v-9.4c0-1,.4-1.5,1.1-1.5.7,0,1.1.5,1.1,1.6v8.5ZM134.3,463.5c0,1.2.6,1.8,1.7,1.8h4.3c.8,0,1.1.2,1.1.6,0,.4-.4.5-1.1.5h-5.7c-1.6,0-2.4-.7-2.4-2.1v-9.4c0-1,.4-1.5,1.1-1.5.7,0,1.1.5,1.1,1.6v8.5ZM142.5,466.5c-.7,0-1-.5-1-1.5v-10.2c0-.9.3-1.4,1-1.4.7,0,1,.5,1,1.4v10.2c0,1-.3,1.5-1,1.5ZM151.7,463c.3.6.5.9.6.9.1,0,.2-.2.2-.5v-8c0-1.2.4-1.8,1.1-1.8.7,0,1.1.5,1.1,1.5v9.5c0,1.4-.7,2.2-2,2.2-.6,0-1.1-.5-1.6-1.4l-3.5-8.1c-.3-.4-.4-.6-.5-.6-.1,0-.2.2-.2.7v7.7c0,1.1-.4,1.6-1.1,1.6-.7,0-1.1-.5-1.1-1.4v-9.5c0-1.5.7-2.2,2-2.2.5,0,1,.5,1.6,1.5l3.5,8.1ZM164.1,454.8h-4.9c-1.1,0-1.7.6-1.7,1.7v7.2c0,1.1.6,1.7,1.8,1.7h2.1c1.2,0,1.8-.7,1.8-2.1v-1.7c0-.8-.5-1.2-1.4-1.2h-1.4c-.8,0-1.1-.2-1.1-.6,0-.4.4-.6,1.1-.6h2.7c1.5,0,2.2.6,2.2,1.9v3.4c0,1.3-.8,2-2.5,2h-5c-1.6,0-2.4-.7-2.4-2.1v-8.6c0-1.5.8-2.2,2.4-2.2h6.3c.8,0,1.1.2,1.1.6,0,.4-.4.6-1.2.6ZM168.6,464.9c0,.8,0,1.4-.1,1.8,0,.4-.2.8-.3,1-.2.2-.3.3-.5.4-.2,0-.4,0-.6,0-.2,0-.4-.1-.4-.3,0,0,0-.1.1-.1,0,0,.2,0,.3-.2.1,0,.2-.2.3-.4.1-.2.2-.4.2-.7v-.4s-.1,0-.1,0c-.8,0-1.1-.4-1.1-1.1,0-.8.4-1.1,1.2-1.1.8,0,1.1.4,1.1,1.1ZM178.2,465.4h2.1c1.2,0,1.8-.6,1.8-1.8v-7.1c0-1.1-.6-1.7-1.8-1.7h-2c-1.2,0-1.8.6-1.8,1.7v7.2c0,1.1.6,1.7,1.8,1.7ZM184.2,464.5c0,1.4-.8,2-2.4,2h-5c-1.6,0-2.4-.7-2.4-2.1v-8.7c0-1.4.8-2.1,2.4-2.1h5c1.6,0,2.5.7,2.5,2.1v8.7ZM192.3,458.5c.4-.4.6-.9.6-1.6v-.7c0-.4-.2-.8-.4-1-.2-.2-.6-.4-1-.4h-2.5c-1.2,0-1.7.7-1.7,2v.8c0,1.3.6,2,1.7,2h.9c.7,0,1.2-.2,1.6-.6l.9-.7ZM193.9,466.7c-.7,0-1-.4-1-1.3v-2.1c0-.2,0-.3-.2-.5-.1-.2-.3-.4-.5-.6l-.9-.7c-.5-.4-.9-.6-1.3-.6h-1.1c-1.1,0-1.7.6-1.7,1.7v2.7c0,.9-.4,1.4-1.1,1.4-.7,0-1-.5-1-1.5v-9.3c0-1.5.8-2.2,2.3-2.2h5c1.7,0,2.6.7,2.6,2.1v2c-.1.6-.5,1.2-1.3,1.8-.3.2-.5.5-.5.7,0,.2.1.5.4.8.8.8,1.2,1.4,1.3,1.9v2.4c0,.9-.4,1.3-1.1,1.3ZM200.9,465.4c1.1,0,1.7-.5,1.7-1.6v-8.7c0-1,.4-1.6,1.1-1.6.7,0,1,.5,1,1.5v9.2c0,1.5-.8,2.3-2.4,2.3h-2.1c-.7,0-1-.2-1-.5,0-.4.4-.6,1.1-.6h.6ZM207.8,455.1v8.8c0,1.1.6,1.6,1.8,1.6h2.1c1.2,0,1.7-.5,1.7-1.6v-8.8c0-1,.4-1.6,1.1-1.6.7,0,1,.5,1,1.5v9.4c0,1.4-.9,2.2-2.5,2.2h-4.9c-1.6,0-2.5-.7-2.5-2.1v-9.4c0-1,.4-1.5,1.1-1.5.7,0,1,.5,1,1.6ZM219.1,460.5c-1.7,0-2.6-.7-2.6-2v-2.7c0-1.4.8-2.1,2.4-2.1h6.2c.8,0,1.2.2,1.2.6,0,.4-.4.5-1.2.5h-4.9c-1.1,0-1.7.6-1.7,1.8v.8c0,1.3.5,1.9,1.6,1.9h3.5c1.7,0,2.6.7,2.6,2v3.2c0,1.3-.8,2-2.5,2h-6.2c-.8,0-1.2-.2-1.2-.6,0-.4.4-.5,1.2-.5h4.9c1.1,0,1.6-.5,1.6-1.6v-1.4c0-1.3-.6-2-1.7-2h-3.5ZM226.1,454.3c0-.4.4-.6,1.1-.6h7.6c.7,0,1.1.2,1.1.6,0,.4-.4.6-1.1.6h-1.1c-1.1,0-1.7.5-1.7,1.6v8.8c0,1-.4,1.6-1.1,1.6-.7,0-1-.5-1-1.6v-8.8c0-1-.6-1.6-1.7-1.6h-1c-.8,0-1.1-.2-1.1-.6ZM242.8,460.5c-1.7,0-2.6-.7-2.6-2v-2.7c0-1.4.8-2.1,2.4-2.1h6.2c.8,0,1.2.2,1.2.6,0,.4-.4.5-1.2.5h-4.9c-1.1,0-1.7.6-1.7,1.8v.8c0,1.3.5,1.9,1.6,1.9h3.5c1.7,0,2.6.7,2.6,2v3.2c0,1.3-.8,2-2.5,2h-6.2c-.8,0-1.2-.2-1.2-.6,0-.4.4-.5,1.2-.5h4.9c1.1,0,1.6-.5,1.6-1.6v-1.4c0-1.3-.6-2-1.7-2h-3.5ZM254.8,465.6h2.1c1.2,0,1.8-.6,1.8-1.8v-7.1c0-1.1-.6-1.7-1.8-1.7h-2c-1.2,0-1.8.6-1.8,1.7v7.2c0,1.1.6,1.7,1.8,1.7ZM260.8,464.6c0,1.4-.8,2-2.4,2h-5c-1.6,0-2.4-.7-2.4-2.1v-8.7c0-1.4.8-2.1,2.4-2.1h5c1.6,0,2.5.7,2.5,2.1v8.7ZM267.6,462.3c-.7,0-1-.5-1-1.6,0-.6-.1-1.3-.4-2.1-.3-.8-.7-1.6-1.2-2.4-.2-.3-.3-.5-.5-.6-.2-.1-.3-.2-.4-.2-.2,0-.3.2-.3.5v9.3c0,1-.4,1.4-1.1,1.4-.7,0-1-.5-1-1.4v-9.3c0-1.5.6-2.2,1.8-2.2h.6c.8,0,1.5.5,2.1,1.4l1.5,2.5,1.5-2.5c.3-.4.6-.8.9-1,.3-.3.7-.4,1.2-.4h.6c1.1,0,1.7.7,1.7,2.2v9.3c0,1-.4,1.4-1.1,1.4-.7,0-1-.5-1-1.4v-9.3c0-.3-.2-.5-.3-.5-.2,0-.5.3-.8.8-.5.8-.9,1.6-1.2,2.4-.3.8-.4,1.5-.4,2.1,0,1.1-.4,1.6-1.1,1.6ZM278.5,465.6h4.9c.6,0,1,.2,1,.6,0,.4-.3.5-.9.5h-6.5c-1.6,0-2.4-.7-2.4-2v-8.9c0-1.4.8-2,2.5-2h6.5c.6,0,.9.2.9.6,0,.4-.3.6-1,.6h-4.9c-1.3,0-1.9.5-1.9,1.5v1.3c0,1.1.6,1.6,1.8,1.6h4.9c.7,0,1,.2,1,.5,0,.4-.3.6-1,.6h-5c-1.2,0-1.8.5-1.8,1.6v1.9c0,1,.6,1.5,1.9,1.5ZM288.3,465.6h2.1c1.2,0,1.8-.6,1.8-1.8v-7.1c0-1.1-.6-1.7-1.8-1.7h-2c-1.2,0-1.8.6-1.8,1.7v7.2c0,1.1.6,1.7,1.8,1.7ZM294.3,464.7c0,1.4-.8,2-2.4,2h-5c-1.6,0-2.4-.7-2.4-2.1v-8.7c0-1.4.8-2.1,2.4-2.1h5c1.6,0,2.5.7,2.5,2.1v8.7ZM302.1,463.3c.3.6.5.9.6.9,0,0,.2-.2.2-.5v-8c0-1.2.4-1.8,1.1-1.8.7,0,1.1.5,1.1,1.5v9.5c0,1.4-.7,2.2-2,2.2-.6,0-1.1-.5-1.6-1.4l-3.5-8.1c-.3-.4-.4-.6-.5-.6-.1,0-.2.2-.2.7v7.7c0,1.1-.4,1.6-1.1,1.6-.7,0-1.1-.5-1.1-1.4v-9.5c0-1.5.7-2.2,2-2.2.5,0,1,.5,1.6,1.5l3.5,8.1ZM309.9,465.7h4.9c.6,0,1,.2,1,.6,0,.4-.3.5-.9.5h-6.5c-1.6,0-2.4-.7-2.4-2v-8.8c0-1.4.8-2,2.5-2h6.5c.6,0,.9.2.9.6,0,.4-.3.6-1,.6h-4.9c-1.3,0-1.9.5-1.9,1.5v1.3c0,1.1.6,1.6,1.8,1.6h4.9c.7,0,1,.2,1,.5,0,.4-.3.6-1,.6h-5c-1.2,0-1.8.5-1.8,1.6v1.9c0,1,.6,1.5,1.9,1.5ZM319.2,454.5c0-.4.4-.6,1.1-.6h7.6c.7,0,1.1.2,1.1.6,0,.4-.4.6-1.1.6h-1.1c-1.1,0-1.7.5-1.7,1.6v8.8c0,1-.4,1.6-1.1,1.6-.7,0-1-.5-1-1.6v-8.8c0-1-.6-1.6-1.7-1.6h-1c-.8,0-1.1-.2-1.1-.6ZM332.7,465.7h2.1c1.2,0,1.8-.6,1.8-1.8v-7.1c0-1.1-.6-1.7-1.8-1.7h-2c-1.2,0-1.8.6-1.8,1.7v7.2c0,1.1.6,1.7,1.8,1.7ZM338.7,464.8c0,1.4-.8,2-2.4,2h-5c-1.6,0-2.4-.7-2.4-2.1v-8.7c0-1.4.8-2.1,2.4-2.1h5c1.6,0,2.5.7,2.5,2.1v8.7ZM351.8,464.1c0-.2,0-.4.2-.5.2-.1.4-.2.8-.2.7,0,1,.3,1,1v.5c0,1.3-.8,2-2.3,2h-5.4c-1.5,0-2.2-.7-2.2-2.1v-8.6c0-1.5.8-2.2,2.2-2.2h5.4c1.5,0,2.3.7,2.3,2v.5c0,.7-.4,1.1-1.1,1.1-.7,0-1-.2-1-.7,0-1.1-.6-1.7-1.8-1.7h-2c-1.2,0-1.8.5-1.8,1.6v7.5c0,1,.6,1.5,1.8,1.5h2.1c1.2,0,1.8-.5,1.8-1.6ZM362.5,465.5v-3.2c0-1-.6-1.6-1.8-1.6h-2c-1.2,0-1.8.5-1.8,1.6v3.1c0,1-.4,1.5-1.1,1.5-.7,0-1-.5-1-1.4v-10.3c0-.9.4-1.4,1.1-1.4.7,0,1.1.5,1.1,1.5v2.6c0,1.1.6,1.6,1.8,1.6h2.1c1.2,0,1.7-.5,1.7-1.6v-2.6c0-1,.4-1.5,1.1-1.5.7,0,1.1.5,1.1,1.4v10.3c0,.9-.4,1.4-1.1,1.4-.7,0-1-.5-1-1.5ZM371.4,455.2h-2c-1.2,0-1.8.6-1.8,1.9v1.1c0,1.2.6,1.8,1.8,1.8h2.1c1.2,0,1.8-.7,1.8-2.2v-1.1c0-1-.6-1.5-1.8-1.5ZM373.3,465.3v-2.6c0-1-.6-1.5-1.8-1.5h-2c-1.2,0-1.8.5-1.8,1.5v2.7c0,1-.4,1.6-1.1,1.6-.7,0-1-.5-1-1.4v-9.3c0-1.4.8-2.2,2.2-2.2h5.2c1.7,0,2.5.7,2.5,2.2v9.2c0,1-.4,1.4-1.1,1.4-.7,0-1-.5-1-1.6ZM375.1,454.6c0-.4.4-.6,1.1-.6h7.6c.7,0,1.1.2,1.1.6,0,.4-.4.6-1.1.6h-1.1c-1.1,0-1.7.5-1.7,1.6v8.8c0,1-.4,1.6-1.1,1.6-.7,0-1-.5-1-1.6v-8.8c0-1-.6-1.6-1.7-1.6h-1c-.8,0-1.1-.2-1.1-.6ZM55.5,493.8v3.1c0,1.1-.4,1.6-1.1,1.6-.7,0-1.1-.5-1.1-1.5v-9.3c0-1.5.9-2.2,2.5-2.2h5.2c1.5,0,2.3.7,2.3,2v2.8c0,1.4-.8,2.1-2.3,2.1h-3.7c-1.1,0-1.7.5-1.7,1.4ZM59.3,486.6h-2c-1.2,0-1.8.7-1.8,2v.9c0,1.2.6,1.7,1.8,1.7h2.1c1.2,0,1.8-.7,1.8-2.1v-.9c0-1.1-.6-1.6-1.8-1.6ZM64.8,498.4c-.7,0-1-.5-1-1.5v-10.2c0-.9.3-1.4,1-1.4.7,0,1,.5,1,1.4v10.2c0,1-.3,1.5-1,1.5ZM72.2,494.2c-.1-.1-.3-.2-.4-.2-.1,0-.2,0-.4.2l-2.3,3.4c-.5.6-1,.9-1.3.9-.2,0-.4,0-.5-.3-.2-.2-.2-.4-.2-.5,0-.2,0-.3.1-.5.1-.2.2-.3.3-.5l2.4-3.6c.4-.6.6-1.1.6-1.5,0-.5-.2-.9-.7-1.4l-2.3-3.2c-.1-.2-.2-.3-.3-.5,0-.2-.1-.3-.1-.5,0-.2,0-.4.2-.5.1-.2.3-.3.5-.3.4,0,.8.3,1.3.9l2.3,3.1c0,.1.2.2.4.2,0,0,.2,0,.4-.2l2.3-3.1c.5-.6.9-.9,1.3-.9.2,0,.4.1.5.3.1.2.2.4.2.6,0,.2,0,.3,0,.4,0,.1-.2.3-.3.5l-2.3,3.2c-.5.5-.7.9-.7,1.4,0,.5.2,1,.7,1.5l2.3,3.6c.1.2.2.4.3.5,0,.1.1.3,0,.4,0,.2,0,.4-.2.6-.2.2-.3.2-.5.2-.4,0-.8-.3-1.3-.9l-2.3-3.5ZM81.7,497.2h4.9c.6,0,1,.2,1,.6,0,.4-.3.5-.9.5h-6.5c-1.6,0-2.4-.7-2.4-2v-8.8c0-1.4.8-2,2.4-2h6.5c.6,0,.9.2.9.6,0,.4-.3.6-1,.6h-4.9c-1.3,0-1.9.5-1.9,1.5v1.3c0,1.1.6,1.6,1.8,1.6h5c.7,0,1,.2,1,.5,0,.4-.3.6-1,.6h-5c-1.2,0-1.8.5-1.8,1.6v1.9c0,1,.6,1.5,1.9,1.5ZM89.7,495.4c0,1.2.6,1.8,1.7,1.8h4.3c.8,0,1.1.2,1.1.6,0,.4-.4.5-1.1.5h-5.7c-1.6,0-2.4-.7-2.4-2.1v-9.4c0-1,.4-1.5,1.1-1.5.7,0,1.1.5,1.1,1.6v8.5ZM99.2,492.3c-1.7,0-2.6-.7-2.6-2v-2.7c0-1.4.8-2.1,2.4-2.1h6.2c.8,0,1.2.2,1.2.6,0,.4-.4.5-1.2.5h-4.9c-1.1,0-1.7.6-1.7,1.8v.8c0,1.3.5,1.9,1.6,1.9h3.5c1.7,0,2.6.7,2.6,2v3.2c0,1.3-.8,2-2.5,2h-6.2c-.8,0-1.2-.2-1.2-.6,0-.4.4-.5,1.2-.5h4.9c1.1,0,1.6-.5,1.6-1.6v-1.4c0-1.3-.6-2-1.7-2h-3.5ZM117.8,486.7h-2c-1.2,0-1.8.6-1.8,1.9v1.1c0,1.2.6,1.8,1.8,1.8h2.1c1.2,0,1.8-.7,1.8-2.2v-1.1c0-1-.6-1.5-1.8-1.5ZM119.6,496.8v-2.6c0-1-.6-1.5-1.8-1.5h-2c-1.2,0-1.8.5-1.8,1.5v2.7c0,1-.4,1.6-1.1,1.6-.7,0-1-.5-1-1.4v-9.3c0-1.4.8-2.2,2.2-2.2h5.2c1.7,0,2.5.7,2.5,2.2v9.2c0,1-.4,1.4-1.1,1.4-.7,0-1-.5-1-1.6ZM129.6,495c.3.6.5.9.6.9.1,0,.2-.2.2-.5v-8c0-1.2.4-1.8,1.1-1.8.7,0,1.1.5,1.1,1.5v9.5c0,1.4-.7,2.2-2,2.2-.6,0-1.1-.5-1.6-1.4l-3.5-8.1c-.3-.4-.4-.6-.5-.6-.1,0-.2.2-.2.7v7.7c0,1.1-.4,1.6-1.1,1.6-.7,0-1.1-.5-1.1-1.4v-9.5c0-1.5.7-2.2,2-2.2.5,0,1,.5,1.6,1.5l3.5,8.1ZM142.5,487.4c.2.2.4.5.5.8.1.3.2.7.2,1.2v5.3c0,.5,0,.9-.2,1.3-.1.3-.3.6-.5.8l-1,1.1c-.2.2-.5.3-.8.4-.4,0-.8.1-1.2.1h-3.7c-1.6,0-2.4-.8-2.4-2.3v-8.3c0-1.6.8-2.3,2.4-2.3h3.6c1,0,1.6.3,2.1.6l.5.6.6.6ZM137.2,486.8c-1.2,0-1.8.6-1.8,1.7v7.2c0,1.1.6,1.7,1.8,1.7h.7c.9,0,1.6-.2,2-.5l.4-.4c.5-.5.7-1.1.7-1.9v-5.1c0-.3-.1-.6-.2-.9s-.3-.6-.6-.9l-.3-.3c-.2-.2-.5-.4-.8-.5-.3,0-.7-.2-1-.2h-.9ZM151.7,492.7c-.7,0-1.1.5-1.1,1.5v3c0,1.1-.4,1.6-1.1,1.6-.7,0-1.1-.5-1.1-1.5v-10.4c0-1,.4-1.5,1.1-1.5.7,0,1,.5,1,1.6v2.7c0,1,.4,1.6,1.2,1.6.4,0,.9-.4,1.6-1.2l2-3.6c.4-.7.8-1,1.2-1,.3,0,.5.1.6.4.1.2.2.4.2.6,0,.2,0,.4-.1.6l-2.9,4.7c-.2.2-.3.3-.3.5,0,.3,0,.4.2.6l2.8,4.5c.1.3.2.5.2.6,0,.2,0,.4-.3.7-.2.2-.4.3-.6.3-.4,0-.7-.3-1.1-.9l-2.6-4.2c-.2-.3-.4-.5-.6-.7-.2-.2-.3-.3-.4-.3ZM162.5,497.4h4.9c.6,0,1,.2,1,.6,0,.4-.3.5-.9.5h-6.5c-1.6,0-2.4-.7-2.4-2v-8.8c0-1.4.8-2,2.4-2h6.5c.6,0,.9.2.9.6,0,.4-.3.6-1,.6h-4.9c-1.3,0-1.9.5-1.9,1.5v1.3c0,1.1.6,1.6,1.8,1.6h4.9c.7,0,1,.2,1,.5,0,.4-.3.6-1,.6h-5c-1.2,0-1.8.5-1.8,1.6v1.9c0,1,.6,1.5,1.9,1.5ZM174.5,497.4c1.1,0,1.6-.5,1.6-1.6v-1.7c0-1-.6-1.6-1.7-1.6h-3.7c-1.6,0-2.3-.6-2.3-1.9v-3.9c0-.9.4-1.3,1.1-1.3.7,0,1,.5,1,1.4v3c0,1.1.6,1.6,1.8,1.6h2.1c1.2,0,1.8-.5,1.8-1.6v-3c0-.9.4-1.3,1.1-1.3.7,0,1.1.4,1.1,1.3v9.7c0,1.3-.9,1.9-2.4,1.9h-6.7c-.6,0-.9-.2-.9-.6,0-.4.3-.5.9-.5h5.2ZM181.2,497.2c0,1-.4,1.6-1.1,1.6-.7,0-1-.5-1-1.5v-9.6c0-1.3.8-2,2.5-2h6.3c.8,0,1.2.2,1.2.6,0,.4-.4.6-1.2.6h-4.9c-1.1,0-1.7.6-1.7,1.7v.9c0,1.2.5,1.8,1.6,1.8h4.9c.8,0,1.2.2,1.2.5,0,.4-.3.7-1,.7h-5.1c-1.1,0-1.7.5-1.7,1.5v3.3ZM196,490.5c.4-.4.6-.9.6-1.6v-.7c0-.4-.2-.8-.4-1-.2-.2-.6-.4-1-.4h-2.5c-1.2,0-1.7.7-1.7,2v.8c0,1.3.6,2,1.7,2h.9c.7,0,1.2-.2,1.6-.6l.9-.7ZM197.7,498.7c-.7,0-1-.4-1-1.3v-2.1c0-.2,0-.3-.2-.5-.1-.2-.3-.4-.5-.6l-.9-.7c-.5-.4-.9-.6-1.3-.6h-1.1c-1.1,0-1.7.6-1.7,1.7v2.7c0,.9-.4,1.4-1.1,1.4-.7,0-1-.5-1-1.5v-9.3c0-1.5.8-2.2,2.3-2.2h5c1.7,0,2.6.7,2.6,2.1v2c-.1.6-.5,1.2-1.3,1.8-.3.2-.5.5-.5.7,0,.2.1.5.4.8.8.8,1.2,1.4,1.3,1.9v2.4c0,.9-.4,1.3-1.1,1.3ZM205.5,486.9h-2c-1.2,0-1.8.6-1.8,1.9v1.1c0,1.2.6,1.8,1.8,1.8h2.1c1.2,0,1.8-.7,1.8-2.2v-1.1c0-1-.6-1.5-1.8-1.5ZM207.3,497v-2.6c0-1-.6-1.5-1.8-1.5h-2c-1.2,0-1.8.5-1.8,1.5v2.7c0,1-.4,1.6-1.1,1.6-.7,0-1-.5-1-1.4v-9.3c0-1.4.8-2.2,2.2-2.2h5.2c1.7,0,2.5.7,2.5,2.2v9.2c0,1-.4,1.4-1.1,1.4-.7,0-1-.5-1-1.6ZM216.2,494.3c-.7,0-1-.5-1-1.6,0-.6-.1-1.3-.4-2.1-.3-.8-.7-1.6-1.2-2.4-.2-.3-.3-.5-.5-.6-.2-.1-.3-.2-.4-.2-.2,0-.3.2-.3.5v9.3c0,1-.4,1.4-1.1,1.4-.7,0-1-.5-1-1.4v-9.3c0-1.5.6-2.2,1.8-2.2h.6c.8,0,1.5.5,2.1,1.4l1.5,2.5,1.5-2.5c.3-.4.6-.8.9-1,.3-.3.7-.4,1.2-.4h.6c1.1,0,1.7.7,1.7,2.2v9.3c0,1-.4,1.4-1.1,1.4-.7,0-1-.5-1-1.4v-9.3c0-.3-.2-.5-.3-.5-.2,0-.5.3-.8.8-.5.8-.9,1.6-1.2,2.4-.3.8-.4,1.5-.4,2.1,0,1.1-.4,1.6-1.1,1.6ZM227.1,497.5h4.9c.6,0,1,.2,1,.6,0,.4-.3.5-.9.5h-6.5c-1.6,0-2.4-.7-2.4-2v-8.9c0-1.4.8-2,2.4-2h6.5c.6,0,.9.2.9.6,0,.4-.3.6-1,.6h-4.9c-1.3,0-1.9.5-1.9,1.5v1.3c0,1.1.6,1.6,1.8,1.6h5c.7,0,1,.2,1,.5,0,.4-.3.6-1,.6h-5c-1.2,0-1.8.5-1.8,1.6v1.9c0,1,.6,1.5,1.9,1.5ZM235.6,492.5c-1.7,0-2.6-.7-2.6-2v-2.7c0-1.4.8-2.1,2.4-2.1h6.2c.8,0,1.2.2,1.2.6,0,.4-.4.5-1.2.5h-4.9c-1.1,0-1.7.6-1.7,1.8v.8c0,1.3.5,1.9,1.6,1.9h3.5c1.7,0,2.6.7,2.6,2v3.2c0,1.3-.8,2-2.5,2h-6.2c-.8,0-1.2-.2-1.2-.6,0-.4.4-.5,1.2-.5h5c1.1,0,1.6-.5,1.6-1.6v-1.4c0-1.3-.6-2-1.7-2h-3.5ZM254.2,496.5h0c-.2,0-.5.2-.8.6l-.3.4c-.3.4-.6.7-.8.9-.2.2-.4.2-.5.3h-.7c-.2,0-.4,0-.6-.2-.2-.2-.4-.4-.6-.8l-1.4-2.7c-.2-.3-.3-.8-.4-1.3,0-.5-.1-1.1-.1-1.8v-4.8c0-1,.3-1.5,1-1.5.7,0,1,.5,1,1.5v6.2c0,.3,0,.6,0,.9,0,.3.1.5.2.6l.8,1.4c.1.3.3.4.4.4,0,0,.3-.1.5-.4l.8-1.3c.3-.5.4-1.1.4-1.7v-6c0-1,.4-1.5,1.1-1.5.7,0,1,.5,1,1.5v6c0,0,0,.2,0,.4,0,.5.1,1,.4,1.4l.7,1.3c.1.3.3.4.4.4.2,0,.3-.1.5-.4l.7-1.4c0-.3.2-.5.2-.7,0-.2.1-.5.1-.7v-6.2c0-1,.3-1.5,1-1.5.7,0,1,.5,1,1.5v4.8c0,.7,0,1.3-.2,1.8-.1.5-.2.9-.4,1.3l-1.4,2.7c-.5.7-.9,1-1.3,1h-.7c-.1,0-.3,0-.5-.3-.2-.2-.4-.5-.7-.9l-.3-.5c-.3-.4-.5-.6-.7-.6ZM262.3,498.7c-.7,0-1-.5-1-1.5v-10.2c0-.9.3-1.4,1-1.4.7,0,1,.5,1,1.4v10.2c0,1-.3,1.5-1,1.5ZM263.4,486.4c0-.4.4-.6,1.1-.6h7.6c.7,0,1.1.2,1.1.6,0,.4-.4.6-1.1.6h-1.1c-1.1,0-1.7.5-1.7,1.6v8.8c0,1-.4,1.6-1.1,1.6-.7,0-1-.5-1-1.6v-8.8c0-1-.6-1.6-1.7-1.6h-1c-.8,0-1.1-.2-1.1-.6ZM280.7,497.3v-3.1c0-1-.6-1.6-1.8-1.6h-2c-1.2,0-1.8.5-1.8,1.6v3.1c0,1-.4,1.5-1.1,1.5-.7,0-1-.5-1-1.4v-10.3c0-.9.4-1.4,1.1-1.4.7,0,1.1.5,1.1,1.5v2.6c0,1.1.6,1.6,1.8,1.6h2.1c1.2,0,1.7-.5,1.7-1.6v-2.6c0-1,.4-1.5,1.1-1.5.7,0,1.1.5,1.1,1.4v10.3c0,.9-.4,1.4-1.1,1.4-.7,0-1-.5-1-1.5ZM286.3,497.1c0,.8,0,1.4-.1,1.8,0,.4-.2.8-.3,1-.2.2-.3.3-.5.4-.2,0-.4,0-.6,0-.2,0-.4-.1-.4-.3,0,0,0-.1.1-.1,0,0,.2,0,.3-.2.1,0,.2-.2.3-.4.1-.2.2-.4.2-.7v-.4s-.1,0-.1,0c-.8,0-1.1-.4-1.1-1.1,0-.8.4-1.1,1.2-1.1.8,0,1.1.4,1.1,1.1ZM301.2,487.7c.2.2.4.5.5.8.1.3.2.7.2,1.2v5.3c0,.5,0,.9-.2,1.3-.1.3-.3.6-.5.8l-1,1.1c-.2.2-.5.3-.8.4-.4,0-.8.1-1.2.1h-3.7c-1.6,0-2.4-.8-2.4-2.3v-8.3c0-1.6.8-2.3,2.4-2.3h3.6c1,0,1.6.3,2.1.6l.5.6.6.6ZM295.8,487c-1.2,0-1.8.6-1.8,1.7v7.2c0,1.1.6,1.7,1.8,1.7h.7c.9,0,1.6-.2,2-.5l.4-.4c.5-.5.7-1.1.7-1.9v-5.1c0-.3-.1-.6-.2-.9-.1-.3-.3-.6-.6-.9l-.3-.3c-.2-.2-.5-.4-.8-.5-.3,0-.7-.2-1.1-.2h-.9ZM309.9,490.7c.4-.4.6-.9.6-1.6v-.7c0-.4-.2-.8-.4-1-.2-.2-.6-.4-1-.4h-2.5c-1.2,0-1.7.7-1.7,2v.8c0,1.3.6,2,1.7,2h.9c.7,0,1.2-.2,1.6-.6l.9-.7ZM311.5,498.9c-.7,0-1-.4-1-1.3v-2.1c0-.2,0-.3-.2-.5-.1-.2-.3-.4-.5-.6l-.9-.7c-.5-.4-.9-.6-1.3-.6h-1.1c-1.1,0-1.7.6-1.7,1.7v2.7c0,.9-.4,1.4-1.1,1.4-.7,0-1-.5-1-1.5v-9.3c0-1.5.8-2.2,2.3-2.2h5c1.7,0,2.6.7,2.6,2.1v2c-.1.6-.5,1.2-1.3,1.8-.3.2-.5.5-.5.7,0,.2.1.5.4.8.8.8,1.2,1.4,1.3,1.9v2.4c0,.9-.4,1.3-1.1,1.3ZM317.3,497.7h2.1c1.2,0,1.8-.6,1.8-1.8v-7.1c0-1.1-.6-1.7-1.8-1.7h-2c-1.2,0-1.8.6-1.8,1.7v7.2c0,1.1.6,1.7,1.8,1.7ZM323.3,496.8c0,1.4-.8,2-2.4,2h-5c-1.6,0-2.4-.7-2.4-2.1v-8.7c0-1.4.8-2.1,2.4-2.1h5c1.6,0,2.5.7,2.5,2.1v8.7ZM326.3,494.3v3.1c0,1.1-.4,1.6-1.1,1.6-.7,0-1.1-.5-1.1-1.5v-9.3c0-1.5.9-2.2,2.5-2.2h5.2c1.5,0,2.3.7,2.3,2v2.8c0,1.4-.8,2.1-2.3,2.1h-3.8c-1.1,0-1.7.5-1.7,1.4ZM330.1,487.1h-2c-1.2,0-1.8.7-1.8,2v.9c0,1.2.6,1.7,1.8,1.7h2.1c1.2,0,1.8-.7,1.8-2.1v-.9c0-1.1-.6-1.6-1.8-1.6ZM344.7,494.5c-.7,0-1-.5-1-1.6,0-.6-.1-1.3-.4-2.1-.3-.8-.7-1.6-1.2-2.4-.2-.3-.3-.5-.5-.6-.2-.1-.3-.2-.4-.2-.2,0-.3.2-.3.5v9.3c0,1-.4,1.4-1.1,1.4-.7,0-1-.5-1-1.4v-9.3c0-1.5.6-2.2,1.8-2.2h.6c.8,0,1.5.5,2.1,1.4l1.5,2.5,1.5-2.5c.3-.4.6-.8.9-1,.3-.3.7-.4,1.2-.4h.6c1.1,0,1.7.7,1.7,2.2v9.3c0,1-.4,1.4-1.1,1.4-.7,0-1-.5-1-1.4v-9.3c0-.3-.2-.5-.3-.5-.2,0-.5.3-.8.8-.5.8-.9,1.6-1.2,2.4-.3.8-.4,1.5-.4,2.1,0,1.1-.4,1.6-1.1,1.6ZM355.6,497.7h4.9c.6,0,1,.2,1,.6,0,.4-.3.5-.9.5h-6.5c-1.6,0-2.4-.7-2.4-2v-8.9c0-1.4.8-2,2.4-2h6.5c.6,0,.9.2.9.6,0,.4-.3.6-1,.6h-4.9c-1.3,0-1.9.5-1.9,1.5v1.3c0,1.1.6,1.6,1.8,1.6h4.9c.7,0,1,.2,1,.5,0,.4-.3.6-1,.6h-5c-1.2,0-1.8.5-1.8,1.6v1.9c0,1,.6,1.5,1.9,1.5ZM372,487.2h-2c-1.2,0-1.8.6-1.8,1.9v1.1c0,1.2.6,1.8,1.8,1.8h2.1c1.2,0,1.8-.7,1.8-2.2v-1.1c0-1-.6-1.5-1.8-1.5ZM373.8,497.3v-2.6c0-1-.6-1.5-1.8-1.5h-2c-1.2,0-1.8.5-1.8,1.5v2.7c0,1-.4,1.6-1.1,1.6-.7,0-1-.5-1-1.4v-9.3c0-1.4.8-2.2,2.2-2.2h5.2c1.7,0,2.5.7,2.5,2.2v9.2c0,1-.4,1.4-1.1,1.4-.7,0-1-.5-1-1.6ZM383.3,496c0,1.2.6,1.8,1.7,1.8h4.3c.8,0,1.1.2,1.1.6,0,.4-.4.5-1.1.5h-5.7c-1.6,0-2.4-.7-2.4-2.1v-9.4c0-1,.4-1.5,1.1-1.5.7,0,1.1.5,1.1,1.6v8.5ZM391.5,499c-.7,0-1-.5-1-1.5v-10.2c0-.9.3-1.4,1-1.4.7,0,1,.5,1,1.4v10.2c0,1-.3,1.5-1,1.5ZM400.7,495.5c.3.6.5.9.6.9.1,0,.2-.2.2-.5v-8c0-1.2.4-1.8,1.1-1.8.7,0,1.1.5,1.1,1.5v9.5c0,1.4-.7,2.2-2,2.2-.6,0-1.1-.5-1.6-1.4l-3.5-8.1c-.3-.4-.4-.6-.5-.6-.1,0-.2.2-.2.7v7.7c0,1.1-.4,1.6-1.1,1.6-.7,0-1.1-.5-1.1-1.4v-9.5c0-1.5.7-2.2,2-2.2.5,0,1,.5,1.6,1.5l3.5,8.1ZM408.5,497.8h4.9c.6,0,1,.2,1,.6,0,.4-.3.5-.9.5h-6.5c-1.6,0-2.4-.7-2.4-2v-8.9c0-1.4.8-2,2.4-2h6.5c.6,0,.9.2.9.6,0,.4-.3.6-1,.6h-4.9c-1.3,0-1.9.5-1.9,1.5v1.3c0,1.1.6,1.6,1.8,1.6h5c.7,0,1,.2,1,.5,0,.4-.3.6-1,.6h-5c-1.2,0-1.8.5-1.8,1.6v1.9c0,1,.6,1.5,1.9,1.5ZM415.7,498.3c-.8,0-1.1-.3-1.1-1,0-.8.4-1.1,1.1-1.1.8,0,1.1.4,1.1,1.1,0,.7-.4,1-1.1,1Z"/>
  <path d="M298.1,539.3c0-.4.4-.6,1.1-.6h7.7c.7,0,1.1.2,1.1.6,0,.4-.4.6-1.1.6h-1.1c-1.1,0-1.7.5-1.7,1.6v8.8c0,1-.4,1.6-1.1,1.6-.7,0-1-.5-1-1.6v-8.8c0-1-.6-1.6-1.7-1.6h-1c-.8,0-1.1-.2-1.1-.6ZM313.6,540h-2c-1.2,0-1.8.6-1.8,1.9v1.1c0,1.2.6,1.8,1.8,1.8h2.1c1.2,0,1.8-.7,1.8-2.2v-1.1c0-1-.6-1.5-1.8-1.5ZM315.4,550v-2.6c0-1-.6-1.5-1.8-1.5h-2c-1.2,0-1.8.5-1.8,1.5v2.7c0,1-.4,1.6-1.1,1.6-.7,0-1-.5-1-1.4v-9.3c0-1.4.8-2.2,2.2-2.2h5.2c1.7,0,2.5.7,2.5,2.2v9.2c0,1-.4,1.4-1.1,1.4-.7,0-1-.5-1-1.6ZM320.5,548.7c0,1.2.6,1.8,1.7,1.8h4.3c.8,0,1.1.2,1.1.6,0,.4-.4.5-1.1.5h-5.7c-1.6,0-2.4-.7-2.4-2.1v-9.4c0-1,.4-1.5,1.1-1.5.7,0,1.1.5,1.1,1.6v8.5ZM330.6,545.9c-.7,0-1.1.5-1.1,1.5v3c0,1.1-.4,1.6-1.1,1.6-.7,0-1.1-.5-1.1-1.5v-10.4c0-1,.4-1.5,1.1-1.5.7,0,1,.5,1,1.6v2.7c0,1,.4,1.6,1.2,1.6.4,0,.9-.4,1.6-1.2l2-3.6c.4-.7.8-1,1.2-1,.3,0,.5.1.6.4.1.2.2.4.2.6,0,.2,0,.4-.1.6l-2.9,4.7c-.2.2-.3.4-.3.5,0,.3,0,.4.2.6l2.8,4.5c.1.3.2.5.2.6,0,.2,0,.4-.3.7-.2.2-.4.3-.6.3-.4,0-.7-.3-1.1-.9l-2.6-4.2c-.2-.3-.4-.5-.6-.7-.2-.2-.3-.3-.4-.3ZM344.3,545.6c-1.7,0-2.6-.7-2.6-2v-2.7c0-1.4.8-2.1,2.4-2.1h6.2c.8,0,1.2.2,1.2.6,0,.4-.4.5-1.2.5h-4.9c-1.1,0-1.7.6-1.7,1.8v.8c0,1.3.5,1.9,1.6,1.9h3.5c1.7,0,2.6.7,2.6,2v3.2c0,1.3-.8,2-2.5,2h-6.2c-.8,0-1.2-.2-1.2-.6,0-.4.4-.5,1.2-.5h4.9c1.1,0,1.6-.5,1.6-1.6v-1.4c0-1.3-.6-2-1.7-2h-3.5ZM356.4,550.6h2.1c1.2,0,1.8-.6,1.8-1.8v-7.1c0-1.1-.6-1.7-1.8-1.7h-2c-1.2,0-1.8.6-1.8,1.7v7.2c0,1.1.6,1.7,1.8,1.7ZM362.4,549.7c0,1.4-.8,2-2.4,2h-5c-1.6,0-2.4-.7-2.4-2.1v-8.7c0-1.4.8-2.1,2.4-2.1h5c1.6,0,2.5.7,2.5,2.1v8.7ZM367.1,550.6h2.1c1.2,0,1.8-.6,1.8-1.8v-7.1c0-1.1-.6-1.7-1.8-1.7h-2c-1.2,0-1.8.6-1.8,1.7v7.2c0,1.1.6,1.7,1.8,1.7ZM373.1,549.7c0,1.4-.8,2-2.4,2h-5c-1.6,0-2.4-.7-2.4-2.1v-8.7c0-1.4.8-2.1,2.4-2.1h5c1.6,0,2.5.7,2.5,2.1v8.7ZM380.9,548.3c.3.6.5.9.6.9.1,0,.2-.2.2-.5v-8c0-1.2.4-1.8,1.1-1.8.7,0,1.1.5,1.1,1.5v9.5c0,1.4-.7,2.2-2,2.2-.6,0-1.1-.5-1.6-1.4l-3.5-8.1c-.3-.4-.4-.6-.5-.6-.1,0-.2.2-.2.7v7.7c0,1.1-.4,1.6-1.1,1.6-.7,0-1.1-.5-1.1-1.4v-9.5c0-1.5.7-2.2,2-2.2.5,0,1,.5,1.6,1.5l3.5,8.1ZM387.2,550.1c0,.8,0,1.4-.1,1.8,0,.4-.2.8-.3,1-.2.2-.3.3-.5.4-.2,0-.4,0-.6,0-.2,0-.4-.1-.4-.3,0,0,0-.1.1-.1,0,0,.2,0,.3-.2,0,0,.2-.2.3-.4.1-.2.2-.4.2-.7v-.4s-.1,0-.1,0c-.8,0-1.1-.4-1.1-1.1,0-.8.4-1.1,1.2-1.1.8,0,1.1.4,1.1,1.1ZM351.3,582.6c1.1,0,1.7-.5,1.7-1.6v-8.7c0-1,.4-1.6,1.1-1.6.7,0,1,.5,1,1.5v9.2c0,1.5-.8,2.3-2.4,2.3h-2.1c-.7,0-1-.2-1-.5,0-.4.4-.6,1.1-.6h.6ZM360,582.6h2.1c1.2,0,1.8-.6,1.8-1.8v-7.1c0-1.1-.6-1.7-1.8-1.7h-2c-1.2,0-1.8.6-1.8,1.7v7.2c0,1.1.6,1.7,1.8,1.7ZM366,581.7c0,1.4-.8,2-2.4,2h-5c-1.6,0-2.4-.7-2.4-2.1v-8.7c0-1.4.8-2.1,2.4-2.1h5c1.6,0,2.5.7,2.5,2.1v8.7ZM369.5,577.6c-1.7,0-2.6-.7-2.6-2v-2.7c0-1.4.8-2.1,2.4-2.1h6.2c.8,0,1.2.2,1.2.6,0,.4-.4.5-1.2.5h-4.9c-1.1,0-1.7.6-1.7,1.8v.8c0,1.3.5,1.9,1.6,1.9h3.5c1.7,0,2.6.7,2.6,2v3.2c0,1.3-.8,2-2.5,2h-6.2c-.8,0-1.2-.2-1.2-.6,0-.4.4-.5,1.2-.5h5c1.1,0,1.6-.5,1.6-1.6v-1.4c0-1.3-.6-2-1.7-2h-3.5ZM385.3,582.4v-3.1c0-1-.6-1.6-1.8-1.6h-2c-1.2,0-1.8.5-1.8,1.6v3.2c0,1-.4,1.5-1.1,1.5-.7,0-1-.5-1-1.4v-10.3c0-.9.4-1.4,1.1-1.4.7,0,1.1.5,1.1,1.5v2.6c0,1.1.6,1.6,1.8,1.6h2.1c1.2,0,1.7-.5,1.7-1.6v-2.6c0-1,.4-1.5,1.1-1.5.7,0,1.1.5,1.1,1.4v10.3c0,.9-.4,1.4-1.1,1.4-.7,0-1-.5-1-1.5Z"/>
  <line class="st2" x1="435" y1="66.3" x2="435" y2="575.3"/>
  <line class="st2" x1="790.5" y1="307.8" x2="468.5" y2="307.8"/>
  <line class="st2" x1="790.5" y1="353.8" x2="468.5" y2="353.8"/>
  <line class="st2" x1="790.5" y1="399.8" x2="468.5" y2="399.8"/>
  <line class="st2" x1="790.5" y1="445.8" x2="468.5" y2="445.8"/>
  <line class="st2" x1="790.5" y1="491.8" x2="468.5" y2="491.8"/>
  <rect class="st2" x="672" y="66.8" width="118" height="118"/>
</svg>