<svg width="91" height="15" viewBox="0 0 91 15" fill="none" xmlns="http://www.w3.org/2000/svg">
<path d="M83.1292 3.67612L83.1294 3.88797L88.8541 5.7285L83.1288 8.79507L83.1287 8.99364L88.8545 11.4486L83.1291 12.3683L83.1287 12.4595L90.8317 14.6265L83.1291 14.9172L83.1291 14.9445L82.4378 14.9432L82.4283 14.9449L82.4281 14.9436L7.50182 14.9463L4.23312 14.9466L7.50136 13.3902L1.43228 11.5232L7.50123 10.2787L2.36599 9.65679L7.50141 7.78935L1.4325 6.85611L7.50109 5.69934L7.50173 5.49997L1.43224 4.05607L7.50143 3.18755L7.50181 3.02962L0.0313108 1.56673L7.50069 0.0101294L7.50157 0.0345277L7.5015 0.0106869L82.9224 0.00813574L88.3591 0.00822482L83.1292 3.67612Z" fill="white" fill-opacity="0.5"/>
</svg>
