<svg width="116" height="16" viewBox="0 0 116 16" fill="none" xmlns="http://www.w3.org/2000/svg">
<path d="M105.428 0.96582H105.429L112.334 1.03516L105.653 4.63574L105.651 4.84668L112.904 6.76172L105.602 9.75488L105.6 9.9541L112.847 12.4814L105.565 13.3271L105.564 13.4189L115.326 15.6846L105.54 15.877V15.9033L104.656 15.8936L104.65 15.8945V15.8936L9.4873 14.9355V14.9346L5.33594 14.8936L9.50195 13.3789L1.81348 11.4346L9.5332 10.2676L3.01758 9.58008L9.55859 7.77832L1.86035 6.76758L9.58008 5.68945L9.58203 5.48926L1.88867 3.9668L9.60547 3.17773L9.60645 3.01953L0.134766 1.45996L9.63672 0V0.0244141L9.6377 0L105.428 0.96582Z" fill="white" fill-opacity="0.5"/>
</svg>
