<?xml version="1.0" encoding="utf-8"?>
<!-- Generator: Adobe Illustrator 27.0.0, SVG Export Plug-In . SVG Version: 6.00 Build 0)  -->
<svg version="1.1" id="Layer_1" xmlns="http://www.w3.org/2000/svg" xmlns:xlink="http://www.w3.org/1999/xlink" x="0px" y="0px"
	 viewBox="0 0 156 156" style="enable-background:new 0 0 156 156;" xml:space="preserve">
<style type="text/css">
	.st0{fill:#00DDB3;}
	.st1{fill:#FFFFFF;}
</style>
<path class="st0" d="M156,0H0v156h156V0z"/>
<path class="st1" d="M118.5,34.9c-26.8,0-36.8,19.2-44.8,34.6l-5.2,9.9c-8.5,16.3-14.8,26.3-31.1,26.3c-2,0-4,0.8-5.5,2.3
	c-3,3-3,7.9,0,10.9c0,0,0,0,0,0c1.4,1.4,3.4,2.3,5.4,2.3c26.9,0,36.8-19.2,44.8-34.6l5.2-9.9c8.5-16.3,14.8-26.3,31.1-26.3
	c2,0,4-0.8,5.5-2.3c1.4-1.4,2.3-3.4,2.3-5.5C126.3,38.4,122.8,34.9,118.5,34.9L118.5,34.9z"/>
</svg>
