<svg width="22" height="23" viewBox="0 0 22 23" fill="none" xmlns="http://www.w3.org/2000/svg">
<mask id="mask0_2111_75" style="mask-type:luminance" maskUnits="userSpaceOnUse" x="0" y="0" width="22" height="23">
<path d="M21.9137 0.000244141H0L6.55554e-07 22.0283H21.9137L21.9137 0.000244141Z" fill="white"/>
</mask>
<g mask="url(#mask0_2111_75)">
<path d="M18.3373 26.3146L9.6875 12.0097L13.2366 10.2617L19.4292 25.7447L18.3373 26.3146Z" fill="url(#paint0_linear_2111_75)"/>
<path d="M9.68529 15.8703C13.8607 15.8703 17.2456 12.4855 17.2456 8.31005C17.2456 4.13461 13.8607 0.749756 9.68529 0.749756C5.50986 0.749756 2.125 4.13461 2.125 8.31005C2.125 12.4855 5.50986 15.8703 9.68529 15.8703Z" fill="#30CEAF"/>
<mask id="mask1_2111_75" style="mask-type:luminance" maskUnits="userSpaceOnUse" x="2" y="0" width="16" height="16">
<path d="M9.68529 15.8708C13.8607 15.8708 17.2456 12.486 17.2456 8.31054C17.2456 4.1351 13.8607 0.750244 9.68529 0.750244C5.50986 0.750244 2.125 4.1351 2.125 8.31054C2.125 12.486 5.50986 15.8708 9.68529 15.8708Z" fill="white"/>
</mask>
<g mask="url(#mask1_2111_75)">
<path opacity="0.3" d="M14.6627 8.21846C14.6439 8.59356 14.5921 8.907 14.5098 9.13008C13.1553 12.8076 7.28034 15.2342 5.39451 14.6855C3.50867 14.1367 0.74839 11.0907 1.78426 7.59863" fill="white"/>
<path opacity="0.3" d="M1.78516 7.59858C2.80832 4.14977 4.04044 1.90248 8.96988 0.850609C13.2833 -0.0699543 14.794 5.59226 14.6636 8.21888" fill="white"/>
<path opacity="0.4" d="M7.42452 16.8708C7.26968 16.8708 7.13366 16.8647 6.89599 16.8534C6.81551 16.8497 6.72186 16.8454 6.60938 16.8403L6.67573 15.3356C6.78963 15.3408 6.8847 15.345 6.96659 15.3488C7.27972 15.3636 7.70188 15.3595 8.23307 15.3366C8.73477 15.3149 9.332 15.2514 9.79652 15.1977C10.1777 15.154 10.5782 15.0674 11.0023 14.9756C11.1077 14.953 11.2136 14.9299 11.3195 14.9078C11.5525 14.8589 11.7798 14.8297 11.9996 14.8019C12.3045 14.7633 12.5926 14.7266 12.8222 14.6429C13.2571 14.4843 13.6647 14.2155 14.0784 13.9313C14.4586 13.6701 14.8347 13.383 15.0102 13.054C15.2192 12.6638 15.4051 12.1753 15.6013 11.6581L15.6649 11.4915C15.7788 11.1922 15.848 10.8382 15.9209 10.4631C15.959 10.2664 15.9986 10.0631 16.047 9.85555C16.1765 9.29879 16.2988 8.77309 16.3355 8.23092C16.3784 7.59415 16.3694 7.07786 16.3078 6.60581C16.2452 6.12812 16.1543 5.56806 15.9557 5.03954C15.7722 4.55196 15.4724 4.08132 15.1759 3.64598C15.1279 3.57586 15.0803 3.50479 15.0323 3.43279C14.7688 3.03981 14.5203 2.66894 14.1913 2.35785C13.8727 2.05665 13.4515 1.77991 13.0048 1.48718L12.8519 1.38693L13.6802 0.129395L13.8308 0.228228C14.3344 0.558614 14.8102 0.871116 15.2258 1.2641C15.6771 1.69096 15.999 2.17101 16.2828 2.59458C16.3289 2.6633 16.3746 2.73154 16.4202 2.79884C16.7699 3.31183 17.1262 3.87424 17.3653 4.51054C17.618 5.18261 17.7272 5.84856 17.8011 6.41144C17.8759 6.98467 17.8882 7.59509 17.8383 8.33304C17.7936 8.99664 17.6514 9.60753 17.514 10.1982C17.4721 10.3784 17.4368 10.5601 17.3996 10.7516C17.3177 11.1729 17.233 11.6087 17.0725 12.0289L17.01 12.1937C16.7958 12.7575 16.5934 13.2898 16.3388 13.7656C16.0113 14.3779 15.4691 14.8038 14.9321 15.1728C14.4553 15.5008 13.9391 15.8392 13.339 16.0581C12.9507 16.1997 12.5639 16.2487 12.1902 16.2962C11.9916 16.3216 11.8038 16.3451 11.6306 16.3819C11.527 16.4035 11.4244 16.4261 11.3214 16.4482C10.8804 16.5438 10.4239 16.6421 9.96877 16.6944C9.47931 16.7504 8.84725 16.8181 8.29849 16.8417C7.83209 16.8619 7.61418 16.8708 7.42499 16.8708H7.42452Z" fill="#1D895F"/>
</g>
<path d="M6.12045 2.4907C5.76371 2.89263 5.37496 3.26443 4.97821 3.62588L4.86291 3.43904L5.06246 3.3515C5.24883 3.27102 5.47709 3.17548 5.66534 3.10018L5.77594 3.30114C5.27095 3.64282 4.75655 3.97274 4.21484 4.25465C4.6643 3.84143 5.15 3.4701 5.64322 3.11194L5.75382 3.31291C5.49921 3.42303 5.20694 3.54305 4.94809 3.64423L4.83279 3.45739C5.24742 3.11665 5.67099 2.78532 6.12045 2.49023L6.12045 2.4907Z" fill="white"/>
<path d="M9.0051 1.53516C8.76555 1.74412 8.51846 1.94367 8.26809 2.13945C7.86005 2.16534 7.41624 2.18275 7.00678 2.1931L7.05667 1.98132C7.33999 2.11969 7.63085 2.26699 7.91229 2.41101L7.71838 2.51737C7.68073 2.53808 7.42565 2.67786 7.39506 2.6948C7.1828 2.5955 6.97054 2.49478 6.7597 2.39171L6.80206 2.40113C6.68628 2.39642 6.52344 2.38465 6.40672 2.37665L6.45567 2.22134C6.67593 2.38512 6.89948 2.56208 7.11362 2.73481C6.86183 2.84023 6.61051 2.94612 6.35731 3.04825C6.58086 2.92777 6.80629 2.81105 7.03126 2.69386L7.02655 2.75457L6.85853 2.65856C6.62039 2.52255 6.36531 2.36724 6.13281 2.21899C6.33801 2.21052 6.60157 2.19593 6.80488 2.19122L6.82371 2.19075L6.84724 2.20064C7.04537 2.28488 7.24257 2.37148 7.4393 2.45901L7.33482 2.46325L7.60449 2.31171L7.60826 2.51926C7.27175 2.34936 6.87877 2.14086 6.54274 1.96296C7.09338 1.97002 7.69344 1.97473 8.2422 2.00156L8.20267 2.01426C8.46622 1.8486 8.73307 1.6867 9.0051 1.53516Z" fill="white"/>
</g>
<defs>
<linearGradient id="paint0_linear_2111_75" x1="18.9162" y1="18.0784" x2="10.1331" y2="18.6665" gradientUnits="userSpaceOnUse">
<stop offset="0.5" stop-color="#949494"/>
<stop offset="0.54" stop-color="#9D9D9D"/>
<stop offset="0.75" stop-color="#D2D2D2"/>
<stop offset="0.91" stop-color="#F2F2F2"/>
<stop offset="1" stop-color="white"/>
</linearGradient>
</defs>
</svg>
