<svg width="19" height="17" viewBox="0 0 19 17" fill="none" xmlns="http://www.w3.org/2000/svg">
<mask id="mask0_2111_7" style="mask-type:luminance" maskUnits="userSpaceOnUse" x="0" y="0" width="19" height="17">
<path d="M18.3086 0L0 0L0 16.089H18.3086V0Z" fill="white"/>
</mask>
<g mask="url(#mask0_2111_7)">
<path d="M8.63228 27.0811L7.24219 10.9976H11.0646L9.82185 27.0534L8.63228 27.0811Z" fill="url(#paint0_linear_2111_7)"/>
<path d="M9.35549 15.3261C13.3898 15.3261 16.6602 12.0573 16.6602 8.02509C16.6602 3.99288 13.3898 0.724121 9.35549 0.724121C5.32121 0.724121 2.05078 3.99288 2.05078 8.02509C2.05078 12.0573 5.32121 15.3261 9.35549 15.3261Z" fill="#30CEAF"/>
<mask id="mask1_2111_7" style="mask-type:luminance" maskUnits="userSpaceOnUse" x="2" y="0" width="15" height="16">
<path d="M9.35549 15.3265C13.3898 15.3265 16.6602 12.0578 16.6602 8.02558C16.6602 3.99337 13.3898 0.724609 9.35549 0.724609C5.32121 0.724609 2.05078 3.99337 2.05078 8.02558C2.05078 12.0578 5.32121 15.3265 9.35549 15.3265Z" fill="white"/>
</mask>
<g mask="url(#mask1_2111_7)">
<path opacity="0.3" d="M1.72585 7.33785C2.71442 4.00733 3.90489 1.83713 8.66769 0.82134C13.4305 -0.194906 14.6569 7.09243 14.0212 8.81723C12.7125 12.3686 7.03613 14.712 5.21405 14.1821C3.39196 13.6521 0.724998 10.7106 1.72585 7.33831" fill="white"/>
<path opacity="0.4" d="M7.1743 16.2922C7.0247 16.2922 6.89328 16.2863 6.66365 16.2754C6.58589 16.2718 6.4954 16.2677 6.38672 16.2627L6.45083 14.8097C6.56088 14.8147 6.65273 14.8187 6.73186 14.8224C7.0344 14.8366 7.44229 14.8327 7.95552 14.8106C8.44026 14.7897 9.01731 14.7283 9.46612 14.6765C9.83445 14.6342 10.2214 14.5506 10.6311 14.462C10.733 14.4402 10.8353 14.4179 10.9376 14.3965C11.1627 14.3493 11.3823 14.3211 11.5947 14.2943C11.8894 14.257 12.1676 14.2215 12.3896 14.1406C12.8097 13.9875 13.2035 13.728 13.6032 13.4535C13.9706 13.2012 14.334 12.924 14.5036 12.6063C14.7055 12.2295 14.8851 11.7577 15.0747 11.2583L15.1361 11.0974C15.2461 10.8083 15.313 10.4665 15.3835 10.1043C15.4203 9.91432 15.4585 9.71798 15.5053 9.51755C15.6304 8.97988 15.7486 8.47221 15.7841 7.94864C15.8255 7.33371 15.8168 6.83513 15.7572 6.37927C15.6968 5.91796 15.609 5.37712 15.4171 4.86672C15.2398 4.39587 14.9501 3.94138 14.6636 3.52097C14.6173 3.45325 14.5713 3.38462 14.5249 3.31508C14.2703 2.93558 14.0302 2.57744 13.7123 2.27702C13.4045 1.98615 12.9975 1.71891 12.566 1.43621L12.4182 1.3394L13.2185 0.125L13.364 0.220443C13.8506 0.539497 14.3103 0.84128 14.7118 1.22078C15.1479 1.63301 15.4589 2.09659 15.7331 2.50563C15.7777 2.57199 15.8218 2.63789 15.8659 2.70288C16.2038 3.19828 16.548 3.7414 16.779 4.35587C17.0232 5.00489 17.1287 5.64799 17.2001 6.19157C17.2724 6.74514 17.2842 7.33462 17.236 8.04726C17.1928 8.6881 17.0555 9.27803 16.9227 9.84842C16.8822 10.0225 16.8481 10.1979 16.8122 10.3829C16.7331 10.7897 16.6512 11.2105 16.4962 11.6164L16.4357 11.7755C16.2288 12.3199 16.0333 12.834 15.7873 13.2935C15.4708 13.8848 14.9469 14.2961 14.4281 14.6524C13.9674 14.9692 13.4686 15.296 12.8888 15.5073C12.5137 15.6441 12.1399 15.6914 11.7789 15.7373C11.587 15.7618 11.4055 15.7845 11.2382 15.82C11.1381 15.8409 11.039 15.8627 10.9394 15.8841C10.5134 15.9763 10.0723 16.0713 9.63255 16.1218C9.15963 16.1759 8.54894 16.2413 8.01873 16.264C7.5681 16.2836 7.35756 16.2922 7.17476 16.2922H7.1743Z" fill="#1D895F"/>
</g>
<path d="M5.9115 2.40548C5.56681 2.79362 5.19121 3.15267 4.80788 3.50172L4.69647 3.32129L4.88927 3.23675C5.06934 3.15903 5.28989 3.06677 5.47178 2.99405L5.57864 3.18812C5.09072 3.51808 4.5937 3.83668 4.07031 4.10892C4.50458 3.70988 4.97385 3.35128 5.4504 3.00541L5.55726 3.19948C5.31126 3.30583 5.02887 3.42173 4.77877 3.51945L4.66737 3.33901C5.06798 3.00996 5.47723 2.69 5.9115 2.40503V2.40548Z" fill="white"/>
<path d="M8.69752 1.48315C8.46606 1.68495 8.22733 1.87765 7.98542 2.06672C7.68985 2.08536 7.36108 2.0999 7.06551 2.1099L6.76676 2.11853L6.81496 1.91401C7.0887 2.04763 7.36972 2.18989 7.64165 2.32897C7.50932 2.40168 7.27514 2.52985 7.1419 2.60302C6.93682 2.50713 6.73174 2.40986 6.52802 2.31033L6.56895 2.31942C6.45709 2.31488 6.29975 2.30351 6.18698 2.29579L6.23427 2.1458C6.33477 2.21943 6.43208 2.2967 6.53075 2.37214C6.63488 2.45213 6.7663 2.55894 6.86952 2.64166C6.62624 2.74346 6.38342 2.84572 6.13878 2.94435C6.35477 2.828 6.57259 2.71528 6.78995 2.60212L6.7854 2.66074L6.62306 2.56803C6.39297 2.43668 6.14651 2.2867 5.92188 2.14353L6.1888 2.13172C6.31021 2.12626 6.46936 2.11899 6.58941 2.11626C6.78858 2.2008 6.98684 2.28761 7.18419 2.37532L7.08324 2.37941L7.3438 2.23307L7.34744 2.4335C7.02231 2.26943 6.64261 2.06809 6.31794 1.89629L6.76494 1.9022C7.15191 1.90629 7.57389 1.91538 7.95995 1.93401L7.92176 1.94628C8.1764 1.7863 8.43423 1.62996 8.69706 1.48361L8.69752 1.48315Z" fill="white"/>
</g>
<defs>
<linearGradient id="paint0_linear_2111_7" x1="12.6486" y1="20.1947" x2="4.78667" y2="16.9524" gradientUnits="userSpaceOnUse">
<stop offset="0.5" stop-color="#949494"/>
<stop offset="0.54" stop-color="#9D9D9D"/>
<stop offset="0.75" stop-color="#D2D2D2"/>
<stop offset="0.91" stop-color="#F2F2F2"/>
<stop offset="1" stop-color="white"/>
</linearGradient>
</defs>
</svg>
