<svg width="65" height="10" viewBox="0 0 65 10" fill="none" xmlns="http://www.w3.org/2000/svg">
<path d="M59.5645 0.608398H59.5635L63.3115 0.651367L59.543 2.91406L59.542 3.04785L63.6338 4.25195L59.5137 6.13281L59.5127 6.25977L63.6006 7.84863L59.4932 8.38086V8.43848L65 9.8623L59.4795 9.98242V9.99902L58.998 9.99316L58.9756 9.99414V9.99316L5.61035 9.39355L5.61133 9.39453L2.93457 9.36523L5.28516 8.41309L0.947266 7.19043L5.30371 6.45605L1.62695 6.02344L5.31738 4.8916L0.973633 4.25586L5.33594 3.57617L5.33789 3.45312L0.989258 2.49512L5.35059 1.99707L5.35156 1.89941L0 0.917969L5.36133 0L5.36621 0.21875L5.36914 0L59.5645 0.608398Z" fill="white" fill-opacity="0.5"/>
</svg>
